<?xml version="1.0" standalone="no"?>
<!DOCTYPE svg PUBLIC "-//W3C//DTD SVG 20010904//EN"
 "http://www.w3.org/TR/2001/REC-SVG-20010904/DTD/svg10.dtd">
<svg version="1.0" xmlns="http://www.w3.org/2000/svg"
 width="358.000000pt" height="358.000000pt" viewBox="0 0 358.000000 358.000000"
 preserveAspectRatio="xMidYMid meet">
<metadata>
Created by potrace 1.14, written by Peter Selinger 2001-2017
</metadata>
<g transform="translate(0.000000,358.000000) scale(0.100000,-0.100000)"
fill="#000000" stroke="none">
<path d="M904 3285 c-50 -21 -139 -149 -172 -250 -64 -190 -36 -384 78 -549
l31 -46 -30 -43 c-78 -113 -151 -297 -173 -431 -6 -39 -12 -73 -14 -75 -2 -2
-14 -5 -26 -7 -172 -23 -376 -152 -473 -299 -96 -144 -124 -256 -123 -502 0
-161 1 -175 22 -205 56 -84 172 -81 225 6 12 18 29 32 42 33 11 1 30 10 40 19
29 26 33 47 30 147 -1 31 -30 64 -64 72 -18 5 -27 14 -28 29 -5 84 28 188 84
263 39 53 63 75 124 115 40 26 140 64 148 56 2 -2 7 -19 10 -38 63 -369 309
-691 651 -852 47 -21 85 -46 88 -56 2 -9 7 -46 11 -82 3 -36 8 -85 11 -110 l5
-45 -53 1 c-66 1 -124 -18 -162 -54 -28 -26 -65 -94 -66 -119 0 -10 53 -13
230 -13 l230 0 15 24 c13 19 16 57 16 189 l1 165 27 -5 c42 -8 230 -10 278 -3
23 4 43 4 44 1 1 -3 2 -79 3 -167 2 -221 -21 -204 263 -204 249 0 240 -3 209
71 -29 70 -93 109 -182 113 l-69 2 0 45 c1 24 5 79 9 122 l8 77 97 46 c134 65
232 134 331 233 47 48 92 95 100 106 118 153 210 375 232 554 2 17 10 25 28
28 14 2 41 8 60 13 19 5 37 9 40 9 3 0 34 14 70 32 208 102 339 258 396 471
24 89 28 419 6 463 -33 66 -100 94 -161 69 -46 -19 -78 -49 -85 -80 -4 -14
-20 -37 -37 -52 -27 -24 -31 -35 -33 -82 -3 -68 9 -106 41 -127 22 -15 24 -21
19 -67 -8 -74 -21 -115 -60 -178 -38 -63 -75 -103 -138 -146 -38 -26 -137 -67
-143 -60 -1 2 -10 41 -20 88 -27 139 -92 290 -170 401 l-33 46 39 61 c146 229
122 539 -57 731 -43 46 -55 54 -85 53 -56 -1 -68 -26 -67 -140 0 -144 -37
-267 -112 -371 l-30 -41 -78 40 c-179 91 -331 130 -522 135 -145 4 -230 -6
-353 -40 -107 -30 -186 -63 -278 -117 l-47 -26 -31 44 c-80 111 -120 244 -116
381 3 69 0 87 -16 107 -24 30 -49 37 -85 21z"/>
</g>
</svg>
