<svg width="339" height="282" viewBox="0 0 339 282" fill="none" xmlns="http://www.w3.org/2000/svg">
<path d="M1.5 272C1.5 276.694 5.30558 280.5 10 280.5H329C333.694 280.5 337.5 276.694 337.5 272V46C337.5 41.3056 333.694 37.5 329 37.5H10C5.30558 37.5 1.5 41.3056 1.5 46V272Z" fill="white" fill-opacity="0.1" stroke="#0DEFB5" stroke-width="3"/>
<path d="M74.2 98.616L74.744 98.072C74.312 97.688 73.608 97.208 72.872 96.808H76.2C76.168 97.528 76.12 98.104 76.088 98.616H74.2ZM71.688 96.808L71.048 97.432C71.688 97.736 72.392 98.184 72.952 98.616H69.448C69.544 98.04 69.624 97.448 69.72 96.808H71.688ZM71.912 93.496L71.256 94.136C71.88 94.408 72.552 94.824 73.112 95.24H69.928C70.008 94.648 70.088 94.072 70.152 93.496H71.912ZM74.36 95.24L74.904 94.696C74.472 94.328 73.784 93.864 73.08 93.496H76.328C76.312 94.136 76.296 94.696 76.264 95.24H74.36ZM80.44 96.872V95.176H78.136C78.168 94.408 78.2 93.592 78.232 92.664C78.232 92.44 78.248 91.832 78.248 91.832H68.776C69.064 91.432 69.336 91.032 69.608 90.6H79.832V88.904H70.6C70.76 88.568 70.92 88.232 71.064 87.912L69.176 87.368C68.36 89.336 66.968 91.352 65.496 92.584C65.976 92.824 66.808 93.384 67.208 93.688C67.608 93.288 67.992 92.824 68.392 92.344C68.296 93.224 68.184 94.216 68.056 95.176H65.608V96.872H67.816C67.624 98.136 67.432 99.336 67.24 100.28H75.848C75.784 100.504 75.72 100.632 75.656 100.728C75.512 100.952 75.368 100.984 75.096 100.984C74.76 101 74.136 100.984 73.416 100.92C73.656 101.336 73.864 101.96 73.88 102.376C74.68 102.424 75.496 102.424 76.008 102.344C76.552 102.264 76.984 102.104 77.336 101.592C77.512 101.352 77.64 100.952 77.752 100.28H79.736V98.616H77.944C77.992 98.104 78.024 97.544 78.072 96.872H80.44ZM85.448 99.24V95.656H92.552V99.24H85.448ZM92.552 90.328V93.768H85.448V90.328H92.552ZM83.48 88.408V102.2H85.448V101.16H92.552V102.168H94.6V88.408H83.48ZM102.536 98.072C102.936 96.552 103.336 94.472 103.64 92.728L101.896 92.44C101.736 94.264 101.368 96.792 101 98.424C99.736 98.68 98.584 98.92 97.688 99.064L98.104 100.952C99.784 100.568 101.992 100.056 104.056 99.544L103.864 97.784L102.536 98.072ZM98.344 92.824C98.632 94.504 98.92 96.712 98.968 98.152L100.52 97.832C100.424 96.376 100.136 94.248 99.8 92.568L98.344 92.824ZM102.28 89.816C102.088 89.192 101.672 88.232 101.224 87.528L99.608 87.992C99.96 88.68 100.344 89.592 100.52 90.248H97.816V91.992H104.216V90.248H100.984L102.28 89.816ZM109.96 99.848H106.168V96.728H109.96V99.848ZM112.456 92.2V90.392H108.744V87.448H106.792V94.952H104.312V102.392H106.168V101.624H109.96V102.328H111.912V94.952H108.744V92.2H112.456ZM127.592 90.312H120.568L122.28 89.816C122.104 89.128 121.752 88.072 121.416 87.272L119.512 87.752C119.8 88.536 120.12 89.592 120.28 90.312H114.472V92.232H127.592V90.312ZM119.832 98.952C119.56 97.24 118.984 94.712 118.376 92.696L116.456 93.16C117 95.144 117.592 97.768 117.784 99.48L119.832 98.952ZM123.656 99.864C124.376 98.008 125.208 95.48 125.816 93.16L123.656 92.744C123.24 95 122.392 97.912 121.592 99.864H113.752V101.8H128.264V99.864H123.656ZM139.8 98.168V98.808H134.216V98.168H139.8ZM134.216 100.696V100.056H139.8V100.696H134.216ZM132.344 102.376H134.216V101.944H139.8V102.328H141.752V96.92H132.344V102.376ZM132.264 92.056C132.936 91.8 133.576 91.496 134.2 91.176V91.496H139.816V91.08C140.52 91.448 141.24 91.784 141.992 92.056H132.264ZM140.872 95.24H139.576C139.832 94.792 140.136 94.168 140.456 93.528L139.208 93.224H140.872V95.24ZM133.032 95.24V93.224H134.84L133.608 93.576C133.864 94.088 134.072 94.744 134.152 95.24H133.032ZM136.168 95.24H134.536L135.56 94.92C135.464 94.456 135.208 93.768 134.92 93.224H136.168V95.24ZM138.856 93.224C138.712 93.752 138.456 94.488 138.232 94.968L139.192 95.24H137.704V93.224H138.856ZM135.768 90.264C136.248 89.928 136.712 89.576 137.128 89.224C137.528 89.576 137.992 89.928 138.472 90.264H135.768ZM136.68 87.32C135.224 89.176 132.376 90.504 129.432 91.192C129.752 91.544 130.264 92.312 130.456 92.664C130.776 92.584 131.112 92.472 131.448 92.36V96.392H142.568V92.264C142.904 92.36 143.24 92.472 143.56 92.552C143.816 92.104 144.36 91.432 144.76 91.096C142.216 90.6 139.592 89.496 138.12 88.216C138.2 88.12 138.28 88.008 138.36 87.912L136.68 87.32ZM160.312 92.632H156.456V91.976H159.496V90.792H156.456V90.184H159.992V88.92H158.264C158.504 88.6 158.776 88.232 159.016 87.864L157.352 87.448C157.224 87.88 156.904 88.472 156.632 88.92H154.664C154.488 88.504 154.104 87.896 153.752 87.448L152.408 87.928C152.616 88.216 152.84 88.584 153.016 88.92H151.272V90.184H154.632V90.792H151.784V91.976H154.632V92.632H150.776V93.992H160.328L160.312 92.632ZM150.776 90.12H148.088L149.256 89.64C149.112 89.096 148.712 88.168 148.344 87.512L146.984 88.008C147.32 88.664 147.64 89.528 147.784 90.12H145.56V91.608H150.776V90.12ZM148.984 98.168V100.056H147.4V98.168H148.984ZM150.344 96.712H146.056V102.184H147.4V101.512H150.344V96.712ZM146.12 95.928H150.376V94.504H146.12V95.928ZM146.12 93.768H150.376V92.328H146.12V93.768ZM154.392 96.44V95.528C154.888 95.448 155.336 95.336 155.752 95.224C155.768 95.656 155.784 96.04 155.816 96.44H154.392ZM158.456 98.008C158.264 98.36 157.992 98.68 157.704 99C157.624 98.648 157.544 98.264 157.496 97.816H160.296V96.44H159.16L160.2 95.704C159.88 95.24 159.16 94.632 158.568 94.232L157.48 94.968C158.04 95.384 158.68 95.976 159 96.44H157.352C157.32 95.8 157.304 95.08 157.304 94.328H155.72C155.72 94.616 155.736 94.92 155.752 95.224L154.776 94.104C153.832 94.408 152.232 94.648 150.888 94.776C151.032 95.08 151.208 95.56 151.256 95.88C151.736 95.848 152.232 95.816 152.744 95.752V96.44H150.744V97.816H152.744V98.584C151.96 98.664 151.256 98.728 150.648 98.776L150.824 100.232C151.416 100.168 152.056 100.088 152.744 100.008V100.824C152.744 101 152.68 101.048 152.488 101.064C152.312 101.064 151.704 101.064 151.16 101.048C151.352 101.432 151.56 101.992 151.624 102.392C152.568 102.392 153.256 102.376 153.752 102.168C154.248 101.944 154.392 101.608 154.392 100.872V99.8L155.704 99.64L155.672 98.296L154.392 98.424V97.816H155.944C156.056 98.696 156.216 99.448 156.424 100.12C155.784 100.552 155.096 100.936 154.424 101.208C154.728 101.464 155.128 101.912 155.32 102.2C155.864 101.96 156.424 101.672 156.952 101.32C157.416 102.04 158.04 102.456 158.856 102.456C159.832 102.456 160.344 101.896 160.568 100.36C160.232 100.216 159.784 99.992 159.48 99.704C159.432 100.568 159.272 100.984 159.032 100.984C158.712 100.984 158.44 100.776 158.2 100.376C158.808 99.864 159.336 99.272 159.736 98.632L158.456 98.008ZM167.713 89.128C166.401 91 165.697 93.448 165.697 96.056C165.697 98.664 166.401 101.128 167.713 102.984H169.905C168.737 101.128 168.001 98.664 168.001 96.056C168.001 93.448 168.737 91 169.905 89.128H167.713ZM171.248 89.8V101H175.904C179.44 101 181.888 98.696 181.888 95.4C181.888 92.088 179.472 89.8 176 89.8H171.248ZM173.776 91.928H175.952C177.872 91.928 179.312 93.352 179.312 95.416C179.312 97.464 177.936 98.872 176.064 98.872H173.776V91.928ZM188.489 101H190.905L190.889 95.384C190.873 93.448 189.545 92.296 187.241 92.296C185.737 92.296 184.633 92.648 183.353 93.288L184.121 94.984C185.017 94.488 185.913 94.232 186.681 94.232C187.865 94.232 188.473 94.76 188.473 95.672V95.832H186.105C183.993 95.848 182.825 96.808 182.825 98.424C182.825 99.992 183.945 101.112 185.785 101.112C186.985 101.112 187.913 100.712 188.489 99.992V101ZM186.473 99.352C185.641 99.352 185.129 98.92 185.129 98.264C185.129 97.576 185.593 97.288 186.536 97.288H188.473V98.056C188.329 98.792 187.513 99.352 186.473 99.352ZM194.26 88.568C193.476 88.568 192.932 89.144 192.932 89.944C192.932 90.744 193.476 91.32 194.26 91.32C195.044 91.32 195.588 90.744 195.588 89.944C195.588 89.144 195.044 88.568 194.26 88.568ZM195.492 101V92.392H193.028V101H195.492ZM200.4 101V89.128H197.936V101H200.4ZM210.824 92.392H208.36L206.328 98.312L204.072 92.392H201.527L205.096 100.824L204.856 101.304C204.616 101.816 204.232 102.072 203.72 102.072C203.32 102.072 202.984 101.928 202.6 101.608L201.559 103.384C202.264 103.96 202.984 104.216 203.896 104.216C205.384 104.216 206.44 103.48 207.048 101.96L210.824 92.392ZM219.906 89.688C217.314 89.688 215.57 90.968 215.57 93C215.57 96.968 221.538 95.736 221.538 97.848C221.538 98.536 220.914 98.92 219.874 98.92C218.69 98.92 217.058 98.264 215.906 97.24L214.898 99.304C216.162 100.376 218.002 101.08 219.842 101.08C222.322 101.08 224.226 99.896 224.226 97.704C224.242 93.672 218.274 94.824 218.274 92.76C218.274 92.152 218.85 91.848 219.698 91.848C220.594 91.848 222.002 92.296 223.186 93L224.162 90.904C223.042 90.168 221.474 89.688 219.906 89.688ZM229.63 92.312C226.99 92.312 225.214 94.088 225.214 96.728C225.214 99.336 226.99 101.096 229.598 101.096C231.358 101.096 232.702 100.392 233.422 99.192L231.726 98.04C231.294 98.712 230.606 99.048 229.726 99.048C228.526 99.048 227.678 98.104 227.678 96.712C227.678 95.336 228.526 94.408 229.726 94.408C230.574 94.392 231.23 94.744 231.694 95.32L233.358 94.12C232.59 92.968 231.278 92.312 229.63 92.312ZM237.429 92.392H234.965V101H237.429V96.856C237.429 95.4 238.517 94.456 240.277 94.616V92.296C238.997 92.312 238.021 92.888 237.429 93.944V92.392ZM249.798 92.392H247.35V96.648C247.35 97.896 246.63 98.824 245.446 98.84C244.454 98.84 243.83 98.184 243.83 97.096V92.392H241.366V97.8C241.366 99.832 242.566 101.096 244.47 101.096C245.766 101.096 246.758 100.568 247.35 99.48V101H249.798V92.392ZM263.576 92.296C262.12 92.312 261.032 92.952 260.472 94.28C260.056 93.032 259.016 92.296 257.56 92.296C256.264 92.312 255.256 92.824 254.648 93.88V92.392H252.184V101H254.648V96.744C254.648 95.496 255.368 94.568 256.568 94.552C257.576 94.552 258.216 95.208 258.216 96.312V101H260.664V96.744C260.664 95.496 261.384 94.568 262.568 94.552C263.592 94.552 264.232 95.208 264.232 96.312V101H266.68V95.592C266.68 93.576 265.48 92.296 263.576 92.296ZM268.793 89.128C269.961 91 270.713 93.448 270.713 96.056C270.713 98.664 269.961 101.128 268.793 102.984H271.001C272.313 101.128 273.017 98.664 273.017 96.056C273.017 93.448 272.313 91 271.001 89.128H268.793Z" fill="#0DEFB5"/>
<path d="M22.894 122.634V121.696H14.27C14.48 121.304 14.662 120.898 14.844 120.506L13.822 120.212C13.094 121.976 11.89 123.768 10.602 124.888C10.868 125.042 11.302 125.336 11.526 125.504C12.282 124.748 13.052 123.74 13.738 122.634H22.894ZM17.896 130.334L18.372 129.816C17.812 129.242 16.664 128.514 15.712 128.066L15.124 128.64C16.02 129.102 17.042 129.788 17.63 130.334H13.304C13.416 129.662 13.542 128.878 13.654 128.066H20.36C20.304 129.018 20.248 129.76 20.192 130.334H17.896ZM20.486 124.972C20.458 125.798 20.43 126.512 20.402 127.17H18.008L18.61 126.554C18.05 126.05 16.972 125.406 16.062 125.014L15.474 125.602C16.384 125.994 17.42 126.666 17.966 127.17H13.766C13.878 126.428 13.976 125.686 14.074 124.972H20.486ZM23.37 128.094V127.142H21.41C21.438 126.386 21.48 125.532 21.508 124.552C21.508 124.426 21.522 124.048 21.522 124.048H13.15C13.052 124.986 12.898 126.064 12.758 127.142H10.644V128.094H12.618C12.436 129.284 12.24 130.404 12.086 131.258H20.08C19.996 131.692 19.898 131.958 19.8 132.07C19.66 132.238 19.534 132.266 19.282 132.266C19.016 132.28 18.372 132.266 17.658 132.21C17.798 132.448 17.91 132.798 17.924 133.036C18.61 133.078 19.31 133.092 19.716 133.064C20.136 133.022 20.43 132.896 20.696 132.56C20.85 132.336 20.99 131.958 21.102 131.258H22.894V130.334H21.214C21.284 129.746 21.326 129.004 21.382 128.094H23.37ZM37.076 126.694V125.644H31.378C31.434 125.112 31.448 124.566 31.448 124.076V122.424H36.474V121.374H25.47V122.424H30.37V124.062C30.37 124.552 30.356 125.098 30.286 125.644H24.98V126.694H30.076C29.586 128.654 28.228 130.712 24.63 132.182C24.854 132.392 25.176 132.784 25.302 133.05C28.858 131.58 30.384 129.522 31.014 127.478C32.12 130.194 33.982 132.112 36.768 133.036C36.922 132.756 37.23 132.322 37.468 132.098C34.64 131.286 32.736 129.34 31.756 126.694H37.076ZM42.41 124.51V122.83H44.048C43.684 123.418 43.264 123.978 42.83 124.51H42.41ZM44.216 129.004H41.08V127.646H44.216V129.004ZM41.08 131.314V129.844H44.216V131.314H41.08ZM45.126 120.786C44.832 121.444 44.524 122.074 44.146 122.676V121.906H42.41V120.408H41.43V121.906H39.288V122.83H41.43V124.51H38.658V125.434H41.976C40.926 126.484 39.708 127.352 38.35 128.024C38.546 128.234 38.882 128.668 39.008 128.878C39.386 128.668 39.764 128.444 40.114 128.206V133.008H41.08V132.182H44.216V132.812H45.21V126.792H41.948C42.424 126.372 42.858 125.91 43.278 125.434H45.84V124.51H44.034C44.818 123.474 45.518 122.326 46.064 121.052L45.126 120.786ZM50.698 121.038L50.53 121.08H46.428V133.078H47.45V122.074H50.054C49.606 123.194 48.948 124.678 48.346 125.868C49.816 127.086 50.25 128.136 50.25 129.018C50.264 129.522 50.152 129.942 49.844 130.11C49.662 130.208 49.424 130.264 49.186 130.278C48.878 130.306 48.458 130.292 47.996 130.25C48.178 130.544 48.29 130.978 48.304 131.272C48.738 131.3 49.228 131.3 49.606 131.258C49.956 131.216 50.292 131.118 50.544 130.936C51.062 130.614 51.272 129.97 51.258 129.116C51.258 128.122 50.88 127.03 49.41 125.728C50.082 124.44 50.852 122.844 51.44 121.528L50.698 121.038ZM60.05 122.998H57.796V121.822H60.05V122.998ZM63.368 123.852V125.742H61.044V123.852H63.368ZM57.796 123.852H60.05V125.742H57.796V123.852ZM54.702 123.852H56.802V125.742H54.702V123.852ZM56.802 122.998H53.708V126.596H64.39V122.998H61.044V121.822H64.978V120.898H53.022V121.822H56.802V122.998ZM61.114 129.13C60.61 129.816 59.966 130.348 59.182 130.768C58.202 130.586 57.208 130.39 56.2 130.222C56.452 129.9 56.718 129.522 56.984 129.13H61.114ZM65.202 129.13V128.234H62.794C62.878 128.066 62.934 127.884 62.99 127.716L61.996 127.422C61.898 127.716 61.786 127.968 61.646 128.234H57.572C57.838 127.828 58.076 127.408 58.258 127.002L57.25 126.764C57.012 127.226 56.732 127.73 56.41 128.234H52.798V129.13H55.822C55.402 129.732 54.968 130.306 54.562 130.754C55.668 130.936 56.76 131.146 57.81 131.356C56.466 131.804 54.814 132.042 52.756 132.168C52.924 132.406 53.106 132.784 53.176 133.078C55.808 132.868 57.866 132.462 59.42 131.72C61.268 132.14 62.864 132.616 64.026 133.05L64.964 132.308C63.802 131.888 62.248 131.468 60.54 131.076C61.282 130.558 61.884 129.914 62.346 129.13H65.202ZM74.988 124.86H72.37V123.502H74.988V124.86ZM74.988 127.128H72.37V125.742H74.988V127.128ZM74.988 129.466H72.37V128.01H74.988V129.466ZM71.362 131.174H72.37V130.362H79.23V129.466H75.982V128.01H78.502V127.128H75.982V125.742H78.53V124.86H75.982V123.502H78.992V122.592H76.542C76.332 122.004 75.912 121.206 75.52 120.59L74.568 120.87C74.862 121.402 75.198 122.06 75.408 122.592H72.622C72.972 121.948 73.28 121.262 73.532 120.576L72.58 120.31C71.95 122.074 70.9 123.74 69.682 124.804C69.878 125.014 70.2 125.49 70.326 125.7C70.676 125.35 71.026 124.958 71.362 124.524V131.174ZM69.08 122.62C68.912 122.018 68.59 121.094 68.338 120.366L67.428 120.646C67.652 121.374 67.974 122.326 68.142 122.942L69.08 122.62ZM69.556 126.778L69.374 126.82H68.408C68.786 125.854 69.22 124.678 69.57 123.67H66.7V124.608H68.254C67.876 125.714 67.442 126.904 67.05 127.73H68.884C68.66 128.738 68.296 129.844 67.876 130.642C67.456 130.922 66.966 131.496 66.476 132.196L67.19 133.134C67.596 132.252 68.072 131.37 68.38 131.37C68.702 131.37 69.22 131.846 69.78 132.182C70.816 132.798 72.034 132.952 73.882 132.952C75.534 132.952 78.194 132.868 79.23 132.798C79.258 132.49 79.412 132 79.552 131.72C77.984 131.874 75.716 132.014 73.924 132.014C72.258 132.014 70.998 131.916 70.004 131.314C69.486 131.006 69.15 130.74 68.884 130.586C69.36 129.564 69.766 128.206 70.032 126.974L69.556 126.778ZM92.922 121.136H86.09V122.116H92.922V121.136ZM83.752 120.282C83.052 121.276 81.708 122.536 80.546 123.32C80.728 123.516 81.008 123.922 81.162 124.146C82.408 123.264 83.836 121.906 84.746 120.674L83.752 120.282ZM84.326 123.264C83.36 124.846 81.848 126.456 80.406 127.478C80.616 127.688 80.98 128.136 81.134 128.346C81.652 127.94 82.184 127.436 82.716 126.89V133.106H83.752V125.742C84.326 125.056 84.858 124.342 85.292 123.628L84.326 123.264ZM93.328 124.958H85.488V125.952H90.164V131.72C90.164 131.958 90.08 132.014 89.814 132.028C89.548 132.042 88.624 132.042 87.63 132.014C87.784 132.308 87.924 132.742 87.966 133.022C89.338 133.022 90.122 133.022 90.598 132.868C91.06 132.7 91.214 132.378 91.214 131.734V125.952H93.328V124.958ZM99.152 126.386H96.212V123.46H99.152V126.386ZM96.212 130.67V127.31H99.152V130.67H96.212ZM97.388 120.254C97.29 120.912 97.038 121.85 96.828 122.522H95.26V132.714H96.212V131.608H100.104V122.522H97.78C98.018 121.92 98.27 121.15 98.508 120.464L97.388 120.254ZM106.95 122.48H102.764C103.002 121.822 103.198 121.15 103.366 120.464L102.372 120.226C101.924 122.144 101.168 124.076 100.23 125.308C100.454 125.448 100.902 125.728 101.084 125.896C101.574 125.238 102.008 124.384 102.4 123.446H105.956C105.774 129.018 105.564 131.146 105.102 131.636C104.962 131.818 104.808 131.846 104.528 131.846C104.206 131.846 103.366 131.846 102.456 131.762C102.652 132.056 102.778 132.476 102.806 132.784C103.59 132.826 104.388 132.854 104.878 132.798C105.354 132.756 105.676 132.63 105.984 132.238C106.544 131.552 106.726 129.396 106.95 123.012V122.48ZM104.738 128.78C104.29 127.954 103.324 126.61 102.54 125.616L101.728 126.092C102.498 127.1 103.436 128.486 103.856 129.326L104.738 128.78ZM117.954 129.2V130.152H112.158V129.2H117.954ZM112.158 131.846V130.894H117.954V131.846H112.158ZM111.136 133.05H112.158V132.588H117.954V133.008H119.004V128.458H111.136V133.05ZM117.002 127.03C117.296 126.61 117.646 125.98 117.954 125.378L117.072 125.098C116.918 125.574 116.554 126.316 116.302 126.778L117.002 127.03ZM112.06 125.392C112.41 125.91 112.732 126.582 112.844 127.03L113.642 126.736C113.516 126.288 113.166 125.644 112.802 125.154L112.06 125.392ZM111.22 125H114.524V127.086H111.22V125ZM118.738 127.086H115.406V125H118.738V127.086ZM110.324 127.8H119.676V124.272H110.324V127.8ZM113.25 122.83C113.908 122.424 114.524 121.948 115.056 121.43C115.588 121.934 116.232 122.41 116.904 122.83H113.25ZM114.916 120.24C113.6 121.934 111.122 123.166 108.588 123.838C108.77 124.034 109.064 124.454 109.176 124.636C110.338 124.272 111.528 123.796 112.606 123.208V123.586H117.45V123.152C118.542 123.754 119.746 124.23 120.88 124.552C121.034 124.3 121.328 123.936 121.538 123.754C119.354 123.236 116.932 122.116 115.63 120.842C115.686 120.758 115.756 120.66 115.826 120.576L114.916 120.24ZM135.272 125.014H131.688V124.048H134.614V123.334H131.688V122.424H134.978V121.654H133.228C133.452 121.332 133.732 120.94 133.984 120.548L133.06 120.268C132.892 120.66 132.556 121.262 132.29 121.654H130.134L130.204 121.626C130.064 121.248 129.672 120.674 129.322 120.282L128.58 120.576C128.832 120.898 129.098 121.304 129.294 121.654H127.572V122.424H130.68V123.334H128.034V124.048H130.68V125.014H127.068V125.812H135.272V125.014ZM133.032 126.61C133.592 126.988 134.236 127.576 134.544 127.982L135.174 127.464C134.866 127.058 134.208 126.512 133.634 126.148L133.032 126.61ZM125.444 122.186C125.332 121.71 125.01 120.94 124.702 120.366L123.932 120.632C124.226 121.234 124.534 122.032 124.632 122.522L125.444 122.186ZM125.836 129.074V131.426H123.862V129.074H125.836ZM126.634 128.234H123.078V132.924H123.862V132.266H126.634V128.234ZM123.106 127.184H126.662V126.344H123.106V127.184ZM123.106 125.322H126.662V124.496H123.106V125.322ZM122.616 123.516H126.984V122.662H122.616V123.516ZM133.928 129.284C133.704 129.718 133.396 130.138 133.032 130.53C132.906 130.082 132.794 129.564 132.71 128.962H135.3V128.164H132.612C132.556 127.562 132.514 126.876 132.5 126.134H131.604C131.632 126.862 131.674 127.548 131.73 128.164H129.952V127.044C130.456 126.946 130.932 126.834 131.338 126.708L130.736 126.05C129.938 126.344 128.482 126.596 127.264 126.736C127.362 126.918 127.46 127.212 127.502 127.394C127.992 127.352 128.496 127.282 129.014 127.212V128.164H127.054V128.962H129.014V130.026C128.258 130.124 127.572 130.222 126.998 130.278L127.138 131.118L129.014 130.838V132.098C129.014 132.252 128.972 132.294 128.804 132.308C128.65 132.308 128.104 132.308 127.516 132.294C127.628 132.532 127.768 132.854 127.81 133.078C128.622 133.078 129.154 133.078 129.49 132.952C129.84 132.812 129.952 132.588 129.952 132.112V130.698L131.464 130.474L131.436 129.704L129.952 129.914V128.962H131.828C131.954 129.83 132.108 130.572 132.318 131.174C131.716 131.664 131.03 132.056 130.344 132.364C130.526 132.518 130.778 132.77 130.876 132.924C131.478 132.658 132.08 132.308 132.626 131.902C133.06 132.742 133.606 133.19 134.32 133.19C135.006 133.176 135.328 132.77 135.482 131.51C135.272 131.426 135.006 131.314 134.824 131.132C134.754 132.028 134.614 132.336 134.39 132.336C133.998 132.336 133.634 132 133.312 131.328C133.858 130.81 134.348 130.25 134.698 129.634L133.928 129.284ZM141.852 129.368C143.322 128.85 144.274 127.702 144.274 126.19C144.274 125.21 143.854 124.58 143.084 124.58C142.51 124.58 142.02 124.93 142.02 125.588C142.02 126.246 142.496 126.582 143.07 126.582C143.154 126.582 143.224 126.582 143.308 126.568C143.238 127.52 142.622 128.178 141.544 128.626L141.852 129.368ZM158.26 125.364C157.868 124.412 156.972 123.04 156.048 122.018L155.124 122.48C156.006 123.502 156.902 124.93 157.28 125.896L158.26 125.364ZM156.272 128.08C155.348 128.472 154.41 128.878 153.514 129.256L153.304 120.996L152.24 121.038L152.478 129.69C151.75 129.998 151.092 130.264 150.546 130.474L150.924 131.552C152.464 130.88 154.578 129.956 156.51 129.074L156.272 128.08ZM163.538 132.224C162.824 131.188 161.34 129.634 160.094 128.374C161.074 126.498 161.606 124.118 161.942 121.122L160.808 121.01C160.192 127.058 158.708 130.446 153.906 132.21C154.158 132.42 154.592 132.896 154.732 133.106C156.916 132.196 158.442 130.978 159.534 129.326C160.724 130.586 162.026 132.056 162.67 133.022L163.538 132.224ZM171.317 132V122.2H167.257V124.062H169.105V132H171.317ZM180.113 124.048V122.2H173.841L173.827 127.632C174.457 127.59 175.941 127.562 176.473 127.562C177.537 127.562 178.167 128.038 178.167 128.878C178.167 129.774 177.537 130.306 176.473 130.306C175.591 130.306 174.681 129.9 173.925 129.144L173.043 130.894C174.037 131.608 175.479 132.084 176.725 132.084C179.035 132.084 180.533 130.768 180.533 128.724C180.533 126.974 179.105 125.756 176.893 125.756L175.871 125.77V124.048H180.113ZM188.31 120.758C187.638 122.942 186.364 124.79 184.712 125.938C184.964 126.106 185.398 126.498 185.58 126.708C187.218 125.392 188.604 123.404 189.388 121.024L188.31 120.758ZM186.812 125.546V126.554H189.668C189.346 128.934 188.576 131.132 185.272 132.238C185.524 132.462 185.818 132.868 185.944 133.148C189.5 131.846 190.41 129.326 190.774 126.554H194.386C194.218 130.082 194.022 131.482 193.658 131.832C193.518 131.986 193.364 132.014 193.07 132.014C192.734 132.014 191.88 132 190.97 131.916C191.166 132.224 191.292 132.644 191.306 132.966C192.174 133.008 193.056 133.036 193.504 132.994C194.008 132.938 194.302 132.84 194.596 132.49C195.072 131.958 195.268 130.348 195.464 126.05C195.478 125.91 195.492 125.546 195.492 125.546H186.812ZM190.494 120.534V121.514H192.972C193.77 123.6 195.212 125.56 196.948 126.68C197.13 126.386 197.466 125.966 197.69 125.742C195.912 124.734 194.414 122.732 193.714 120.534H190.494ZM201.764 131.034V127.156H203.542V126.246H201.764V124.734H203.15V123.824H199.972C200.462 123.264 200.938 122.606 201.358 121.92C202.142 122.522 202.968 123.25 203.472 123.824L203.906 122.97C203.402 122.424 202.59 121.738 201.778 121.164C201.89 120.968 201.988 120.758 202.072 120.576L201.316 120.212C200.7 121.584 199.664 122.858 198.67 123.684C198.796 123.936 199.006 124.496 199.076 124.734C199.286 124.538 199.496 124.328 199.706 124.118V124.734H200.966V126.246H198.992V127.156H200.966V131.202C200.154 131.384 199.412 131.538 198.838 131.65L199.062 132.588C200.28 132.294 201.988 131.874 203.584 131.468L203.528 130.628L201.764 131.034ZM199.244 128.08C199.468 128.892 199.678 129.97 199.734 130.67L200.42 130.446C200.35 129.76 200.126 128.71 199.902 127.884L199.244 128.08ZM202.688 130.516C202.926 129.872 203.192 128.85 203.43 127.982L202.688 127.73C202.576 128.486 202.31 129.592 202.114 130.278L202.688 130.516ZM205.474 127.744H207.252V128.71H205.474V127.744ZM205.474 126.134H207.252V127.072H205.474V126.134ZM210.01 127.072H208.148V126.134H210.01V127.072ZM210.01 128.71H208.148V127.744H210.01V128.71ZM208.19 130.964H211.116V130.18H208.19V129.396H210.948V125.448H204.564V129.396H207.21V130.18H204.396V130.964H207.21V131.93H203.752V132.728H211.606V131.93H208.19V130.964ZM209.506 123.936C209.716 123.544 209.968 123.068 210.192 122.634L209.296 122.438H211.34V121.598H208.4C208.274 121.192 208.008 120.632 207.7 120.226L206.776 120.492C206.986 120.814 207.182 121.234 207.308 121.598H204.172V122.438H209.156C209.03 122.872 208.778 123.474 208.54 123.936H206.482L206.776 123.866C206.692 123.488 206.454 122.872 206.216 122.438L205.348 122.62C205.544 123.012 205.754 123.544 205.824 123.936H203.78V124.776H211.662V123.936H209.506ZM214.168 132.924C215.106 132.196 215.568 130.95 215.862 129.788L214.98 129.508C214.728 130.6 214.21 131.748 213.356 132.392L214.168 132.924ZM216.786 129.914C217.024 130.74 217.164 131.79 217.122 132.476L218.046 132.35C218.046 131.678 217.906 130.614 217.64 129.802L216.786 129.914ZM218.914 129.76C219.25 130.488 219.544 131.44 219.642 132.042L220.51 131.818C220.384 131.202 220.09 130.264 219.726 129.564L218.914 129.76ZM223.114 126.148C223.016 126.722 222.918 127.296 222.82 127.772H216.73C217.248 127.268 217.71 126.722 218.158 126.148H223.114ZM221.98 123.656C221.882 124.216 221.77 124.79 221.644 125.252H218.788C219.138 124.734 219.46 124.202 219.754 123.656H221.98ZM225.186 127.772H223.772C223.926 127.03 224.08 126.064 224.22 125.252H222.61C222.778 124.524 222.946 123.558 223.086 122.732H220.216C220.552 122.032 220.846 121.304 221.112 120.576L220.09 120.282C219.824 121.108 219.488 121.934 219.096 122.732H216.59L217.36 122.396C217.178 121.836 216.674 120.982 216.212 120.352L215.33 120.702C215.764 121.332 216.212 122.172 216.408 122.732H213.636V123.656H218.606C217.248 126.036 215.302 128.136 212.712 129.48C212.894 129.69 213.146 130.096 213.272 130.348C214.168 129.872 214.98 129.312 215.722 128.696H224.108C223.884 130.88 223.66 131.762 223.366 132.042C223.24 132.168 223.1 132.182 222.876 132.182C222.61 132.182 221.98 132.182 221.308 132.112C221.462 132.364 221.56 132.77 221.574 133.036C222.274 133.078 222.946 133.092 223.296 133.05C223.688 133.022 223.954 132.938 224.192 132.686C224.626 132.238 224.892 131.104 225.144 128.22L225.186 127.772ZM222.75 131.062C222.568 130.572 222.134 129.788 221.686 129.228L220.958 129.494C221.392 130.082 221.812 130.866 221.994 131.398L222.75 131.062ZM230.996 120.814L230.842 120.856H227.496V133.05H228.42V121.808H230.45C230.17 122.732 229.75 123.936 229.344 124.944C230.352 126.064 230.604 127.03 230.604 127.786C230.604 128.206 230.52 128.598 230.31 128.752C230.198 128.836 230.044 128.864 229.876 128.878C229.652 128.906 229.386 128.892 229.064 128.864C229.218 129.13 229.316 129.522 229.33 129.788C229.624 129.802 229.988 129.802 230.254 129.76C230.534 129.732 230.8 129.648 230.996 129.494C231.374 129.228 231.542 128.612 231.542 127.884C231.542 127.016 231.29 125.994 230.282 124.832C230.758 123.726 231.262 122.354 231.682 121.22L230.996 120.814ZM233.376 124.37H237.478V126.106H233.376V124.37ZM237.478 121.822V123.502H233.376V121.822H237.478ZM238.64 127.464C238.066 127.968 237.184 128.626 236.456 129.116C236.106 128.486 235.84 127.772 235.63 127.016H238.486V120.898H232.368V131.244C232.368 131.818 232.074 132.112 231.85 132.224C232.018 132.42 232.242 132.854 232.312 133.078C232.592 132.896 233.012 132.756 235.896 131.972C235.854 131.748 235.84 131.328 235.84 131.02L233.376 131.622V127.016H234.72C235.42 129.788 236.722 131.93 238.906 132.966C239.074 132.7 239.396 132.28 239.62 132.084C238.5 131.622 237.604 130.852 236.918 129.858C237.688 129.396 238.612 128.78 239.326 128.192L238.64 127.464ZM245.234 123.25H248.062V122.298H245.234V120.338H244.24V122.298H242.756C242.91 121.822 243.05 121.304 243.176 120.814L242.196 120.618C241.916 121.962 241.426 123.362 240.796 124.3C241.048 124.384 241.51 124.566 241.72 124.692C241.958 124.3 242.196 123.796 242.42 123.25H244.24V124.72H240.838V125.672H244.24V127.072H241.482V131.93H242.434V128.024H244.24V133.05H245.234V128.024H247.166V130.88C247.166 131.02 247.124 131.062 246.97 131.062C246.83 131.076 246.368 131.076 245.766 131.062C245.906 131.328 246.032 131.692 246.074 131.972C246.844 131.972 247.376 131.958 247.698 131.804C248.048 131.636 248.118 131.37 248.118 130.894V127.072H245.234V125.672H248.608V124.72H245.234V123.25ZM250.596 121.556H249.616V129.256H250.596V121.556ZM252.094 120.436V131.65C252.094 131.888 252.024 131.944 251.8 131.958C251.562 131.958 250.778 131.958 249.952 131.93C250.092 132.252 250.232 132.728 250.288 133.022C251.324 133.022 252.094 132.994 252.528 132.812C252.948 132.63 253.102 132.322 253.102 131.636V120.436H252.094Z" fill="white"/>
<path d="M18.302 251.022H19.296V249.104C20.22 250.196 21.592 251.162 22.88 251.68C23.02 251.428 23.286 251.078 23.496 250.91C22.194 250.49 20.78 249.65 19.898 248.684H23.258V247.858H19.296V246.696C20.528 246.584 21.676 246.416 22.586 246.22L21.928 245.52C20.276 245.884 17.252 246.136 14.746 246.234C14.844 246.43 14.956 246.766 14.984 246.976C16.034 246.948 17.182 246.878 18.302 246.78V247.858H14.396V248.684H17.644C16.72 249.664 15.278 250.546 13.99 250.98C14.2 251.148 14.48 251.498 14.606 251.736C15.908 251.218 17.322 250.224 18.302 249.132V251.022ZM20.556 252.646C20.654 252.226 20.766 251.778 20.85 251.358H15.502V252.17H17.126C16.86 253.682 16.244 254.774 14.354 255.376C14.536 255.558 14.802 255.908 14.914 256.146C17.084 255.404 17.798 254.046 18.078 252.17H19.772C19.66 252.632 19.548 253.066 19.422 253.43H21.774C21.662 254.466 21.522 254.928 21.354 255.096C21.256 255.194 21.13 255.208 20.878 255.208C20.668 255.208 20.01 255.194 19.338 255.138C19.478 255.362 19.576 255.698 19.604 255.95C20.276 255.992 20.934 255.992 21.284 255.964C21.648 255.95 21.914 255.88 22.124 255.656C22.446 255.376 22.6 254.676 22.768 253.038C22.782 252.912 22.796 252.646 22.796 252.646H20.556ZM13.458 247.536C13.192 246.962 12.702 246.038 12.338 245.31L11.442 245.646C11.792 246.374 12.296 247.34 12.548 247.942L13.458 247.536ZM13.682 251.778L13.514 251.82H12.548C12.996 250.854 13.5 249.678 13.892 248.67H10.7V249.608H12.506C12.072 250.714 11.554 251.904 11.134 252.73H13.164C12.856 253.808 12.338 254.97 11.694 255.74L11.722 255.754C11.316 256.062 10.896 256.566 10.476 257.154L11.176 258.106C11.596 257.238 12.086 256.384 12.408 256.384C12.716 256.384 13.22 256.832 13.794 257.168C14.816 257.77 16.048 257.924 17.882 257.924C19.548 257.924 22.194 257.84 23.216 257.77C23.23 257.462 23.398 256.944 23.538 256.678C21.984 256.832 19.688 256.958 17.924 256.958C16.272 256.958 14.998 256.86 14.004 256.286C13.5 255.992 13.178 255.74 12.912 255.6C13.542 254.606 14.032 253.304 14.298 252.058L13.682 251.778ZM30.804 246.598H34.668V247.732H32.12V250.07H30.804V246.598ZM32.932 250.07V248.46H34.668V250.07H32.932ZM29.726 250.896H35.746V255.082C35.746 255.222 35.69 255.278 35.522 255.292C35.382 255.292 34.864 255.292 34.276 255.278C34.388 255.516 34.514 255.866 34.556 256.118C35.396 256.118 35.928 256.118 36.264 255.964C36.614 255.81 36.698 255.572 36.698 255.082V250.07H35.62V245.786H29.88V250.07H28.802V256.118H29.726V250.896ZM33.716 254.032H31.714V252.548H33.716V254.032ZM34.528 251.806H30.902V255.306H31.714V254.76H34.528V251.806ZM27.08 247.62C26.912 247.004 26.59 246.094 26.352 245.366L25.428 245.632C25.666 246.36 25.974 247.326 26.142 247.928L27.08 247.62ZM27.556 251.778L27.374 251.82H26.408C26.786 250.854 27.22 249.678 27.57 248.67H24.7V249.608H26.254C25.876 250.714 25.442 251.904 25.05 252.73H26.884C26.66 253.738 26.31 254.844 25.876 255.642C25.456 255.922 24.98 256.496 24.476 257.196L25.19 258.134C25.61 257.252 26.072 256.37 26.394 256.37C26.702 256.37 27.22 256.846 27.78 257.182C28.816 257.798 30.048 257.952 31.882 257.952C33.534 257.952 36.194 257.868 37.23 257.798C37.258 257.49 37.412 257 37.552 256.72C35.984 256.874 33.716 257.014 31.924 257.014C30.258 257.014 28.998 256.916 28.004 256.314C27.486 256.006 27.15 255.74 26.884 255.586C27.36 254.564 27.766 253.206 28.032 251.974L27.556 251.778ZM47.618 249.398V250H45.392V249.398H47.618ZM47.618 251.134H45.392V250.518H47.618V251.134ZM45.392 252.352V251.666H47.338L46.778 252.044C46.89 252.128 47.002 252.212 47.114 252.31L45.392 252.352ZM42.368 251.134V250.518H44.51V251.134H42.368ZM42.368 249.398H44.51V250H42.368V249.398ZM44.51 248.866H41.542V251.666H44.51V252.366C43.18 252.38 41.948 252.394 41.024 252.394L41.066 253.052C42.802 253.01 45.308 252.94 47.73 252.856C47.954 253.08 48.15 253.29 48.29 253.472L48.878 253.038C48.57 252.632 47.926 252.058 47.366 251.666H48.486V248.866H45.392V248.278H48.976V247.634H45.392V246.976H44.51V247.634H40.996V248.278H44.51V248.866ZM42.312 254.634C42.76 255.026 43.292 255.572 43.516 255.964L44.23 255.544C43.992 255.18 43.446 254.634 42.984 254.284L42.312 254.634ZM49.172 253.57H47.17V253.052H46.288V253.57H40.828V254.214H46.288V255.488C46.288 255.628 46.246 255.67 46.078 255.67C45.938 255.684 45.406 255.684 44.846 255.67C44.944 255.838 45.056 256.062 45.098 256.258C45.938 256.258 46.456 256.258 46.764 256.16C47.086 256.076 47.17 255.922 47.17 255.516V254.214H49.172V253.57ZM40.352 256.51V246.752H49.634V256.51H40.352ZM39.386 245.926V258.078H40.352V257.35H49.634V258.008H50.628V245.926H39.386ZM56.48 245.842L56.312 245.884H53.176V258.078H54.1V246.836H55.934C55.64 247.788 55.234 249.048 54.828 250.07C55.822 251.148 56.074 252.086 56.074 252.842C56.074 253.248 56.004 253.626 55.78 253.78C55.682 253.864 55.528 253.906 55.346 253.906C55.122 253.934 54.856 253.92 54.534 253.892C54.702 254.158 54.786 254.55 54.8 254.816C55.108 254.83 55.458 254.816 55.738 254.788C56.018 254.76 56.27 254.676 56.466 254.536C56.844 254.27 57.012 253.668 57.012 252.926C57.012 252.086 56.774 251.078 55.752 249.944C56.228 248.838 56.732 247.396 57.152 246.248L56.48 245.842ZM64.32 249.258C63.69 249.818 62.71 250.546 61.856 251.078C61.576 250.42 61.198 249.79 60.708 249.23C60.946 249.006 61.17 248.796 61.352 248.558H65.272V247.648H62.612C63.074 247.06 63.592 246.318 64.026 245.618L63.032 245.296C62.682 245.996 62.052 247.004 61.534 247.648L59.966 247.634L60.666 247.144C60.33 246.612 59.63 245.898 58.972 245.38L58.202 245.87C58.804 246.374 59.462 247.116 59.812 247.634H57.082V248.558H60.176C59.28 249.426 58.034 250.182 56.858 250.686C57.054 250.868 57.362 251.232 57.488 251.428C58.342 250.994 59.266 250.434 60.064 249.79C60.344 250.14 60.582 250.518 60.764 250.896C59.952 251.638 58.468 252.478 57.39 252.912C57.614 253.108 57.866 253.458 57.978 253.668C58.944 253.192 60.204 252.38 61.1 251.652C61.226 252.03 61.324 252.394 61.394 252.758C60.428 253.822 58.524 254.956 56.942 255.46C57.18 255.642 57.418 255.978 57.558 256.202C58.874 255.684 60.456 254.746 61.548 253.766C61.646 255.138 61.38 256.272 60.96 256.65C60.722 256.902 60.498 256.958 60.148 256.958C59.896 256.958 59.42 256.944 58.986 256.888C59.14 257.168 59.224 257.56 59.238 257.84C59.616 257.854 60.078 257.882 60.344 257.868C60.946 257.868 61.31 257.728 61.716 257.336C62.556 256.622 62.878 254.172 62.136 251.834L62.402 251.68C62.962 253.374 63.928 255.152 64.88 256.16C65.034 255.922 65.356 255.614 65.566 255.46C64.628 254.578 63.62 252.856 63.13 251.246C63.774 250.826 64.432 250.364 64.978 249.93L64.32 249.258ZM70.144 245.758C69.472 247.942 68.198 249.79 66.546 250.938C66.798 251.106 67.232 251.498 67.414 251.708C69.052 250.392 70.438 248.404 71.222 246.024L70.144 245.758ZM68.646 250.546V251.554H71.502C71.18 253.934 70.41 256.132 67.106 257.238C67.358 257.462 67.652 257.868 67.778 258.148C71.334 256.846 72.244 254.326 72.608 251.554H76.22C76.052 255.082 75.856 256.482 75.492 256.832C75.352 256.986 75.198 257.014 74.904 257.014C74.568 257.014 73.714 257 72.804 256.916C73 257.224 73.126 257.644 73.14 257.966C74.008 258.008 74.89 258.036 75.338 257.994C75.842 257.938 76.136 257.84 76.43 257.49C76.906 256.958 77.102 255.348 77.298 251.05C77.312 250.91 77.326 250.546 77.326 250.546H68.646ZM72.328 245.534V246.514H74.806C75.604 248.6 77.046 250.56 78.782 251.68C78.964 251.386 79.3 250.966 79.524 250.742C77.746 249.734 76.248 247.732 75.548 245.534H72.328ZM93.034 246.5H87.714C87.56 246.094 87.322 245.576 87.098 245.184L86.062 245.394C86.23 245.716 86.412 246.136 86.552 246.5H80.938V247.41H93.034V246.5ZM83.724 249.076H90.304V250.336H83.724V249.076ZM91.382 251.106V248.306H82.702V251.106H91.382ZM93.202 254.48H87.518V254.116C89.072 253.738 90.668 253.164 91.858 252.478L91.158 251.89L90.934 251.946H82.114V252.8H89.282C88.414 253.15 87.378 253.444 86.44 253.64V254.48H80.812V255.39H86.44V256.986C86.44 257.182 86.37 257.238 86.104 257.252C85.866 257.266 84.914 257.266 83.976 257.238C84.102 257.49 84.27 257.826 84.326 258.106C85.572 258.106 86.384 258.106 86.86 257.98C87.35 257.826 87.518 257.588 87.518 257.014V255.39H93.202V254.48ZM99.852 254.368C101.322 253.85 102.274 252.702 102.274 251.19C102.274 250.21 101.854 249.58 101.084 249.58C100.51 249.58 100.02 249.93 100.02 250.588C100.02 251.246 100.496 251.582 101.07 251.582C101.154 251.582 101.224 251.582 101.308 251.568C101.238 252.52 100.622 253.178 99.544 253.626L99.852 254.368ZM118.962 247.62V249.51H114.51V247.62H118.962ZM119.452 252.576V254.872H114.51V252.576H119.452ZM113.502 255.754H120.474V251.694H114.51V250.378H119.97V246.738H116.876C117.058 246.346 117.254 245.884 117.422 245.436L116.246 245.24C116.148 245.688 115.98 246.262 115.812 246.738H113.502V255.754ZM111.276 247.704C111.108 247.13 110.772 246.206 110.52 245.506L109.596 245.758C109.806 246.472 110.142 247.424 110.296 248.012L111.276 247.704ZM111.92 251.736L111.766 251.778H110.576C110.982 250.826 111.43 249.664 111.794 248.67H108.644V249.608H110.492C110.114 250.686 109.652 251.862 109.26 252.688H111.206C110.954 253.668 110.548 254.718 110.114 255.516C109.624 255.726 109.05 256.37 108.476 257.182L109.19 258.134C109.61 257.238 110.086 256.37 110.408 256.37C110.716 256.37 111.22 256.846 111.794 257.182C112.816 257.798 114.02 257.952 115.854 257.952C117.492 257.952 120.11 257.868 121.16 257.798C121.174 257.49 121.356 257 121.468 256.72C119.928 256.888 117.66 257.014 115.882 257.014C114.23 257.014 112.984 256.916 112.004 256.314C111.57 256.048 111.262 255.824 111.024 255.656C111.584 254.606 112.06 253.234 112.41 251.946L111.92 251.736ZM135.552 250.014C135.23 249.412 134.586 248.488 133.998 247.69C134.18 246.99 134.32 246.234 134.404 245.422L133.55 245.338C133.368 247.284 132.906 248.936 131.898 249.972C132.08 250.112 132.416 250.42 132.528 250.588C133.018 250.056 133.396 249.398 133.69 248.642C134.18 249.342 134.656 250.112 134.908 250.644L135.552 250.014ZM132.43 248.684C132.304 248.516 131.814 247.956 131.492 247.592C131.66 246.92 131.8 246.206 131.898 245.45L131.016 245.338C130.778 247.312 130.316 249.076 129.392 250.238C129.588 250.378 129.924 250.672 130.05 250.84C130.554 250.196 130.946 249.384 131.24 248.46C131.506 248.852 131.786 249.286 131.912 249.552L132.43 248.684ZM128.65 245.31C128.3 246.346 127.544 247.648 126.746 248.502C126.928 248.656 127.194 248.964 127.32 249.146C128.202 248.222 129.042 246.808 129.546 245.576L128.65 245.31ZM123.974 246.794H125.878V249.258H123.974V246.794ZM128.776 248.446C128.398 249.706 127.684 251.26 126.844 252.38V252.184H125.514V250.168H126.732V245.884H123.148V250.168H124.674V255.81L123.89 256.02V251.47H123.106V256.202L122.546 256.342L122.742 257.294C123.988 256.944 125.612 256.51 127.18 256.048L127.068 255.18L125.514 255.586V253.094H126.844V252.884C126.956 253.038 127.082 253.192 127.152 253.304C127.446 252.954 127.74 252.548 128.006 252.114V258.05H128.874V250.518C129.168 249.902 129.42 249.286 129.63 248.698L128.776 248.446ZM133.102 253.934H135.076V253.052H133.102V250.644H132.192V256.44C131.688 256.006 131.296 255.264 131.044 254.004C131.128 253.234 131.17 252.492 131.184 251.848L130.288 251.806C130.274 253.514 130.148 256.146 129.042 257.546C129.238 257.658 129.532 257.924 129.686 258.078C130.19 257.448 130.526 256.608 130.75 255.684C131.436 257.476 132.486 257.882 133.858 257.882H135.23C135.272 257.63 135.398 257.21 135.51 256.972C135.188 256.986 134.166 256.986 133.942 256.986C133.648 256.986 133.368 256.958 133.102 256.902V253.934ZM149.146 250.35V249.286H143.364C143.56 247.816 143.574 246.43 143.588 245.31H142.468C142.454 246.416 142.468 247.816 142.258 249.286H136.924V250.35H142.09C141.516 252.996 140.116 255.684 136.644 257.196C136.938 257.406 137.274 257.77 137.428 258.05C140.83 256.496 142.342 253.808 143.014 251.12C144.12 254.298 145.898 256.776 148.586 258.05C148.768 257.742 149.118 257.308 149.37 257.07C146.668 255.964 144.848 253.43 143.868 250.35H149.146ZM152.226 247.494H161.816V249.398H162.866V246.528H157.7C157.546 246.122 157.266 245.59 157.014 245.198L155.95 245.506C156.132 245.814 156.314 246.178 156.468 246.528H151.218V249.398H152.226V247.494ZM161.032 250.28C160.248 251.008 159.044 251.932 157.98 252.618C157.686 251.862 157.196 251.12 156.552 250.476C156.916 250.238 157.238 250 157.546 249.734H161.018V248.824H152.968V249.734H156.16C154.83 250.644 152.926 251.344 151.162 251.764C151.344 251.96 151.638 252.38 151.736 252.59C153.08 252.184 154.522 251.638 155.768 250.938C156.034 251.204 156.258 251.47 156.44 251.764C155.222 252.674 152.884 253.668 151.134 254.088C151.33 254.298 151.554 254.676 151.666 254.9C153.332 254.382 155.488 253.402 156.86 252.464C157.028 252.786 157.14 253.122 157.238 253.444C155.852 254.704 153.136 256.006 150.896 256.524C151.092 256.762 151.33 257.14 151.442 257.406C153.444 256.79 155.838 255.628 157.434 254.41C157.56 255.544 157.308 256.51 156.888 256.818C156.622 257.07 156.356 257.112 155.992 257.112C155.698 257.112 155.236 257.084 154.732 257.042C154.886 257.322 154.998 257.728 154.998 258.022C155.446 258.036 155.88 258.05 156.202 258.05C156.818 258.05 157.182 257.938 157.63 257.56C158.386 256.972 158.736 255.25 158.26 253.444C158.47 253.332 158.708 253.192 158.918 253.052C159.674 255.068 161.004 256.692 162.782 257.49C162.922 257.224 163.23 256.832 163.454 256.636C161.704 255.964 160.374 254.382 159.73 252.534C160.486 252.03 161.256 251.47 161.886 250.952L161.032 250.28ZM169.152 251.386H166.212V248.46H169.152V251.386ZM166.212 255.67V252.31H169.152V255.67H166.212ZM167.388 245.254C167.29 245.912 167.038 246.85 166.828 247.522H165.26V257.714H166.212V256.608H170.104V247.522H167.78C168.018 246.92 168.27 246.15 168.508 245.464L167.388 245.254ZM176.95 247.48H172.764C173.002 246.822 173.198 246.15 173.366 245.464L172.372 245.226C171.924 247.144 171.168 249.076 170.23 250.308C170.454 250.448 170.902 250.728 171.084 250.896C171.574 250.238 172.008 249.384 172.4 248.446H175.956C175.774 254.018 175.564 256.146 175.102 256.636C174.962 256.818 174.808 256.846 174.528 256.846C174.206 256.846 173.366 256.846 172.456 256.762C172.652 257.056 172.778 257.476 172.806 257.784C173.59 257.826 174.388 257.854 174.878 257.798C175.354 257.756 175.676 257.63 175.984 257.238C176.544 256.552 176.726 254.396 176.95 248.012V247.48ZM174.738 253.78C174.29 252.954 173.324 251.61 172.54 250.616L171.728 251.092C172.498 252.1 173.436 253.486 173.856 254.326L174.738 253.78ZM185.532 255.964V247.928H190.558V246.864H179.498V247.928H184.398V255.964H178.77V257H191.258V255.964H185.532ZM196.018 245.338C195.234 247.466 193.946 249.552 192.56 250.896C192.756 251.12 193.064 251.694 193.162 251.932C193.638 251.442 194.114 250.882 194.548 250.266V258.05H195.584V248.656C196.13 247.69 196.634 246.668 197.012 245.66L196.018 245.338ZM205.412 248.614V247.62H199.588C199.868 247.004 200.134 246.374 200.358 245.73L199.364 245.464C198.678 247.508 197.544 249.524 196.284 250.826C196.522 250.994 196.928 251.344 197.096 251.526C197.796 250.742 198.482 249.734 199.084 248.614H200.05V258.064H201.1V254.676H205.286V253.696H201.1V251.582H205.09V250.616H201.1V248.614H205.412ZM219.048 248.208C218.698 247.522 217.886 246.486 217.172 245.744L216.346 246.15C217.046 246.92 217.844 247.984 218.166 248.67L219.048 248.208ZM219.342 250.448V249.426H215.618V249.09V245.31H214.624V249.104V249.426H211.586V250.448H214.582C214.442 252.8 213.798 255.32 211.124 257.28V245.296H210.13V249.314H208.184V245.884H207.232V250.252H210.13V252.24H206.686V253.192H207.764V253.598C207.764 254.592 207.596 256.16 206.588 257.28C206.812 257.378 207.19 257.616 207.386 257.77C208.492 256.566 208.716 254.774 208.716 253.612V253.192H210.13V258.064H211.124V257.336C211.362 257.532 211.656 257.868 211.782 258.106C213.938 256.524 214.904 254.62 215.31 252.66C215.786 254.606 216.71 256.79 218.74 258.008C218.908 257.728 219.23 257.392 219.51 257.182C216.794 255.656 216.108 252.45 215.898 250.448H219.342ZM224.648 246.724C224.088 246.262 222.954 245.702 222.044 245.38L221.484 246.15C222.394 246.514 223.514 247.116 224.06 247.606L224.648 246.724ZM223.948 250.504C223.332 250.07 222.1 249.538 221.134 249.23L220.588 250.028C221.582 250.378 222.786 250.952 223.388 251.4L223.948 250.504ZM223.976 252.604C223.122 254.242 221.932 256.146 221.134 257.238L222.002 257.91C222.884 256.58 223.92 254.774 224.718 253.248L223.976 252.604ZM226.384 246.892H231.55V250.63H226.384V246.892ZM230.948 257.028C230.598 257.028 230.542 256.944 230.542 256.524V251.61H232.614V245.926H225.376V251.61H226.86C226.72 254.48 226.342 256.272 223.766 257.238C223.976 257.434 224.284 257.826 224.396 258.078C227.21 256.93 227.728 254.844 227.882 251.61H229.506V256.538C229.506 257.616 229.758 257.938 230.794 257.938H232.166C233.09 257.938 233.356 257.392 233.454 255.32C233.174 255.25 232.754 255.096 232.544 254.914C232.502 256.706 232.432 257.028 232.082 257.028H230.948Z" fill="white"/>
<circle cx="170" cy="36" r="36" fill="#0DEFB5"/>
<path d="M172.404 46.9554C170.414 47.3336 168.368 47.1909 166.487 46.544C164.624 45.9013 162.921 44.735 161.69 43.2583C160.712 42.0906 160.01 40.7054 159.653 39.2676C160.763 39.8688 161.952 40.2608 163.161 40.4173L163.323 39.3064C161.73 39.1 160.169 38.4226 158.811 37.3491L158.37 37L157.985 37.4045C156.567 38.8936 155.535 40.8079 155 42.9439L156.159 43.2015C156.489 41.887 157.021 40.6666 157.726 39.5973C158.138 41.3329 158.963 42.973 160.156 44.3956C161.628 46.1603 163.584 47.5012 165.816 48.27C167.227 48.7548 168.714 49 170.213 49C171.073 49 171.938 48.9197 172.794 48.7562C175.123 48.3074 177.269 47.2546 179 45.7115L177.658 44.3776C176.213 45.6658 174.346 46.5828 172.404 46.9568V46.9554Z" fill="#00092B" stroke="#00092B" stroke-linejoin="round"/>
<path d="M182.273 34.1874C181.861 32.3069 181.036 30.5299 179.843 28.9886C178.37 27.0765 176.414 25.6237 174.183 24.7907C171.963 23.9638 169.551 23.7807 167.206 24.2639C164.877 24.7502 162.731 25.8908 161 27.5628L162.342 29.0081C163.787 27.6123 165.654 26.6187 167.596 26.2135C169.586 25.8038 171.632 25.9584 173.513 26.6593C175.376 27.3557 177.079 28.6194 178.31 30.2192C179.288 31.4844 179.99 32.9853 180.347 34.5431C179.237 33.8918 178.048 33.467 176.839 33.2974L176.677 34.5011C178.27 34.7247 179.831 35.4586 181.189 36.6218L181.63 37L182.015 36.5618C183.432 34.9499 184.465 32.8742 185 30.5599L183.841 30.2808C183.511 31.7051 182.979 33.0273 182.274 34.1859L182.273 34.1874Z" fill="#00092B" stroke="#00092B" stroke-linejoin="round"/>
</svg>
