<svg width="339" height="178" viewBox="0 0 339 178" fill="none" xmlns="http://www.w3.org/2000/svg">
<path d="M1.5 168C1.5 172.694 5.30558 176.5 10 176.5H329C333.694 176.5 337.5 172.694 337.5 168V46C337.5 41.3056 333.694 37.5 329 37.5H10C5.30558 37.5 1.5 41.3056 1.5 46V168Z" fill="white" fill-opacity="0.1" stroke="#13D1FF" stroke-width="3"/>
<path d="M73.216 88.088H65.168V89.848H73.216V88.088ZM70.912 94.856H67.376V92.728H70.912V94.856ZM72.768 91.064H65.616V96.52H72.768V91.064ZM68.496 99.784C68.352 98.952 67.984 97.704 67.536 96.76L65.936 97.192C66.336 98.136 66.704 99.432 66.8 100.264L68.496 99.784ZM64.96 99.048C64.64 98.616 63.376 96.92 62.736 96.2C62.768 95.928 62.816 95.656 62.832 95.4H64.832V93.704H62.96C62.96 93.528 62.96 93.352 62.96 93.176V91.176H64.72V89.48H61.184C61.296 88.92 61.408 88.344 61.488 87.768L59.76 87.448C59.552 89.272 59.136 91.128 58.464 92.312C58.864 92.552 59.6 93.032 59.904 93.32C60.224 92.744 60.496 91.992 60.752 91.176H61.216V93.144C61.216 93.32 61.216 93.512 61.216 93.704H58.576V95.4H61.104C60.88 97.32 60.24 99.416 58.496 100.984C58.832 101.224 59.536 101.896 59.776 102.264C61.008 101.16 61.792 99.704 62.256 98.216C62.8 99.032 63.392 99.976 63.744 100.616L64.96 99.048ZM71.152 100.296C71.568 99.352 72 98.136 72.4 97.032L70.528 96.632C70.272 97.768 69.824 99.224 69.376 100.296H64.544V102.056H73.456V100.296H71.152ZM89.2 88.296H85.584V89.992H89.2V88.296ZM76.976 87.448C76.448 88.44 75.328 89.704 74.336 90.488C74.64 90.824 75.072 91.544 75.28 91.944C76.496 90.968 77.824 89.464 78.688 88.072L76.976 87.448ZM80.208 96.024V95.304H81.216V96.024H80.208ZM80.208 93.576H81.216V94.264H80.208V93.576ZM83.696 93.576V94.264H82.72V93.576H83.696ZM83.696 96.024H82.72V95.304H83.696V96.024ZM89.52 92.344H85.344V94.072H86.608V100.376C86.608 100.552 86.56 100.6 86.368 100.6C86.208 100.6 85.712 100.6 85.2 100.584L85.216 99.816L82.72 99.944V99.176H84.992V97.8H82.72V97.128H85.072V92.456H82.72V91.752H85.344V90.264H82.72V89.352C83.6 89.256 84.448 89.128 85.168 88.968L84.272 87.576C82.832 87.912 80.608 88.152 78.672 88.28C78.832 88.648 79.04 89.224 79.088 89.592C79.76 89.576 80.48 89.544 81.216 89.48V90.264H78.704V91.32L77.232 90.792C76.512 92.36 75.344 93.992 74.224 95.064C74.528 95.448 75.056 96.392 75.232 96.792C75.536 96.472 75.856 96.12 76.16 95.736V102.392H77.888V93.24C78.192 92.744 78.464 92.248 78.704 91.752H81.216V92.456H78.896V97.128H81.216V97.8H78.976V99.176H81.216V100.024C80.208 100.072 79.296 100.12 78.544 100.136L78.736 101.624C80.512 101.512 82.912 101.368 85.2 101.192V100.792C85.392 101.304 85.552 101.944 85.6 102.392C86.544 102.392 87.232 102.36 87.744 102.056C88.272 101.752 88.384 101.256 88.384 100.408V94.072H89.52V92.344ZM98.496 91.032C99.056 90.584 99.568 90.12 100.032 89.608C100.592 90.104 101.232 90.584 101.92 91.032H98.496ZM95.696 95.352C95.472 94.968 94.448 93.384 94.064 92.872V92.184H95.28V91.432C95.632 91.768 96.032 92.216 96.24 92.504C96.768 92.216 97.312 91.88 97.824 91.528V92.456H102.528V91.416C103.264 91.864 104.048 92.28 104.784 92.6C104.912 92.088 105.248 91.272 105.536 90.792C103.968 90.28 102.208 89.352 101.024 88.376C101.136 88.216 101.248 88.056 101.328 87.896L99.52 87.24C98.64 88.648 97.04 90.088 95.28 91.032V90.424H94.064V87.448H92.576V90.424H90.96V92.184H92.336C91.968 93.976 91.312 96.04 90.56 97.176C90.8 97.672 91.152 98.52 91.296 99.064C91.776 98.216 92.208 96.968 92.576 95.608V102.376H94.064V94.84C94.4 95.48 94.736 96.2 94.896 96.648L95.696 95.352ZM101.904 94.536H103.04V96.008H101.904V94.536ZM100.528 97.272H104.496V93.256H100.528V97.272ZM97.312 94.536H98.384V96.008H97.312V94.536ZM95.952 97.272H99.824V93.256H95.952V97.272ZM97.2 97.448C96.72 99.064 95.696 100.408 94.304 101.24C94.672 101.496 95.264 102.12 95.52 102.44C96.416 101.832 97.184 101.032 97.808 100.056C98.304 100.408 98.816 100.84 99.088 101.16L100.032 99.896C99.696 99.56 99.088 99.112 98.512 98.744C98.64 98.44 98.768 98.12 98.864 97.8L97.2 97.448ZM101.616 97.432C101.328 99.064 100.56 100.408 99.312 101.224C99.664 101.464 100.272 102.104 100.512 102.424C101.216 101.912 101.824 101.24 102.288 100.44C103.088 101.032 103.872 101.688 104.32 102.168L105.456 100.888C104.912 100.344 103.872 99.592 102.976 98.968C103.12 98.552 103.232 98.12 103.328 97.672L101.616 97.432ZM113.04 96.136C112.736 95.816 111.568 94.68 110.928 94.12C111.664 93.08 112.304 91.944 112.768 90.776L111.76 90.04L111.424 90.12H110.288L111.184 89.512C110.912 88.92 110.304 88.104 109.76 87.496L108.304 88.392C108.72 88.888 109.168 89.56 109.472 90.12H106.752V91.832H110.4C109.44 93.528 107.888 95.096 106.288 95.976C106.512 96.328 106.88 97.384 107.008 97.912C107.632 97.544 108.224 97.048 108.832 96.504V102.376H110.704V96.168C111.152 96.712 111.6 97.304 111.872 97.704L113.04 96.136ZM115.248 94.488H118.784V95.528H115.248V94.488ZM115.248 92.04H118.784V93.064H115.248V92.04ZM115.248 89.592H118.784V90.632H115.248V89.592ZM119.184 100.664C118.96 100.664 118.928 100.616 118.928 100.184V97.048H120.608V88.088H113.52V97.048H114.576C114.4 99.016 113.968 100.28 111.408 101.016C111.728 101.336 112.192 101.976 112.352 102.408C115.424 101.416 116.048 99.656 116.272 97.048H117.168V100.184C117.168 101.768 117.472 102.312 118.88 102.312H119.936C121.024 102.312 121.472 101.736 121.632 99.56C121.152 99.432 120.4 99.144 120.08 98.856C120.032 100.456 119.984 100.664 119.712 100.664H119.184ZM132.8 98.168V98.808H127.216V98.168H132.8ZM127.216 100.696V100.056H132.8V100.696H127.216ZM125.344 102.376H127.216V101.944H132.8V102.328H134.752V96.92H125.344V102.376ZM125.264 92.056C125.936 91.8 126.576 91.496 127.2 91.176V91.496H132.816V91.08C133.52 91.448 134.24 91.784 134.992 92.056H125.264ZM133.872 95.24H132.576C132.832 94.792 133.136 94.168 133.456 93.528L132.208 93.224H133.872V95.24ZM126.032 95.24V93.224H127.84L126.608 93.576C126.864 94.088 127.072 94.744 127.152 95.24H126.032ZM129.168 95.24H127.536L128.56 94.92C128.464 94.456 128.208 93.768 127.92 93.224H129.168V95.24ZM131.856 93.224C131.712 93.752 131.456 94.488 131.232 94.968L132.192 95.24H130.704V93.224H131.856ZM128.768 90.264C129.248 89.928 129.712 89.576 130.128 89.224C130.528 89.576 130.992 89.928 131.472 90.264H128.768ZM129.68 87.32C128.224 89.176 125.376 90.504 122.432 91.192C122.752 91.544 123.264 92.312 123.456 92.664C123.776 92.584 124.112 92.472 124.448 92.36V96.392H135.568V92.264C135.904 92.36 136.24 92.472 136.56 92.552C136.816 92.104 137.36 91.432 137.76 91.096C135.216 90.6 132.592 89.496 131.12 88.216C131.2 88.12 131.28 88.008 131.36 87.912L129.68 87.32ZM153.312 92.632H149.456V91.976H152.496V90.792H149.456V90.184H152.992V88.92H151.264C151.504 88.6 151.776 88.232 152.016 87.864L150.352 87.448C150.224 87.88 149.904 88.472 149.632 88.92H147.664C147.488 88.504 147.104 87.896 146.752 87.448L145.408 87.928C145.616 88.216 145.84 88.584 146.016 88.92H144.272V90.184H147.632V90.792H144.784V91.976H147.632V92.632H143.776V93.992H153.328L153.312 92.632ZM143.776 90.12H141.088L142.256 89.64C142.112 89.096 141.712 88.168 141.344 87.512L139.984 88.008C140.32 88.664 140.64 89.528 140.784 90.12H138.56V91.608H143.776V90.12ZM141.984 98.168V100.056H140.4V98.168H141.984ZM143.344 96.712H139.056V102.184H140.4V101.512H143.344V96.712ZM139.12 95.928H143.376V94.504H139.12V95.928ZM139.12 93.768H143.376V92.328H139.12V93.768ZM147.392 96.44V95.528C147.888 95.448 148.336 95.336 148.752 95.224C148.768 95.656 148.784 96.04 148.816 96.44H147.392ZM151.456 98.008C151.264 98.36 150.992 98.68 150.704 99C150.624 98.648 150.544 98.264 150.496 97.816H153.296V96.44H152.16L153.2 95.704C152.88 95.24 152.16 94.632 151.568 94.232L150.48 94.968C151.04 95.384 151.68 95.976 152 96.44H150.352C150.32 95.8 150.304 95.08 150.304 94.328H148.72C148.72 94.616 148.736 94.92 148.752 95.224L147.776 94.104C146.832 94.408 145.232 94.648 143.888 94.776C144.032 95.08 144.208 95.56 144.256 95.88C144.736 95.848 145.232 95.816 145.744 95.752V96.44H143.744V97.816H145.744V98.584C144.96 98.664 144.256 98.728 143.648 98.776L143.824 100.232C144.416 100.168 145.056 100.088 145.744 100.008V100.824C145.744 101 145.68 101.048 145.488 101.064C145.312 101.064 144.704 101.064 144.16 101.048C144.352 101.432 144.56 101.992 144.624 102.392C145.568 102.392 146.256 102.376 146.752 102.168C147.248 101.944 147.392 101.608 147.392 100.872V99.8L148.704 99.64L148.672 98.296L147.392 98.424V97.816H148.944C149.056 98.696 149.216 99.448 149.424 100.12C148.784 100.552 148.096 100.936 147.424 101.208C147.728 101.464 148.128 101.912 148.32 102.2C148.864 101.96 149.424 101.672 149.952 101.32C150.416 102.04 151.04 102.456 151.856 102.456C152.832 102.456 153.344 101.896 153.568 100.36C153.232 100.216 152.784 99.992 152.48 99.704C152.432 100.568 152.272 100.984 152.032 100.984C151.712 100.984 151.44 100.776 151.2 100.376C151.808 99.864 152.336 99.272 152.736 98.632L151.456 98.008ZM160.713 89.128C159.401 91 158.697 93.448 158.697 96.056C158.697 98.664 159.401 101.128 160.713 102.984H162.905C161.737 101.128 161.001 98.664 161.001 96.056C161.001 93.448 161.737 91 162.905 89.128H160.713ZM168.344 89.688C165.752 89.688 164.008 90.968 164.008 93C164.008 96.968 169.976 95.736 169.976 97.848C169.976 98.536 169.352 98.92 168.312 98.92C167.128 98.92 165.496 98.264 164.344 97.24L163.336 99.304C164.6 100.376 166.44 101.08 168.28 101.08C170.76 101.08 172.664 99.896 172.664 97.704C172.68 93.672 166.712 94.824 166.712 92.76C166.712 92.152 167.288 91.848 168.136 91.848C169.032 91.848 170.44 92.296 171.624 93L172.6 90.904C171.48 90.168 169.912 89.688 168.344 89.688ZM179.651 92.312C178.483 92.312 177.539 92.792 176.931 93.656V92.392H174.467V104.104H176.931V99.752C177.555 100.616 178.499 101.096 179.699 101.096C182.115 101.096 183.699 99.352 183.699 96.744C183.699 94.088 182.067 92.312 179.651 92.312ZM179.075 99.048C177.811 99.048 176.931 98.088 176.931 96.664C176.931 95.272 177.811 94.296 179.075 94.296C180.339 94.296 181.203 95.288 181.203 96.664C181.203 98.072 180.339 99.048 179.075 99.048ZM187.789 92.392H185.325V101H187.789V96.856C187.789 95.4 188.877 94.456 190.637 94.616V92.296C189.357 92.312 188.381 92.888 187.789 93.944V92.392ZM193.213 88.568C192.429 88.568 191.885 89.144 191.885 89.944C191.885 90.744 192.429 91.32 193.213 91.32C193.997 91.32 194.541 90.744 194.541 89.944C194.541 89.144 193.997 88.568 193.213 88.568ZM194.445 101V92.392H191.981V101H194.445ZM202.249 92.296C200.905 92.312 199.881 92.824 199.273 93.896V92.392H196.809V101H199.273V96.76C199.273 95.496 200.009 94.568 201.241 94.552C202.297 94.552 202.937 95.224 202.937 96.312V101H205.401V95.592C205.401 93.576 204.169 92.296 202.249 92.296ZM212.344 98.712C211.896 98.92 211.512 99.032 211.192 99.032C210.664 99.048 210.36 98.76 210.36 98.04V94.488H212.696V92.776H210.36V90.408H207.912V92.776H206.712V94.472H207.912V98.456C207.912 100.232 209.08 101.112 210.616 101.112C211.416 101.112 212.216 100.888 212.856 100.52L212.344 98.712ZM225.128 101H227.992L225.608 97.304C226.968 96.664 227.704 95.416 227.704 93.688C227.704 91.208 226.04 89.8 223.112 89.8H218.248V101H220.776V97.8H223.112H223.352L225.128 101ZM220.776 95.688V91.896H223.112C224.504 91.896 225.304 92.52 225.304 93.768C225.304 95.048 224.504 95.688 223.112 95.688H220.776ZM233.474 92.312C230.85 92.312 229.042 94.072 229.042 96.728C229.042 99.336 230.786 101.096 233.538 101.096C235.09 101.096 236.354 100.536 237.218 99.576L235.922 98.264C235.33 98.856 234.562 99.176 233.746 99.176C232.642 99.176 231.81 98.536 231.522 97.448H237.698C237.906 94.312 236.498 92.312 233.474 92.312ZM231.474 95.992C231.666 94.856 232.402 94.12 233.49 94.12C234.626 94.12 235.362 94.856 235.394 95.992H231.474ZM243.603 101L246.851 92.392H244.403L242.387 98.664L240.355 92.392L237.811 92.408L241.075 101H243.603ZM249.166 88.568C248.382 88.568 247.838 89.144 247.838 89.944C247.838 90.744 248.382 91.32 249.166 91.32C249.95 91.32 250.494 90.744 250.494 89.944C250.494 89.144 249.95 88.568 249.166 88.568ZM250.398 101V92.392H247.934V101H250.398ZM256.458 92.312C253.834 92.312 252.026 94.072 252.026 96.728C252.026 99.336 253.77 101.096 256.522 101.096C258.074 101.096 259.338 100.536 260.202 99.576L258.906 98.264C258.314 98.856 257.546 99.176 256.73 99.176C255.626 99.176 254.794 98.536 254.506 97.448H260.682C260.89 94.312 259.482 92.312 256.458 92.312ZM254.458 95.992C254.65 94.856 255.386 94.12 256.474 94.12C257.61 94.12 258.346 94.856 258.378 95.992H254.458ZM272.572 101L275.708 92.392H273.276L271.388 98.552L269.5 92.392H267.084L265.228 98.552L263.308 92.392L260.796 92.408L263.948 101H266.412L268.252 95.32L270.108 101H272.572ZM276.777 89.128C277.945 91 278.697 93.448 278.697 96.056C278.697 98.664 277.945 101.128 276.777 102.984H278.985C280.297 101.128 281.001 98.664 281.001 96.056C281.001 93.448 280.297 91 278.985 89.128H276.777Z" fill="#13D1FF"/>
<path d="M17.588 127.814V125.49H21.354V127.814H17.588ZM13.15 127.814C13.192 127.296 13.206 126.778 13.206 126.316V125.49H16.552V127.814H13.15ZM16.552 122.27V124.51H13.206V122.27H16.552ZM21.354 124.51H17.588V122.27H21.354V124.51ZM22.376 121.276H12.184V126.316C12.184 128.262 12.044 130.726 10.504 132.462C10.728 132.588 11.148 132.938 11.302 133.148C12.366 131.958 12.842 130.362 13.052 128.808H16.552V132.938H17.588V128.808H21.354V131.65C21.354 131.916 21.256 132 20.976 132.014C20.724 132.014 19.772 132.028 18.792 131.986C18.932 132.266 19.1 132.714 19.142 132.994C20.458 133.008 21.27 132.994 21.746 132.826C22.194 132.644 22.376 132.336 22.376 131.664V121.276ZM34.6038 123.572C34.2958 125.126 33.6238 126.484 32.6158 127.352C32.8678 127.464 33.2878 127.758 33.4838 127.912C33.9598 127.464 34.3658 126.904 34.7158 126.26C35.5418 126.946 36.4238 127.73 36.8998 128.262L37.6418 127.548C37.0818 126.974 36.0038 126.078 35.1218 125.392C35.3178 124.874 35.4858 124.328 35.5978 123.74L34.6038 123.572ZM28.0098 123.572C27.6038 125.378 26.7358 126.876 25.4618 127.828C25.6998 127.982 26.1058 128.318 26.2878 128.5C26.9738 127.926 27.5758 127.184 28.0518 126.302C28.5558 126.792 29.0738 127.31 29.3538 127.66L30.0678 126.946C29.7178 126.54 29.0738 125.924 28.4858 125.406C28.6958 124.888 28.8918 124.342 29.0318 123.754L28.0098 123.572ZM32.0138 123.25H37.5718V122.228H32.0138V120.296H30.9498V122.228H25.5878V123.25H30.9498V126.666C29.6618 128.696 27.3518 130.628 25.0978 131.552C25.3358 131.762 25.6718 132.168 25.8258 132.42C27.6878 131.552 29.5638 130.04 30.9498 128.262V133.064H32.0138V128.22C33.3718 130.04 35.2758 131.608 37.2078 132.462C37.3758 132.182 37.7118 131.762 37.9778 131.538C35.5978 130.642 33.2598 128.668 32.0138 126.568V123.25ZM43.8496 127.17C43.6396 126.806 42.7576 125.364 42.4076 124.86V123.95H43.6816V123.782C43.8916 123.964 44.1856 124.258 44.3116 124.44C44.8296 124.146 45.3336 123.824 45.8096 123.46V124.272H49.9816V123.432H45.8516C46.5656 122.9 47.2096 122.298 47.7556 121.654C48.9316 122.69 50.6116 123.726 52.0536 124.342C52.1376 124.076 52.3476 123.656 52.5156 123.404C51.0876 122.9 49.3376 121.948 48.2876 120.996C48.3996 120.842 48.4976 120.674 48.5956 120.52L47.5876 120.198C46.8316 121.472 45.3336 122.83 43.6816 123.712V122.97H42.4076V120.282H41.5536V122.97H39.8876V123.95H41.4136C41.0636 125.798 40.3496 127.926 39.6356 129.046C39.7896 129.312 39.9996 129.774 40.0976 130.068C40.6296 129.144 41.1616 127.66 41.5536 126.12V133.064H42.4076V126.036C42.7576 126.708 43.1776 127.52 43.3456 127.954L43.8496 127.17ZM49.1696 126.05H50.7096V127.884H49.1696V126.05ZM48.3576 128.64H51.5636V125.28H48.3576V128.64ZM45.1656 126.05H46.6636V127.884H45.1656V126.05ZM44.3676 128.64H47.4896V125.28H44.3676V128.64ZM45.5576 128.962C45.1096 130.474 44.1576 131.678 42.8836 132.434C43.1076 132.602 43.4436 132.938 43.5976 133.12C44.4096 132.56 45.1376 131.804 45.6836 130.894C46.2436 131.3 46.8176 131.762 47.1116 132.098L47.6716 131.398C47.3216 131.048 46.6636 130.544 46.0896 130.18C46.2436 129.844 46.3696 129.508 46.4816 129.144L45.5576 128.962ZM49.4496 128.948C49.1556 130.46 48.3996 131.65 47.2656 132.392C47.4756 132.56 47.8396 132.896 47.9656 133.078C48.6796 132.574 49.2536 131.902 49.6736 131.104C50.4856 131.664 51.3536 132.378 51.8296 132.868L52.4596 132.154C51.9276 131.622 50.9196 130.866 50.0376 130.306C50.1916 129.914 50.3036 129.508 50.4016 129.074L49.4496 128.948ZM57.9394 122.088C57.7014 121.584 57.1414 120.856 56.6234 120.338L55.8534 120.828C56.3434 121.36 56.8894 122.13 57.1274 122.648L57.9394 122.088ZM59.5214 127.968C59.2274 127.66 58.1494 126.54 57.6034 126.022C58.3034 125.098 58.9194 124.09 59.3394 123.054L58.7934 122.648L58.5974 122.69H54.3694V123.642H58.0514C57.1554 125.378 55.5314 127.058 53.9914 127.982C54.1454 128.164 54.3834 128.696 54.4674 128.976C55.1114 128.556 55.7694 128.01 56.3994 127.366V133.064H57.4214V127.072C57.9534 127.66 58.5834 128.402 58.8634 128.808L59.5214 127.968ZM61.1314 126.176H65.2194V127.59H61.1314V126.176ZM61.1314 123.964H65.2194V125.364H61.1314V123.964ZM61.1314 121.766H65.2194V123.138H61.1314V121.766ZM64.8974 132.084C64.6034 132.084 64.5614 132.042 64.5614 131.72V128.444H66.2134V120.898H60.1654V128.444H61.4394C61.2574 130.376 60.7394 131.664 58.5134 132.35C58.7094 132.532 58.9894 132.882 59.0874 133.12C61.5234 132.266 62.1534 130.74 62.3914 128.444H63.5814V131.734C63.5814 132.728 63.8054 133.008 64.7574 133.008H65.9194C66.7314 133.008 66.9974 132.56 67.0814 130.754C66.8014 130.684 66.4094 130.516 66.1994 130.362C66.1574 131.902 66.1154 132.084 65.8214 132.084H64.8974ZM79.1692 124.328C78.9452 124.79 78.6512 125.252 78.3152 125.686L76.1312 125.812C76.6212 125.042 77.2512 123.936 77.7132 123.152H81.4512V122.186H78.3012L78.6092 122.074C78.5112 121.584 78.1892 120.828 77.8532 120.282L76.9572 120.548C77.2372 121.052 77.4892 121.71 77.6292 122.186H74.2412V123.152H76.6492C76.2012 123.95 75.4452 125.252 75.1792 125.546C74.9692 125.798 74.6052 125.882 74.3672 125.938C74.4372 126.162 74.5632 126.652 74.6052 126.904C74.8292 126.806 75.2212 126.736 77.5732 126.568C76.5792 127.618 75.3192 128.556 73.9892 129.2C74.1712 129.396 74.4372 129.732 74.5492 129.942C76.9152 128.752 78.9452 126.75 80.0932 124.636L79.1692 124.328ZM72.1272 122.018C71.9032 121.528 71.4692 120.8 71.0632 120.226L70.2932 120.632C70.6712 121.206 71.1052 121.99 71.3012 122.508L72.1272 122.018ZM73.9472 122.662H68.7672V123.516H73.9472V122.662ZM69.3412 127.142H73.4432V126.316H69.3412V127.142ZM69.3412 124.496V125.322H73.4292V124.496H69.3412ZM72.5612 131.356H70.2372V129.046H72.5612V131.356ZM80.1212 126.82C78.9872 129.13 76.4952 131.118 73.4432 132.21V128.178H69.3412V132.882H70.2372V132.224H73.4152L73.2192 132.294C73.4012 132.504 73.6812 132.868 73.7932 133.106C75.4732 132.49 76.9852 131.636 78.2452 130.586C79.1692 131.412 80.1772 132.42 80.6812 133.078L81.4932 132.42C80.9332 131.762 79.8832 130.754 78.9452 129.97C79.8412 129.13 80.5692 128.192 81.1292 127.17L80.1212 126.82ZM94.309 123.698C94.029 124.664 93.609 125.714 93.273 126.372C93.525 126.484 93.917 126.694 94.141 126.82C94.631 125.854 95.2471 124.384 95.611 123.026L94.841 122.62L94.645 122.676H89.577C89.787 121.976 89.983 121.248 90.123 120.506L89.003 120.296C88.583 122.508 87.813 124.692 86.749 126.05C87.029 126.176 87.547 126.456 87.771 126.638C88.331 125.84 88.807 124.832 89.241 123.698H94.309ZM87.337 122.48H83.669V123.488H87.337V122.48ZM87.757 128.22H83.361V129.242H87.757V128.22ZM91.481 124.286H90.389V125.35C90.389 127.352 90.081 130.264 86.063 132.294C86.301 132.476 86.679 132.868 86.847 133.106C89.521 131.706 90.669 129.914 91.159 128.206C91.957 130.46 93.259 132.126 95.359 132.98C95.513 132.686 95.835 132.28 96.045 132.07C93.497 131.188 92.111 128.948 91.467 125.994C91.481 125.798 91.481 125.588 91.481 125.378V124.286ZM110.373 120.898H103.373V121.864H110.373V120.898ZM108.819 126.82H104.787V124.286H108.819V126.82ZM109.827 123.362H103.821V127.744H109.827V123.362ZM106.089 131.188C105.935 130.404 105.515 129.214 105.081 128.318L104.213 128.542C104.619 129.452 105.039 130.67 105.165 131.44L106.089 131.188ZM103.009 130.558C102.715 130.138 101.469 128.458 100.965 127.842C101.035 127.478 101.077 127.114 101.105 126.764H103.079V125.826H101.161C101.175 125.63 101.175 125.462 101.175 125.28V123.11H102.897V122.172H99.6909C99.8169 121.626 99.9149 121.052 99.9989 120.464L99.0469 120.296C98.8229 121.962 98.4169 123.628 97.7589 124.734C97.9829 124.846 98.4029 125.126 98.5569 125.28C98.9069 124.692 99.1869 123.936 99.4389 123.11H100.209V125.266C100.209 125.448 100.209 125.63 100.195 125.826H97.8009V126.764H100.153C99.9849 128.57 99.4389 130.6 97.7309 132.14C97.9129 132.266 98.2909 132.644 98.4309 132.84C99.6489 131.748 100.349 130.362 100.727 128.962C101.287 129.746 102.015 130.838 102.323 131.398L103.009 130.558ZM108.147 131.678C108.595 130.74 109.071 129.494 109.463 128.458L108.413 128.22C108.147 129.256 107.615 130.698 107.153 131.678H102.813V132.658H110.527V131.678H108.147ZM124.897 121.108H121.691V122.046H124.897V121.108ZM114.481 120.282C113.977 121.206 112.997 122.34 112.115 123.054C112.269 123.25 112.549 123.628 112.675 123.838C113.655 123.012 114.747 121.752 115.433 120.632L114.481 120.282ZM116.693 127.786V126.792H118.135V127.786H116.693ZM116.693 125.182H118.135V126.148H116.693V125.182ZM120.389 125.182V126.148H118.989V125.182H120.389ZM120.389 127.786H118.989V126.792H120.389V127.786ZM121.481 131.062L118.989 131.244V130.18H121.243V129.382H118.989V128.472H121.187V124.51H118.989V123.544H121.649V122.704H118.989V121.556C119.843 121.444 120.655 121.318 121.299 121.164L120.767 120.394C119.563 120.688 117.449 120.926 115.699 121.052C115.797 121.262 115.909 121.584 115.937 121.808C116.637 121.78 117.393 121.724 118.135 121.654V122.704H115.671V123.376L114.775 123.068C114.089 124.538 112.997 126.022 111.947 127.016C112.143 127.226 112.451 127.716 112.563 127.926C112.955 127.52 113.375 127.03 113.767 126.498V133.036H114.719V125.112C115.069 124.552 115.391 123.978 115.671 123.404V123.544H118.135V124.51H115.923V128.472H118.135V129.382H115.895V130.18H118.135V131.314C117.127 131.384 116.217 131.44 115.489 131.482L115.601 132.336C117.183 132.224 119.381 132.056 121.481 131.874V131.062ZM125.177 124.636H121.495V125.574H122.965V131.888C122.965 132.056 122.923 132.098 122.755 132.098C122.573 132.112 122.041 132.112 121.411 132.098C121.551 132.364 121.691 132.798 121.719 133.064C122.559 133.064 123.119 133.05 123.483 132.896C123.833 132.728 123.931 132.42 123.931 131.888V125.574H125.177V124.636ZM129.452 129.228V124.65H130.838V123.684H129.452V120.45H128.486V123.684H126.988V124.65H128.486V129.578C127.856 129.802 127.296 130.012 126.82 130.152L127.156 131.188C128.276 130.754 129.69 130.18 131.034 129.634L130.852 128.71L129.452 129.228ZM137.194 128.584V129.746H133.106V128.584H137.194ZM133.106 131.566V130.516H137.194V131.566H133.106ZM132.14 133.036H133.106V132.378H137.194V133.036H138.188V127.786H132.14V133.036ZM132.392 120.688C132.756 121.192 133.176 121.878 133.372 122.312L134.268 121.878C134.086 121.43 133.652 120.786 133.26 120.324L132.392 120.688ZM132.714 123.684C133.134 124.3 133.526 125.14 133.666 125.686L134.296 125.406C134.142 124.874 133.736 124.062 133.316 123.46L132.714 123.684ZM136.368 125.714C136.76 125.21 137.236 124.412 137.642 123.726L136.928 123.46C136.69 124.048 136.2 124.944 135.836 125.476L136.368 125.714ZM137.95 126.176H135.542V123.054H137.95V126.176ZM132.28 123.054H134.73V126.176H132.28V123.054ZM136.928 122.312C137.306 121.822 137.726 121.206 138.104 120.632L137.04 120.254C136.76 120.87 136.27 121.752 135.85 122.312H131.412V126.918H138.846V122.312H136.928ZM151.158 122.116H144.228V121.36H151.158V122.116ZM151.158 123.488H144.228V122.718H151.158V123.488ZM152.18 120.73H143.234V124.118H152.18V120.73ZM153.958 124.692H141.498V125.49H153.958V124.692ZM143.948 128.962V128.164H147.196V128.962H143.948ZM143.948 126.764H147.196V127.548H143.948V126.764ZM151.578 127.548H148.19V126.764H151.578V127.548ZM151.578 128.962H148.19V128.164H151.578V128.962ZM148.19 131.916V131.104H152.894V130.376H148.19V129.606H152.6V126.12H142.982V129.606H147.196V130.376H142.576V131.104H147.196V131.916H141.414V132.728H154.028V131.916H148.19ZM160.39 126.386H157.45V123.46H160.39V126.386ZM157.45 130.67V127.31H160.39V130.67H157.45ZM158.626 120.254C158.528 120.912 158.276 121.85 158.066 122.522H156.498V132.714H157.45V131.608H161.342V122.522H159.018C159.256 121.92 159.508 121.15 159.746 120.464L158.626 120.254ZM168.188 122.48H164.002C164.24 121.822 164.436 121.15 164.604 120.464L163.61 120.226C163.162 122.144 162.406 124.076 161.468 125.308C161.692 125.448 162.14 125.728 162.322 125.896C162.812 125.238 163.246 124.384 163.638 123.446H167.194C167.012 129.018 166.802 131.146 166.34 131.636C166.2 131.818 166.046 131.846 165.766 131.846C165.444 131.846 164.604 131.846 163.694 131.762C163.89 132.056 164.016 132.476 164.044 132.784C164.828 132.826 165.626 132.854 166.116 132.798C166.592 132.756 166.914 132.63 167.222 132.238C167.782 131.552 167.964 129.396 168.188 123.012V122.48ZM165.976 128.78C165.528 127.954 164.562 126.61 163.778 125.616L162.966 126.092C163.736 127.1 164.674 128.486 165.094 129.326L165.976 128.78ZM179.142 120.982C180.024 121.458 181.088 122.172 181.62 122.662L182.264 121.948C181.718 121.458 180.626 120.786 179.758 120.352L179.142 120.982ZM181.13 124.762C180.696 126.176 180.094 127.436 179.338 128.542C178.96 127.212 178.708 125.546 178.568 123.684H183.02V122.662H178.498C178.456 121.906 178.442 121.122 178.442 120.31H177.364C177.378 121.108 177.392 121.892 177.448 122.662H171.61V126.568C171.61 128.374 171.484 130.768 170.336 132.476C170.574 132.602 171.022 132.966 171.204 133.176C172.464 131.356 172.674 128.542 172.674 126.582V126.47H175.222C175.166 128.878 175.096 129.76 174.9 129.97C174.816 130.096 174.676 130.124 174.48 130.124C174.242 130.124 173.64 130.11 172.996 130.054C173.164 130.32 173.276 130.712 173.29 131.034C173.976 131.062 174.606 131.062 174.956 131.034C175.348 130.992 175.586 130.894 175.796 130.628C176.09 130.264 176.174 129.088 176.244 125.952V125.504H172.674V123.684H177.504C177.686 125.938 178.022 127.996 178.526 129.578C177.63 130.628 176.552 131.496 175.306 132.168C175.544 132.364 175.908 132.784 176.062 132.994C177.14 132.364 178.106 131.58 178.946 130.67C179.59 132.112 180.43 132.966 181.508 132.966C182.572 132.966 182.95 132.28 183.146 129.9C182.866 129.816 182.488 129.578 182.25 129.34C182.152 131.202 181.984 131.93 181.592 131.93C180.878 131.93 180.234 131.132 179.716 129.76C180.752 128.43 181.578 126.834 182.18 125.028L181.13 124.762ZM187.604 125.588V124.146H190.754V125.588H187.604ZM187.604 121.864H190.754V123.292H187.604V121.864ZM195.01 123.292H191.832V121.864H195.01V123.292ZM195.01 125.588H191.832V124.146H195.01V125.588ZM197.39 128.626V127.66H191.832V126.484H196.116V120.954H186.554V126.484H190.754V127.66H185.196V128.626H189.886C188.654 129.956 186.666 131.16 184.846 131.748C185.07 131.958 185.406 132.364 185.546 132.602C187.366 131.916 189.41 130.586 190.754 129.06V133.078H191.832V128.99C193.204 130.474 195.262 131.832 197.04 132.546C197.194 132.294 197.516 131.888 197.754 131.678C195.99 131.09 193.988 129.914 192.7 128.626H197.39ZM204.662 129.368C206.132 128.85 207.084 127.702 207.084 126.19C207.084 125.21 206.664 124.58 205.894 124.58C205.32 124.58 204.83 124.93 204.83 125.588C204.83 126.246 205.306 126.582 205.88 126.582C205.964 126.582 206.034 126.582 206.118 126.568C206.048 127.52 205.432 128.178 204.354 128.626L204.662 129.368ZM221.593 125.364C221.201 124.412 220.305 123.04 219.381 122.018L218.457 122.48C219.339 123.502 220.235 124.93 220.613 125.896L221.593 125.364ZM219.605 128.08C218.681 128.472 217.743 128.878 216.847 129.256L216.637 120.996L215.573 121.038L215.811 129.69C215.083 129.998 214.425 130.264 213.879 130.474L214.257 131.552C215.797 130.88 217.911 129.956 219.843 129.074L219.605 128.08ZM226.871 132.224C226.157 131.188 224.673 129.634 223.427 128.374C224.407 126.498 224.939 124.118 225.275 121.122L224.141 121.01C223.525 127.058 222.041 130.446 217.239 132.21C217.491 132.42 217.925 132.896 218.065 133.106C220.249 132.196 221.775 130.978 222.867 129.326C224.057 130.586 225.359 132.056 226.003 133.022L226.871 132.224ZM236.691 123.082H237.713V122.102H240.947V121.192H237.713V120.296H236.691V121.192H235.123V122.102H236.691V123.082ZM237.503 128.71C237.293 129.452 236.817 130.236 236.691 130.446C236.551 130.656 236.425 130.796 236.271 130.824C236.369 130.978 236.481 131.314 236.523 131.454C236.733 131.37 237.069 131.3 239.099 131.104C239.169 131.258 239.239 131.398 239.295 131.524L239.911 131.258C239.701 130.81 239.295 130.054 238.945 129.48L238.343 129.676C238.497 129.956 238.679 130.25 238.833 130.558L237.307 130.698C237.671 130.194 238.035 129.536 238.287 128.906L237.503 128.71ZM231.917 123.082H232.925V122.088H234.619V121.192H232.925V120.296H231.917V121.192H228.781V122.088H231.917V123.082ZM231.021 126.484H234.269V127.688H231.021V126.484ZM231.021 124.552H234.269V125.728H231.021V124.552ZM238.721 125.728H235.305V124.552H238.721V125.728ZM238.721 127.688H235.305V126.484H238.721V127.688ZM236.775 131.986C235.963 131.986 235.823 131.888 235.823 131.482V128.472H239.771V123.768H234.927C235.095 123.418 235.305 123.026 235.487 122.634L234.423 122.438C234.311 122.802 234.129 123.348 233.933 123.768H229.999V128.472H232.785C232.491 130.586 231.707 131.748 228.361 132.322C228.557 132.532 228.837 132.938 228.921 133.204C232.533 132.476 233.485 131.02 233.807 128.472H234.829V131.496C234.829 132.574 235.235 132.854 236.705 132.854H239.561C240.863 132.854 241.185 132.364 241.311 130.32C241.031 130.25 240.639 130.124 240.401 129.942C240.331 131.706 240.219 131.986 239.491 131.986H236.775ZM249.241 123.558H245.853V122.62H249.241V123.558ZM249.241 125.224H245.853V124.3H249.241V125.224ZM249.241 126.932H245.853V125.966H249.241V126.932ZM244.831 128.192H245.853V127.772H255.205V126.932H250.249V125.966H254.225V125.224H250.249V124.3H254.183V123.558H250.249V122.62H254.743V121.78H250.627C250.459 121.332 250.123 120.716 249.815 120.226L248.863 120.52C249.087 120.898 249.325 121.374 249.493 121.78H246.385C246.693 121.346 246.945 120.884 247.183 120.464L246.119 120.268C245.517 121.486 244.397 123.054 242.871 124.216C243.109 124.356 243.445 124.664 243.613 124.888C244.047 124.524 244.467 124.146 244.831 123.754V128.192ZM247.071 130.39C246.175 131.02 244.439 131.566 243.011 131.832C243.221 132.028 243.515 132.378 243.655 132.63C245.083 132.294 246.889 131.552 247.869 130.782L247.071 130.39ZM250.683 130.964C252.069 131.426 253.945 132.112 254.883 132.532L255.457 131.762C254.477 131.342 252.615 130.712 251.257 130.306L250.683 130.964ZM249.857 128.85V127.898H248.835V128.85H243.179V129.704H248.835V133.064H249.857V129.704H255.597V128.85H249.857ZM260.937 124.258H262.925V123.278H260.937V120.282H259.943V123.278H257.675V124.258H259.817C259.327 126.19 258.333 128.36 257.367 129.522C257.535 129.774 257.801 130.18 257.913 130.474C258.669 129.522 259.397 127.968 259.943 126.358V133.05H260.937V126.694C261.469 127.38 262.099 128.248 262.351 128.71L262.995 127.856C262.715 127.478 261.441 126.022 260.937 125.504V124.258ZM264.535 131.16V128.738H268.777V131.16H264.535ZM268.777 122.088V124.426H264.535V122.088H268.777ZM264.535 125.378H268.777V127.786H264.535V125.378ZM263.541 121.108V132.966H264.535V132.126H268.777V132.924H269.799V121.108H263.541ZM273.683 123.39H276.805V124.384H273.683V123.39ZM276.805 121.64V122.69H273.683V121.64H276.805ZM276.987 127.576C277.085 127.744 277.183 127.94 277.281 128.136L275.867 128.248C276.581 127.716 277.309 127.03 277.981 126.316L277.365 125.91C277.183 126.162 276.973 126.4 276.749 126.638L275.713 126.68C276.091 126.33 276.483 125.882 276.805 125.406L276.329 125.154H277.785V120.884H272.689V133.078H273.683V125.154H276.091C275.769 125.728 275.237 126.288 275.097 126.428C274.929 126.582 274.789 126.652 274.635 126.68C274.733 126.876 274.817 127.226 274.873 127.394C274.999 127.338 275.237 127.296 276.175 127.226C275.811 127.59 275.489 127.842 275.335 127.954C275.041 128.178 274.789 128.332 274.579 128.346C274.663 128.528 274.775 128.892 274.789 129.032C274.999 128.962 275.335 128.892 277.547 128.682C277.603 128.85 277.673 129.004 277.715 129.116H277.183V130.348C277.183 130.446 277.183 130.53 277.169 130.628H275.853V129.326H275.139V131.286H277.001C276.791 131.706 276.343 132.084 275.447 132.364C275.615 132.504 275.853 132.798 275.951 132.98C277.687 132.364 277.939 131.412 277.939 130.362V129.116H277.799L278.303 128.92C278.163 128.528 277.827 127.884 277.547 127.394L276.987 127.576ZM281.705 131.72V129.34H280.963V130.628H279.619V129.116H278.835V132.868H279.619V131.286H280.963V131.72H281.705ZM280.025 124.384V123.39H283.245V124.384H280.025ZM283.245 121.64V122.69H280.025V121.64H283.245ZM284.253 120.884H279.031V125.154H279.899C279.563 125.742 279.045 126.288 278.891 126.442C278.737 126.596 278.597 126.666 278.429 126.694C278.527 126.89 278.639 127.24 278.681 127.408C278.807 127.338 279.031 127.296 279.997 127.226C279.605 127.576 279.297 127.856 279.143 127.968C278.849 128.192 278.611 128.318 278.401 128.346C278.471 128.542 278.583 128.892 278.611 129.046C278.793 128.948 279.143 128.906 281.341 128.682C281.439 128.864 281.509 129.018 281.565 129.158L282.125 128.906C281.957 128.528 281.621 127.87 281.313 127.394L280.781 127.576C280.879 127.744 280.977 127.94 281.075 128.136L279.675 128.248C280.403 127.716 281.131 127.03 281.789 126.302L281.187 125.91C280.991 126.162 280.795 126.4 280.571 126.638L279.535 126.694C279.899 126.33 280.291 125.896 280.627 125.42L280.109 125.154H283.245V131.762C283.245 131.944 283.189 132.014 283.007 132.014C282.825 132.028 282.237 132.028 281.621 132C281.761 132.266 281.887 132.756 281.943 133.036C282.811 133.036 283.399 133.008 283.763 132.826C284.141 132.658 284.253 132.336 284.253 131.762V120.884ZM291.104 126.386H288.164V123.46H291.104V126.386ZM288.164 130.67V127.31H291.104V130.67H288.164ZM289.34 120.254C289.242 120.912 288.99 121.85 288.78 122.522H287.212V132.714H288.164V131.608H292.056V122.522H289.732C289.97 121.92 290.222 121.15 290.46 120.464L289.34 120.254ZM298.902 122.48H294.716C294.954 121.822 295.15 121.15 295.318 120.464L294.324 120.226C293.876 122.144 293.12 124.076 292.182 125.308C292.406 125.448 292.854 125.728 293.036 125.896C293.526 125.238 293.96 124.384 294.352 123.446H297.908C297.726 129.018 297.516 131.146 297.054 131.636C296.914 131.818 296.76 131.846 296.48 131.846C296.158 131.846 295.318 131.846 294.408 131.762C294.604 132.056 294.73 132.476 294.758 132.784C295.542 132.826 296.34 132.854 296.83 132.798C297.306 132.756 297.628 132.63 297.936 132.238C298.496 131.552 298.678 129.396 298.902 123.012V122.48ZM296.69 128.78C296.242 127.954 295.276 126.61 294.492 125.616L293.68 126.092C294.45 127.1 295.388 128.486 295.808 129.326L296.69 128.78ZM309.128 128.206H305.74V125.014H309.128V128.206ZM304.746 124.076V129.13H310.15V124.076H304.746ZM302.73 131.328V121.906H312.18V131.328H302.73ZM301.68 120.87V133.064H302.73V132.308H312.18V133.064H313.286V120.87H301.68ZM322.434 122.816V121.864H324.156V122.816H322.434ZM326.858 121.864V122.816H325.108V121.864H326.858ZM324.156 124.188H320.894V124.986H328.384V124.188H325.108V123.502H327.782V121.192H325.108V120.268H324.156V121.192H321.552V123.502H324.156V124.188ZM322.532 129.2H326.718V130.054H322.532V129.2ZM322.532 127.73H326.718V128.556H322.532V127.73ZM322.532 126.288H326.718V127.086H322.532V126.288ZM327.698 130.712V125.616H321.594V130.712H327.698ZM320.95 122.27C320.502 121.92 319.662 121.374 318.962 120.954C319.06 120.786 319.158 120.632 319.242 120.478L318.388 120.184C317.758 121.36 316.596 122.466 315.504 123.166C315.658 123.362 315.896 123.866 315.966 124.076C316.862 123.46 317.758 122.592 318.472 121.654C319.2 122.116 320.04 122.69 320.474 123.068L320.95 122.27ZM317.394 123.656H319.76V122.9H317.394V123.656ZM319.494 125.294V126.4H317.338V125.294H319.494ZM317.338 128.388V127.184H319.494V128.388H317.338ZM320.922 132.252C320.628 131.566 319.984 130.348 319.466 129.466L318.738 129.76C318.92 130.096 319.116 130.446 319.298 130.824L317.338 131.58V129.186H320.418V124.51H316.414V131.398C316.414 131.902 316.12 132.098 315.91 132.182C316.064 132.392 316.218 132.84 316.274 133.064C316.526 132.868 316.904 132.672 319.648 131.538C319.858 131.972 320.026 132.35 320.138 132.658L320.922 132.252ZM323.12 130.894C322.602 131.496 321.692 132.014 320.852 132.378C321.062 132.546 321.426 132.896 321.566 133.092C322.448 132.658 323.456 131.93 324.058 131.202L323.12 130.894ZM325.276 131.314C326.158 131.86 327.138 132.574 327.726 133.092L328.482 132.532C327.852 132.014 326.83 131.328 325.892 130.782L325.276 131.314ZM15.922 150.536C15.768 150.984 15.446 151.488 14.746 151.936C14.172 151.698 13.57 151.474 12.996 151.292C13.136 151.096 13.29 150.886 13.43 150.662L15.922 150.536ZM12.17 147.288H13.92V148.156H12.17V147.288ZM16.538 147.288V148.156H14.746V147.288H16.538ZM12.562 145.272V144.432H13.92V145.272H12.562ZM13.92 142.99V143.732H12.562V142.99H13.92ZM16.202 142.99V143.732H14.746V142.99H16.202ZM14.746 145.272V144.432H16.202V145.272H14.746ZM17.588 150.438L17.602 149.71L16.902 149.752V149.682V149.136H16.048V149.654V149.794C15.32 149.836 14.606 149.878 13.92 149.906C14.144 149.556 14.34 149.206 14.508 148.856H17.462V146.574H14.746V146H17.126V144.488H18.078V143.69H17.126V142.262H14.746V141.282H13.92V142.262H11.666V143.69H10.728V144.488H11.666V146H13.92V146.574H11.274V148.856H13.556C13.36 149.22 13.136 149.584 12.926 149.962C12.072 149.99 11.288 150.032 10.658 150.046L10.756 150.816L12.408 150.732C12.17 151.068 11.918 151.376 11.694 151.656C12.394 151.852 13.136 152.118 13.85 152.426C13.066 152.776 11.96 153.098 10.476 153.35C10.63 153.532 10.826 153.84 10.91 154.05C12.674 153.728 13.934 153.308 14.83 152.846C15.502 153.154 16.104 153.476 16.552 153.756L17.238 153.154C16.818 152.888 16.258 152.608 15.628 152.328C16.398 151.726 16.706 151.096 16.832 150.48L17.588 150.438ZM21.424 144.894C21.256 146.448 21.018 147.834 20.612 149.038C20.192 147.792 19.884 146.378 19.674 144.894H21.424ZM23.314 144.894V143.956H19.898C20.08 143.172 20.234 142.346 20.346 141.534L19.464 141.394C19.142 143.69 18.596 145.958 17.672 147.428C17.882 147.568 18.232 147.918 18.386 148.058C18.666 147.61 18.904 147.092 19.128 146.518C19.38 147.876 19.702 149.122 20.15 150.214C19.548 151.53 18.708 152.58 17.518 153.364C17.714 153.546 18.008 153.952 18.092 154.148C19.184 153.378 19.996 152.412 20.626 151.264C21.186 152.37 21.914 153.28 22.824 153.91C22.964 153.658 23.244 153.35 23.454 153.168C22.46 152.538 21.704 151.516 21.088 150.256C21.732 148.758 22.096 146.98 22.362 144.894H23.314ZM28.802 148.142L28.676 147.176L27.29 147.61V145.062H28.564V144.096H27.29V141.296H26.338V144.096H24.63V145.062H26.338V147.918C25.624 148.142 24.966 148.324 24.434 148.478L24.7 149.486C25.204 149.332 25.75 149.136 26.338 148.94V152.888C26.338 153.084 26.268 153.14 26.1 153.14C25.946 153.14 25.386 153.14 24.784 153.126C24.924 153.406 25.05 153.826 25.092 154.078C25.974 154.092 26.492 154.05 26.814 153.896C27.164 153.714 27.29 153.448 27.29 152.888V148.632L28.802 148.142ZM29.992 144.488H32.134V145.356L30.314 145.524L30.412 146.322L32.134 146.154C32.148 146.91 32.358 147.246 33.24 147.246H35.382C35.76 147.246 36.194 147.232 36.39 147.176C36.362 146.98 36.334 146.728 36.32 146.504C36.096 146.56 35.592 146.56 35.326 146.56H33.38C33.058 146.56 33.002 146.462 33.002 146.126V145.944L35.34 145.72L35.27 145.076L33.002 145.286V144.488H36.152C36.04 144.88 35.9 145.3 35.774 145.58L36.572 145.762C36.81 145.286 37.062 144.502 37.244 143.83L36.614 143.676L36.446 143.704H33.24V142.934H36.516V142.164H33.24V141.31H32.232V143.704H29.082V147.652C29.082 149.472 28.942 151.838 27.696 153.532C27.92 153.63 28.298 153.91 28.466 154.064C29.796 152.286 29.992 149.612 29.992 147.652V144.488ZM36.572 148.94C35.942 149.332 34.892 149.864 34.024 150.242C33.828 149.864 33.562 149.528 33.226 149.22C33.576 148.996 33.912 148.772 34.164 148.534H37.216V147.806H30.384V148.534H33.184C32.4 149.066 31.224 149.542 30.216 149.822C30.3 149.962 30.468 150.242 30.552 150.382C31.21 150.2 31.938 149.906 32.596 149.57C32.736 149.696 32.848 149.836 32.96 149.976C32.218 150.536 30.972 151.096 29.978 151.348C30.132 151.488 30.3 151.754 30.384 151.936C31.35 151.6 32.498 151.012 33.282 150.452C33.366 150.62 33.45 150.788 33.492 150.942C32.666 151.768 31.056 152.664 29.782 153.056C29.95 153.21 30.132 153.504 30.23 153.686C31.364 153.224 32.736 152.412 33.674 151.628C33.786 152.328 33.646 152.944 33.436 153.154C33.296 153.336 33.114 153.35 32.89 153.35C32.694 153.35 32.4 153.336 32.078 153.308C32.218 153.518 32.288 153.854 32.302 154.064C32.582 154.078 32.834 154.092 33.044 154.092C33.478 154.092 33.744 153.994 34.038 153.728C34.528 153.28 34.724 152.006 34.262 150.788C34.472 150.704 34.696 150.62 34.92 150.536C35.284 151.866 35.97 153.084 36.936 153.7C37.062 153.476 37.342 153.168 37.538 153.014C36.586 152.524 35.914 151.446 35.564 150.256C36.138 150.004 36.698 149.71 37.174 149.444L36.572 148.94ZM50.67 142.78C50.152 142.318 49.116 141.716 48.262 141.338L47.66 141.982C48.514 142.388 49.536 143.032 50.026 143.508L50.67 142.78ZM45.07 150.816C42.802 151.292 40.422 151.768 38.91 152.062L39.106 153.112C40.73 152.748 43.012 152.258 45.154 151.796L45.07 150.816ZM43.6 149.108H40.758V146.686H43.6V149.108ZM39.792 145.776V150.004H44.622V145.776H39.792ZM49.466 145.538C49.018 146.994 48.416 148.282 47.66 149.43C47.31 148.072 47.072 146.392 46.932 144.544H51.062V143.522H46.862C46.834 142.808 46.82 142.08 46.82 141.324H45.728C45.742 142.066 45.756 142.794 45.798 143.522H38.98V144.544H45.854C46.036 146.812 46.344 148.884 46.834 150.522C45.91 151.642 44.79 152.566 43.474 153.266C43.712 153.448 44.118 153.854 44.286 154.064C45.392 153.406 46.372 152.608 47.24 151.656C47.87 153.168 48.71 154.078 49.76 154.078C50.838 154.078 51.23 153.392 51.412 150.998C51.118 150.9 50.74 150.662 50.502 150.41C50.418 152.272 50.25 153 49.858 153C49.172 153 48.542 152.132 48.024 150.69C49.074 149.304 49.9 147.666 50.502 145.79L49.466 145.538ZM53.75 153.7C54.464 153.042 55.038 152.006 55.43 151.166L54.562 150.774C54.226 151.586 53.61 152.594 52.91 153.21L53.75 153.7ZM62.374 147.792H55.682V146.826H62.374V147.792ZM62.374 149.444H55.682V148.478H62.374V149.444ZM63.396 146.112H54.688V150.158H58.202L57.726 150.606C58.496 151.054 59.448 151.712 59.896 152.174L60.54 151.53C60.106 151.124 59.266 150.55 58.538 150.158H63.396V146.112ZM58.062 153.084C57.334 153.084 57.208 153.014 57.208 152.692V150.886H56.186V152.692C56.186 153.686 56.564 153.952 57.978 153.952H60.61C61.73 153.952 62.052 153.574 62.164 152.034C61.898 151.964 61.492 151.824 61.268 151.67C61.198 152.916 61.114 153.084 60.512 153.084H58.062ZM62.36 151.012C63.06 151.768 63.83 152.79 64.138 153.49L65.02 153.042C64.67 152.356 63.886 151.348 63.186 150.648L62.36 151.012ZM61.254 143.172C61.1 143.578 60.848 144.124 60.61 144.558H57.376C57.264 144.152 57.012 143.592 56.76 143.172H61.254ZM61.674 144.558C61.884 144.194 62.108 143.788 62.332 143.354L61.52 143.172H64.306V142.318H59.84C59.672 141.954 59.448 141.506 59.21 141.184L58.202 141.394C58.37 141.674 58.552 141.996 58.692 142.318H53.694V143.172H56.676L55.794 143.368C56.004 143.732 56.186 144.194 56.298 144.558H53.064V145.412H65.02V144.558H61.674ZM69.626 147.33H76.374V148.786H69.626V147.33ZM69.626 145.006H76.374V146.448H69.626V145.006ZM69.626 142.71H76.374V144.138H69.626V142.71ZM75.66 152.972C75.058 152.972 74.946 152.902 74.946 152.496V149.71H77.424V141.772H68.618V149.71H70.508C70.214 151.502 69.472 152.594 66.602 153.168C66.812 153.378 67.106 153.812 67.19 154.078C70.368 153.35 71.264 151.95 71.6 149.71H73.896V152.51C73.896 153.644 74.246 153.952 75.562 153.952H77.816C78.992 153.952 79.3 153.448 79.426 151.418C79.132 151.348 78.684 151.18 78.46 150.998C78.404 152.72 78.292 152.972 77.732 152.972H75.66Z" fill="white"/>
<circle cx="170" cy="36" r="36" fill="#13D1FF"/>
<g clip-path="url(#clip0_62_768)">
<path d="M182.647 46.9278L177.429 41.7107C179.026 39.7361 179.989 37.225 179.989 34.4946C179.989 28.1561 174.833 23 168.495 23C162.156 23 157 28.1561 157 34.4946C157 40.8331 162.156 45.9892 168.495 45.9892C171.225 45.9892 173.736 45.0263 175.711 43.4294L180.928 48.6465C181.159 48.8781 181.476 49 181.781 49C182.086 49 182.403 48.8781 182.634 48.6465C183.11 48.1711 183.11 47.4032 182.634 46.94L182.647 46.9278ZM159.414 34.4946C159.414 29.4848 163.485 25.4135 168.495 25.4135C173.504 25.4135 177.576 29.4848 177.576 34.4946C177.576 39.5045 173.504 43.5757 168.495 43.5757C163.485 43.5757 159.414 39.5045 159.414 34.4946Z" fill="#00092B"/>
</g>
<defs>
<clipPath id="clip0_62_768">
<rect width="26" height="26" fill="white" transform="translate(157 23)"/>
</clipPath>
</defs>
</svg>
