<svg width="360" height="360" viewBox="0 0 360 360" fill="none" xmlns="http://www.w3.org/2000/svg">
<g clip-path="url(#clip0_452_19460)">
<path style="mix-blend-mode:screen" fill-rule="evenodd" clip-rule="evenodd" d="M334.744 179.864C334.744 223.026 315.907 261.967 285.907 289.198C271.535 302.269 254.651 312.617 235.953 319.561C219.07 325.825 200.791 329.228 181.674 329.228C174.837 329.228 168.14 328.82 161.581 328.003C155.581 327.186 149.581 326.097 143.721 324.599C129.907 321.195 116.93 315.885 104.93 309.077C97.2558 304.72 90.1395 299.818 83.4419 294.372C67.6744 281.437 54.5581 265.371 45.0698 247.262C39.2093 235.825 34.7442 223.57 31.9535 210.772C29.8605 200.832 28.7442 190.484 28.7442 180C28.7442 150.59 37.5349 123.086 52.6047 99.8033C59.0233 90 66.5581 81.0136 75.0698 72.8442C102.698 46.702 140.233 30.6354 181.814 30.6354C185.163 30.6354 188.512 30.6354 191.721 30.9077C209.163 31.997 225.628 35.9455 240.977 42.2088C243.628 43.298 246.279 44.5234 248.93 45.7489C260.093 51.059 270.419 57.5945 279.767 65.3555C282.977 67.9425 286.047 70.6656 288.977 73.3888C290.093 74.3419 291.07 75.4312 292.047 76.5204C318.558 103.343 334.884 139.834 334.884 180.136L334.744 179.864Z" fill="url(#paint0_radial_452_19460)"/>
<path fill-rule="evenodd" clip-rule="evenodd" d="M324.419 179.864C324.419 220.166 306.977 256.384 278.93 281.71C265.535 293.828 249.767 303.495 232.465 310.03C216.698 315.885 199.674 319.017 181.814 319.017C175.535 319.017 169.256 318.608 163.116 317.791C157.535 317.11 151.953 316.021 146.512 314.66C133.674 311.392 121.535 306.49 110.372 300.227C103.256 296.142 96.5581 291.649 90.2791 286.475C75.4884 274.493 63.3488 259.516 54.5581 242.632C49.1163 232.012 44.9302 220.575 42.2791 208.729C40.3256 199.47 39.2093 189.803 39.2093 180C39.2093 152.496 47.3023 126.899 61.3953 105.386C67.3953 96.2632 74.3721 87.8215 82.3256 80.3328C108 55.9607 143.023 40.9834 181.674 40.9834C184.744 40.9834 187.814 40.9834 190.884 41.2557C207.07 42.3449 222.558 45.885 236.791 51.7398C239.302 52.829 241.674 53.9183 244.186 55.0076C254.512 59.9092 264.14 66.0363 272.93 73.2526C275.86 75.5673 278.791 78.1543 281.442 80.7413C282.419 81.6944 283.395 82.6475 284.372 83.6006C309.07 108.654 324.279 142.557 324.279 180.136L324.419 179.864Z" fill="url(#paint1_radial_452_19460)"/>
<path style="mix-blend-mode:multiply" opacity="0.4" fill-rule="evenodd" clip-rule="evenodd" d="M324.419 179.864C324.419 220.166 306.977 256.384 278.93 281.71C265.535 293.828 249.767 303.495 232.465 310.03C216.698 315.885 199.674 319.017 181.814 319.017C175.535 319.017 169.256 318.608 163.116 317.791C144 315.34 126.279 309.213 110.372 300.227C115.116 299.001 119.721 297.504 124.465 296.278C135.767 293.419 146.651 290.151 158.372 288.926C162.977 288.381 170.233 286.611 170.512 281.165C170.512 279.667 170.233 279.259 171.209 278.306C172.326 277.352 173.581 277.761 174.977 277.489C178.326 276.808 180.977 273.404 183.07 271.089C186.558 267.277 190.186 263.601 194.233 260.197C201.907 253.661 211.953 250.666 216.837 241.271C218.093 238.684 218.233 236.097 218.93 233.237C219.628 230.106 222 228.064 224.791 226.43C228.279 224.523 231.907 223.843 234.977 221.256C237.907 218.805 239.302 214.992 240.419 211.588C242.233 205.87 241.953 200.151 242.791 194.297C243.209 191.301 244.046 188.442 244.186 185.446C244.326 182.587 243.07 180.408 242.233 177.685C240.558 173.192 238.465 168.427 236.512 164.07C235.814 162.436 234.558 161.074 233.302 159.849C231.349 158.079 229.535 156.036 227.581 154.266C226.186 153.041 224.372 152.224 222.977 150.998C221.86 150.045 221.023 148.684 220.047 147.595C218.233 145.688 216.279 143.782 214.046 142.421C208.326 139.425 204.977 133.843 198.419 132.753C190.326 131.392 183.767 122.95 175.256 125.946C169.814 127.852 164.372 129.894 158.512 131.392C154.744 132.345 150.558 132.209 147.07 133.57C144.837 134.387 142.465 136.293 140.93 137.927C138.558 140.514 137.581 144.054 135.628 146.778C134.093 148.956 133.116 150.998 131.86 153.177C129.349 157.67 129.628 161.891 129.628 166.929C129.628 169.652 129.349 172.511 129.628 175.098C129.907 178.366 131.581 180.681 133.535 183.268C134.791 184.765 135.628 187.352 137.023 188.578C137.86 189.259 138.558 188.986 139.395 189.395C140.791 190.076 141.349 190.62 142.605 191.437C146.372 194.16 150.14 196.747 154.744 197.7C157.116 198.245 159.349 198.517 161.581 199.607C163.395 200.424 165.628 200.968 167.581 201.104C172.326 201.513 176.512 200.015 180.14 197.02C182.372 195.25 184.186 193.752 185.86 191.437C186.837 190.212 187.395 189.395 188.791 188.578C189.767 188.033 190.744 187.489 191.86 187.625C192.837 187.625 193.814 188.85 194.791 188.306C195.628 187.761 196.186 185.174 196.465 184.357C197.023 182.995 197.442 181.225 198.14 179.864C199.256 177.549 201.209 178.094 203.581 177.958C205.256 177.958 207.209 177.821 208.326 176.46C209.302 175.098 209.023 172.239 208.326 170.877C207.209 168.971 204.419 167.065 202.884 165.431C201.628 164.206 200.651 162.844 199.674 161.346C197.86 158.623 197.023 153.585 193.116 152.632C191.581 152.224 189.488 152.632 187.814 152.632C186 152.632 184.744 152.224 182.93 151.815C180.14 151.135 177.628 150.318 174.837 150.318C171.349 150.318 168.279 151.271 165.07 152.632C163.674 153.177 162.558 152.905 161.302 153.313C159.767 153.858 157.395 156.989 157.116 158.487C156.558 161.619 157.814 164.75 160.884 165.976C161.86 166.384 164.233 166.52 165.07 167.337C166.047 168.427 165.209 169.788 164.651 171.014C163.395 174.145 164.093 177.958 168 178.502C170.651 178.911 173.302 177.141 175.674 176.188C177.628 175.234 180.698 174.962 180.698 172.511C180.558 173.601 178.605 173.192 177.628 173.192C175.674 173.192 174.419 173.192 172.884 171.967C171.349 170.741 171.209 169.788 170.651 168.018C170.372 167.337 169.953 166.384 169.535 165.703C169.256 165.295 168.14 164.614 168 164.07C166.884 161.346 175.674 159.985 177.349 159.849C180.977 159.44 183.488 162.027 185.721 164.75C186.698 165.976 188.512 167.746 188.372 169.244C188.372 170.605 187.116 173.056 186.558 174.418C186 175.779 185.442 177.141 185.023 178.502C184.465 180.272 183.488 180.545 181.953 181.498C180.419 182.451 179.302 183.676 178.047 184.765C176.651 185.991 174.837 186.127 173.023 186.536C170.372 187.216 167.86 185.719 165.209 185.991C162.977 185.991 161.023 187.352 158.791 187.489C154.047 187.761 149.86 187.216 148.326 182.315C147.628 180.136 148.326 179.183 149.581 177.821C150.977 176.324 150.558 175.098 149.86 173.328C149.023 171.422 148.047 169.516 147.628 167.337C147.209 165.159 148.605 162.844 148.884 160.666C149.163 158.896 148.326 156.309 148.884 154.675C149.442 153.177 152.651 151.679 153.907 150.59C155.581 149.228 157.953 148.684 159.907 147.731C162.279 146.505 163.953 146.914 166.465 146.505C168.419 146.097 169.535 144.599 171.349 143.918C173.302 143.101 176.093 143.51 178.186 143.51C180.558 143.51 181.814 144.327 183.907 145.28C185.86 146.233 187.674 147.731 189.907 148.003C192.558 148.275 195.349 147.731 198 148.003C200.651 148.139 201.628 149.501 203.581 150.862C205.814 152.36 207.349 153.177 208.884 155.492C209.721 156.581 210 157.806 210.837 158.896C211.674 159.985 212.372 160.666 212.93 162.027C213.628 163.933 214.744 165.567 215.163 167.61C215.442 168.835 215.86 169.788 215.86 171.014C215.721 172.511 215.023 173.873 215.023 175.507C215.023 179.047 213.628 181.77 211.953 184.902C210.279 188.033 209.023 191.301 207.488 194.569C206.512 196.747 206.233 201.104 203.302 201.649C201.767 201.921 200.233 201.649 198.698 202.466C197.163 203.283 196.884 205.053 195.628 206.142C194.512 207.231 192.977 206.823 191.442 206.823C189.07 206.823 186.977 207.231 184.744 208.048C182.093 209.138 180.279 211.725 177.767 212.95C175.674 214.039 173.163 214.856 170.93 215.401C169.256 215.809 167.581 215.401 165.907 215.946C162 217.035 158.791 219.486 155.163 220.847C152.233 221.936 148.605 222.617 145.535 222.345C144.279 222.345 143.163 221.664 142.047 221.392C140.093 220.847 138.14 220.847 136.047 220.303C134.512 219.894 132.977 219.349 131.442 218.805C129.907 218.26 128.93 217.171 127.535 216.49C124.186 214.992 120.977 215.129 117.907 212.678C114.14 209.682 110.791 206.142 106.605 203.555C104.93 202.466 103.814 200.968 102.698 199.47C101.721 197.973 100.465 197.156 99.3488 195.93C97.6744 194.024 96.5581 191.846 95.5814 189.667C94.0465 185.991 92.093 182.723 90.8372 178.911C89.0232 173.601 86.5116 168.563 85.5349 162.98C84.6977 158.351 85.8139 154.13 85.9535 149.637C85.9535 148.548 86.093 147.322 85.9535 146.233C85.6744 144.463 84.1395 143.374 82.8837 142.148C79.1163 138.064 75.907 133.843 73.8139 128.669C71.7209 123.359 70.7442 116.959 72.4186 111.377C74.093 106.339 77.1628 103.616 81.3488 100.62C85.3953 97.6248 90 95.4463 94.6046 93.1316C96.6977 92.0423 98.5116 90.6808 100.744 89.8638C102.977 89.0469 105.628 88.6384 107.86 88.0938C109.953 87.5491 111.628 87.413 113.302 86.1876C115.116 84.9622 117.209 83.4644 118.884 81.9667C120.977 80.1967 122.651 78.2905 125.302 77.6097C129.07 76.6566 132.977 75.5673 136.884 74.7504C141.628 73.7973 147.488 75.0227 152.093 75.5673C156.837 76.1119 161.442 76.1119 166.186 76.1119C170.093 76.1119 173.86 75.4312 177.907 75.295C179.302 75.295 180.837 75.4312 182.372 75.295C184.744 75.295 186.977 74.2057 189.349 73.5249C193.814 72.4357 197.86 70.2572 202.186 68.8956C205.535 67.8063 208.744 67.9425 212.093 67.3979C215.721 66.8532 219.349 65.6278 223.116 65.4917C226.326 65.4917 229.674 64.1301 232.605 65.9001C237.907 69.1679 241.395 74.6142 246.698 77.7458C252.279 81.0136 258.698 83.4644 264.698 85.7791C266.791 86.5961 269.163 85.643 270.977 86.3237C271.953 86.7322 272.93 88.0938 273.628 88.9107C274.605 88.2299 274.326 87.2768 274.326 86.1876C274.326 84.6898 275.163 83.6006 275.163 82.1029C275.163 80.3328 275.442 78.2905 275.163 76.5204C275.023 75.7035 273.767 73.5249 273.767 72.2995C276.698 74.6142 279.628 77.2012 282.279 79.7882C308.651 104.977 325.116 140.242 325.116 179.183L324.419 179.864Z" fill="url(#paint2_radial_452_19460)"/>
<path style="mix-blend-mode:multiply" opacity="0.3" fill-rule="evenodd" clip-rule="evenodd" d="M86.6512 221.936C85.814 224.932 85.2558 228.064 85.1163 231.195C85.9535 231.059 87.2093 232.829 88.0465 233.237C89.7209 233.918 91.3954 233.782 92.9302 234.871C94.3256 235.824 96 237.731 97.5349 238.275C98.5116 238.548 100.047 238.275 101.163 238.275C103.535 238.275 105.488 238.275 107.86 238.82C110.233 239.228 113.302 240.045 115.674 239.773C117.349 239.637 119.86 238.684 121.116 237.731C122.372 236.641 122.93 233.51 123.07 231.876C123.349 226.838 119.581 222.073 115.674 218.941C113.581 217.443 111.349 217.443 109.116 216.218C106.465 214.856 104.093 214.039 101.163 213.359C99.4884 212.95 96.9767 211.997 95.1628 212.133C93.3488 212.133 91.3954 213.222 89.7209 213.631C87.907 214.039 86.2326 214.312 85.1163 215.809C83.8605 217.443 84.4186 219.758 86.6512 221.8V221.936Z" fill="url(#paint3_linear_452_19460)"/>
<path style="mix-blend-mode:multiply" opacity="0.3" fill-rule="evenodd" clip-rule="evenodd" d="M126.977 239.773C126.14 240.862 117.628 247.942 121.814 250.802C122.093 250.938 123.767 251.346 124.047 251.483C125.302 251.755 125.581 251.483 126.558 250.938C128.512 249.713 128.791 247.534 128.372 245.356C128.372 244.947 127.814 243.585 127.674 243.177C127.256 242.36 126.419 242.224 126.279 241.271L126.977 239.773Z" fill="url(#paint4_linear_452_19460)"/>
<path style="mix-blend-mode:multiply" opacity="0.3" fill-rule="evenodd" clip-rule="evenodd" d="M175.674 59.3646C177.209 58.6838 182.093 55.6884 184.744 55.416C185.581 55.416 186.837 55.5522 187.814 55.5522C189.907 55.5522 191.721 55.1437 193.116 56.7776C194.233 58.003 194.791 59.2284 193.953 60.7262C192.837 62.6324 189.628 64.1301 187.674 65.2194C183.07 67.8064 177.07 70.2572 171.628 69.7126C167.302 69.3041 163.395 66.1725 159.628 64.2663C156.837 62.9047 151.814 60.1815 155.163 56.9138C157.953 54.1906 162.14 52.829 165.907 52.6929C167.581 52.6929 171.767 52.0121 173.163 53.1014C174.698 54.1906 173.023 58.9561 176.233 58.6838L175.535 59.3646H175.674Z" fill="url(#paint5_linear_452_19460)"/>
<path style="mix-blend-mode:screen" fill-rule="evenodd" clip-rule="evenodd" d="M36.9767 151.407C39.2093 179.728 107.163 133.843 173.023 113.419C250.326 89.4554 308.93 141.74 317.581 138.88C330.977 134.387 276 30.6354 187.814 31.8608C88.4651 33.4947 33.4884 105.658 36.9767 151.407Z" fill="url(#paint6_linear_452_19460)"/>
<path style="mix-blend-mode:screen" fill-rule="evenodd" clip-rule="evenodd" d="M114.837 307.716C114.837 307.716 182.512 330.726 247.116 295.87C311.721 261.014 322.465 182.315 322.465 182.315C322.465 182.315 314.512 274.902 252.14 304.312C189.767 333.858 143.023 324.735 114.837 307.716Z" fill="url(#paint7_radial_452_19460)"/>
<path style="mix-blend-mode:screen" opacity="0.5" fill-rule="evenodd" clip-rule="evenodd" d="M30.1395 200.696L34.8837 222.345C34.8837 222.345 61.5349 237.595 123.07 232.012C184.744 226.43 199.395 197.02 223.395 179.864C247.395 162.708 294.139 149.228 306.279 135.885C318.419 122.542 308.093 95.8548 308.093 95.8548L303.349 89.5915C303.349 89.5915 312 112.33 301.674 129.213C291.349 146.097 245.442 153.858 220.326 175.234C195.209 196.611 144.279 213.222 100.884 213.495C57.4884 213.767 29.8605 200.696 29.8605 200.696H30.1395Z" fill="url(#paint8_linear_452_19460)"/>
<path style="mix-blend-mode:screen" opacity="0.5" fill-rule="evenodd" clip-rule="evenodd" d="M50.6512 256.929L60.4186 270.817C60.4186 270.817 104.791 283.48 171.349 270.817C237.907 258.154 288.14 221.528 311.442 200.696C334.884 179.864 331.953 150.59 331.953 150.59L329.86 141.74C329.86 141.74 325.674 172.103 299.721 200.56C273.767 229.017 230.512 254.887 168.14 265.507C105.767 276.127 50.7907 256.793 50.7907 256.793L50.6512 256.929Z" fill="url(#paint9_linear_452_19460)"/>
<path style="mix-blend-mode:screen" opacity="0.5" fill-rule="evenodd" clip-rule="evenodd" d="M39.0698 125.537C39.0698 125.537 126 154.539 193.256 141.74C260.512 129.077 278.372 86.5961 279.767 64.947L267.488 55.8245C267.488 55.8245 267.767 99.3948 225.209 125.537C182.651 151.815 73.6744 136.157 44.5116 113.555L39.2093 125.265L39.0698 125.537Z" fill="url(#paint10_linear_452_19460)"/>
<path fill-rule="evenodd" clip-rule="evenodd" d="M48.6977 176.868C49.6744 182.042 61.8139 174.826 70.8837 157.126C79.9535 139.425 81.6279 102.935 77.0232 99.6672C72.2791 96.5355 42 140.651 48.8372 176.868H48.6977Z" fill="white"/>
<path fill-rule="evenodd" clip-rule="evenodd" d="M214.605 314.115C212.651 316.157 219.628 318.744 230.093 316.566C240.419 314.523 256.465 303.495 256.326 300.499C256.186 297.64 227.721 299.682 214.605 313.979V314.115Z" fill="white"/>
<path fill-rule="evenodd" clip-rule="evenodd" d="M49.3953 184.493C43.1163 185.582 43.2558 197.564 47.3023 202.738C51.3488 207.912 56.3721 205.461 56.7907 194.977C56.9302 188.578 54.6977 183.54 49.5349 184.493H49.3953Z" fill="white"/>
<path fill-rule="evenodd" clip-rule="evenodd" d="M297.767 271.362C297.767 271.362 324 238.275 329.721 196.747C329.721 196.747 332.651 236.233 297.767 271.362Z" fill="#E698FB"/>
<path style="mix-blend-mode:screen" fill-rule="evenodd" clip-rule="evenodd" d="M225.07 36.6263C225.07 36.6263 264.837 5.31013 297.767 27.5038C334.744 52.5567 316.605 109.334 316.605 109.334C316.605 109.334 240.279 70.121 225.07 36.6263Z" fill="url(#paint11_radial_452_19460)"/>
<path style="mix-blend-mode:screen" fill-rule="evenodd" clip-rule="evenodd" d="M79.3953 290.832C79.3953 290.832 84.4186 334.675 118.186 350.605C149.721 365.446 178.047 329.092 178.047 329.092C178.047 329.092 171.209 270.817 79.3953 290.832Z" fill="url(#paint12_radial_452_19460)"/>
<path style="mix-blend-mode:screen" fill-rule="evenodd" clip-rule="evenodd" d="M232.744 35.2647C239.163 43.1619 259.814 45.3404 285.209 47.9274C310.744 50.5144 314.233 57.5946 314.233 57.5946C314.233 57.5946 306.14 28.3207 281.442 23.4191C256.744 18.5174 232.744 35.2647 232.744 35.2647Z" fill="url(#paint13_radial_452_19460)"/>
<path style="mix-blend-mode:screen" fill-rule="evenodd" clip-rule="evenodd" d="M82.1861 293.964C82.1861 293.964 86.2326 320.651 97.2558 325.552C108.279 330.318 114.837 305.673 142.186 305.129C157.395 304.856 174.14 322.148 174.14 322.148C174.14 322.148 157.814 274.629 82.1861 293.964Z" fill="url(#paint14_linear_452_19460)"/>
<path fill-rule="evenodd" clip-rule="evenodd" d="M124.605 349.244C124.605 349.244 142.326 351.831 159.349 341.483C159.349 341.483 148.186 360.272 124.605 349.244Z" fill="#E698FB"/>
<path fill-rule="evenodd" clip-rule="evenodd" d="M312.419 99.3948C312.419 99.3948 318.419 84.6899 316.326 65.4917C316.326 65.4917 326.93 86.4599 312.419 99.3948Z" fill="#E698FB"/>
<path fill-rule="evenodd" clip-rule="evenodd" d="M234 34.4478C231.209 36.8986 252.279 36.354 258.977 31.997C265.674 27.6399 268.326 25.1891 266.651 22.466C264.977 19.7428 244.047 25.7337 234.14 34.3117L234 34.4478Z" fill="white"/>
<path fill-rule="evenodd" clip-rule="evenodd" d="M269.023 22.7383C268.744 21.1044 275.163 21.5129 275.023 23.1467C275.023 24.6445 269.442 25.7337 269.023 22.7383Z" fill="white"/>
<path fill-rule="evenodd" clip-rule="evenodd" d="M84.8372 299.41C80.6512 298.185 86.7907 317.655 95.7209 324.054C95.7209 324.054 96.9767 302.814 84.8372 299.41Z" fill="white"/>
<g style="mix-blend-mode:screen">
<path style="mix-blend-mode:screen" opacity="0.92" fill-rule="evenodd" clip-rule="evenodd" d="M314.372 111.241C314.372 111.241 333.767 100.076 343.674 113.283C357.907 131.936 332.791 151.407 332.791 151.407C332.791 151.407 312 138.744 314.233 111.377L314.372 111.241Z" fill="url(#paint15_radial_452_19460)"/>
<path style="mix-blend-mode:screen" fill-rule="evenodd" clip-rule="evenodd" d="M316.047 111.377C308.372 113.555 330.558 118.048 338.093 121.725C345.628 125.401 344.93 129.894 344.93 129.894C344.93 129.894 349.116 101.71 316.047 111.377Z" fill="url(#paint16_radial_452_19460)"/>
<path fill-rule="evenodd" clip-rule="evenodd" d="M331.116 147.186C331.116 147.186 337.953 144.054 342.837 133.434C342.837 133.434 344.651 144.871 331.116 147.186Z" fill="url(#paint17_radial_452_19460)"/>
<path fill-rule="evenodd" clip-rule="evenodd" d="M319.116 111.785C317.023 114.372 328.744 113.964 329.721 111.241C330.698 108.517 321.488 108.654 319.116 111.785Z" fill="url(#paint18_radial_452_19460)"/>
<path fill-rule="evenodd" clip-rule="evenodd" d="M314.233 117.64C314.233 117.64 314.372 135.068 325.256 145.008C325.256 145.008 315.907 128.26 314.233 117.64Z" fill="url(#paint19_radial_452_19460)"/>
<path fill-rule="evenodd" clip-rule="evenodd" d="M327.209 147.186C327.209 147.186 329.721 150.998 331.814 150.726C331.814 150.726 329.163 146.641 327.209 147.186Z" fill="url(#paint20_radial_452_19460)"/>
</g>
<path style="mix-blend-mode:screen" fill-rule="evenodd" clip-rule="evenodd" d="M199.674 31.997C199.674 31.997 204.977 22.6021 212.93 22.466C224.093 22.466 224.791 37.0348 224.791 37.0348C224.791 37.0348 212.93 41.528 199.674 31.997Z" fill="url(#paint21_radial_452_19460)"/>
<path style="mix-blend-mode:screen" fill-rule="evenodd" clip-rule="evenodd" d="M203.163 29.41C200.93 32.4055 210.558 27.9123 214.465 27.0953C218.372 26.4145 219.349 28.1846 219.349 28.1846C219.349 28.1846 212.651 16.475 203.163 29.2738V29.41Z" fill="url(#paint22_radial_452_19460)"/>
<path fill-rule="evenodd" clip-rule="evenodd" d="M222.558 36.6263C222.558 36.6263 223.256 33.2224 220.465 28.4569C220.465 28.4569 225.488 30.9077 222.558 36.6263Z" fill="#E698FB"/>
<path fill-rule="evenodd" clip-rule="evenodd" d="M204.419 28.593C204.419 30.0908 208.605 26.6868 208.186 25.4614C207.767 24.236 204.419 26.823 204.419 28.593Z" fill="white"/>
<path fill-rule="evenodd" clip-rule="evenodd" d="M204.279 34.8563C204.279 34.8563 213.209 39.4856 220.047 38.1241C220.047 38.1241 208.884 37.171 204.279 34.8563Z" fill="white"/>
<path fill-rule="evenodd" clip-rule="evenodd" d="M221.581 37.9879C221.581 37.9879 223.674 37.9879 224.233 37.3071C224.233 37.3071 221.86 37.171 221.581 37.9879Z" fill="white"/>
<path fill-rule="evenodd" clip-rule="evenodd" d="M230.093 45.0681C230.093 45.0681 236.093 46.4296 237.907 54.5991C237.907 54.5991 231.767 52.829 230.093 45.0681Z" fill="white"/>
<path fill-rule="evenodd" clip-rule="evenodd" d="M79.3953 290.832C79.3953 290.832 87.0698 288.381 100.186 286.611C113.302 284.841 120.558 286.611 120.558 286.611C120.558 286.611 91.8139 288.79 79.3953 290.832Z" fill="white"/>
<path fill-rule="evenodd" clip-rule="evenodd" d="M151.116 294.236C151.116 294.236 167.442 306.626 173.163 315.068C173.163 315.068 171.488 304.175 151.116 294.236Z" fill="white"/>
<path fill-rule="evenodd" clip-rule="evenodd" d="M119.023 47.5189C119.023 47.5189 123.488 42.2088 132.558 39.7579C139.953 37.8517 144 38.1241 145.395 37.9879C145.395 37.9879 129.907 48.472 119.023 47.5189Z" fill="white"/>
<path fill-rule="evenodd" clip-rule="evenodd" d="M124.605 287.156C124.605 287.156 129.767 284.977 131.581 288.109C131.581 288.109 126 289.879 124.605 287.156Z" fill="white"/>
<path fill-rule="evenodd" clip-rule="evenodd" d="M162 340.121C162 340.121 162 336.036 168.837 333.994C168.837 333.994 169.395 339.304 162 340.121Z" fill="#E698FB"/>
<g style="mix-blend-mode:screen">
<path style="mix-blend-mode:screen" opacity="0.92" d="M48.1395 70.5295C68.0989 70.5295 84.2791 54.7409 84.2791 35.2647C84.2791 15.7886 68.0989 0 48.1395 0C28.1802 0 12 15.7886 12 35.2647C12 54.7409 28.1802 70.5295 48.1395 70.5295Z" fill="url(#paint23_radial_452_19460)"/>
<path style="mix-blend-mode:screen" fill-rule="evenodd" clip-rule="evenodd" d="M14.6512 35.8094C14.6512 35.8094 20.7907 45.885 39.907 32.4054C59.1628 18.9259 67.9535 11.7095 76.3256 15.2496C76.3256 15.2496 57.907 -5.71861 34.0465 4.62934C10.7442 14.8411 14.6512 35.8094 14.6512 35.8094Z" fill="url(#paint24_radial_452_19460)"/>
<path fill-rule="evenodd" clip-rule="evenodd" d="M60.8372 65.4917C60.8372 65.4917 77.4419 57.7307 80.7907 40.5749C80.7907 40.5749 84.2791 60.1815 60.8372 65.4917Z" fill="url(#paint25_radial_452_19460)"/>
<path fill-rule="evenodd" clip-rule="evenodd" d="M14.6512 28.4569C14.6512 28.4569 16.7442 12.118 33.4884 6.3994C33.4884 6.3994 26.2326 28.593 14.6512 28.4569Z" fill="url(#paint26_radial_452_19460)"/>
<path fill-rule="evenodd" clip-rule="evenodd" d="M34.0465 5.58245C32.2326 4.7655 39.6279 2.17851 43.6744 2.45083C43.6744 2.45083 36.4186 6.80786 34.0465 5.58245Z" fill="url(#paint27_radial_452_19460)"/>
<path fill-rule="evenodd" clip-rule="evenodd" d="M43.8139 68.351C43.8139 68.351 52.3256 61.6793 60.9767 65.6278C60.9767 65.6278 55.5349 70.8018 43.8139 68.351Z" fill="url(#paint28_radial_452_19460)"/>
</g>
<g style="mix-blend-mode:screen">
<path style="mix-blend-mode:screen" opacity="0.92" fill-rule="evenodd" clip-rule="evenodd" d="M273.07 343.525C273.07 352.647 265.535 360 256.186 360C246.837 360 239.302 352.647 239.302 343.525C239.302 334.402 246.837 327.05 256.186 327.05C265.535 327.05 273.07 334.402 273.07 343.525Z" fill="url(#paint29_radial_452_19460)"/>
<path style="mix-blend-mode:screen" fill-rule="evenodd" clip-rule="evenodd" d="M240.698 343.797C240.698 343.797 243.488 348.563 252.419 342.3C261.349 336.036 265.535 332.632 269.302 334.266C269.302 334.266 260.651 324.463 249.628 329.365C238.744 334.13 240.558 343.933 240.558 343.933L240.698 343.797Z" fill="url(#paint30_radial_452_19460)"/>
<path fill-rule="evenodd" clip-rule="evenodd" d="M262.186 357.549C262.186 357.549 269.86 353.873 271.535 345.976C271.535 345.976 273.07 355.098 262.186 357.549Z" fill="url(#paint31_radial_452_19460)"/>
<path fill-rule="evenodd" clip-rule="evenodd" d="M240.558 340.257C240.558 340.257 241.535 332.632 249.349 330.045C249.349 330.045 246 340.393 240.558 340.257Z" fill="url(#paint32_radial_452_19460)"/>
<path fill-rule="evenodd" clip-rule="evenodd" d="M249.628 329.637C248.791 329.228 252.279 328.003 254.093 328.139C254.093 328.139 250.744 330.182 249.628 329.637Z" fill="url(#paint33_radial_452_19460)"/>
<path fill-rule="evenodd" clip-rule="evenodd" d="M254.233 358.911C254.233 358.911 258.279 355.779 262.186 357.549C262.186 357.549 259.674 360 254.233 358.911Z" fill="url(#paint34_radial_452_19460)"/>
</g>
</g>
<defs>
<radialGradient id="paint0_radial_452_19460" cx="0" cy="0" r="1" gradientUnits="userSpaceOnUse" gradientTransform="translate(181.674 179.864) scale(153.07 149.365)">
<stop stop-color="#5799FB"/>
<stop offset="1" stop-color="#4A289C"/>
</radialGradient>
<radialGradient id="paint1_radial_452_19460" cx="0" cy="0" r="1" gradientUnits="userSpaceOnUse" gradientTransform="translate(141.349 140.378) scale(209.163 204.1)">
<stop stop-color="#74CCBE"/>
<stop offset="0.26" stop-color="#72C9BE"/>
<stop offset="0.39" stop-color="#6EC2BE"/>
<stop offset="0.48" stop-color="#66B4BF"/>
<stop offset="0.57" stop-color="#5CA2C0"/>
<stop offset="0.64" stop-color="#4E89C1"/>
<stop offset="0.71" stop-color="#3D6CC3"/>
<stop offset="0.72" stop-color="#3B68C4"/>
<stop offset="0.75" stop-color="#4167C6"/>
<stop offset="0.81" stop-color="#5564CD"/>
<stop offset="0.87" stop-color="#7460D8"/>
<stop offset="0.93" stop-color="#A05BE8"/>
<stop offset="1" stop-color="#D155FA"/>
</radialGradient>
<radialGradient id="paint2_radial_452_19460" cx="0" cy="0" r="1" gradientUnits="userSpaceOnUse" gradientTransform="translate(197.581 192.254) scale(128.372 125.265)">
<stop stop-color="#4371AE"/>
<stop offset="1" stop-color="white"/>
</radialGradient>
<linearGradient id="paint3_linear_452_19460" x1="84.4186" y1="226.021" x2="123.209" y2="226.021" gradientUnits="userSpaceOnUse">
<stop stop-color="#B8C0FC"/>
<stop offset="1" stop-color="#7971AE"/>
</linearGradient>
<linearGradient id="paint4_linear_452_19460" x1="120.698" y1="245.628" x2="128.651" y2="245.628" gradientUnits="userSpaceOnUse">
<stop stop-color="#B8C0FC"/>
<stop offset="1" stop-color="#7971AE"/>
</linearGradient>
<linearGradient id="paint5_linear_452_19460" x1="154.186" y1="61.1346" x2="194.372" y2="61.1346" gradientUnits="userSpaceOnUse">
<stop stop-color="#B8C0FC"/>
<stop offset="1" stop-color="#7971AE"/>
</linearGradient>
<linearGradient id="paint6_linear_452_19460" x1="94.1224" y1="53.9218" x2="251.725" y2="207.013" gradientUnits="userSpaceOnUse">
<stop offset="0.02" stop-color="#CAFFE7"/>
<stop offset="0.21" stop-color="#94BBA9"/>
<stop offset="0.43" stop-color="#60796D"/>
<stop offset="0.62" stop-color="#36453E"/>
<stop offset="0.78" stop-color="#181F1C"/>
<stop offset="0.92" stop-color="#060807"/>
<stop offset="1"/>
</linearGradient>
<radialGradient id="paint7_radial_452_19460" cx="0" cy="0" r="1" gradientUnits="userSpaceOnUse" gradientTransform="translate(245.302 297.095) scale(90 87.8215)">
<stop stop-color="#5799FB"/>
<stop offset="1" stop-color="#4A289C"/>
</radialGradient>
<linearGradient id="paint8_linear_452_19460" x1="171.209" y1="233.238" x2="171.209" y2="89.4554" gradientUnits="userSpaceOnUse">
<stop stop-color="#D0FFE7"/>
<stop offset="0.2" stop-color="#98BBA9"/>
<stop offset="0.42" stop-color="#62796D"/>
<stop offset="0.61" stop-color="#38453E"/>
<stop offset="0.78" stop-color="#191F1C"/>
<stop offset="0.91" stop-color="#060807"/>
<stop offset="1"/>
</linearGradient>
<linearGradient id="paint9_linear_452_19460" x1="191.302" y1="276.536" x2="191.302" y2="141.876" gradientUnits="userSpaceOnUse">
<stop stop-color="#D0FFE7"/>
<stop offset="0.2" stop-color="#98BBA9"/>
<stop offset="0.42" stop-color="#62796D"/>
<stop offset="0.61" stop-color="#38453E"/>
<stop offset="0.78" stop-color="#191F1C"/>
<stop offset="0.91" stop-color="#060807"/>
<stop offset="1"/>
</linearGradient>
<linearGradient id="paint10_linear_452_19460" x1="159.349" y1="145.008" x2="159.349" y2="56.0968" gradientUnits="userSpaceOnUse">
<stop stop-color="#D0FFE7"/>
<stop offset="0.2" stop-color="#98BBA9"/>
<stop offset="0.42" stop-color="#62796D"/>
<stop offset="0.61" stop-color="#38453E"/>
<stop offset="0.78" stop-color="#191F1C"/>
<stop offset="0.91" stop-color="#060807"/>
<stop offset="1"/>
</linearGradient>
<radialGradient id="paint11_radial_452_19460" cx="0" cy="0" r="1" gradientUnits="userSpaceOnUse" gradientTransform="translate(273.07 64.4024) scale(47.0233 45.885)">
<stop stop-color="#5799FB"/>
<stop offset="1" stop-color="#4A289C"/>
</radialGradient>
<radialGradient id="paint12_radial_452_19460" cx="0" cy="0" r="1" gradientUnits="userSpaceOnUse" gradientTransform="translate(131.163 309.213) scale(44.7907 43.7065)">
<stop stop-color="#5799FB"/>
<stop offset="1" stop-color="#4A289C"/>
</radialGradient>
<radialGradient id="paint13_radial_452_19460" cx="0" cy="0" r="1" gradientUnits="userSpaceOnUse" gradientTransform="translate(273.488 40.0303) scale(31.5349 30.7716)">
<stop stop-color="#5799FB"/>
<stop offset="1" stop-color="#4A289C"/>
</radialGradient>
<linearGradient id="paint14_linear_452_19460" x1="93.4884" y1="282.254" x2="154.82" y2="341.894" gradientUnits="userSpaceOnUse">
<stop offset="0.02" stop-color="#9DFFE7"/>
<stop offset="0.21" stop-color="#73BBA9"/>
<stop offset="0.43" stop-color="#4A796D"/>
<stop offset="0.62" stop-color="#2A453E"/>
<stop offset="0.78" stop-color="#131F1C"/>
<stop offset="0.92" stop-color="#050807"/>
<stop offset="1"/>
</linearGradient>
<radialGradient id="paint15_radial_452_19460" cx="0" cy="0" r="1" gradientUnits="userSpaceOnUse" gradientTransform="translate(281.13 139.283) rotate(-11.8057) scale(17.5852 20.7177)">
<stop stop-color="#5799FB"/>
<stop offset="1" stop-color="#4A289C"/>
</radialGradient>
<radialGradient id="paint16_radial_452_19460" cx="0" cy="0" r="1" gradientUnits="userSpaceOnUse" gradientTransform="translate(329.86 119.682) scale(13.1163 12.7988)">
<stop stop-color="#5799FB"/>
<stop offset="1" stop-color="#4A289C"/>
</radialGradient>
<radialGradient id="paint17_radial_452_19460" cx="0" cy="0" r="1" gradientUnits="userSpaceOnUse" gradientTransform="translate(336.977 140.242) scale(6.55813 6.3994)">
<stop stop-color="#5799FB"/>
<stop offset="1" stop-color="#4A289C"/>
</radialGradient>
<radialGradient id="paint18_radial_452_19460" cx="0" cy="0" r="1" gradientUnits="userSpaceOnUse" gradientTransform="translate(324.419 111.377) scale(4.18605 4.08472)">
<stop stop-color="#5799FB"/>
<stop offset="1" stop-color="#4A289C"/>
</radialGradient>
<radialGradient id="paint19_radial_452_19460" cx="0" cy="0" r="1" gradientUnits="userSpaceOnUse" gradientTransform="translate(319.674 131.392) scale(10.6047 10.348)">
<stop stop-color="#5799FB"/>
<stop offset="1" stop-color="#4A289C"/>
</radialGradient>
<radialGradient id="paint20_radial_452_19460" cx="0" cy="0" r="1" gradientUnits="userSpaceOnUse" gradientTransform="translate(329.581 148.82) scale(2.09302 2.04235)">
<stop stop-color="#5799FB"/>
<stop offset="1" stop-color="#4A289C"/>
</radialGradient>
<radialGradient id="paint21_radial_452_19460" cx="0" cy="0" r="1" gradientUnits="userSpaceOnUse" gradientTransform="translate(280.186 -112.909) rotate(-65.5554) scale(8.96462 10.978)">
<stop stop-color="#5799FB"/>
<stop offset="1" stop-color="#4A289C"/>
</radialGradient>
<radialGradient id="paint22_radial_452_19460" cx="0" cy="0" r="1" gradientUnits="userSpaceOnUse" gradientTransform="translate(210.436 28.3494) rotate(-36.7546) scale(6.08506 6.04456)">
<stop stop-color="#5799FB"/>
<stop offset="1" stop-color="#4A289C"/>
</radialGradient>
<radialGradient id="paint23_radial_452_19460" cx="0" cy="0" r="1" gradientUnits="userSpaceOnUse" gradientTransform="translate(45.2093 32.6778) scale(38.7907 37.8517)">
<stop stop-color="#5799FB"/>
<stop offset="1" stop-color="#4A289C"/>
</radialGradient>
<radialGradient id="paint24_radial_452_19460" cx="0" cy="0" r="1" gradientUnits="userSpaceOnUse" gradientTransform="translate(45.4884 20.6959) scale(25.814 25.1891)">
<stop stop-color="#5799FB"/>
<stop offset="1" stop-color="#4A289C"/>
</radialGradient>
<radialGradient id="paint25_radial_452_19460" cx="0" cy="0" r="1" gradientUnits="userSpaceOnUse" gradientTransform="translate(71.0233 53.1014) scale(11.4419 11.1649)">
<stop stop-color="#5799FB"/>
<stop offset="1" stop-color="#4A289C"/>
</radialGradient>
<radialGradient id="paint26_radial_452_19460" cx="0" cy="0" r="1" gradientUnits="userSpaceOnUse" gradientTransform="translate(24 17.4281) scale(10.3256 10.0756)">
<stop stop-color="#5799FB"/>
<stop offset="1" stop-color="#4A289C"/>
</radialGradient>
<radialGradient id="paint27_radial_452_19460" cx="0" cy="0" r="1" gradientUnits="userSpaceOnUse" gradientTransform="translate(38.7907 4.08472) scale(3.76744 3.67625)">
<stop stop-color="#5799FB"/>
<stop offset="1" stop-color="#4A289C"/>
</radialGradient>
<radialGradient id="paint28_radial_452_19460" cx="0" cy="0" r="1" gradientUnits="userSpaceOnUse" gradientTransform="translate(52.3256 66.5809) scale(6.27907 6.12708)">
<stop stop-color="#5799FB"/>
<stop offset="1" stop-color="#4A289C"/>
</radialGradient>
<radialGradient id="paint29_radial_452_19460" cx="0" cy="0" r="1" gradientUnits="userSpaceOnUse" gradientTransform="translate(254.791 342.3) scale(18 17.5643)">
<stop stop-color="#5799FB"/>
<stop offset="1" stop-color="#4A289C"/>
</radialGradient>
<radialGradient id="paint30_radial_452_19460" cx="0" cy="0" r="1" gradientUnits="userSpaceOnUse" gradientTransform="translate(254.93 336.717) scale(12 11.7095)">
<stop stop-color="#5799FB"/>
<stop offset="1" stop-color="#4A289C"/>
</radialGradient>
<radialGradient id="paint31_radial_452_19460" cx="0" cy="0" r="1" gradientUnits="userSpaceOnUse" gradientTransform="translate(266.791 351.831) scale(5.30233 5.17398)">
<stop stop-color="#5799FB"/>
<stop offset="1" stop-color="#4A289C"/>
</radialGradient>
<radialGradient id="paint32_radial_452_19460" cx="0" cy="0" r="1" gradientUnits="userSpaceOnUse" gradientTransform="translate(245.023 335.219) scale(4.88373 4.76551)">
<stop stop-color="#5799FB"/>
<stop offset="1" stop-color="#4A289C"/>
</radialGradient>
<radialGradient id="paint33_radial_452_19460" cx="0" cy="0" r="1" gradientUnits="userSpaceOnUse" gradientTransform="translate(251.86 328.956) scale(1.67442 1.63387)">
<stop stop-color="#5799FB"/>
<stop offset="1" stop-color="#4A289C"/>
</radialGradient>
<radialGradient id="paint34_radial_452_19460" cx="0" cy="0" r="1" gradientUnits="userSpaceOnUse" gradientTransform="translate(258.14 358.094) scale(2.93023 2.85931)">
<stop stop-color="#5799FB"/>
<stop offset="1" stop-color="#4A289C"/>
</radialGradient>
<clipPath id="clip0_452_19460">
<rect width="336" height="360" fill="white" transform="translate(12)"/>
</clipPath>
</defs>
</svg>
