<svg width="360" height="337" viewBox="0 0 360 337" fill="none" xmlns="http://www.w3.org/2000/svg">
<path fill-rule="evenodd" clip-rule="evenodd" d="M307.21 76.0281C307.21 76.0281 260.217 24.1343 197.442 4.25635C197.442 4.25635 84.8685 23.9584 58.2156 69.3435C31.5627 114.729 16.3074 195.296 58.2156 244.727C100.124 294.158 146.942 310.166 204.631 300.315C262.496 290.64 277.225 269.706 277.225 269.706C277.225 269.706 280.382 242.44 305.106 237.515C305.106 237.515 339.299 138.125 307.385 76.0281H307.21Z" fill="url(#paint0_radial_452_20146)"/>
<path fill-rule="evenodd" clip-rule="evenodd" d="M310.191 155.012C310.191 167.854 308.437 180.168 305.106 191.778C298.442 215.174 285.291 236.107 267.932 252.291C255.482 263.901 240.928 273.225 224.621 279.381C210.067 285.011 194.11 288.001 177.628 288.001C175.348 288.001 172.893 288.001 170.614 287.825C167.107 287.649 163.775 287.297 160.268 286.946C134.667 283.603 111.346 272.873 92.5838 257.041C85.5699 251.06 79.082 244.375 73.4709 237.163C69.0872 231.709 65.2295 225.904 61.8979 219.748C61.0211 218.34 60.3198 216.757 59.443 215.35C58.5663 213.767 57.8649 212.183 57.1635 210.6C54.884 205.499 52.7798 200.221 51.2016 194.944C49.9742 191.074 48.9221 187.028 48.0454 182.982C47.5193 180.168 46.9933 177.353 46.6426 174.362C45.7659 168.206 45.2398 161.873 45.2398 155.54C45.2398 151.846 45.2398 148.152 45.7659 144.633C45.9412 142.347 46.2919 140.06 46.4673 137.773C48.2207 124.755 51.7277 112.266 56.9881 100.656C59.6184 95.0265 62.5993 89.3973 65.9309 84.2959C71.542 75.5004 78.0299 67.4084 85.3945 60.372C109.242 37.1517 141.857 22.727 177.803 22.727C179.206 22.727 180.609 22.727 182.011 22.727C183.589 22.727 184.992 22.727 186.395 22.9029C187.973 22.9029 189.376 23.0788 190.779 23.2547C196.916 23.7825 202.702 24.8379 208.489 26.2452C212.697 27.3007 216.73 28.3562 220.763 29.7635C223.569 30.643 226.199 31.6985 228.829 32.9299C230.758 33.8094 232.687 34.689 234.616 35.5685C234.966 35.5685 235.317 35.9203 235.668 36.0963C238.298 37.3276 240.928 38.7349 243.383 40.3181C253.203 45.9473 262.145 52.8078 270.211 60.7238C271.614 62.1311 273.017 63.5384 274.42 65.1216C275.297 66.1771 276.349 67.2325 277.225 68.288C278.804 70.0471 280.206 71.8062 281.784 73.7412C287.045 80.4259 291.779 87.8141 295.637 95.3783C300.196 104.35 303.703 113.849 306.158 123.876C308.613 134.079 310.015 144.809 310.015 155.892L310.191 155.012Z" fill="url(#paint1_radial_452_20146)"/>
<path fill-rule="evenodd" clip-rule="evenodd" d="M296.514 112.794C283.187 91.1565 243.032 86.231 230.057 98.3689C218.484 109.275 229.005 142.347 241.104 163.28C241.104 163.28 204.631 109.451 228.654 87.8142C252.677 66.1771 301.774 93.7952 311.944 110.859C321.939 127.922 318.432 160.29 311.944 171.724C305.456 183.158 291.955 181.927 291.955 181.927C291.955 181.927 323.693 156.947 296.514 112.794V112.794Z" fill="url(#paint2_radial_452_20146)"/>
<path style="mix-blend-mode:multiply" opacity="0.71" fill-rule="evenodd" clip-rule="evenodd" d="M51.5523 114.025C51.5523 114.025 71.542 89.5733 86.4466 92.9156C101.176 96.258 93.8112 122.821 93.8112 122.821L108.716 79.8982C108.716 79.8982 81.5369 68.8158 72.4188 73.9172C72.4188 73.9172 58.0402 93.7952 51.377 114.025H51.5523Z" fill="url(#paint3_linear_452_20146)"/>
<path fill-rule="evenodd" clip-rule="evenodd" d="M113.45 259.679C113.45 259.679 109.768 264.957 113.45 273.049C117.133 281.141 133.615 293.454 170.614 296.093C210.593 298.908 231.46 274.456 231.81 269.882C232.161 265.309 219.361 261.263 219.361 261.263C219.361 261.263 233.564 261.79 236.895 269.882C240.227 277.974 213.223 306.472 168.159 302.602C123.094 298.556 100.825 271.817 101.176 264.605C101.527 257.393 113.626 259.679 113.626 259.679H113.45Z" fill="url(#paint4_linear_452_20146)"/>
<path fill-rule="evenodd" clip-rule="evenodd" d="M86.4466 76.38C86.4466 76.38 80.1341 72.1581 72.5941 73.9172C62.4239 76.38 49.7989 98.8966 48.3961 116.312C47.1686 131.44 52.6044 143.402 55.936 145.337C59.0923 147.096 68.7365 145.337 68.7365 145.337C68.7365 145.337 59.9691 151.67 47.344 147.272C34.7189 142.874 40.8561 105.581 47.344 89.5733C53.8319 73.5654 74.1723 63.3626 79.2573 64.418C84.3424 65.4735 86.4466 76.38 86.4466 76.38V76.38Z" fill="url(#paint5_linear_452_20146)"/>
<path fill-rule="evenodd" clip-rule="evenodd" d="M216.38 190.019C213.223 185.797 194.987 181.399 194.987 181.399L185.694 191.778C178.855 193.713 174.121 215.174 179.907 219.924C185.694 224.673 208.84 223.618 212.347 214.646C215.854 205.675 219.361 194.416 216.204 190.195L216.38 190.019ZM188.499 214.294C183.414 209.193 186.044 195.472 191.831 194.768C199.722 193.889 204.456 196 206.209 203.212C207.963 210.424 193.584 219.396 188.499 214.118V214.294Z" fill="url(#paint6_linear_452_20146)"/>
<path fill-rule="evenodd" clip-rule="evenodd" d="M76.452 247.542C79.6083 249.301 90.4802 246.839 90.4802 246.839L91.883 237.867C94.6887 234.7 89.9541 219.924 85.395 218.692C80.8358 217.461 69.0871 224.497 70.3146 231.182C71.5421 237.867 73.4709 245.783 76.6273 247.542H76.452ZM82.7647 224.497C87.1485 226.256 90.4802 235.58 87.6746 237.691C83.8168 240.506 80.6604 240.506 77.3287 236.46C73.997 232.414 78.3808 222.914 82.7647 224.673V224.497Z" fill="url(#paint7_linear_452_20146)"/>
<path style="mix-blend-mode:multiply" opacity="0.71" fill-rule="evenodd" clip-rule="evenodd" d="M304.054 128.45C304.054 128.45 281.434 107.34 255.307 108.22C229.355 109.099 225.848 137.773 235.843 153.781C245.838 169.789 206.209 141.291 206.209 141.291V79.8981C206.209 79.8981 254.255 75.1485 279.856 86.7587C305.456 98.3688 303.878 128.45 303.878 128.45H304.054Z" fill="url(#paint8_linear_452_20146)"/>
<path style="mix-blend-mode:multiply" opacity="0.71" fill-rule="evenodd" clip-rule="evenodd" d="M225.322 37.5035C221.64 42.605 226.9 60.8997 226.9 60.8997L185.869 41.3736L190.779 22.727C196.916 23.2547 202.702 24.3102 208.489 25.7175C212.697 26.773 216.73 27.8284 220.763 29.2357C223.569 30.1153 226.199 31.1707 228.829 32.4021C230.758 33.2817 232.687 34.1612 234.616 35.0408C234.966 35.0408 235.317 35.3926 235.668 35.5685C238.298 36.7999 240.928 38.2072 243.383 39.7904C236.895 37.3276 227.427 34.3371 225.147 37.6795L225.322 37.5035Z" fill="url(#paint9_linear_452_20146)"/>
<path style="mix-blend-mode:multiply" opacity="0.71" fill-rule="evenodd" clip-rule="evenodd" d="M46.6427 175.946C46.6427 175.946 51.3772 170.141 59.9695 172.604C68.3865 175.067 70.3154 183.511 70.3154 183.511L77.1541 158.707L48.9223 152.549L43.837 157.475L46.818 175.946H46.6427Z" fill="url(#paint10_linear_452_20146)"/>
<path style="mix-blend-mode:multiply" opacity="0.71" fill-rule="evenodd" clip-rule="evenodd" d="M183.589 208.313C183.589 208.313 185.518 201.98 197.442 201.98C209.366 201.98 207.612 209.897 207.612 209.897L215.678 194.768L192.182 180.695L170.614 189.843L183.765 208.489L183.589 208.313Z" fill="url(#paint11_linear_452_20146)"/>
<path style="mix-blend-mode:multiply" opacity="0.71" fill-rule="evenodd" clip-rule="evenodd" d="M111.171 272.521C111.171 272.521 118.886 267.419 166.405 264.605C213.925 261.79 232.862 277.798 232.862 277.798L238.298 255.282L143.61 235.228L99.247 248.421L96.6168 260.383L111.346 272.697L111.171 272.521Z" fill="url(#paint12_linear_452_20146)"/>
<path fill-rule="evenodd" clip-rule="evenodd" d="M57.8649 160.993C57.8649 160.993 50.1496 155.012 42.0835 162.049C34.1929 168.733 34.3682 187.732 39.9794 198.286C44.7138 207.258 58.917 202.332 58.917 202.332C58.917 202.332 47.6947 212.535 38.9273 206.202C30.1599 200.045 28.4064 165.567 36.1217 155.892C43.837 146.217 58.2156 160.993 58.2156 160.993H57.8649Z" fill="url(#paint13_linear_452_20146)"/>
<path fill-rule="evenodd" clip-rule="evenodd" d="M324.745 118.423C321.939 106.988 317.906 96.082 312.646 85.8791C310.892 82.5368 309.139 79.3704 307.21 76.0281C295.637 81.6572 277.927 84.2959 253.378 71.9821C220.413 55.2706 204.281 22.9029 197.442 4.25631C194.11 3.90449 190.954 3.55267 187.622 3.20084C185.869 3.20084 184.291 3.02493 182.537 3.02493C180.959 3.02493 179.381 3.02493 177.803 3.02493C136.421 3.02493 99.247 19.3847 71.8927 45.9473C63.476 54.2151 55.936 63.3625 49.6235 73.3894C45.7659 79.3704 42.4342 85.7032 39.4533 92.2119C33.4915 105.405 29.2831 119.83 27.3543 134.782C27.0036 137.421 26.6529 140.06 26.4776 142.698C26.1269 146.744 25.9515 150.966 25.9515 155.188C25.9515 162.576 26.4776 169.613 27.5297 176.825C28.0557 180.168 28.5817 183.334 29.2831 186.676C30.1599 191.25 31.3873 195.824 32.7901 200.221C34.7189 206.378 36.9985 212.359 39.6287 218.164C40.5054 220.099 41.3822 221.858 42.2589 223.618C43.1356 225.377 44.0124 226.96 44.8891 228.719C48.7468 235.755 53.3058 242.44 58.2156 248.597C64.7035 256.865 72.0681 264.605 80.1341 271.29C101.702 289.408 128.355 301.722 157.638 305.592C161.496 306.12 165.529 306.472 169.386 306.648C172.017 306.648 174.822 306.824 177.452 306.824C196.39 306.824 214.626 303.305 231.284 296.973C248.118 290.464 263.548 281.141 277.05 269.354C270.211 254.578 275.823 225.904 286.519 225.553C291.779 225.377 299.319 230.302 304.93 237.163C312.821 224.849 319.134 211.304 323.342 196.879C327.2 183.51 329.304 169.437 329.304 154.836C329.304 142.171 327.726 129.857 324.92 118.247L324.745 118.423ZM44.7138 207.258C25.9515 202.684 31.3873 155.716 45.0645 155.012C54.0072 154.66 70.3146 169.789 70.3146 183.51C70.3146 197.231 51.903 209.017 44.7138 207.258ZM189.201 217.285C177.978 214.47 182.713 196.175 190.603 193.361C197.793 190.898 211.119 196.703 209.541 204.971C207.437 216.229 193.76 218.34 189.376 217.285H189.201ZM79.9587 242.44C72.9448 240.857 70.1392 226.608 75.049 225.201C79.4327 223.793 88.3754 232.765 87.3234 237.339C86.0959 243.671 82.7643 242.968 79.9587 242.44V242.44ZM92.9345 125.459C86.622 141.819 55.2347 152.198 50.3249 146.744C42.4342 137.773 41.2068 113.497 49.6235 94.3228C59.443 72.158 72.4188 68.8157 77.3285 68.1121C82.2383 67.5843 104.858 94.3228 92.9345 125.459V125.459ZM160.619 300.139C119.763 297.5 93.2852 264.605 108.54 260.911C163.6 247.366 238.824 261.263 236.895 270.058C233.739 283.779 206.56 303.129 160.794 300.139H160.619ZM285.116 184.741C241.805 198.462 206.385 106.461 228.303 92.2119C250.923 77.4354 290.376 92.7396 302.125 108.396C311.769 121.589 328.427 170.844 285.116 184.741Z" fill="url(#paint14_radial_452_20146)"/>
<path fill-rule="evenodd" clip-rule="evenodd" d="M239.175 22.727C239.175 22.727 209.541 8.65413 205.157 10.5892C200.774 12.5242 215.678 51.9283 248.118 68.1121C282.836 85.3514 302.125 73.3894 302.125 73.3894L294.936 63.8902C294.936 63.8902 305.807 73.5654 307.21 76.0281C307.21 76.0281 288.448 99.0725 244.085 71.9822C197.442 43.4845 197.442 4.25635 197.442 4.25635C197.442 4.25635 215.152 7.42275 239.175 22.727Z" fill="url(#paint15_radial_452_20146)"/>
<g style="mix-blend-mode:multiply">
<path fill-rule="evenodd" clip-rule="evenodd" d="M100.124 41.0219C100.124 41.0219 98.1949 42.4292 99.247 43.1329C99.5977 43.3088 99.7731 43.1329 100.124 43.3088C100.299 43.3088 100.475 43.4847 100.65 43.3088C101.527 42.957 101.176 40.4941 100.124 41.0219Z" fill="#D3DCFD"/>
<path fill-rule="evenodd" clip-rule="evenodd" d="M68.5611 156.244C68.5611 156.244 66.6323 157.651 67.6844 158.355C68.0351 158.531 68.2104 158.355 68.5611 158.531C68.7365 158.531 68.9119 158.707 69.0872 158.531C69.964 158.179 69.6133 155.716 68.5611 156.244V156.244Z" fill="#D3DCFD"/>
<path fill-rule="evenodd" clip-rule="evenodd" d="M104.507 49.8174C104.507 49.8174 105.209 49.4655 105.735 49.4655C105.735 49.9933 106.261 51.0488 105.735 51.4006C105.034 51.7524 105.384 50.6969 105.034 50.3451L104.683 49.8174H104.507Z" fill="#D3DCFD"/>
<path fill-rule="evenodd" clip-rule="evenodd" d="M113.1 50.1693C113.1 50.1693 114.678 50.873 115.554 51.2248C115.73 51.0489 116.256 51.0489 116.431 50.873C116.782 50.6971 117.133 49.9934 117.308 49.6416C117.483 48.9379 117.308 48.4102 116.957 47.8824C116.782 47.5306 116.607 47.0028 116.256 46.8269C115.905 46.4751 115.204 46.8269 114.853 46.8269C114.327 47.0028 113.976 47.5306 113.626 48.0583C113.275 48.4102 112.924 49.1138 112.924 49.6416C112.924 50.1693 113.275 50.873 113.801 51.0489L113.275 50.3453L113.1 50.1693Z" fill="#D3DCFD"/>
<path fill-rule="evenodd" clip-rule="evenodd" d="M120.289 214.294C120.289 214.294 121.867 214.998 122.744 215.35C122.919 215.174 123.445 215.174 123.621 214.998C123.971 214.822 124.322 214.118 124.497 213.767C124.673 213.063 124.497 212.535 124.147 212.007C123.971 211.656 123.796 211.128 123.445 210.952C123.094 210.6 122.393 210.952 122.042 210.952C121.516 211.128 121.166 211.656 120.815 212.183C120.464 212.535 120.113 213.239 120.113 213.767C120.113 214.294 120.464 214.998 120.99 215.174L120.464 214.47L120.289 214.294Z" fill="#D3DCFD"/>
<path fill-rule="evenodd" clip-rule="evenodd" d="M286.343 208.665C286.343 208.665 287.922 209.369 288.798 209.721C288.974 209.545 289.5 209.545 289.675 209.369C290.026 209.193 290.377 208.489 290.552 208.138C290.727 207.434 290.552 206.906 290.201 206.378C290.026 206.027 289.851 205.499 289.5 205.323C289.149 204.971 288.448 205.323 288.097 205.323C287.571 205.499 287.22 206.027 286.87 206.554C286.519 206.906 286.168 207.61 286.168 208.138C286.168 208.665 286.519 209.369 287.045 209.545L286.519 208.841L286.343 208.665Z" fill="#D3DCFD"/>
<path fill-rule="evenodd" clip-rule="evenodd" d="M90.3043 57.9093C90.3043 57.9093 89.6029 58.4371 89.4275 58.7889C89.7782 59.1407 89.9536 59.6685 90.4797 59.6685C90.655 59.6685 91.0057 59.6685 91.1811 59.6685C91.3564 59.4926 91.1811 59.1407 91.1811 58.9648C91.1811 58.4371 91.5318 58.2611 91.1811 57.7334C91.0057 57.3816 90.8304 57.3816 90.4797 57.3816C90.3043 57.3816 89.7782 57.3816 89.6029 57.7334H90.1289L90.3043 57.9093Z" fill="#D3DCFD"/>
<path fill-rule="evenodd" clip-rule="evenodd" d="M92.0578 70.5749C92.0578 70.5749 91.3564 72.3341 92.0578 71.8063C92.4085 71.6304 92.2331 70.9267 92.0578 70.7508V70.5749Z" fill="#D3DCFD"/>
<path fill-rule="evenodd" clip-rule="evenodd" d="M79.7834 148.152C79.7834 148.152 79.082 149.911 79.7834 149.383C80.1341 149.207 79.9588 148.504 79.7834 148.328V148.152Z" fill="#D3DCFD"/>
<path fill-rule="evenodd" clip-rule="evenodd" d="M120.113 80.9537C120.113 80.9537 119.587 82.0092 119.237 82.7129C119.412 82.8888 119.938 83.0647 120.289 83.0647C120.815 83.0647 120.815 83.0647 120.815 82.361C120.815 82.0092 120.815 81.6574 120.815 81.3055C120.815 80.9537 120.289 80.6019 119.938 80.7778L120.113 80.9537Z" fill="#D3DCFD"/>
<path fill-rule="evenodd" clip-rule="evenodd" d="M98.3703 59.3166C98.3703 59.3166 98.8964 60.0203 98.8964 60.3721C98.5456 60.3721 98.3703 60.0203 98.3703 59.6685C98.3703 59.1407 98.3703 59.3166 98.721 58.7889L98.1949 59.1407L98.3703 59.3166Z" fill="#D3DCFD"/>
<path fill-rule="evenodd" clip-rule="evenodd" d="M94.162 42.6051C94.162 42.6051 93.4606 43.1329 93.2852 43.4847C93.4606 43.6606 93.2852 44.1883 93.8113 44.1883C94.162 44.1883 94.3373 43.8365 94.5127 43.4847C94.688 43.1329 94.688 42.9569 94.688 42.6051C94.688 42.6051 94.688 41.7255 94.3373 42.2533L93.9866 42.781L94.162 42.6051Z" fill="#D3DCFD"/>
<path fill-rule="evenodd" clip-rule="evenodd" d="M148.345 33.9855C148.345 33.9855 148.344 33.1059 148.695 32.754C148.695 32.754 148.871 32.5781 149.046 32.4022C149.221 32.0504 149.046 32.0504 149.572 32.0504C149.923 32.0504 150.273 32.0504 150.624 32.4022C151.852 33.2818 148.871 34.1614 148.695 33.1059L148.345 33.9855Z" fill="#D3DCFD"/>
<path fill-rule="evenodd" clip-rule="evenodd" d="M158.515 37.6796C158.515 37.6796 157.989 39.2628 158.515 39.7906C159.041 40.1424 160.268 39.6147 160.619 39.0869C161.32 38.3833 162.373 36.9759 161.671 36.0963C161.32 35.5686 160.093 35.0408 159.391 35.2168C157.989 35.2168 157.463 37.1518 157.287 38.3833L158.515 37.6796V37.6796Z" fill="#D3DCFD"/>
<path fill-rule="evenodd" clip-rule="evenodd" d="M97.3182 77.2596C97.3182 77.2596 96.7922 78.8429 97.3182 79.3706C97.8443 79.7225 99.0718 79.1947 99.4225 78.667C100.124 77.9633 101.176 76.556 100.475 75.6764C100.124 75.1486 98.8964 74.6209 98.195 74.7968C96.7922 74.7968 96.2661 76.7319 96.0908 77.9633L97.3182 77.2596Z" fill="#D3DCFD"/>
<path fill-rule="evenodd" clip-rule="evenodd" d="M266.529 199.694C266.529 199.694 266.003 201.277 266.529 201.805C267.055 202.157 268.283 201.629 268.633 201.101C269.335 200.397 270.387 198.99 269.686 198.111C269.335 197.583 268.107 197.055 267.406 197.231C266.003 197.231 265.477 199.166 265.302 200.397L266.529 199.694Z" fill="#D3DCFD"/>
<path fill-rule="evenodd" clip-rule="evenodd" d="M322.29 175.066C322.29 175.066 321.764 176.65 322.29 177.177C322.816 177.529 324.043 177.001 324.394 176.474C325.096 175.77 326.148 174.363 325.446 173.483C325.096 172.955 323.868 172.428 323.167 172.603C321.764 172.603 321.238 174.539 321.062 175.77L322.29 175.066Z" fill="#D3DCFD"/>
<path fill-rule="evenodd" clip-rule="evenodd" d="M162.898 23.7827C162.898 22.5513 162.548 21.4958 163.6 20.7921C164.126 20.4403 165.178 20.2644 165.704 20.7921C166.055 21.144 166.405 21.6717 166.756 22.0235C167.107 22.5513 167.107 22.5513 166.756 23.255C166.405 24.4864 166.055 25.3659 164.827 25.3659C163.249 25.3659 162.898 24.1345 162.898 22.5513V23.9586V23.7827Z" fill="#D3DCFD"/>
<path fill-rule="evenodd" clip-rule="evenodd" d="M178.154 44.5401C179.03 44.3641 179.907 43.8364 180.433 43.1327C179.732 42.7809 178.329 41.9013 178.154 43.1327V44.5401Z" fill="#D3DCFD"/>
<path fill-rule="evenodd" clip-rule="evenodd" d="M125.9 233.293C126.777 233.117 127.653 232.589 128.18 231.886C127.478 231.534 126.075 230.654 125.9 231.886V233.293Z" fill="#D3DCFD"/>
<path fill-rule="evenodd" clip-rule="evenodd" d="M222.867 253.698C223.744 253.523 224.621 252.995 225.147 252.291C224.446 251.939 223.043 251.06 222.867 252.291V253.698Z" fill="#D3DCFD"/>
<path fill-rule="evenodd" clip-rule="evenodd" d="M189.902 62.8349C190.779 61.7794 192.182 59.6684 193.76 60.8999C194.637 61.6035 194.987 63.1868 194.11 63.8904C193.234 64.5941 192.532 64.77 191.48 64.9459C190.779 65.1218 189.727 64.5941 189.902 63.5386V62.8349Z" fill="#D3DCFD"/>
<path fill-rule="evenodd" clip-rule="evenodd" d="M103.981 184.39C104.858 183.334 106.261 181.223 107.839 182.454C108.716 183.158 109.067 184.741 108.19 185.445C107.313 186.149 106.612 186.325 105.56 186.501C104.858 186.676 103.806 186.149 103.981 185.093V184.39V184.39Z" fill="#D3DCFD"/>
<path fill-rule="evenodd" clip-rule="evenodd" d="M247.592 240.857C248.468 239.801 249.871 237.69 251.449 238.922C252.326 239.626 252.677 241.209 251.8 241.912C250.923 242.616 250.222 242.792 249.17 242.968C248.468 243.144 247.416 242.616 247.592 241.561V240.857V240.857Z" fill="#D3DCFD"/>
<path fill-rule="evenodd" clip-rule="evenodd" d="M127.127 89.0456C128.004 87.9901 129.407 85.8791 130.985 87.1105C131.862 87.8142 132.213 89.3975 131.336 90.1011C130.459 90.8048 129.758 90.9807 128.706 91.1566C128.004 91.3325 126.952 90.8048 127.127 89.7493V89.0456V89.0456Z" fill="#D3DCFD"/>
<path fill-rule="evenodd" clip-rule="evenodd" d="M178.855 41.022C179.732 39.9665 181.135 37.8555 182.713 39.0869C183.59 39.7905 183.94 41.3738 183.064 42.0775C182.187 42.7811 181.485 42.957 180.433 43.133C179.732 43.3089 178.68 42.7811 178.855 41.7256V41.022Z" fill="#D3DCFD"/>
<path fill-rule="evenodd" clip-rule="evenodd" d="M307.911 100.304C308.788 99.2485 310.191 97.1375 311.769 98.3689C312.646 99.0725 312.997 100.656 312.12 101.359C311.243 102.063 310.542 102.239 309.489 102.415C308.788 102.591 307.736 102.063 307.911 101.008V100.304V100.304Z" fill="#D3DCFD"/>
<path fill-rule="evenodd" clip-rule="evenodd" d="M172.893 139.18C173.77 138.125 175.173 136.014 176.751 137.245C177.628 137.949 177.979 139.532 177.102 140.236C176.225 140.94 175.524 141.115 174.471 141.291C173.77 141.467 172.718 140.94 172.893 139.884V139.18V139.18Z" fill="#D3DCFD"/>
<path fill-rule="evenodd" clip-rule="evenodd" d="M112.749 28.7081C109.593 30.6432 104.157 33.2819 103.631 37.6798C103.28 40.3186 104.508 41.9018 106.962 42.9573C109.067 44.0128 112.048 44.0128 113.977 42.9573C116.958 41.55 120.289 39.0872 121.517 35.9207C122.394 33.6338 122.394 32.2264 121.341 29.9395C120.815 28.7081 119.588 27.3008 118.36 26.9489C114.327 25.5416 111.872 29.5877 108.891 31.3468L112.749 28.7081V28.7081Z" fill="#D3DCFD"/>
<path fill-rule="evenodd" clip-rule="evenodd" d="M125.549 45.4197C125.549 45.4197 126.777 45.9475 127.127 46.4752C126.426 46.6511 125.9 47.1789 125.199 47.003C124.322 46.6511 124.146 45.9475 124.322 45.0679C124.322 44.716 125.199 43.8365 125.725 44.0124C125.9 44.0124 126.075 44.3642 126.075 44.5401C126.075 44.892 126.075 44.892 126.075 45.2438H125.549V45.4197Z" fill="#D3DCFD"/>
<path fill-rule="evenodd" clip-rule="evenodd" d="M323.167 141.291C323.167 141.291 324.394 141.819 324.745 142.347C324.043 142.523 323.517 143.05 322.816 142.874C321.939 142.523 321.764 141.819 321.939 140.939C321.939 140.588 322.816 139.708 323.342 139.884C323.517 139.884 323.693 140.236 323.693 140.412C323.693 140.763 323.693 140.763 323.693 141.115H323.167V141.291Z" fill="#D3DCFD"/>
<path fill-rule="evenodd" clip-rule="evenodd" d="M89.077 49.2897C87.3234 50.8729 85.7453 52.6321 84.6931 54.919C84.1671 55.9745 85.0438 56.1504 86.096 55.9745C88.0248 55.6227 89.9537 55.0949 92.058 54.5672C93.2854 54.2153 94.8636 53.6876 95.7404 52.6321C96.2664 51.9284 96.6172 50.5211 96.4418 49.6415C96.2664 48.2342 95.3897 47.8823 94.1622 47.5305C91.3566 46.8268 87.8495 48.586 86.9727 51.0488L89.2523 49.4656L89.077 49.2897Z" fill="#D3DCFD"/>
<path fill-rule="evenodd" clip-rule="evenodd" d="M96.2662 60.8998C97.3183 60.8998 98.1951 61.2516 99.0718 61.6035C98.8965 61.9553 99.0718 62.3071 98.7211 62.659C98.5458 63.1867 98.0197 63.7145 97.669 63.8904C96.9676 64.4181 95.7401 64.594 94.8634 64.2422C92.2331 63.3626 96.2662 60.1961 97.1429 61.2516L96.4415 60.7239L96.2662 60.8998Z" fill="#D3DCFD"/>
<path fill-rule="evenodd" clip-rule="evenodd" d="M144.312 21.1439C145.188 20.6161 146.065 20.0884 147.117 19.9125C148.345 19.7365 149.397 19.5606 150.624 19.5606C151.15 19.5606 152.553 19.5606 152.202 20.4402C151.852 21.4957 149.397 22.5512 148.52 22.903C146.942 23.6067 145.539 24.3104 143.786 24.4863C142.909 24.4863 141.331 24.4863 140.98 23.7826C140.629 23.0789 140.805 22.3753 141.155 21.6716C141.506 20.968 142.032 20.6161 142.909 20.2643C143.259 20.2643 145.364 19.5606 145.364 20.2643L144.487 20.968L144.312 21.1439Z" fill="#D3DCFD"/>
<path fill-rule="evenodd" clip-rule="evenodd" d="M128.53 21.6716C128.53 21.6716 124.848 23.7826 126.426 24.4863C127.303 24.8381 128.881 24.8381 129.758 24.4863C130.459 24.1345 131.336 23.6067 130.81 22.9031C129.933 21.1439 127.478 22.1994 126.251 22.9031L128.53 21.6716V21.6716Z" fill="#D3DCFD"/>
<path fill-rule="evenodd" clip-rule="evenodd" d="M187.973 7.24689C187.973 7.24689 181.661 10.9411 184.291 12.1725C185.694 12.8762 188.499 12.7003 189.902 12.1725C191.13 11.6448 192.532 10.7652 191.656 9.35788C190.078 6.36731 185.869 8.12647 183.765 9.35788L187.798 7.4228L187.973 7.24689Z" fill="#D3DCFD"/>
<path fill-rule="evenodd" clip-rule="evenodd" d="M84.1671 144.809C84.3425 146.217 84.6932 147.624 85.7453 148.504C86.9727 149.383 88.2002 149.031 89.4277 148.504C90.3045 147.976 91.1812 147.448 91.8826 146.92C92.4087 146.569 92.7594 146.569 92.7594 145.865C92.7594 145.161 92.058 144.106 91.7073 143.578C91.1812 142.874 90.1291 141.995 89.2523 141.819C87.4988 141.115 84.1671 141.819 84.1671 144.282V145.161V144.809Z" fill="#D3DCFD"/>
<path fill-rule="evenodd" clip-rule="evenodd" d="M188.85 148.152C189.376 150.791 189.902 153.605 192.006 155.189C194.286 156.948 196.916 156.244 199.196 154.837C200.949 153.781 202.527 152.726 204.106 151.846C204.982 151.318 205.859 151.142 205.859 149.735C205.859 148.328 204.632 146.217 203.755 145.161C202.703 143.754 200.774 142.171 199.196 141.643C195.689 140.412 189.201 141.643 189.201 146.393L188.675 148.152H188.85Z" fill="#D3DCFD"/>
</g>
<path fill-rule="evenodd" clip-rule="evenodd" d="M254.605 24.4863C253.729 25.8936 253.553 25.8936 253.553 27.125C253.553 27.8287 253.378 28.8842 253.553 29.5878C254.079 30.6433 255.658 31.6988 256.885 31.5229C257.937 31.5229 258.989 30.6433 260.041 30.2915C261.269 29.7637 261.795 28.8842 262.321 27.6528C262.847 26.4213 262.496 25.7177 261.97 24.6622C261.444 23.6067 260.743 22.3753 260.041 21.6716C259.165 20.792 257.762 20.2643 256.71 20.9679C255.658 21.6716 254.43 23.4308 254.43 24.6622L254.781 24.3103L254.605 24.4863Z" fill="#EFC251"/>
<path fill-rule="evenodd" clip-rule="evenodd" d="M27.0036 188.084C27.0036 188.084 26.4776 188.787 26.4776 189.491C26.4776 189.843 26.4776 190.546 26.4776 190.898C26.6529 191.426 27.5297 191.954 28.2311 191.954C28.7572 191.954 29.4586 191.426 29.8093 191.25C30.5107 190.898 30.686 190.546 31.0367 189.843C31.3875 189.315 31.0367 188.787 31.0367 188.26C30.8614 187.732 30.5107 187.028 29.9846 186.676C29.4586 186.149 28.7572 185.973 28.2311 186.324C27.705 186.676 27.0036 187.556 27.0036 188.26H27.179L27.0036 188.084Z" fill="#EFC251"/>
<path fill-rule="evenodd" clip-rule="evenodd" d="M264.951 40.4941C265.828 40.8459 266.705 41.1977 267.231 41.9014C266.529 41.9014 266.705 42.781 266.003 43.1328C265.302 43.3087 264.776 42.6051 264.074 42.781L264.776 40.4941H264.951Z" fill="#E38620"/>
<path fill-rule="evenodd" clip-rule="evenodd" d="M200.423 312.629C201.3 312.98 202.176 313.332 202.703 314.036C202.001 314.036 202.176 314.916 201.475 315.267C200.774 315.443 200.248 314.74 199.546 314.915L200.248 312.629H200.423Z" fill="#EFC251"/>
<path fill-rule="evenodd" clip-rule="evenodd" d="M283.713 9.3579C283.713 9.3579 282.135 12.5244 282.661 13.404C283.012 14.2836 284.239 13.9317 284.941 13.404C285.467 13.0521 285.642 12.7003 285.993 12.3485C286.344 11.9966 286.87 11.9966 287.22 11.6448C287.571 11.293 287.571 10.7652 287.922 10.4134C288.272 10.0616 288.799 9.88565 288.974 9.3579C289.851 8.3024 289.5 6.71915 288.097 6.19141C285.642 5.48774 284.765 7.42282 283.363 9.18198H283.713V9.3579Z" fill="#EFC251"/>
<path fill-rule="evenodd" clip-rule="evenodd" d="M294.234 250.884C294.234 250.884 292.656 254.05 293.182 254.93C293.533 255.81 294.76 255.458 295.462 254.93C295.988 254.578 296.163 254.226 296.514 253.875C296.864 253.523 297.391 253.523 297.741 253.171C298.092 252.819 298.092 252.291 298.443 251.939C298.793 251.588 299.319 251.412 299.495 250.884C300.372 249.828 300.021 248.245 298.618 247.717C296.163 247.014 295.286 248.949 293.883 250.708H294.234V250.884Z" fill="#EFC251"/>
<path fill-rule="evenodd" clip-rule="evenodd" d="M159.742 268.475C159.742 268.475 158.164 271.642 158.69 272.521C159.041 273.401 160.268 273.049 160.97 272.521C161.496 272.169 161.671 271.818 162.022 271.466C162.372 271.114 162.899 271.114 163.249 270.762C163.6 270.41 163.6 269.882 163.951 269.531C164.301 269.179 164.827 269.003 165.003 268.475C165.88 267.42 165.529 265.836 164.126 265.309C161.671 264.605 160.794 266.54 159.391 268.299H159.742V268.475Z" fill="#EFC251"/>
<path fill-rule="evenodd" clip-rule="evenodd" d="M304.054 3.02508C304.755 1.61775 304.93 0.914087 306.158 0.210423C306.859 -0.14141 307.736 -0.14141 307.736 0.914087C307.736 1.44184 306.859 2.49733 306.684 2.84917C306.158 3.55283 305.281 3.55283 304.404 3.37691C304.404 3.37691 304.404 3.201 304.404 3.02508H304.054V3.02508Z" fill="#EFC251"/>
<path fill-rule="evenodd" clip-rule="evenodd" d="M61.7225 111.738C62.4239 110.331 62.5993 109.627 63.8268 108.923C64.5282 108.572 65.405 108.572 65.405 109.627C65.405 110.155 64.5282 111.21 64.3528 111.562C63.8268 112.266 62.95 112.266 62.0732 112.09C62.0732 112.09 62.0732 111.914 62.0732 111.738H61.7225V111.738Z" fill="#EFC251"/>
<path fill-rule="evenodd" clip-rule="evenodd" d="M162.372 335.673C162.898 334.618 163.074 334.09 164.126 333.562C164.652 333.386 165.353 333.21 165.353 334.09C165.353 334.442 164.652 335.321 164.477 335.673C163.951 336.201 163.424 336.201 162.723 336.025C162.723 336.025 162.723 336.025 162.723 335.849H162.372V335.673Z" fill="#EFC251"/>
<path fill-rule="evenodd" clip-rule="evenodd" d="M290.903 122.821C290.903 122.821 288.974 123.524 289.675 122.821C290.201 122.293 291.253 121.765 291.779 121.589C292.656 121.237 293.358 121.237 294.059 121.589C295.287 121.941 296.514 122.821 297.215 123.876C299.144 127.218 296.514 130.033 293.533 131.265C290.727 132.32 286.694 131.792 285.993 128.274C285.817 127.218 286.344 125.283 287.045 124.58C287.922 123.876 289.675 123.172 290.903 122.996V122.821Z" fill="#E38620"/>
<path fill-rule="evenodd" clip-rule="evenodd" d="M56.4622 185.269C56.4622 185.269 55.4101 185.797 55.7608 185.269C56.1115 184.917 56.6375 184.565 56.9882 184.213C57.5143 184.038 57.865 183.862 58.3911 184.213C59.0925 184.565 59.7939 185.093 60.3199 185.973C61.3721 188.435 59.9692 190.546 58.0404 191.426C56.2868 192.306 54.0072 191.778 53.6565 189.139C53.6565 188.435 53.8319 186.852 54.3579 186.324C54.884 185.797 55.9361 185.269 56.6375 185.093L56.4622 185.269Z" fill="#EFC251"/>
<path fill-rule="evenodd" clip-rule="evenodd" d="M70.4901 132.32C70.4901 132.32 69.6133 131.968 70.1393 131.968C70.4901 131.968 71.0161 131.968 71.1915 132.144C71.5422 132.144 71.7175 132.496 71.8929 132.848C71.8929 133.375 72.0682 134.079 71.8929 134.607C71.0161 136.366 69.2626 136.366 68.0351 135.838C66.8076 135.31 65.9309 133.903 67.3337 132.496C67.6844 132.144 68.5612 131.616 69.0872 131.616C69.6133 131.616 70.3147 131.968 70.6654 132.32H70.4901Z" fill="#EFC251"/>
<path fill-rule="evenodd" clip-rule="evenodd" d="M200.949 269.882C200.949 269.882 199.196 270.234 199.897 269.882C200.423 269.53 201.3 269.354 201.826 269.179C202.527 269.179 203.053 269.179 203.755 269.354C204.632 269.882 205.684 270.762 206.034 271.817C207.086 274.808 204.456 276.743 201.826 277.095C199.371 277.623 196.039 276.391 196.215 273.401C196.215 272.521 196.916 270.938 197.793 270.586C198.669 270.058 200.248 269.882 201.124 269.882H200.949Z" fill="#E38620"/>
<path fill-rule="evenodd" clip-rule="evenodd" d="M47.1687 89.5734C47.1687 89.5734 46.818 88.342 47.3441 87.8142C47.8702 87.2865 48.9223 86.7587 49.4483 86.5828C50.3251 86.231 51.0265 86.231 51.7279 86.5828C52.9554 86.9346 54.1829 87.8142 54.8843 88.8697C56.8132 92.2121 54.1829 95.0268 51.2019 96.2582C48.3962 97.3137 44.3631 96.786 43.6617 93.2676C43.4863 92.2121 44.0124 90.2771 44.7138 89.5734C45.5906 88.8697 47.3441 88.1661 48.5716 87.9901L46.9934 89.9252L47.1687 89.5734Z" fill="#EFC251"/>
<path fill-rule="evenodd" clip-rule="evenodd" d="M321.413 107.868C321.413 110.155 321.588 109.979 323.693 110.507C325.271 110.859 326.498 109.979 327.726 109.276C328.427 108.924 329.129 108.396 329.655 107.692C330.181 106.813 330.181 106.461 329.479 105.933C328.953 105.581 328.252 105.054 327.726 104.878C327.375 104.878 326.849 104.878 326.498 104.878C326.323 104.878 325.972 104.702 325.622 104.526C324.745 104.526 322.465 105.054 321.764 105.581C321.062 106.109 320.536 107.516 320.712 108.22L321.413 107.868V107.868Z" fill="#EFC251"/>
<path fill-rule="evenodd" clip-rule="evenodd" d="M345.085 118.247C345.085 118.247 345.085 117.719 345.085 117.543C345.436 117.367 345.436 116.839 345.787 116.664C346.137 116.664 346.488 116.488 346.663 116.664C347.189 117.015 347.189 117.719 347.014 118.071C346.839 118.423 346.663 118.95 346.313 119.126C345.787 119.302 345.085 118.775 344.91 118.423H345.26L345.085 118.247Z" fill="#EFC251"/>
<path fill-rule="evenodd" clip-rule="evenodd" d="M317.38 269.355C317.38 269.355 317.38 268.827 317.38 268.651C317.731 268.475 317.731 267.947 318.081 267.771C318.432 267.771 318.783 267.595 318.958 267.771C319.484 268.123 319.484 268.827 319.309 269.179C319.134 269.53 318.958 270.058 318.608 270.234C318.081 270.41 317.38 269.882 317.205 269.53H317.555L317.38 269.355Z" fill="#EFC251"/>
<path fill-rule="evenodd" clip-rule="evenodd" d="M192.182 278.502C192.182 278.502 192.182 277.974 192.182 277.798C192.532 277.622 192.532 277.095 192.883 276.919C193.234 276.919 193.584 276.743 193.76 276.919C194.286 277.271 194.286 277.974 194.11 278.326C193.935 278.678 193.76 279.206 193.409 279.382C192.883 279.558 192.182 279.03 192.006 278.678H192.357L192.182 278.502Z" fill="#EFC251"/>
<path fill-rule="evenodd" clip-rule="evenodd" d="M22.0939 87.1106C22.0939 87.1106 22.0939 86.5829 22.0939 86.407C22.4446 86.2311 22.4446 85.7033 22.7953 85.5274C23.146 85.5274 23.4967 85.3515 23.672 85.5274C24.1981 85.8792 24.1981 86.5829 24.0228 86.9347C23.8474 87.2866 23.672 87.8143 23.3213 87.9902C22.7953 88.1661 22.0939 87.6384 21.9185 87.2866H22.2692L22.0939 87.1106Z" fill="#EFC251"/>
<path fill-rule="evenodd" clip-rule="evenodd" d="M279.154 161.169C279.856 160.114 279.856 159.586 281.083 159.41C281.609 159.41 282.486 159.234 283.012 159.41C283.713 159.938 284.064 162.049 283.713 162.928C283.187 164.16 281.609 163.984 280.732 163.456C279.33 162.752 278.979 162.225 278.979 160.641L279.33 160.993L279.154 161.169Z" fill="#EFC251"/>
<path fill-rule="evenodd" clip-rule="evenodd" d="M357.71 73.3895C357.71 73.3895 357.359 73.9172 357.359 74.269C358.061 74.7968 360.165 74.269 359.99 73.2136C359.99 72.6858 359.288 72.5099 358.938 72.5099C358.061 72.5099 357.535 73.2136 357.184 73.9172L357.71 73.5654V73.3895Z" fill="#EFC251"/>
<path fill-rule="evenodd" clip-rule="evenodd" d="M237.246 107.34C237.246 107.34 236.895 107.868 236.895 108.22C237.597 108.748 239.701 108.22 239.526 107.164C239.526 106.637 238.824 106.461 238.473 106.461C237.597 106.461 237.071 107.164 236.72 107.868L237.246 107.516V107.34Z" fill="#EFC251"/>
<path fill-rule="evenodd" clip-rule="evenodd" d="M6.83859 104.35C6.83859 104.35 6.48789 104.878 6.48789 105.229C7.1893 105.757 9.29353 105.229 9.11818 104.174C9.11818 103.646 8.41677 103.47 8.06606 103.47C7.1893 103.47 6.66324 104.174 6.31253 104.878L6.83859 104.526V104.35Z" fill="#EFC251"/>
<path fill-rule="evenodd" clip-rule="evenodd" d="M0.526059 185.621C0.526059 185.621 0.175353 186.149 0.175353 186.5C0.876766 187.028 2.981 186.5 2.80565 185.445C2.80565 184.917 2.10424 184.741 1.75353 184.741C0.876766 184.741 0.350706 185.445 0 186.149L0.526059 185.797V185.621Z" fill="#EFC251"/>
<path fill-rule="evenodd" clip-rule="evenodd" d="M159.216 317.027C158.69 318.962 158.339 320.017 159.742 321.424C160.794 322.304 162.548 322.832 163.775 322.832C165.88 322.832 169.562 320.897 168.685 318.258C168.334 316.851 166.055 315.091 164.652 314.916C161.846 314.212 159.041 316.499 159.041 319.489V317.202L159.216 317.027Z" fill="#EFC251"/>
<path style="mix-blend-mode:screen" fill-rule="evenodd" clip-rule="evenodd" d="M87.148 271.641C71.7174 258.8 58.917 242.792 49.7989 224.497C44.0124 213.063 39.6287 200.925 36.9985 188.084C34.8943 178.057 33.8422 167.854 33.8422 157.299C33.8422 127.746 42.4342 100.304 56.9881 77.2595C63.3007 67.4085 70.4899 58.437 78.9067 50.3451C105.735 23.9584 142.383 7.77458 182.713 7.77458C186.044 7.77458 189.201 7.77458 192.357 8.12641C202.527 8.83005 212.347 10.4133 221.64 13.0519C210.067 9.18187 197.793 6.89503 184.992 6.01547C181.836 5.83956 178.504 5.66365 175.348 5.66365C135.018 5.66365 98.3703 21.8475 71.542 47.8823C63.3007 55.9742 55.9361 64.9457 49.6235 74.7967C34.8943 98.017 26.4776 125.459 26.4776 154.836C26.4776 165.391 27.5297 175.77 29.6338 185.621C32.2641 198.462 36.6478 210.6 42.4342 222.034C51.5523 240.153 64.3528 256.161 79.7834 269.179C96.0908 282.9 115.379 293.103 136.421 298.908C118.185 292.927 101.527 283.427 86.9727 271.29L87.148 271.641Z" fill="url(#paint16_radial_452_20146)"/>
<defs>
<radialGradient id="paint0_radial_452_20146" cx="0" cy="0" r="1" gradientUnits="userSpaceOnUse" gradientTransform="translate(87.148 83.7682) scale(258.989 259.821)">
<stop stop-color="#658AFA"/>
<stop offset="0.15" stop-color="#5F83F3"/>
<stop offset="0.37" stop-color="#5170DF"/>
<stop offset="0.64" stop-color="#3951C0"/>
<stop offset="0.93" stop-color="#182794"/>
<stop offset="1" stop-color="#101C89"/>
</radialGradient>
<radialGradient id="paint1_radial_452_20146" cx="0" cy="0" r="1" gradientUnits="userSpaceOnUse" gradientTransform="translate(95.5647 92.9156) scale(234.265 235.017)">
<stop stop-color="#E07164"/>
<stop offset="0.21" stop-color="#DD6D63"/>
<stop offset="0.37" stop-color="#D56462"/>
<stop offset="0.51" stop-color="#C75360"/>
<stop offset="0.65" stop-color="#B43C5D"/>
<stop offset="0.77" stop-color="#9B1E59"/>
<stop offset="0.88" stop-color="#820056"/>
<stop offset="0.99" stop-color="#8200A8"/>
</radialGradient>
<radialGradient id="paint2_radial_452_20146" cx="0" cy="0" r="1" gradientUnits="userSpaceOnUse" gradientTransform="translate(238.999 106.989) scale(88.0248 88.3074)">
<stop stop-color="#4C86E3"/>
<stop offset="0.36" stop-color="#629EEF"/>
<stop offset="0.74" stop-color="#73B2F8"/>
<stop offset="1" stop-color="#7AB9FC"/>
</radialGradient>
<linearGradient id="paint3_linear_452_20146" x1="51.5523" y1="97.6652" x2="108.716" y2="97.6652" gradientUnits="userSpaceOnUse">
<stop stop-color="#8A349F"/>
<stop offset="1" stop-color="#EEBEB1"/>
</linearGradient>
<linearGradient id="paint4_linear_452_20146" x1="169.036" y1="302.954" x2="169.036" y2="259.328" gradientUnits="userSpaceOnUse">
<stop stop-color="#7AB9FC"/>
<stop offset="0.26" stop-color="#73B2F8"/>
<stop offset="0.64" stop-color="#629EEF"/>
<stop offset="1" stop-color="#4C86E3"/>
</linearGradient>
<linearGradient id="paint5_linear_452_20146" x1="63.1253" y1="148.855" x2="63.1253" y2="64.418" gradientUnits="userSpaceOnUse">
<stop stop-color="#7AB9FC"/>
<stop offset="0.26" stop-color="#73B2F8"/>
<stop offset="0.64" stop-color="#629EEF"/>
<stop offset="1" stop-color="#4C86E3"/>
</linearGradient>
<linearGradient id="paint6_linear_452_20146" x1="177.452" y1="201.805" x2="217.607" y2="201.805" gradientUnits="userSpaceOnUse">
<stop stop-color="#4C86E3"/>
<stop offset="0.03" stop-color="#538BE4"/>
<stop offset="0.28" stop-color="#8BB4ED"/>
<stop offset="0.51" stop-color="#B7D4F5"/>
<stop offset="0.71" stop-color="#D6EBFA"/>
<stop offset="0.88" stop-color="#EAF9FD"/>
<stop offset="1" stop-color="#F1FFFF"/>
</linearGradient>
<linearGradient id="paint7_linear_452_20146" x1="372.709" y1="83.4856" x2="351.615" y2="94.8972" gradientUnits="userSpaceOnUse">
<stop stop-color="#4C86E3"/>
<stop offset="0.03" stop-color="#538BE4"/>
<stop offset="0.28" stop-color="#8BB4ED"/>
<stop offset="0.51" stop-color="#B7D4F5"/>
<stop offset="0.71" stop-color="#D6EBFA"/>
<stop offset="0.88" stop-color="#EAF9FD"/>
<stop offset="1" stop-color="#F1FFFF"/>
</linearGradient>
<linearGradient id="paint8_linear_452_20146" x1="206.385" y1="118.775" x2="304.229" y2="118.775" gradientUnits="userSpaceOnUse">
<stop stop-color="#8A349F"/>
<stop offset="1" stop-color="#EEBEB1"/>
</linearGradient>
<linearGradient id="paint9_linear_452_20146" x1="185.694" y1="41.9013" x2="243.559" y2="41.9013" gradientUnits="userSpaceOnUse">
<stop stop-color="#8A349F"/>
<stop offset="1" stop-color="#EEBEB1"/>
</linearGradient>
<linearGradient id="paint10_linear_452_20146" x1="43.837" y1="168.03" x2="77.1541" y2="168.03" gradientUnits="userSpaceOnUse">
<stop stop-color="#8A349F"/>
<stop offset="1" stop-color="#EEBEB1"/>
</linearGradient>
<linearGradient id="paint11_linear_452_20146" x1="170.438" y1="195.12" x2="215.503" y2="195.12" gradientUnits="userSpaceOnUse">
<stop stop-color="#8A349F"/>
<stop offset="1" stop-color="white"/>
</linearGradient>
<linearGradient id="paint12_linear_452_20146" x1="96.4415" y1="256.337" x2="238.123" y2="256.337" gradientUnits="userSpaceOnUse">
<stop stop-color="#8A349F"/>
<stop offset="1" stop-color="#EEBEB1"/>
</linearGradient>
<linearGradient id="paint13_linear_452_20146" x1="44.8891" y1="208.313" x2="44.8891" y2="152.549" gradientUnits="userSpaceOnUse">
<stop stop-color="#7AB9FC"/>
<stop offset="0.26" stop-color="#73B2F8"/>
<stop offset="0.64" stop-color="#629EEF"/>
<stop offset="1" stop-color="#4C86E3"/>
</linearGradient>
<radialGradient id="paint14_radial_452_20146" cx="0" cy="0" r="1" gradientUnits="userSpaceOnUse" gradientTransform="translate(-165.415 87.9197) scale(276.838 255.208)">
<stop stop-color="#C9FFFF"/>
<stop offset="0.29" stop-color="#C7FCFE"/>
<stop offset="0.43" stop-color="#C4F5FE"/>
<stop offset="0.54" stop-color="#BEE7FD"/>
<stop offset="0.62" stop-color="#B7D9FD"/>
<stop offset="0.66" stop-color="#B0D2FB"/>
<stop offset="0.72" stop-color="#9CC1F8"/>
<stop offset="0.79" stop-color="#7DA5F3"/>
<stop offset="0.87" stop-color="#517FEB"/>
<stop offset="0.91" stop-color="#3D6DE8"/>
</radialGradient>
<radialGradient id="paint15_radial_452_20146" cx="0" cy="0" r="1" gradientUnits="userSpaceOnUse" gradientTransform="translate(218.308 25.7175) scale(86.4466 86.7242)">
<stop stop-color="#4C86E3"/>
<stop offset="0.13" stop-color="#5A90E7"/>
<stop offset="0.48" stop-color="#7DA8F2"/>
<stop offset="0.77" stop-color="#92B7F9"/>
<stop offset="0.96" stop-color="#9ABDFC"/>
</radialGradient>
<radialGradient id="paint16_radial_452_20146" cx="0" cy="0" r="1" gradientUnits="userSpaceOnUse" gradientTransform="translate(66.6323 53.3356) scale(195.864 196.493)">
<stop stop-color="#FFFFD9"/>
<stop offset="1"/>
</radialGradient>
</defs>
</svg>
