<svg width="360" height="360" viewBox="0 0 360 360" fill="none" xmlns="http://www.w3.org/2000/svg">
<g clip-path="url(#clip0_452_19589)">
<path fill-rule="evenodd" clip-rule="evenodd" d="M360 221.107L358.665 225.943C358.665 225.943 358.665 226.33 358.665 226.523C355.042 238.904 350.275 250.704 344.364 261.924C334.831 280.107 322.246 296.357 307.564 310.285C290.403 326.534 270.191 339.301 247.881 348.006C227.67 355.744 205.742 360 182.86 360C179.619 360 176.377 360 173.136 359.807C168.369 359.613 163.602 359.033 158.835 358.452C128.136 354.39 99.7246 342.59 75.6992 324.987C73.411 323.245 71.3136 321.698 69.0254 319.957C73.2204 316.282 82.1822 315.895 82.1822 315.895L69.7881 305.836L38.7076 288.812C32.7966 281.268 27.4576 273.143 22.6907 264.438C21.5466 262.504 20.4025 260.376 19.4492 258.248C18.3051 255.927 17.3517 253.799 16.2076 251.478C12.9661 244.32 10.2966 236.969 8.00848 229.618C6.29238 224.202 4.95763 218.592 3.81356 212.982C3.05085 209.113 2.28814 205.051 1.71611 200.989C0.572038 192.284 -0.190674 183.579 -0.190674 174.68C-0.190674 172.552 -0.190674 170.618 -0.190674 168.49C-0.190674 165.395 4.15742e-06 162.3 0.38136 159.398C0.572038 156.496 0.953394 153.401 1.33475 150.5C1.33475 150.306 1.33475 150.113 1.33475 149.919C1.90678 145.857 2.47882 141.795 3.43221 137.732C4.57628 131.929 5.91102 126.319 7.62712 120.709C9.91526 112.971 12.7754 105.427 16.017 98.0763C19.2585 90.9188 22.6907 84.1483 26.8856 77.5712C39.2797 70.8006 47.2881 67.3186 47.2881 67.3186C47.2881 67.3186 260.275 24.374 263.517 20.6985C266.759 17.0231 282.966 19.3444 282.966 19.3444C292.881 25.9215 302.225 33.6593 310.805 42.1709C312.712 44.1053 314.809 46.2332 316.716 48.1676C318.051 49.5218 319.195 51.0693 320.53 52.4234C322.627 54.9382 324.725 57.453 326.631 59.9677C333.877 69.4465 340.36 79.5056 345.699 90.1451C347.797 94.2074 349.703 98.4632 351.42 102.719C367.818 167.91 347.606 223.235 347.606 223.235C352.182 221.687 356.186 221.107 359.809 220.913L360 221.107Z" fill="url(#paint0_radial_452_19589)"/>
<path fill-rule="evenodd" clip-rule="evenodd" d="M360 221.107L358.665 225.943C358.665 225.943 358.665 226.33 358.665 226.523C355.042 238.904 350.275 250.704 344.364 261.924C334.831 280.107 322.246 296.357 307.564 310.285C290.403 326.534 270.191 339.301 247.881 348.006C227.67 355.744 205.742 360 182.86 360C179.619 360 176.377 360 173.136 359.807C168.369 359.613 163.602 359.033 158.835 358.452C128.136 354.39 99.7246 342.59 75.6992 324.987C73.411 323.245 71.3136 321.698 69.0254 319.957C73.2204 316.282 82.1822 315.895 82.1822 315.895L69.7881 305.836L38.7076 288.812C32.7966 281.268 27.4576 273.143 22.6907 264.438C21.5466 262.504 20.4025 260.376 19.4492 258.248C18.3051 255.927 17.3517 253.799 16.2076 251.478C12.9661 244.32 10.2966 236.969 8.00848 229.618C6.29238 224.202 4.95763 218.592 3.81356 212.982C3.05085 209.113 2.28814 205.051 1.71611 200.989C0.572038 192.284 -0.190674 183.579 -0.190674 174.68C-0.190674 172.552 -0.190674 170.618 -0.190674 168.49C-0.190674 165.395 4.15742e-06 162.3 0.38136 159.398C0.572038 156.496 0.953394 153.401 1.33475 150.5C1.33475 150.306 1.33475 150.113 1.33475 149.919C1.90678 145.857 2.47882 141.795 3.43221 137.732C4.57628 131.929 5.91102 126.319 7.62712 120.709C9.91526 112.971 12.7754 105.427 16.017 98.0763C19.2585 90.9188 22.6907 84.1483 26.8856 77.5712C39.2797 70.8006 47.2881 67.3186 47.2881 67.3186C47.2881 67.3186 260.275 24.374 263.517 20.6985C266.759 17.0231 282.966 19.3444 282.966 19.3444C292.881 25.9215 302.225 33.6593 310.805 42.1709C312.712 44.1053 314.809 46.2332 316.716 48.1676C318.051 49.5218 319.195 51.0693 320.53 52.4234C322.627 54.9382 324.725 57.453 326.631 59.9677C333.877 69.4465 340.36 79.5056 345.699 90.1451C347.797 94.2074 349.703 98.4632 351.42 102.719C367.818 167.91 347.606 223.235 347.606 223.235C352.182 221.687 356.186 221.107 359.809 220.913L360 221.107Z" fill="url(#paint1_radial_452_19589)"/>
<path fill-rule="evenodd" clip-rule="evenodd" d="M354.852 174.487C354.852 181.064 354.47 187.641 353.708 193.831C352.564 203.697 350.847 213.369 348.178 222.654C348.178 222.848 348.178 223.041 348.178 223.235C344.746 234.841 340.36 246.061 334.83 256.507C325.869 273.53 314.047 288.812 300.318 301.967C284.301 317.249 265.233 329.242 244.258 337.367C225.191 344.718 204.788 348.587 183.242 348.587C180.191 348.587 177.14 348.587 174.089 348.393C169.513 348.2 165.127 347.813 160.742 347.233C131.949 343.364 105.254 332.337 82.7542 315.701C79.322 313.186 76.0805 310.672 73.0296 307.963C72.0763 307.19 71.3135 306.416 70.3602 305.642C62.161 298.485 54.7246 290.36 48.0508 281.848C42.5212 274.691 37.3729 267.147 32.9873 259.022C31.8432 257.088 30.8898 255.153 29.9364 253.219C28.7924 251.091 27.839 248.963 26.8856 246.835C23.8347 240.258 21.3559 233.294 19.2585 226.136C17.733 221.107 16.3983 215.884 15.2542 210.467C14.4915 206.792 13.9195 202.923 13.3474 199.248C12.2034 191.123 11.6313 182.998 11.6313 174.487C11.6313 172.552 11.6313 170.618 11.6313 168.683C11.6313 165.782 11.822 162.88 12.2034 160.172C12.3941 157.464 12.7754 154.562 13.1568 151.854C13.1568 151.66 13.1568 151.467 13.1568 151.273C13.7288 147.405 14.3008 143.536 15.0636 139.86C16.2076 134.444 17.5424 129.027 19.0678 123.804C21.1652 116.454 23.8347 109.296 26.8856 102.526C30.3178 94.9812 34.1313 87.8237 38.3263 81.0532C41.3771 76.2171 44.6186 71.5744 48.0508 67.3186C52.8178 61.1284 58.1568 55.1316 63.6864 49.7152C94.0042 18.7641 136.335 0 182.86 0C184.767 0 186.483 0 188.199 0C190.106 0 192.013 0 193.919 0.386889C199.258 0.773777 204.597 1.35411 209.746 2.12789C214.131 2.70822 218.326 3.67544 222.521 4.64266C228.051 5.99678 233.39 7.54433 238.538 9.28533C242.161 10.446 245.593 11.8001 249.025 13.3477C251.695 14.5083 254.174 15.669 256.653 16.8297C257.034 17.0231 257.606 17.2165 257.987 17.41C274.767 25.7281 289.831 36.561 302.987 49.7152C304.894 51.6496 306.61 53.3906 308.517 55.3251C309.661 56.6792 310.996 58.0333 312.14 59.3874C314.047 61.7088 316.144 64.0301 317.86 66.5449C324.725 75.4433 330.826 84.9221 335.784 94.9812C341.695 106.781 346.271 119.162 349.513 132.316C351.61 140.634 352.945 148.952 353.708 157.657C354.28 163.074 354.47 168.683 354.47 174.293L354.852 174.487Z" fill="url(#paint2_radial_452_19589)"/>
<path style="mix-blend-mode:screen" fill-rule="evenodd" clip-rule="evenodd" d="M98.9619 104.847C98.9619 104.847 94.3856 115.099 98.1992 125.545C102.013 135.991 112.691 129.027 125.466 125.545C138.242 122.063 151.208 108.522 159.407 100.011C167.606 91.6926 175.614 80.086 174.852 68.8662C174.089 57.6464 162.458 50.2955 162.458 50.2955C162.458 50.2955 166.653 44.8791 163.22 66.7383C159.597 88.5975 154.831 96.3353 150.254 99.8173C145.678 103.299 131.568 111.617 123.941 116.26C116.314 120.903 107.733 125.739 102.585 124.578C97.4365 123.418 94.767 111.811 98.7712 104.653L98.9619 104.847Z" fill="url(#paint3_radial_452_19589)"/>
<path style="mix-blend-mode:screen" fill-rule="evenodd" clip-rule="evenodd" d="M122.225 97.3025C122.225 97.3025 115.742 103.106 117.458 107.942C119.174 112.585 131.568 109.683 139.386 99.4304C147.203 89.1779 141.102 81.0532 141.102 81.0532C141.102 81.0532 138.242 98.0763 130.424 100.978C122.797 103.88 120.318 102.719 120.318 102.719C120.318 102.719 119.174 101.365 122.225 97.3025Z" fill="url(#paint4_radial_452_19589)"/>
<path style="mix-blend-mode:screen" fill-rule="evenodd" clip-rule="evenodd" d="M102.585 104.653C102.585 104.653 108.877 97.3025 116.123 90.532C123.369 83.7614 135.763 81.0532 135.763 81.0532C135.763 81.0532 128.517 77.1843 119.174 82.6007C109.831 88.0172 102.585 104.653 102.585 104.653Z" fill="url(#paint5_radial_452_19589)"/>
<path style="mix-blend-mode:screen" fill-rule="evenodd" clip-rule="evenodd" d="M76.6526 104.847C76.6526 104.847 91.3348 88.2106 109.258 81.0532C127.182 73.8958 133.284 71.7679 141.292 65.1908C149.11 58.6136 158.072 53.1972 158.072 53.1972C158.072 53.1972 140.72 54.1644 114.025 71.1875C87.3305 88.2106 76.6526 99.0435 76.6526 104.653V104.847Z" fill="url(#paint6_radial_452_19589)"/>
<path style="mix-blend-mode:screen" fill-rule="evenodd" clip-rule="evenodd" d="M40.8051 101.558C40.8051 101.558 66.1653 75.8302 86.1864 65.5777C106.208 55.5185 119.555 48.748 137.479 44.2988C155.403 39.8495 183.051 31.9183 183.051 31.9183L188.008 29.4035C188.008 29.4035 131.186 30.5642 93.8136 53.3907C56.4407 76.2171 40.8051 101.558 40.8051 101.558Z" fill="url(#paint7_radial_452_19589)"/>
<path style="mix-blend-mode:screen" fill-rule="evenodd" clip-rule="evenodd" d="M71.3136 131.349C71.3136 131.349 75.5085 166.942 81.6102 168.49C87.7119 170.038 109.64 169.844 142.246 153.014C174.852 136.185 181.335 140.054 199.64 121.29C217.945 102.526 225.191 81.0532 230.911 67.1252C236.631 53.1972 238.157 36.9479 236.441 31.9183C236.441 31.9183 242.542 35.5938 242.542 49.5218C242.542 63.4498 238.347 86.8565 232.627 100.398C226.716 113.939 211.653 135.218 193.347 145.664C175.042 156.11 138.623 176.228 102.966 175.841C67.3093 175.647 72.839 172.939 69.2161 165.782C65.5932 158.624 71.3136 131.155 71.3136 131.155V131.349Z" fill="url(#paint8_radial_452_19589)"/>
<g style="mix-blend-mode:multiply" opacity="0.5">
<path fill-rule="evenodd" clip-rule="evenodd" d="M15.6356 161.72C15.6356 161.72 22.1186 176.034 25.5508 189.189C29.1737 202.343 28.411 224.589 43.2839 228.071C58.1568 231.553 78.75 241.225 86.5678 238.904C94.3856 236.389 123.75 231.166 139.767 234.455C155.975 237.743 185.53 235.809 195.826 230.586C206.123 225.363 228.432 212.015 238.92 207.759C249.407 203.697 264.089 192.09 276.674 179.13C289.259 166.169 289.068 151.467 292.119 144.116C295.17 136.765 301.462 107.555 300.699 94.2074C299.937 81.0532 292.119 56.2923 292.119 56.2923L284.682 48.3611C284.682 48.3611 293.835 82.4073 289.64 106.394C285.445 130.382 289.259 140.247 272.86 163.267C256.271 186.287 233.39 204.471 207.458 213.176C181.716 221.881 165.127 220.913 138.432 223.428C113.453 225.75 82.3729 224.009 69.9788 220.72C58.9195 217.818 43.8559 210.274 32.6059 191.897C21.3559 173.52 15.6356 161.913 15.6356 161.913V161.72Z" fill="#7971AE"/>
</g>
<g style="mix-blend-mode:multiply" opacity="0.4">
<path fill-rule="evenodd" clip-rule="evenodd" d="M72.4576 123.998C72.4576 123.998 74.7458 162.687 79.7034 165.975C84.4704 169.264 94.767 170.618 104.492 167.329C114.025 164.041 147.203 153.015 152.733 149.533C158.453 146.051 193.157 128.447 200.021 123.224C206.886 118.001 216.038 99.4304 219.089 95.5615C222.14 91.6926 230.53 68.6728 233.008 59.9678C235.487 51.2628 237.203 40.8168 237.203 40.8168C237.203 40.8168 237.966 35.9807 233.771 34.4331C229.576 32.8855 229.004 34.4331 229.004 34.4331C229.004 34.4331 228.051 40.2364 224.619 56.6792C220.996 73.3154 172.373 129.995 147.775 144.89C123.178 159.785 99.9153 160.172 91.3348 159.205C82.9449 158.238 72.4576 130.575 72.6483 123.998H72.4576Z" fill="#7971AE"/>
</g>
<g style="mix-blend-mode:multiply" opacity="0.4">
<path fill-rule="evenodd" clip-rule="evenodd" d="M71.3136 131.349C71.3136 131.349 72.2669 107.168 78.3686 99.237C84.4703 91.1123 105.064 74.4761 117.267 68.2859C129.47 62.0956 147.203 53.1972 153.305 51.8431C159.407 50.489 163.792 51.8431 163.792 51.8431C163.792 51.8431 156.356 47.7808 139.386 52.0365C122.415 56.4858 103.157 72.3482 93.8136 77.3778C84.4703 82.4073 70.1695 94.4009 66.7373 100.398C63.3051 106.588 71.3136 131.349 71.3136 131.349Z" fill="#7971AE"/>
</g>
<g style="mix-blend-mode:multiply" opacity="0.4">
<path fill-rule="evenodd" clip-rule="evenodd" d="M29.5551 105.814L82.3729 59.0005L114.979 43.9119C114.979 43.9119 147.203 32.6921 162.076 29.2101C176.949 25.7281 209.936 24.5674 209.936 24.5674L227.288 26.5019C227.288 26.5019 196.97 9.67221 152.352 22.0527C107.733 34.2396 77.9873 49.5218 64.8305 62.0956C51.8644 74.6695 32.0339 99.6238 29.3644 105.814H29.5551Z" fill="#7971AE"/>
</g>
<path style="mix-blend-mode:screen" fill-rule="evenodd" clip-rule="evenodd" d="M28.0297 107.942C28.0297 107.942 -0.190661 142.762 13.5382 164.041C27.267 185.32 33.3687 216.271 37.3729 223.428C41.3771 230.586 86.9492 241.419 96.4831 239.097C106.017 236.969 128.708 230.779 143.581 236.582C143.581 236.582 169.894 234.261 177.521 234.261C185.148 234.261 198.877 227.684 202.119 226.136C205.36 224.589 223.284 218.786 232.436 214.917C241.589 211.241 256.271 199.635 262.182 194.992C268.093 190.349 283.729 171.585 286.78 165.782C289.831 159.979 298.602 125.932 301.081 110.07C303.369 94.014 296.504 63.0629 291.547 52.4234C286.398 41.784 270.191 31.7249 270.191 31.7249L271.144 26.8888L283.729 19.3444C283.729 19.3444 305.657 48.5545 307.754 73.8958C308.898 88.791 312.331 120.322 308.517 133.864C305.466 144.696 294.979 176.808 285.826 188.221C276.674 199.635 249.216 228.845 234.534 234.455C219.852 240.064 176.568 247.802 151.208 248.189C132.331 248.576 91.1441 245.094 70.7416 244.514C50.339 243.74 35.8475 230.973 27.839 224.395C19.8305 217.818 22.5 200.021 14.3009 185.9C6.10171 171.779 0.76273 152.628 2.66951 142.375C4.76697 132.123 28.0297 107.942 28.0297 107.942Z" fill="url(#paint9_radial_452_19589)"/>
<path fill-rule="evenodd" clip-rule="evenodd" d="M77.7966 240.064C73.411 239.097 69.5975 236.582 65.2119 235.422C62.733 234.841 60.4449 234.455 57.9661 233.681C55.4873 232.907 52.8178 232.52 50.339 232.327C45.3814 232.327 40.233 230.973 36.9915 226.717C34.1314 222.848 32.4152 218.786 31.0805 214.143C29.3644 207.953 27.6483 201.762 25.9322 195.572C24.2161 189.962 21.7373 184.739 18.6864 179.71C17.5424 177.775 16.3983 175.647 15.0636 173.713C13.9195 171.972 12.2034 170.231 11.25 168.297C8.77118 163.074 8.00847 157.464 8.19915 151.854C8.19915 148.759 9.15254 146.05 9.72457 143.149C10.678 139.473 11.6313 136.185 13.3475 132.896C15.0636 129.801 16.7797 126.706 18.4958 123.611C22.3093 116.647 26.5042 109.683 31.2712 103.493C37.5636 95.5615 44.428 88.0172 51.483 80.8597C55.4873 76.604 60.0636 72.9285 64.8305 69.4465C68.8347 66.5449 72.4576 63.2563 76.2712 60.3546C82.9449 55.1316 90.572 51.8431 98.0085 48.1676C106.97 43.7184 116.123 39.4627 125.466 35.9807C136.525 31.9183 148.157 28.6298 159.597 26.115C172.754 23.4068 186.864 22.8264 200.212 22.8264C207.648 22.8264 215.466 21.8592 222.521 24.7609C226.525 26.3084 231.102 27.856 234.725 30.3708C235.487 30.9511 235.869 30.9511 236.441 31.7249C236.822 32.1118 237.013 32.6921 237.203 33.2724C237.775 34.6265 238.347 36.7544 238.347 38.1085C238.347 39.6561 237.775 41.0102 237.775 42.5578C237.775 44.8791 237.203 46.8135 237.203 48.9414C237.203 51.4562 236.441 53.3906 236.059 55.9054C235.297 60.5481 234.725 64.8039 233.008 69.0596C230.53 75.2499 228.814 81.827 225.953 88.0172C225.191 89.9516 223.665 91.3057 222.712 93.2402C221.949 94.9812 221.186 96.3353 220.233 97.8829C218.517 100.978 216.992 104.073 214.894 106.975C210.699 112.778 206.314 119.162 200.784 123.804C194.11 129.414 186.674 134.057 179.047 138.119C174.089 140.827 168.75 142.955 163.792 145.47C159.216 147.791 154.64 150.113 150.064 152.241C138.242 157.851 125.847 161.913 113.453 165.782C109.83 166.942 106.589 168.103 102.966 168.683C99.5339 169.07 95.7203 170.231 92.2881 170.231C88.6653 170.231 84.8517 169.264 81.4195 168.103C75.5085 166.169 74.9364 159.592 74.5551 154.175C74.1737 150.306 73.7924 146.05 73.0297 142.182C72.4576 138.893 72.2669 135.798 71.5042 132.509C70.7415 129.221 70.3602 125.932 70.3602 122.45C70.3602 118.195 71.8856 114.132 72.839 110.07C73.411 107.362 73.7924 104.653 74.7458 102.139C76.2712 98.4632 79.322 95.1746 82.1822 92.4664C85.233 89.7582 88.0932 87.05 91.1441 84.3417C92.8602 82.6007 94.9576 81.4401 96.8644 79.8925C100.106 77.1843 103.919 75.0564 107.542 73.122C110.593 71.5744 112.691 69.0596 115.36 67.1252C118.22 65.1908 121.462 63.2563 124.513 61.7088C127.182 60.3546 130.042 59.3874 132.712 58.4202C135 57.453 137.097 56.2923 139.386 55.5185C141.483 54.7448 143.581 54.5513 145.678 53.5841C147.775 52.8103 149.682 52.0365 151.78 51.4562C154.068 50.8759 156.737 49.9086 159.216 49.7152C163.983 49.7152 166.271 52.0365 167.415 56.6792C169.131 63.0629 167.225 68.2859 164.936 74.2826C163.03 78.9253 161.123 83.7614 159.407 88.4041C157.119 94.7877 151.398 98.0763 146.822 102.526C141.864 107.168 135.763 111.231 129.661 113.939C127.754 114.906 125.657 115.293 123.75 116.067C122.034 116.84 120.508 117.808 118.983 118.581C117.839 119.162 117.076 119.936 116.123 120.709C115.169 121.29 114.216 121.677 113.263 122.257C111.165 123.804 108.877 125.159 106.398 126.319C104.11 127.48 99.5339 128.06 98.0085 125.159C97.2458 123.804 97.2458 121.87 96.8644 120.322C96.483 118.388 96.2924 116.84 96.2924 114.713C96.2924 112.585 96.6737 111.231 96.8644 109.49C97.2458 107.749 98.0085 106.201 98.5805 104.46C100.297 99.4304 103.729 95.755 106.78 91.6926C108.686 88.9844 110.212 86.4696 112.5 84.1483C115.742 80.6663 120.318 78.9253 124.894 77.7646C129.089 76.7974 135.191 75.4433 139.004 77.7646C142.246 79.6991 139.958 84.1483 139.004 87.05C138.432 88.5975 137.86 90.1451 137.288 91.6926C136.907 92.8533 136.716 94.2074 136.144 95.1746C134.809 97.496 132.14 99.0435 130.233 100.785C129.28 101.558 127.945 102.719 126.801 103.106C125.466 103.493 123.941 103.493 122.606 103.88C121.843 103.88 121.462 104.847 120.699 104.653C119.936 104.46 119.936 103.493 120.127 102.719C120.127 101.945 120.508 101.171 120.699 100.591C120.699 100.591 120.699 100.204 120.699 100.011C121.271 97.8829 123.941 95.1746 125.275 93.2402C127.182 94.014 125.847 95.1746 125.466 96.1418C125.275 96.9156 125.275 97.496 125.085 98.2697C125.085 98.8501 123.941 100.011 124.703 100.785C125.085 101.171 126.801 100.398 127.373 100.204C131.568 98.6566 134.237 94.014 135.572 89.7582C136.335 87.05 136.335 82.2139 133.284 81.0532C130.996 80.086 128.326 80.6663 126.038 80.6663C117.458 80.6663 112.5 89.7582 107.924 95.755C104.873 99.8173 102.394 104.46 100.678 109.103C99.5339 112.391 98.9619 115.873 98.0085 119.162C97.4364 121.677 96.483 125.352 100.297 124.965C102.394 124.578 104.873 123.418 106.97 122.837C108.877 122.257 110.403 121.483 112.119 120.709C114.788 119.162 117.839 118.775 120.699 117.614C122.797 116.647 125.085 115.486 127.182 114.326C132.712 111.617 138.242 106.008 142.246 101.171C144.915 97.8829 148.538 95.3681 151.589 92.4664C154.64 89.3713 156.356 85.5024 158.453 81.6335C160.551 77.7646 161.695 73.8957 162.648 69.64C163.602 65.7711 165.699 61.5153 164.555 57.453C163.411 53.3906 158.072 53.1972 154.64 53.7775C151.78 54.1644 148.729 54.7448 146.059 55.712C141.102 57.6464 136.335 59.7743 131.377 61.9022C123.559 65.1908 117.267 70.4137 110.212 74.863C106.589 76.9909 102.775 78.7319 99.3432 81.4401C96.8644 83.3745 94.5763 85.6959 92.0975 87.8237C90.3813 89.3713 89.0466 91.1123 87.1398 92.273C84.661 94.014 82.3729 95.9484 80.4661 98.2697C78.9407 100.204 77.2246 102.526 76.4619 104.847C75.8898 106.781 76.4619 108.522 76.4619 110.457C76.4619 113.165 75.8898 115.486 75.6991 118.001C75.6991 120.709 75.6991 123.611 75.6991 126.319C75.6991 131.736 74.9364 136.765 74.9364 142.182C74.9364 145.47 75.6992 148.952 76.4619 152.241C77.0339 154.949 77.9873 157.077 78.178 159.785C78.178 161.526 78.5593 163.847 80.0847 164.815C80.8475 165.395 81.8008 165.588 82.5636 165.782C83.3263 166.169 84.089 166.362 84.661 166.556C85.0424 166.556 85.4237 166.749 85.9958 166.942C86.3771 166.942 86.5678 167.523 86.9491 167.716C87.9025 168.103 89.0466 167.716 90 167.716C92.0974 167.329 94.1949 166.749 96.2924 166.362C101.631 165.395 106.97 165.588 111.928 163.654C117.648 161.526 122.987 158.238 128.708 155.916C137.288 152.434 146.441 149.726 154.449 145.277C158.072 143.342 161.886 141.408 165.699 139.667C174.661 135.604 184.004 132.316 192.013 126.126C195.064 123.804 197.352 121.096 199.831 118.388C201.356 116.84 202.881 115.486 204.216 113.745C208.03 108.716 211.843 103.106 214.703 97.496C216.038 95.1746 216.801 92.4664 218.136 90.1451C220.233 86.4696 222.712 83.1811 224.428 79.3122C226.335 75.6367 227.288 71.7679 228.623 67.899C229.386 65.3842 229.958 63.4498 229.767 60.935C229.767 55.712 230.148 51.2628 232.246 46.6201C233.39 44.1053 234.915 40.2364 234.153 37.3348C233.771 35.9807 231.674 35.5938 230.53 35.2069C227.669 34.2397 224.619 33.4659 221.758 32.3052C219.089 31.1445 217.373 29.7904 214.513 29.2101C213.369 29.0167 212.415 28.8232 211.271 28.8232C208.602 28.8232 206.123 30.9511 203.453 30.7577C202.5 30.7577 201.928 30.3708 200.975 30.1773C199.64 29.9839 198.114 30.1773 196.589 30.1773C193.538 30.1773 190.487 29.4035 187.246 29.597C183.623 29.597 180 29.9839 176.186 30.1773C172.754 30.1773 169.322 30.1773 165.89 30.1773C163.602 30.1773 162.267 31.338 160.36 32.1118C158.644 32.8855 156.547 33.2724 154.831 34.0462C153.114 34.6265 151.589 35.2069 149.873 35.4003C147.394 35.4003 145.106 35.0134 142.627 35.4003C139.767 35.9807 136.716 37.3348 134.047 38.4954C126.229 41.784 118.792 46.0398 110.784 48.5545C106.97 49.7152 102.966 50.2955 99.1525 51.8431C97.8178 52.4234 96.483 53.3906 95.1483 54.3579C92.6695 56.0989 90 57.6464 87.3305 59.3874C81.4195 63.0629 75.8898 67.3186 70.3602 71.381C63.8771 76.2171 57.5847 81.2466 52.2458 87.4369C42.9025 98.4632 32.9873 109.49 24.7881 121.677C20.9746 127.286 16.589 133.477 13.7288 139.86C13.7288 139.86 13.7288 140.054 13.7288 140.247C12.2034 143.923 11.4407 147.792 11.822 151.66C11.822 151.66 11.822 151.66 11.822 151.854C12.2034 155.142 13.7288 159.011 14.8729 161.913C16.2076 164.815 17.161 167.91 18.8771 170.811C20.5932 173.906 23.072 176.421 24.4068 179.71C25.9322 183.772 27.4576 188.221 28.6017 192.477C30.1271 197.894 31.2712 203.31 32.4152 208.726C32.9873 212.208 33.5593 215.497 35.0847 218.592C37.3729 222.848 41.9492 224.589 45.9534 227.104C48.0508 228.458 49.3856 228.845 51.8644 229.038C55.2966 229.038 58.5381 230.005 61.9703 230.973C69.0254 233.1 76.0805 234.841 83.5169 234.648C87.9025 234.648 92.0975 233.487 96.483 232.907C100.487 232.327 104.492 231.94 108.496 231.359C112.119 230.779 115.742 229.812 119.364 229.812C122.797 229.812 126.801 230.392 130.233 231.359C136.335 233.1 142.246 234.455 148.538 234.068C152.352 234.068 156.165 233.1 159.979 232.907C163.602 232.714 167.034 233.294 170.466 233.487C176.758 233.874 182.86 232.327 188.771 230.392C192.775 229.038 196.208 227.104 199.64 224.976C202.5 223.235 205.36 222.654 208.602 221.881C214.894 220.14 220.996 217.818 226.716 214.723C234.153 210.467 240.254 204.084 247.309 199.635C251.314 197.12 255.89 195.379 259.894 192.671C263.136 190.349 266.186 187.834 269.047 184.933C272.288 181.644 275.339 178.162 278.581 174.874C281.059 172.359 282.013 169.264 283.538 165.975C285.636 161.333 286.398 156.496 287.352 151.467C288.114 146.437 290.403 141.988 292.5 137.346C295.169 131.349 297.458 125.932 298.03 119.162C298.411 114.132 299.174 109.103 299.174 104.267C299.174 100.978 298.602 97.8829 298.22 94.7877C297.839 91.8861 297.267 88.9844 296.695 86.0827C295.932 82.6007 295.932 78.9253 295.36 75.2499C294.788 72.1547 293.835 68.8662 293.072 65.7711C292.5 63.6432 291.737 61.3219 290.784 59.3874C289.258 55.712 287.161 52.0365 284.492 48.9414C283.347 47.5873 282.013 47.2004 280.869 46.2332C279.915 45.4594 279.725 44.8791 278.581 44.2988C277.055 43.525 275.53 42.7512 274.004 41.9774C271.525 40.6233 268.856 40.2364 266.568 38.8823C264.28 37.7217 262.182 35.9807 260.085 34.6265C257.606 33.079 255.127 31.9183 253.03 29.9839C250.932 27.856 249.597 25.3412 247.5 23.2133C245.403 21.0854 242.542 19.7313 240.064 17.7969C235.869 14.5083 231.102 14.3149 226.525 12.3804C224.237 11.4132 221.949 11.2198 219.47 10.6394C216.61 10.0591 214.703 8.31811 211.843 7.93122C209.174 7.54433 206.504 7.54433 204.025 6.77055C202.5 6.38366 200.975 5.99678 199.449 5.80333C196.398 5.41644 193.347 5.80333 190.297 6.19022C187.627 6.57711 184.958 6.19022 182.288 6.19022C180 6.19022 177.712 6.38366 175.424 6.19022C169.131 5.223 162.076 5.223 155.593 5.80333C149.492 6.19022 143.39 6.77055 137.479 8.705C132.521 10.446 127.564 11.9936 122.797 13.928C119.364 15.2821 116.504 17.2165 113.453 18.9575C106.017 23.2133 98.9619 28.4363 91.9068 33.2724C83.8983 38.6889 76.4619 44.6856 68.6441 50.489C63.6864 54.3579 58.5381 58.0333 53.5805 62.0956C51.483 63.8366 49.3856 65.5776 47.2881 67.5121C52.0551 61.3219 57.3941 55.3251 62.9237 49.9086C94.0042 18.7641 136.335 0 182.86 0C184.767 0 186.483 0 188.199 0C190.106 0 192.013 0 193.919 0.386889C199.258 0.773777 204.597 1.35411 209.746 2.12789C215.657 3.67544 221.568 5.41644 227.479 7.35089C232.436 8.89844 237.394 10.2526 242.161 11.9936C245.403 13.1542 248.453 14.5083 251.504 15.8624C254.364 17.0231 257.415 18.1838 260.085 19.5379C264.28 22.0527 268.284 25.1478 272.288 28.2429C274.958 30.1773 277.246 32.4987 279.725 34.82C282.966 38.1085 286.017 41.784 288.496 45.6529C294.407 54.9382 298.983 65.3842 301.271 76.0236C303.178 85.1155 302.987 94.9812 302.606 104.073C302.606 108.909 301.462 114.326 300.508 119.355C299.364 124.772 297.648 129.608 297.076 135.218C296.886 137.926 297.076 140.634 296.886 143.342C296.504 145.47 295.742 147.598 295.36 149.726C294.407 154.369 293.072 158.818 290.975 163.074C288.114 168.877 284.301 173.713 280.106 178.549C275.53 184.159 270.572 189.382 265.805 194.798C261.038 200.215 255.127 204.664 249.025 208.533C244.258 211.435 239.301 214.917 233.962 217.045C229.004 218.979 223.475 221.881 218.136 222.461C214.131 222.848 210.89 224.395 207.458 226.91C205.551 228.458 204.025 230.392 202.119 231.94C200.403 233.294 198.496 233.874 196.589 234.455C191.822 236.002 187.246 235.615 182.288 235.615C175.233 235.615 168.178 236.389 161.123 236.969C157.5 237.356 154.068 237.55 150.445 237.356C147.203 237.356 144.153 236.389 140.911 236.002C137.479 235.615 133.856 235.422 130.424 234.841C127.754 234.455 125.466 234.261 122.606 234.841C120.318 235.035 118.03 234.841 115.932 234.841C113.644 235.035 111.356 235.615 109.068 236.002C98.5805 237.55 88.6652 242.386 77.7966 239.871V240.064Z" fill="#F8E837"/>
<path style="mix-blend-mode:screen" fill-rule="evenodd" clip-rule="evenodd" d="M69.2161 319.764C69.2161 319.764 109.449 326.921 127.754 326.341C155.403 325.567 187.246 329.049 212.034 329.629C236.822 330.403 280.106 309.704 287.924 306.029C295.742 302.16 315 291.134 331.589 272.37C348.178 253.606 354.852 223.041 354.852 223.041H347.987C347.987 223.041 345.318 236.196 335.403 251.091C329.301 259.989 320.53 267.727 308.517 278.366C291.165 293.649 268.475 305.449 245.593 311.059C215.275 318.796 188.199 316.668 169.513 319.377C142.436 323.439 82.5636 313.767 82.5636 313.767L69.4068 319.377L69.2161 319.764Z" fill="url(#paint10_radial_452_19589)"/>
<path fill-rule="evenodd" clip-rule="evenodd" d="M58.7288 299.645C58.7288 299.645 65.2119 316.668 69.4068 319.957C69.4068 319.957 78.178 320.537 82.5636 315.895L70.1695 305.836L58.7288 299.645Z" fill="url(#paint11_radial_452_19589)"/>
<path fill-rule="evenodd" clip-rule="evenodd" d="M355.424 191.703C355.424 191.703 359.809 210.854 360 221.107C360 221.107 353.326 225.363 347.797 223.428C347.797 223.428 354.089 200.021 355.233 191.897L355.424 191.703Z" fill="url(#paint12_radial_452_19589)"/>
<path fill-rule="evenodd" clip-rule="evenodd" d="M238.919 9.47878C238.919 9.47878 274.767 13.1542 283.157 19.151C283.157 19.151 277.246 25.9215 270.572 26.6953C270.572 26.6953 241.398 10.2526 238.919 9.47878Z" fill="#DF61C2"/>
<path fill-rule="evenodd" clip-rule="evenodd" d="M27.0763 77.1843L41.7585 74.863L47.4788 66.9318C47.4788 66.9318 36.9915 71.5744 27.0763 77.1843Z" fill="#DF61C2"/>
<g style="mix-blend-mode:multiply" opacity="0.5">
<path fill-rule="evenodd" clip-rule="evenodd" d="M39.089 288.812C39.089 288.812 108.686 309.318 163.03 310.285C217.373 311.252 237.775 299.065 261.229 289.78C284.682 280.494 323.199 259.409 334.831 243.933C346.462 228.264 355.424 191.703 355.424 191.703C355.424 191.703 344.174 246.835 334.64 256.507C324.915 266.179 281.822 295.776 274.386 299.645C266.758 303.514 246.356 319.377 209.174 314.927C209.174 314.927 184.195 318.409 175.233 317.829C166.271 317.055 152.161 326.341 126.419 317.829C126.419 317.829 90.572 316.088 82.7542 314.347C74.9365 312.606 39.2797 289.006 39.2797 289.006L39.089 288.812Z" fill="#514896"/>
</g>
<path fill-rule="evenodd" clip-rule="evenodd" d="M55.8687 214.723C55.8687 214.723 113.453 224.782 155.403 220.527C197.161 216.271 219.852 205.631 231.674 197.7C243.496 189.769 266.949 164.428 275.72 153.015C284.492 141.408 288.877 112.778 288.877 112.778C288.877 112.778 290.403 140.828 283.347 153.015C276.292 165.202 251.695 188.415 241.78 195.185C231.864 201.956 203.072 217.818 188.199 220.72C173.136 223.428 148.538 231.166 130.614 227.877C112.691 224.589 69.4068 225.169 56.0593 214.917L55.8687 214.723Z" fill="#C45090"/>
<path fill-rule="evenodd" clip-rule="evenodd" d="M135.763 308.544C135.763 308.544 195.826 304.288 216.42 299.645C237.013 295.003 264.089 283.589 283.157 276.625C302.034 269.468 316.525 255.54 326.822 247.802C337.309 240.064 350.657 207.759 350.657 207.759C350.657 207.759 342.076 239.678 328.92 250.124C315.763 260.57 282.203 279.721 244.259 296.744C202.119 315.701 169.322 310.285 135.763 308.35V308.544Z" fill="#C1427A"/>
<path fill-rule="evenodd" clip-rule="evenodd" d="M345.127 231.94C346.081 229.038 347.034 226.136 347.987 223.235C344.555 234.841 340.169 246.061 334.64 256.507C333.114 258.248 331.017 259.409 329.682 261.15C328.157 262.891 326.822 264.632 325.106 266.179C317.288 274.111 308.326 280.881 298.983 286.878C289.449 293.262 279.915 299.065 269.619 303.708C261.61 307.19 253.411 310.285 245.021 312.413C238.157 314.154 230.911 314.927 224.047 315.314C220.424 315.314 216.992 316.088 213.559 316.475C209.174 316.862 204.597 316.862 200.403 317.636C192.966 318.99 185.148 319.957 177.712 320.344C171.229 320.731 164.746 321.698 158.263 321.698C149.873 321.698 141.674 320.344 133.284 320.344C125.275 320.344 117.076 319.957 109.068 319.377C104.301 318.99 99.5339 318.023 94.7669 317.442C90.7627 317.055 86.9491 316.088 82.9449 315.701C79.5127 313.186 76.2712 310.672 73.2203 307.963C72.2669 307.19 71.5042 306.416 70.5508 305.642C75.1271 307.19 79.7034 308.737 84.2797 310.091C90.7627 312.219 98.0085 313.38 104.682 314.154C110.212 314.927 116.886 315.314 122.225 314.154C127.945 312.8 132.14 314.541 137.288 316.668C139.767 317.636 142.055 318.216 144.534 318.796C147.966 319.764 150.636 319.57 154.258 319.183C157.5 318.796 160.742 318.216 163.792 317.442C166.462 316.862 169.131 315.701 171.801 315.314C176.568 314.734 181.525 313.96 186.292 314.927C191.822 315.895 197.161 316.475 202.691 315.508C208.411 314.541 213.75 313.96 219.47 313.96C221.377 313.96 223.093 313.96 225 314.541C227.097 314.927 229.004 314.347 231.102 314.154C234.915 313.767 238.157 313.186 241.78 312.026C245.212 310.865 248.263 309.511 251.504 308.157C257.797 305.642 263.708 303.321 269.237 299.452C274.004 296.163 279.343 293.842 284.11 290.747C288.686 287.652 292.881 283.976 297.458 281.075C302.415 277.98 306.992 274.304 311.758 270.822C314.809 268.694 317.479 265.986 320.53 263.858C323.199 261.924 326.059 260.376 328.347 258.248C332.542 254.573 336.356 250.704 339.216 245.868C341.695 241.419 343.792 236.582 345.509 231.746L345.127 231.94Z" fill="#F8E837"/>
<path fill-rule="evenodd" clip-rule="evenodd" d="M160.932 135.024C160.932 135.024 202.5 100.591 219.852 66.9318C219.852 66.9318 171.419 117.227 160.932 135.024Z" fill="#E176EF"/>
<path fill-rule="evenodd" clip-rule="evenodd" d="M117.267 176.034C117.267 176.034 143.39 176.034 172.373 164.041C201.356 152.047 215.847 126.513 215.847 126.513C215.847 126.513 196.208 145.47 174.852 156.11C153.496 166.749 137.288 169.264 117.076 176.034H117.267Z" fill="#D59AF0"/>
<path fill-rule="evenodd" clip-rule="evenodd" d="M220.805 120.322C220.805 120.322 223.665 112.778 229.195 99.4304C234.725 86.0827 239.11 78.9253 239.11 78.9253C239.11 78.9253 237.394 99.237 220.805 120.322Z" fill="#D59AF0"/>
<path fill-rule="evenodd" clip-rule="evenodd" d="M108.305 246.255C108.305 246.255 144.725 255.153 192.203 246.255C239.682 237.356 241.78 234.261 254.746 224.009C267.712 213.563 277.055 200.215 282.203 195.185C287.352 190.156 293.835 172.746 293.835 172.746C293.835 172.746 280.487 197.12 261.229 213.563C241.97 230.005 226.144 237.937 193.92 242.773C161.695 247.609 124.513 247.222 108.305 246.255Z" fill="#D773B8"/>
<path fill-rule="evenodd" clip-rule="evenodd" d="M140.148 326.341C140.148 326.341 173.136 329.242 186.483 331.951C199.831 334.659 225.763 334.659 240.445 329.049C255.318 323.439 284.492 307.577 284.492 307.577C284.492 307.577 257.225 323.052 224.619 326.534C192.013 330.016 172.182 324.406 140.148 326.147V326.341Z" fill="#D773B8"/>
<path fill-rule="evenodd" clip-rule="evenodd" d="M294.216 302.934C294.216 302.934 315.191 288.619 325.487 279.14C325.487 279.14 314.428 294.422 294.216 302.934Z" fill="#D773B8"/>
<path fill-rule="evenodd" clip-rule="evenodd" d="M135 121.29C135 121.29 158.835 103.106 166.462 89.7582C174.089 76.604 174.852 69.0596 174.852 69.0596C174.852 69.0596 178.284 81.827 163.792 98.2698C149.301 114.713 135 121.29 135 121.29Z" fill="#E4C2F5"/>
<path style="mix-blend-mode:screen" opacity="0.5" fill-rule="evenodd" clip-rule="evenodd" d="M79.3221 108.522C77.4153 117.421 75.5085 126.513 78.3687 135.024C81.4195 143.536 85.9958 149.146 90.1907 149.726C94.5763 150.113 100.869 139.667 100.678 136.765C100.487 133.67 93.6229 125.932 93.0509 118.001C92.6695 110.07 101.059 98.4632 100.678 94.014C100.297 89.5648 82.3729 94.014 79.1314 108.716L79.3221 108.522Z" fill="url(#paint13_linear_452_19589)"/>
<path style="mix-blend-mode:screen" opacity="0.5" fill-rule="evenodd" clip-rule="evenodd" d="M83.1356 72.1548C80.2754 69.0596 61.017 87.4369 47.4788 101.558C34.1314 115.68 20.7839 134.25 19.6398 146.244C18.4958 158.044 28.0297 176.034 45.572 191.897C63.1144 207.759 108.305 222.074 119.174 215.69C130.042 209.307 126.038 188.995 117.267 184.159C108.305 179.323 79.5127 189.189 65.9746 174.68C52.4364 160.172 58.5381 140.827 60.2542 124.578C62.3517 104.653 68.4534 87.8237 74.1737 82.7942C79.8941 77.7646 83.1356 72.3482 83.1356 72.3482V72.1548Z" fill="url(#paint14_linear_452_19589)"/>
<path fill-rule="evenodd" clip-rule="evenodd" d="M23.8348 133.477C20.0212 146.244 19.6398 160.172 27.4576 170.618C35.2754 181.257 41.1864 173.326 43.8559 147.598C46.5254 121.87 45 104.267 45 104.267C45 104.267 28.411 117.421 23.8348 133.67V133.477Z" fill="#FFFFF7"/>
<path fill-rule="evenodd" clip-rule="evenodd" d="M36.6102 178.162C31.2712 183.192 43.8559 192.864 45.9534 188.221C48.0509 183.385 40.0424 174.874 36.6102 178.162Z" fill="#E9CCF7"/>
<path fill-rule="evenodd" clip-rule="evenodd" d="M22.6907 217.045C22.1186 225.169 26.6949 234.455 40.8051 239.871C54.9153 245.287 65.9746 243.74 65.9746 243.74C65.9746 243.74 49.5763 240.451 40.4237 234.068C31.2712 227.684 22.6907 217.238 22.6907 217.238V217.045Z" fill="#E9CCF7"/>
<path fill-rule="evenodd" clip-rule="evenodd" d="M80.4661 109.876C75.8899 103.686 81.8009 95.1746 90.3814 89.7582C98.9619 84.5352 99.9153 86.0828 98.0085 90.7254C96.1017 95.3681 93.4322 105.04 89.428 109.876C85.4238 114.713 83.1356 113.552 80.4661 109.876Z" fill="#FFFFF7"/>
<path fill-rule="evenodd" clip-rule="evenodd" d="M110.975 98.8501C109.258 95.755 112.691 86.8565 117.648 87.6303C122.606 88.4041 121.271 90.3385 118.983 93.6271C117.267 96.1419 112.5 101.558 110.975 98.6566V98.8501Z" fill="#FFFFF7"/>
<path fill-rule="evenodd" clip-rule="evenodd" d="M146.25 114.132C144.534 110.65 158.072 100.011 159.979 101.171C161.886 102.332 160.551 107.942 157.5 110.07C154.258 112.198 146.822 115.486 146.25 114.132Z" fill="#FFFFF7"/>
</g>
<defs>
<radialGradient id="paint0_radial_452_19589" cx="0" cy="0" r="1" gradientUnits="userSpaceOnUse" gradientTransform="translate(338.528 108.532) scale(283.275 287.385)">
<stop stop-color="#E698FB"/>
<stop offset="0.09" stop-color="#E292FA"/>
<stop offset="0.21" stop-color="#D781FA"/>
<stop offset="0.34" stop-color="#C665FA"/>
<stop offset="0.49" stop-color="#AD3EF9"/>
<stop offset="0.64" stop-color="#8E0EF9"/>
<stop offset="0.68" stop-color="#8600F9"/>
<stop offset="0.74" stop-color="#8000F2"/>
<stop offset="0.83" stop-color="#7200DE"/>
<stop offset="0.93" stop-color="#5A00BF"/>
<stop offset="1" stop-color="#4700A5"/>
</radialGradient>
<radialGradient id="paint1_radial_452_19589" cx="0" cy="0" r="1" gradientUnits="userSpaceOnUse" gradientTransform="translate(338.528 108.532) scale(283.275 287.385)">
<stop stop-color="#BA5F5F"/>
<stop offset="0.12" stop-color="#B65959"/>
<stop offset="0.28" stop-color="#AD4848"/>
<stop offset="0.46" stop-color="#9D2C2C"/>
<stop offset="0.66" stop-color="#870606"/>
<stop offset="0.68" stop-color="#840000"/>
<stop offset="0.75" stop-color="#7D0000"/>
<stop offset="0.85" stop-color="#690000"/>
<stop offset="0.96" stop-color="#4A0000"/>
<stop offset="1" stop-color="#3E0000"/>
</radialGradient>
<radialGradient id="paint2_radial_452_19589" cx="0" cy="0" r="1" gradientUnits="userSpaceOnUse" gradientTransform="translate(346.515 91.8687) scale(278.437 282.477)">
<stop stop-color="#E69898"/>
<stop offset="0.09" stop-color="#E59293"/>
<stop offset="0.21" stop-color="#E48185"/>
<stop offset="0.34" stop-color="#E2656E"/>
<stop offset="0.49" stop-color="#DE3E4E"/>
<stop offset="0.64" stop-color="#DB0E26"/>
<stop offset="0.68" stop-color="#DA001B"/>
<stop offset="0.73" stop-color="#D30019"/>
<stop offset="0.79" stop-color="#BF0015"/>
<stop offset="0.86" stop-color="#A0000F"/>
<stop offset="0.95" stop-color="#740006"/>
<stop offset="1" stop-color="#550000"/>
</radialGradient>
<radialGradient id="paint3_radial_452_19589" cx="0" cy="0" r="1" gradientUnits="userSpaceOnUse" gradientTransform="translate(383.078 61.966) scale(62.2125 63.1151)">
<stop stop-color="white"/>
<stop offset="1" stop-color="#593C63"/>
</radialGradient>
<radialGradient id="paint4_radial_452_19589" cx="0" cy="0" r="1" gradientUnits="userSpaceOnUse" gradientTransform="translate(392.978 84.9066) scale(21.7125 22.0275)">
<stop stop-color="white"/>
<stop offset="1" stop-color="#593C63"/>
</radialGradient>
<radialGradient id="paint5_radial_452_19589" cx="0" cy="0" r="1" gradientUnits="userSpaceOnUse" gradientTransform="translate(379.703 82.8522) scale(22.8375 23.1688)">
<stop stop-color="white"/>
<stop offset="1" stop-color="#593C63"/>
</radialGradient>
<radialGradient id="paint6_radial_452_19589" cx="0" cy="0" r="1" gradientUnits="userSpaceOnUse" gradientTransform="translate(363.615 60.4823) scale(52.7625 53.528)">
<stop stop-color="white"/>
<stop offset="1" stop-color="#593C63"/>
</radialGradient>
<radialGradient id="paint7_radial_452_19589" cx="0" cy="0" r="1" gradientUnits="userSpaceOnUse" gradientTransform="translate(341.003 39.7103) scale(89.4375 90.7351)">
<stop stop-color="white"/>
<stop offset="1" stop-color="#593C63"/>
</radialGradient>
<radialGradient id="paint8_radial_452_19589" cx="0" cy="0" r="1" gradientUnits="userSpaceOnUse" gradientTransform="translate(374.19 54.0909) scale(124.538 126.344)">
<stop stop-color="white"/>
<stop offset="1" stop-color="#593C63"/>
</radialGradient>
<radialGradient id="paint9_radial_452_19589" cx="0" cy="0" r="1" gradientUnits="userSpaceOnUse" gradientTransform="translate(335.378 55.004) scale(210.375 213.427)">
<stop stop-color="white"/>
<stop offset="1" stop-color="#593C63"/>
</radialGradient>
<radialGradient id="paint10_radial_452_19589" cx="0" cy="0" r="1" gradientUnits="userSpaceOnUse" gradientTransform="translate(398.378 240.925) scale(165.825 168.231)">
<stop stop-color="#FFFF5C"/>
<stop offset="1" stop-color="#31003A"/>
</radialGradient>
<radialGradient id="paint11_radial_452_19589" cx="0" cy="0" r="1" gradientUnits="userSpaceOnUse" gradientTransform="translate(333.128 305.867) scale(17.8875 18.147)">
<stop stop-color="#A40000"/>
<stop offset="0.51" stop-color="#9D0000"/>
<stop offset="1" stop-color="#910000"/>
</radialGradient>
<radialGradient id="paint12_radial_452_19589" cx="0" cy="0" r="1" gradientUnits="userSpaceOnUse" gradientTransform="translate(622.59 200.294) scale(18.675 18.9459)">
<stop stop-color="#450000"/>
<stop offset="0.44" stop-color="#3E0000"/>
<stop offset="1" stop-color="#2E0000"/>
</radialGradient>
<linearGradient id="paint13_linear_452_19589" x1="76.8432" y1="120.903" x2="100.869" y2="120.903" gradientUnits="userSpaceOnUse">
<stop stop-color="#D0FFE7"/>
<stop offset="0.2" stop-color="#98BBA9"/>
<stop offset="0.42" stop-color="#62796D"/>
<stop offset="0.61" stop-color="#38453E"/>
<stop offset="0.78" stop-color="#191F1C"/>
<stop offset="0.91" stop-color="#060807"/>
<stop offset="1"/>
</linearGradient>
<linearGradient id="paint14_linear_452_19589" x1="19.6398" y1="144.503" x2="125.847" y2="144.503" gradientUnits="userSpaceOnUse">
<stop stop-color="#D0FFE7"/>
<stop offset="0.2" stop-color="#98BBA9"/>
<stop offset="0.42" stop-color="#62796D"/>
<stop offset="0.61" stop-color="#38453E"/>
<stop offset="0.78" stop-color="#191F1C"/>
<stop offset="0.91" stop-color="#060807"/>
<stop offset="1"/>
</linearGradient>
<clipPath id="clip0_452_19589">
<rect width="360" height="360" fill="white"/>
</clipPath>
</defs>
</svg>
