<svg width="360" height="360" viewBox="0 0 360 360" fill="none" xmlns="http://www.w3.org/2000/svg">
<g clip-path="url(#clip0_452_19525)">
<path fill-rule="evenodd" clip-rule="evenodd" d="M360 180.104C360 232.097 337.955 279.099 302.6 311.958C285.754 327.764 265.789 340.243 243.951 348.562C224.194 356.049 202.565 360.208 180.104 360.208C172.201 360.208 164.298 359.584 156.395 358.752C121.664 354.177 90.052 339.827 64.4714 318.198C45.9618 302.6 30.3639 283.258 19.3414 261.421C12.4783 247.695 7.07103 232.929 3.95145 217.539C1.45578 205.477 0.207947 193.206 0.207947 180.312C0.207947 144.749 10.6066 111.681 28.2842 83.8128C35.7712 71.9584 44.714 61.1438 54.6967 51.3691C86.9324 19.3414 131.23 0 180.104 0C184.055 0 188.007 0 191.75 0.415945C212.132 1.66378 231.681 6.44714 249.775 13.9341C252.894 15.182 256.014 16.6378 259.133 18.0936C276.603 26.6204 292.409 37.851 306.135 51.3691C339.411 84.0208 360.208 129.567 360.208 179.896L360 180.104Z" fill="url(#paint0_radial_452_19525)"/>
<path fill-rule="evenodd" clip-rule="evenodd" d="M85.0606 299.272C69.8787 299.272 42.2184 277.227 28.9081 248.943C12.4783 213.588 12.2703 176.36 20.1733 169.497C22.461 167.418 25.5806 166.378 29.3241 166.378C31.8197 166.378 34.5234 166.794 37.435 167.626C56.5684 173.241 82.9809 199.653 94.4194 226.066C105.65 251.854 102.322 272.444 99.2028 285.13C96.2911 296.776 89.844 299.272 85.0606 299.272Z" fill="url(#paint1_linear_452_19525)"/>
<path fill-rule="evenodd" clip-rule="evenodd" d="M96.0832 284.506C94.2114 291.785 90.6759 296.153 84.8527 296.153C71.7504 296.153 44.5061 275.563 31.6118 247.695C14.974 212.132 16.0139 177.192 22.253 171.993C25.3726 169.289 30.5719 169.081 36.6031 170.953C55.9446 176.568 85.0607 201.525 91.2998 227.106C96.7071 248.943 99.4108 271.404 96.0832 284.714V284.506Z" fill="url(#paint2_linear_452_19525)"/>
<path fill-rule="evenodd" clip-rule="evenodd" d="M34.1075 154.731C32.0277 154.731 30.364 154.107 29.1161 152.652C24.1248 146.828 31.4038 126.863 34.5234 119.792C39.5147 108.354 44.714 102.322 49.4974 102.114C51.3692 102.114 53.0329 102.738 54.6967 103.986L55.7366 104.818C61.1439 110.225 63.8475 122.704 58.8562 132.686C55.3206 139.757 43.8822 152.236 36.3951 154.315C35.7712 154.315 34.9393 154.523 34.3154 154.731H34.1075Z" fill="url(#paint3_linear_452_19525)"/>
<path fill-rule="evenodd" clip-rule="evenodd" d="M56.5684 131.646C53.0329 138.51 41.8024 150.988 34.7313 152.86C33.0676 153.276 31.4038 153.068 30.5719 152.028C25.3726 145.997 40.3466 104.402 49.7054 103.986C51.1612 103.986 52.617 104.61 53.8648 105.858C58.4402 110.433 61.3518 122.08 56.5684 131.438V131.646Z" fill="url(#paint4_linear_452_19525)"/>
<path fill-rule="evenodd" clip-rule="evenodd" d="M288.666 294.697C282.634 294.697 278.059 292.409 275.979 288.042C272.028 279.723 274.107 249.151 286.17 222.114C304.263 181.976 329.012 171.369 339.411 171.369C340.243 171.369 340.867 171.369 341.49 171.369C341.906 171.369 342.322 171.369 342.53 171.577C345.234 172.201 347.73 174.489 349.393 178.024C356.464 192.79 352.513 229.393 340.867 254.558C330.052 278.059 304.471 294.489 288.458 294.489L288.666 294.697Z" fill="url(#paint5_linear_452_19525)"/>
<path fill-rule="evenodd" clip-rule="evenodd" d="M338.163 253.518C323.813 284.506 285.338 300.312 278.891 286.794C275.563 279.931 277.019 250.607 289.081 223.362C307.383 182.6 332.548 173.241 341.282 174.489C341.282 174.489 341.698 174.489 341.906 174.489C354.177 177.608 352.305 222.738 338.371 253.31L338.163 253.518Z" fill="url(#paint6_linear_452_19525)"/>
<path fill-rule="evenodd" clip-rule="evenodd" d="M335.667 168.25C334.211 168.25 332.964 167.834 331.924 167.21C324.437 162.634 319.445 133.518 324.645 124.367C326.101 121.872 327.972 121.04 329.22 120.832C329.844 120.832 330.468 120.832 331.092 120.832C339.411 120.832 347.938 130.607 350.849 143.709C352.929 152.86 348.978 160.347 344.61 164.298C341.906 166.794 338.579 168.25 335.875 168.25H335.667Z" fill="url(#paint7_linear_452_19525)"/>
<path fill-rule="evenodd" clip-rule="evenodd" d="M342.322 162.01C339.203 164.922 335.667 165.962 333.588 164.714C327.556 161.179 322.981 133.934 327.348 126.031C327.972 124.991 328.804 124.159 329.844 123.951C335.875 122.704 344.818 130.815 347.73 144.333C349.393 151.82 346.274 158.475 342.322 162.01Z" fill="url(#paint8_linear_452_19525)"/>
<path fill-rule="evenodd" clip-rule="evenodd" d="M191.334 357.712C190.295 357.712 189.047 357.712 188.007 357.712C169.497 357.088 155.355 349.393 152.86 342.322C151.82 339.827 152.652 337.123 154.523 335.459C160.347 330.26 184.263 330.052 189.047 330.052C204.645 330.052 223.362 331.508 225.234 338.787C225.65 340.659 225.65 343.57 222.738 346.69C218.371 351.473 212.548 357.92 191.542 357.92L191.334 357.712Z" fill="url(#paint9_linear_452_19525)"/>
<path fill-rule="evenodd" clip-rule="evenodd" d="M220.243 344.402C215.875 349.185 210.468 355.217 188.007 354.593C166.17 353.969 151.404 342.322 156.603 337.747C163.674 331.508 220.243 331.092 222.114 339.411C222.53 341.075 221.906 342.738 220.243 344.402Z" fill="url(#paint10_linear_452_19525)"/>
<path fill-rule="evenodd" clip-rule="evenodd" d="M278.475 182.6C266.412 182.6 257.262 176.776 252.478 166.586C241.04 141.629 241.04 92.9636 249.359 73.4142C251.438 68.4229 253.934 65.5113 257.054 64.2634C260.173 63.0156 263.293 62.3917 266.412 62.3917C277.019 62.3917 288.042 69.4628 298.232 82.981C315.078 105.026 326.724 140.797 322.357 156.603C320.901 161.802 316.534 167.21 309.879 171.785C300.52 178.648 288.665 182.6 278.475 182.6Z" fill="url(#paint11_linear_452_19525)"/>
<path fill-rule="evenodd" clip-rule="evenodd" d="M319.237 155.563C317.99 160.139 313.83 164.922 308.007 169.081C292.201 180.52 265.165 186.551 255.182 165.13C244.159 140.797 244.159 93.1716 252.062 74.4541C253.726 70.5026 255.598 67.799 258.094 66.9671C291.993 52.825 325.685 131.854 319.237 155.563Z" fill="url(#paint12_linear_452_19525)"/>
<path fill-rule="evenodd" clip-rule="evenodd" d="M96.0832 284.506C78.4055 290.745 51.3691 268.7 37.227 232.929C24.7487 201.525 34.1074 176.36 36.6031 170.953C55.9445 176.568 85.0606 201.525 91.2998 227.106C96.7071 248.943 99.4107 271.404 96.0832 284.714V284.506Z" fill="#FFFF59"/>
<path fill-rule="evenodd" clip-rule="evenodd" d="M220.243 344.402C183.016 355.841 156.603 337.747 156.603 337.747C163.674 331.508 220.243 331.092 222.114 339.411C222.53 341.075 221.906 342.738 220.243 344.402Z" fill="#FFFF59"/>
<path fill-rule="evenodd" clip-rule="evenodd" d="M332.34 250.607C306.967 292.201 278.891 286.586 278.891 286.586C275.563 279.723 277.019 250.399 289.081 223.154C307.383 182.392 332.548 173.033 341.282 174.281C341.282 174.281 341.698 174.281 341.906 174.281C346.898 189.463 350.641 220.451 332.34 250.399V250.607Z" fill="#FFFF59"/>
<path fill-rule="evenodd" clip-rule="evenodd" d="M308.007 169.081C292.201 180.52 265.165 186.551 255.182 165.13C244.159 140.797 244.159 93.1716 252.062 74.4541C259.133 73.4142 272.028 75.9099 287.21 97.9549C308.007 128.319 314.87 151.82 308.007 169.081Z" fill="#FFFF59"/>
<path fill-rule="evenodd" clip-rule="evenodd" d="M342.322 162.01C339.203 164.922 335.667 165.962 333.588 164.714C327.556 161.179 322.981 133.934 327.348 126.031C332.132 128.735 338.995 134.35 340.867 144.541C342.114 150.988 342.322 157.019 342.114 162.01H342.322Z" fill="#FFFF59"/>
<path fill-rule="evenodd" clip-rule="evenodd" d="M56.5685 131.646C53.0329 138.51 41.8024 150.988 34.7314 152.86C35.1473 150.156 40.5546 117.712 53.8648 105.858C58.4402 110.433 61.3518 122.08 56.5685 131.438V131.646Z" fill="#FFFF59"/>
<path style="mix-blend-mode:soft-light" opacity="0.3" fill-rule="evenodd" clip-rule="evenodd" d="M273.068 222.53C271.196 226.898 269.324 230.433 266.62 234.177C264.541 237.088 261.837 239.168 260.173 242.288C254.558 252.894 255.806 264.957 252.478 276.187C250.607 282.218 246.031 287.21 244.159 293.449C243.328 296.361 243.743 298.856 243.743 301.768C243.743 305.095 241.872 307.383 239.792 310.087C237.504 312.998 234.593 315.078 231.057 316.534C228.354 317.574 225.442 317.158 222.53 317.158C216.083 317.158 209.844 316.326 203.605 314.454C197.99 312.79 192.582 310.087 186.759 308.423C182.808 307.383 180.104 307.591 176.152 308.423C172.825 309.047 168.873 308.839 165.546 308.631C159.515 308.631 153.691 311.958 148.492 314.662C144.541 316.534 141.837 318.822 140.381 323.189C138.51 328.18 138.717 332.548 132.686 334.627C129.151 335.667 124.991 334.627 121.664 333.796C118.544 333.172 115.217 333.588 112.097 333.588C105.858 333.588 100.243 331.716 94.8353 328.804C88.3882 325.477 82.7729 320.277 77.7816 315.286C75.078 312.582 71.5424 311.127 68.6308 308.631C64.6794 305.095 60.7279 301.976 56.9844 298.232C51.3691 292.617 45.13 286.586 38.8908 281.594C34.5234 278.059 30.5719 273.692 26.8284 269.532C23.7088 265.997 21.8371 261.005 19.5494 257.054C14.974 249.151 11.2305 239.792 8.94278 231.057C6.23914 220.867 3.32753 209.636 3.5355 199.029C3.5355 190.087 2.28767 181.352 2.28767 172.409C1.45578 189.463 2.28767 203.605 3.95145 216.915C1.45578 204.853 0.207947 192.582 0.207947 179.688C0.207947 144.125 10.6066 111.057 28.2842 83.1889C35.7712 71.3345 44.714 60.5199 54.6967 50.7452C86.9324 19.3414 131.23 0 180.104 0C184.055 0 188.007 0 191.75 0.415945C212.132 1.66378 231.681 6.44714 249.775 13.9341C254.35 18.9255 258.925 24.5407 262.461 30.156C263.917 32.4437 264.957 35.1473 266.204 37.435C267.452 39.5147 268.7 40.5546 268.284 43.2582C268.076 44.714 267.036 46.7938 266.412 48.2496C264.333 53.0329 258.925 56.5685 254.558 59.2721C248.527 63.0156 241.664 64.4714 235.217 67.799C231.057 69.8787 229.809 71.7504 226.898 75.286C225.442 76.9497 223.57 78.4056 222.322 80.2773C218.787 85.6846 216.915 93.1716 217.331 99.4108C217.747 111.473 227.106 120.208 229.393 131.646C231.265 141.629 230.017 152.028 233.137 161.802C236.672 172.617 246.239 181.56 255.182 188.007C258.925 190.711 262.461 192.79 265.789 195.91C268.908 198.822 273.068 200.485 275.355 204.229C278.891 210.26 275.563 216.707 273.276 222.53H273.068Z" fill="url(#paint13_linear_452_19525)"/>
<path fill-rule="evenodd" clip-rule="evenodd" d="M258.925 18.3016C258.925 18.3016 257.678 18.3016 257.054 18.5095C254.974 18.9255 253.518 18.5095 251.438 18.0936C249.983 17.6776 248.943 17.0537 247.487 16.8458C245.199 16.4298 243.328 15.5979 241.04 15.182C238.752 14.766 236.672 13.9341 234.593 13.1023C232.929 12.4783 231.889 12.6863 230.225 13.1023C228.562 13.5182 227.314 12.8943 225.858 12.2704C224.194 11.6464 222.53 11.4385 220.867 11.0225C216.291 9.98267 211.716 8.52686 207.348 7.487C204.437 6.86309 201.941 6.86309 199.029 6.65511C196.742 6.65511 194.662 7.27903 192.582 7.27903C191.127 7.27903 189.879 7.07106 188.215 6.86309C186.759 6.65511 185.095 6.86309 183.64 6.86309C181.352 6.44714 180.104 6.23917 177.816 6.86309C176.153 7.487 174.697 7.27903 173.033 7.487C171.161 7.487 168.873 8.11092 167.002 8.52686C163.674 9.35875 159.931 9.98267 156.395 9.7747C154.315 9.7747 151.196 9.15078 149.116 9.7747C147.868 10.1906 147.244 11.6464 146.205 12.6863C144.541 14.5581 142.253 16.2218 140.797 18.0936C139.341 20.1733 137.678 22.253 137.886 24.7487C137.886 27.0364 139.133 29.5321 139.965 31.6118C141.005 33.6915 141.213 35.7712 139.133 37.227C136.43 39.0988 133.102 40.7626 129.983 41.5945C127.903 42.2184 126.031 42.6343 124.159 40.9705C123.536 40.3466 123.12 39.3068 122.288 38.8908C121.456 38.4749 120.624 38.8908 119.584 39.0988C117.296 39.7227 115.217 40.5546 112.929 40.9705C111.473 41.1785 110.225 42.0104 108.977 42.2184C107.314 42.6343 106.066 41.3865 104.402 41.8024C101.906 42.4263 99.6187 43.4662 97.1231 43.4662C95.2513 43.4662 93.1716 42.8423 91.5078 41.8024C90.6759 41.3865 90.468 40.7626 89.4281 41.1785C88.5962 41.1785 87.3484 42.4263 86.9324 43.0503C86.3085 43.8821 86.1005 44.922 85.4766 45.9619C84.8527 47.0017 84.2288 47.8336 83.6049 48.8735C82.565 50.9532 81.3172 52.825 80.0693 54.4887C79.0295 55.7366 78.4056 57.4003 77.3657 58.6482C76.7418 59.2721 75.7019 59.688 75.078 60.104C73.2063 61.3518 71.3345 62.5997 69.4628 64.0555C65.9272 66.7591 62.5997 69.8787 59.0641 72.5823C56.3605 74.662 52.617 75.7019 49.4974 77.1577C47.6257 77.9896 45.5459 78.4055 43.6742 79.2374C43.0503 79.4454 41.8024 79.8614 41.3865 80.2773C40.7626 80.9012 40.3466 81.9411 39.7227 82.773C38.0589 84.8527 36.1872 86.9324 34.9394 89.2201C34.1075 90.6759 33.6915 91.9237 33.2756 93.5875C32.6517 95.6673 31.4038 97.539 30.7799 99.6187C29.3241 103.778 29.1161 108.354 27.4524 112.513C26.6205 115.009 25.1647 117.296 24.1248 119.376C22.253 123.12 21.8371 127.695 21.4212 131.854C21.2132 134.35 21.4212 137.262 21.6291 139.549C22.0451 142.045 22.0451 144.749 22.0451 147.452C22.0451 150.364 20.1733 153.068 18.5095 155.147C16.8458 157.019 14.3501 157.851 12.6863 159.515C11.2305 160.971 9.35876 162.634 8.73485 164.922C8.52687 165.962 8.73485 167.002 8.73485 167.834C8.3189 170.121 7.69498 172.201 7.48701 174.489C7.07107 177.192 7.07107 179.896 7.07107 182.6C7.07107 184.055 7.07107 185.511 7.07107 186.759C7.07107 188.007 7.69498 189.255 7.69498 190.711C7.69498 191.75 7.69498 192.582 7.69498 193.622C7.69498 194.662 8.3189 195.702 8.52687 196.742C9.15079 199.237 9.56674 201.733 10.1907 204.229C10.6066 206.516 11.4385 208.804 12.2704 211.092C13.3102 214.211 13.9342 217.331 14.5581 220.451C14.974 222.738 14.974 225.234 15.39 227.73C15.5979 229.601 16.0139 231.681 16.2218 233.553C16.2218 236.464 15.5979 239.376 15.5979 242.288C15.5979 247.279 17.4697 252.27 18.7175 257.054C19.1335 258.302 19.3414 259.757 19.7574 261.213C7.48701 236.88 0.415955 209.22 0.415955 179.896C0.415955 144.333 10.8146 111.265 28.4922 83.3969C35.9792 71.5425 44.922 60.7279 54.9047 50.9532C86.9324 19.3414 131.231 0 180.104 0C184.055 0 188.007 0 191.75 0.415945C215.667 1.87175 238.544 8.11092 258.925 18.3016Z" fill="url(#paint14_linear_452_19525)"/>
<path style="mix-blend-mode:soft-light" opacity="0.3" fill-rule="evenodd" clip-rule="evenodd" d="M243.12 316.95C246.655 314.87 250.191 312.582 253.726 310.711C257.678 308.631 261.421 307.175 265.581 305.511C268.7 304.263 268.908 304.263 271.404 306.135C273.692 308.007 276.395 308.215 279.099 308.423C283.05 308.423 287.21 308.839 287.418 313.622C287.834 320.277 277.851 326.101 273.068 328.804C269.116 331.092 264.957 332.548 261.005 334.419C257.678 336.083 253.726 337.747 249.983 338.371C246.655 338.787 244.575 337.331 242.496 334.835C240 331.924 240.208 329.22 240.208 325.477C240.208 321.317 240.208 318.406 243.328 316.95H243.12Z" fill="url(#paint15_linear_452_19525)"/>
<path style="mix-blend-mode:soft-light" opacity="0.3" fill-rule="evenodd" clip-rule="evenodd" d="M296.776 65.3033C299.48 70.7106 301.352 77.7816 305.511 82.357C307.591 84.6447 309.463 85.0607 312.374 85.0607C313.83 85.0607 316.534 85.6846 317.99 85.0607C319.861 84.4368 319.861 82.1491 319.653 80.2773C319.445 73.2062 314.662 66.5511 310.087 61.5598C307.175 58.2322 302.392 54.2808 297.608 55.1127C296.153 58.4402 295.945 61.9757 296.776 65.3033Z" fill="url(#paint16_linear_452_19525)"/>
<path style="mix-blend-mode:screen" fill-rule="evenodd" clip-rule="evenodd" d="M73.2062 320.693C54.6967 305.095 39.0988 285.754 28.0763 263.917C21.2132 250.191 15.8059 235.425 12.6863 220.035C10.1906 207.972 8.94281 195.702 8.94281 182.808C8.94281 147.244 19.3414 114.177 37.0191 86.3085C44.5061 74.4541 53.4489 63.6395 63.4315 53.8648C95.8752 22.0451 139.965 2.70364 188.839 2.70364C192.79 2.70364 196.742 2.70364 200.485 3.11958C212.756 3.95147 224.61 5.82322 236.049 8.94281C221.906 4.36742 207.14 1.45581 191.75 0.415945C187.799 0.207972 184.055 0 180.104 0C131.231 0 86.9324 19.3414 54.4887 50.9532C44.5061 60.7279 35.5633 71.5425 28.0763 83.3969C10.3986 111.265 0 144.541 0 179.896C0 192.582 1.24783 205.061 3.7435 217.123C7.07106 232.513 12.2704 247.279 19.1335 261.005C30.156 282.842 45.5459 302.184 64.2634 317.782C84.0208 334.419 107.314 346.69 132.894 353.553C110.849 346.274 90.6759 335.043 73.2062 320.277V320.693Z" fill="url(#paint17_radial_452_19525)"/>
<path fill-rule="evenodd" clip-rule="evenodd" d="M197.574 348.562C197.574 348.562 196.326 349.809 196.95 350.641C197.366 351.057 197.99 351.265 198.613 351.473C199.445 351.681 200.901 351.473 201.525 351.057C202.149 350.433 202.149 349.809 201.525 349.185C200.693 347.938 199.653 347.73 198.406 348.354H197.574V348.562Z" fill="#FFFF59"/>
<path fill-rule="evenodd" clip-rule="evenodd" d="M80.0693 46.3778C78.1976 47.0017 77.3657 47.2097 75.494 48.6655C74.0382 49.9133 72.3744 51.1612 70.9186 52.409C69.0468 54.2808 68.4229 56.1525 67.799 58.2322C67.1751 60.104 66.7591 62.3917 67.383 63.4315C67.799 64.0554 69.0468 64.0554 70.0867 63.6395C71.5425 63.2236 72.9983 62.1837 74.4541 61.3518C76.3258 60.104 77.9896 58.4402 79.4454 56.3605C80.4853 54.9047 80.9012 53.2409 81.7331 51.9931C82.1491 50.9532 82.357 50.1213 82.773 49.0814C82.981 48.2496 82.981 47.6256 82.773 47.2097C82.565 46.3778 82.1491 46.3778 80.0693 46.3778Z" fill="#FFFF59"/>
<path fill-rule="evenodd" clip-rule="evenodd" d="M101.282 43.2582C101.282 43.2582 98.7868 45.13 100.243 45.9619C100.659 46.1698 100.867 45.9619 101.282 46.1698C101.49 46.1698 101.698 46.5858 101.906 46.1698C102.946 45.7539 102.53 42.6343 101.282 43.2582V42.8423V43.2582Z" fill="#FFFF59"/>
<path fill-rule="evenodd" clip-rule="evenodd" d="M106.898 54.2808C106.898 54.2808 107.938 53.8648 108.354 53.8648C108.354 54.4887 108.977 55.7366 108.146 56.3605C107.314 56.7764 107.522 55.3206 107.314 55.1127L106.898 54.2808Z" fill="#FFFF59"/>
<path fill-rule="evenodd" clip-rule="evenodd" d="M117.712 54.6967C117.712 54.6967 119.792 55.5286 120.832 55.9445C121.248 55.7366 121.664 55.7366 122.08 55.5286C122.496 55.1126 122.912 54.4887 123.12 53.8648C123.328 53.0329 123.12 52.201 122.496 51.5771C122.288 51.1612 122.08 50.5373 121.664 50.1213C121.248 49.7054 120.208 49.9133 119.792 50.1213C119.168 50.3293 118.752 50.9532 118.336 51.5771C117.92 51.9931 117.504 53.0329 117.504 53.6568C117.504 54.2808 118.128 55.1126 118.544 55.5286L117.712 54.4887V54.6967Z" fill="#FFFF59"/>
<path fill-rule="evenodd" clip-rule="evenodd" d="M126.863 262.877C126.863 262.877 128.943 263.709 129.983 264.125C130.399 263.917 130.815 263.917 131.23 263.709C131.646 263.293 132.062 262.669 132.27 262.045C132.478 261.213 132.27 260.381 131.646 259.757C131.438 259.341 131.23 258.717 130.815 258.302C130.399 257.886 129.359 258.094 128.943 258.302C128.319 258.51 127.903 259.133 127.487 259.757C127.071 260.173 126.655 261.213 126.655 261.837C126.655 262.461 127.279 263.293 127.695 263.709L126.863 262.669V262.877Z" fill="#FFFF59"/>
<path fill-rule="evenodd" clip-rule="evenodd" d="M88.5961 64.4714C88.5961 64.4714 87.7642 65.0953 87.5563 65.7192C87.9722 66.3431 88.1802 66.7591 88.8041 66.9671C89.0121 66.9671 89.428 66.9671 89.636 66.9671C89.844 66.7591 89.636 66.3431 89.844 66.1352C89.844 65.5113 90.2599 65.3033 89.844 64.6794C89.636 64.2634 89.428 64.0555 89.0121 64.0555C88.8041 64.0555 88.1802 64.0555 87.9722 64.4714H88.5961Z" fill="#FFFF59"/>
<path fill-rule="evenodd" clip-rule="evenodd" d="M91.0918 80.4853C91.0918 80.4853 90.2599 82.565 91.0918 82.149C91.5078 81.9411 91.5078 81.1092 91.0918 80.9012V80.4853Z" fill="#FFFF59"/>
<path fill-rule="evenodd" clip-rule="evenodd" d="M75.9099 107.938C75.9099 107.938 75.078 109.185 74.87 110.017C75.078 110.225 75.7019 110.433 76.1178 110.433C76.7417 110.433 76.7417 110.225 76.7417 109.601C76.7417 109.185 76.7417 108.769 76.7417 108.354C76.7417 107.938 76.1178 107.522 75.7019 107.73L75.9099 107.938Z" fill="#FFFF59"/>
<path fill-rule="evenodd" clip-rule="evenodd" d="M98.9948 66.3432C98.9948 66.3432 99.6187 67.175 99.8267 67.591C99.2028 67.591 99.2028 67.175 99.2028 66.7591C99.2028 66.1352 99.2028 66.3432 99.6187 65.7192L98.9948 66.1352V66.3432Z" fill="#FFFF59"/>
<path fill-rule="evenodd" clip-rule="evenodd" d="M93.5875 45.13C93.5875 45.13 92.7556 45.7539 92.5476 46.1698C92.7556 46.5858 92.5476 47.0017 93.3795 47.0017C93.7954 47.0017 94.2114 46.5858 94.4194 46.1698C94.6273 45.7539 94.6273 45.338 94.6273 44.922C94.6273 44.714 94.6273 43.6742 94.2114 44.2981L93.5875 44.922V45.13Z" fill="#FFFF59"/>
<path fill-rule="evenodd" clip-rule="evenodd" d="M162.634 34.1075C162.634 34.1075 162.842 32.8596 163.05 32.4437C163.05 32.4437 163.258 32.2357 163.466 32.0277C163.674 31.6118 163.466 31.6118 164.09 31.6118C164.714 31.6118 164.922 31.6118 165.546 32.0277C167.002 33.2756 163.258 34.1075 163.05 33.0676L162.634 34.1075Z" fill="#FFFF59"/>
<path fill-rule="evenodd" clip-rule="evenodd" d="M175.529 38.8908C175.529 38.8908 174.697 40.9705 175.529 41.5945C176.153 42.0104 177.608 41.3865 178.232 40.7626C179.272 39.9307 180.312 38.2669 179.48 37.0191C178.856 36.1872 177.4 35.7712 176.568 35.7712C174.697 35.7712 174.281 38.0589 173.865 39.9307L175.529 39.0988V38.8908Z" fill="#FFFF59"/>
<path fill-rule="evenodd" clip-rule="evenodd" d="M181.144 21.2132C181.144 19.7574 180.728 18.3016 181.976 17.4697C182.6 17.0537 184.055 16.8458 184.679 17.4697C185.095 17.8856 185.511 18.5095 185.927 19.1334C186.343 19.9653 186.343 19.9653 185.927 20.5893C185.303 22.253 185.095 23.2929 183.432 23.2929C181.352 23.2929 180.936 21.6291 180.936 19.5494V21.4211L181.144 21.2132Z" fill="#FFFF59"/>
<path fill-rule="evenodd" clip-rule="evenodd" d="M200.485 47.4177C201.733 47.0017 202.565 46.5858 203.397 45.5459C202.565 45.13 200.693 43.8821 200.485 45.5459V47.4177Z" fill="#FFFF59"/>
<path fill-rule="evenodd" clip-rule="evenodd" d="M133.934 286.794C135.182 286.378 136.014 285.962 136.846 284.922C136.014 284.506 134.142 283.258 133.934 284.922V286.794Z" fill="#EFC251"/>
<path fill-rule="evenodd" clip-rule="evenodd" d="M257.47 312.79C258.718 312.374 259.549 311.958 260.381 310.919C259.549 310.503 257.678 309.255 257.47 310.919V312.79Z" fill="#EFC251"/>
<path fill-rule="evenodd" clip-rule="evenodd" d="M215.459 70.7106C216.499 69.2548 218.163 66.7591 220.243 68.2149C221.49 69.0468 221.698 71.1265 220.659 71.9584C219.619 72.7903 218.579 72.9983 217.331 73.4142C216.499 73.6222 215.043 72.9983 215.251 71.7504V70.9185L215.459 70.7106Z" fill="#FFFF59"/>
<path fill-rule="evenodd" clip-rule="evenodd" d="M135.39 103.986C136.43 102.53 138.094 100.035 140.173 101.49C141.421 102.322 141.629 104.402 140.589 105.234C139.549 106.066 138.51 106.274 137.262 106.69C136.43 106.898 134.974 106.274 135.182 105.026V104.194L135.39 103.986Z" fill="#EFC251"/>
<path fill-rule="evenodd" clip-rule="evenodd" d="M268.284 44.922C269.324 43.4662 270.988 40.9705 273.068 42.4263C274.315 43.2582 274.523 45.338 273.484 46.1698C272.444 47.0017 271.404 47.2097 270.156 47.6257C269.324 47.8336 267.868 47.2097 268.076 45.9619V45.13L268.284 44.922Z" fill="#EFC251"/>
<path fill-rule="evenodd" clip-rule="evenodd" d="M193.83 167.626C194.87 166.17 196.534 163.674 198.613 165.13C199.861 165.962 200.069 168.042 199.029 168.873C197.99 169.705 196.95 169.913 195.702 170.329C194.87 170.537 193.414 169.913 193.622 168.666V167.834L193.83 167.626Z" fill="#EFC251"/>
<path fill-rule="evenodd" clip-rule="evenodd" d="M128.735 53.8648C127.279 54.6967 124.783 55.9445 124.575 58.0243C124.575 59.2721 124.991 59.896 126.031 60.5199C126.863 60.9359 128.319 60.9359 129.359 60.5199C130.607 59.896 132.27 58.6482 132.894 57.4004C133.31 56.3605 133.31 55.7366 132.894 54.6967C132.686 54.0728 132.062 53.4489 131.438 53.2409C129.567 52.617 128.527 54.4887 127.071 55.3206L128.943 54.0728L128.735 53.8648Z" fill="#FFFF59"/>
<path fill-rule="evenodd" clip-rule="evenodd" d="M133.518 48.6655C133.518 48.6655 134.974 49.2894 135.598 49.9133C134.766 50.1213 133.934 50.7452 133.102 50.5373C132.062 50.1213 131.854 49.0815 132.062 48.2496C132.062 47.6256 133.102 46.7938 133.726 47.0017C133.934 47.0017 134.142 47.4177 134.142 47.8336C134.142 48.4575 134.35 48.2496 134.142 48.8735H133.518V48.6655Z" fill="#FFFF59"/>
<path fill-rule="evenodd" clip-rule="evenodd" d="M53.2409 82.1491C51.5771 83.6049 50.1213 85.2686 49.2894 87.1404C48.8735 88.1803 49.7054 88.1803 50.5372 87.9723C52.201 87.5563 54.0728 87.1404 55.7366 86.7244C56.7764 86.5165 58.2322 85.8926 59.0641 85.0607C59.688 84.4368 59.896 83.1889 59.688 82.357C59.688 81.1092 58.6482 80.6932 57.6083 80.4853C55.1126 79.8614 51.9931 81.5251 51.1612 83.6049L53.2409 82.1491Z" fill="#FFFF59"/>
<path fill-rule="evenodd" clip-rule="evenodd" d="M54.4887 90.26C55.7365 90.26 56.9844 90.6759 58.0242 91.0919C57.6083 91.5078 57.8163 91.9238 57.6083 92.3397C57.4003 92.9636 56.7764 93.5875 56.1525 94.0035C55.1126 94.6274 53.6568 94.8354 52.617 94.4194C49.2894 93.1716 54.2807 89.4281 55.5286 90.6759L54.6967 90.052L54.4887 90.26Z" fill="#FFFF59"/>
<path fill-rule="evenodd" clip-rule="evenodd" d="M157.435 17.8856C158.683 17.2617 159.723 16.6378 160.97 16.4298C162.426 16.2218 163.882 15.8059 165.338 15.8059C166.17 15.8059 167.834 15.8059 167.418 17.0537C166.794 18.5095 163.882 19.7574 162.842 20.1733C160.763 21.2132 158.891 22.0451 156.811 22.253C155.771 22.253 153.691 22.253 153.068 21.4211C152.444 20.3813 152.86 19.7574 153.276 18.7175C153.899 17.8856 154.315 17.4697 155.355 17.0537C155.771 17.0537 158.475 16.2218 158.475 17.0537L157.227 17.8856H157.435Z" fill="#FFFF59"/>
<path fill-rule="evenodd" clip-rule="evenodd" d="M137.262 18.5095C137.262 18.5095 132.686 21.2132 134.558 22.0451C135.598 22.669 137.678 22.461 138.718 22.0451C139.757 21.6291 140.589 21.0052 139.965 19.9653C138.718 17.6776 135.806 19.1335 134.142 19.9653L137.054 18.5095H137.262Z" fill="#FFFF59"/>
<path fill-rule="evenodd" clip-rule="evenodd" d="M80.9012 167.626C81.1092 169.289 81.5251 171.161 82.9809 172.201C84.4367 173.449 86.3085 172.825 87.7643 172.201C88.8041 171.577 89.844 170.953 91.0918 170.121C91.7157 169.705 92.3397 169.705 92.3397 168.666C92.3397 167.626 91.5078 166.378 90.8838 165.754C90.2599 164.922 88.8041 163.882 87.7643 163.466C85.4766 162.634 81.1092 163.466 81.3171 166.586V167.834L80.9012 167.626Z" fill="#F2D144"/>
<path fill-rule="evenodd" clip-rule="evenodd" d="M209.844 169.289C210.052 170.953 210.468 172.825 211.924 173.865C213.38 175.113 215.251 174.489 216.707 173.865C217.747 173.241 218.787 172.617 220.035 171.785C220.659 171.369 221.282 171.369 221.282 170.329C221.282 169.289 220.451 168.042 219.827 167.418C219.203 166.586 217.747 165.546 216.707 165.13C214.419 164.298 210.052 165.13 210.26 168.25V169.497L209.844 169.289Z" fill="#ECB82B"/>
<path fill-rule="evenodd" clip-rule="evenodd" d="M25.7886 234.385C25.7886 234.385 24.3328 240.832 28.9082 248.943C33.4836 257.054 36.8111 256.638 36.8111 256.638C36.8111 256.638 32.8596 241.456 25.9966 234.177L25.7886 234.385Z" fill="#FFFF67"/>
<path fill-rule="evenodd" clip-rule="evenodd" d="M319.653 145.581C319.653 145.581 314.454 160.763 313.622 163.05C313.622 163.05 321.941 160.763 319.653 145.581Z" fill="#FFFF67"/>
<path fill-rule="evenodd" clip-rule="evenodd" d="M347.938 150.364C347.938 150.364 344.194 153.068 342.114 160.139C342.114 160.139 346.69 162.218 347.938 150.364Z" fill="#FFFF67"/>
<path fill-rule="evenodd" clip-rule="evenodd" d="M289.913 291.577C289.913 291.577 306.967 280.555 316.742 279.723C316.742 279.723 305.511 293.449 289.913 291.577Z" fill="#FFFF67"/>
</g>
<defs>
<radialGradient id="paint0_radial_452_19525" cx="0" cy="0" r="1" gradientUnits="userSpaceOnUse" gradientTransform="translate(68.4228 95.8752) scale(289.081 289.081)">
<stop stop-color="#ECB62E"/>
<stop offset="0.26" stop-color="#EBB32E"/>
<stop offset="0.39" stop-color="#E9AC2F"/>
<stop offset="0.49" stop-color="#E59E31"/>
<stop offset="0.57" stop-color="#E08C34"/>
<stop offset="0.64" stop-color="#D97438"/>
<stop offset="0.66" stop-color="#D86D3A"/>
<stop offset="0.72" stop-color="#D1673C"/>
<stop offset="0.81" stop-color="#BD5842"/>
<stop offset="0.92" stop-color="#9E3F4C"/>
<stop offset="0.98" stop-color="#892E54"/>
</radialGradient>
<linearGradient id="paint1_linear_452_19525" x1="14.974" y1="232.929" x2="102.322" y2="232.929" gradientUnits="userSpaceOnUse">
<stop offset="0.01" stop-color="#E9A62B"/>
<stop offset="0.38" stop-color="#E8A32C"/>
<stop offset="0.65" stop-color="#E6992F"/>
<stop offset="0.88" stop-color="#E38935"/>
<stop offset="1" stop-color="#E27F3A"/>
</linearGradient>
<linearGradient id="paint2_linear_452_19525" x1="18.0936" y1="232.929" x2="97.539" y2="232.929" gradientUnits="userSpaceOnUse">
<stop offset="0.01" stop-color="#F5DE37"/>
<stop offset="0.31" stop-color="#F4DB37"/>
<stop offset="0.52" stop-color="#F2D138"/>
<stop offset="0.71" stop-color="#EFC139"/>
<stop offset="0.89" stop-color="#EAAB3B"/>
<stop offset="1" stop-color="#E7993D"/>
</linearGradient>
<linearGradient id="paint3_linear_452_19525" x1="26.8864" y1="128.859" x2="61.6003" y2="127.755" gradientUnits="userSpaceOnUse">
<stop offset="0.01" stop-color="#E9A62B"/>
<stop offset="0.38" stop-color="#E8A32C"/>
<stop offset="0.65" stop-color="#E6992F"/>
<stop offset="0.88" stop-color="#E38935"/>
<stop offset="1" stop-color="#E27F3A"/>
</linearGradient>
<linearGradient id="paint4_linear_452_19525" x1="29.1729" y1="128.786" x2="59.5216" y2="127.822" gradientUnits="userSpaceOnUse">
<stop offset="0.01" stop-color="#F5DE37"/>
<stop offset="0.31" stop-color="#F4DB37"/>
<stop offset="0.52" stop-color="#F2D138"/>
<stop offset="0.71" stop-color="#EFC139"/>
<stop offset="0.89" stop-color="#EAAB3B"/>
<stop offset="1" stop-color="#E7993D"/>
</linearGradient>
<linearGradient id="paint5_linear_452_19525" x1="313.622" y1="294.697" x2="313.622" y2="171.161" gradientUnits="userSpaceOnUse">
<stop offset="0.01" stop-color="#E48C25"/>
<stop offset="0.35" stop-color="#E28926"/>
<stop offset="0.6" stop-color="#DC7F29"/>
<stop offset="0.82" stop-color="#D36F2F"/>
<stop offset="1" stop-color="#C95D37"/>
</linearGradient>
<linearGradient id="paint6_linear_452_19525" x1="277.227" y1="232.929" x2="350.017" y2="232.929" gradientUnits="userSpaceOnUse">
<stop offset="0.01" stop-color="#F5DE37"/>
<stop offset="0.31" stop-color="#F4DB37"/>
<stop offset="0.52" stop-color="#F2D138"/>
<stop offset="0.71" stop-color="#EFC139"/>
<stop offset="0.89" stop-color="#EAAB3B"/>
<stop offset="1" stop-color="#E7993D"/>
</linearGradient>
<linearGradient id="paint7_linear_452_19525" x1="336.915" y1="168.25" x2="336.915" y2="120.624" gradientUnits="userSpaceOnUse">
<stop offset="0.01" stop-color="#E9A62B"/>
<stop offset="0.38" stop-color="#E8A32C"/>
<stop offset="0.65" stop-color="#E6992F"/>
<stop offset="0.88" stop-color="#E38935"/>
<stop offset="1" stop-color="#E27F3A"/>
</linearGradient>
<linearGradient id="paint8_linear_452_19525" x1="336.915" y1="165.13" x2="336.915" y2="123.744" gradientUnits="userSpaceOnUse">
<stop offset="0.01" stop-color="#F5DE37"/>
<stop offset="0.31" stop-color="#F4DB37"/>
<stop offset="0.52" stop-color="#F2D138"/>
<stop offset="0.71" stop-color="#EFC139"/>
<stop offset="0.89" stop-color="#EAAB3B"/>
<stop offset="1" stop-color="#E7993D"/>
</linearGradient>
<linearGradient id="paint9_linear_452_19525" x1="188.839" y1="357.712" x2="188.839" y2="330.052" gradientUnits="userSpaceOnUse">
<stop offset="0.01" stop-color="#E9A62B"/>
<stop offset="0.38" stop-color="#E8A32C"/>
<stop offset="0.65" stop-color="#E6992F"/>
<stop offset="0.88" stop-color="#E38935"/>
<stop offset="1" stop-color="#E27F3A"/>
</linearGradient>
<linearGradient id="paint10_linear_452_19525" x1="188.839" y1="354.593" x2="188.839" y2="333.172" gradientUnits="userSpaceOnUse">
<stop offset="0.01" stop-color="#F5DE37"/>
<stop offset="0.31" stop-color="#F4DB37"/>
<stop offset="0.52" stop-color="#F2D138"/>
<stop offset="0.71" stop-color="#EFC139"/>
<stop offset="0.89" stop-color="#EAAB3B"/>
<stop offset="1" stop-color="#E7993D"/>
</linearGradient>
<linearGradient id="paint11_linear_452_19525" x1="275.771" y1="182.6" x2="291.369" y2="65.3033" gradientUnits="userSpaceOnUse">
<stop offset="0.01" stop-color="#E9A62B"/>
<stop offset="0.38" stop-color="#E8A32C"/>
<stop offset="0.65" stop-color="#E6992F"/>
<stop offset="0.88" stop-color="#E38935"/>
<stop offset="1" stop-color="#E27F3A"/>
</linearGradient>
<linearGradient id="paint12_linear_452_19525" x1="276.187" y1="179.48" x2="290.953" y2="68.4229" gradientUnits="userSpaceOnUse">
<stop offset="0.01" stop-color="#F5DE37"/>
<stop offset="0.31" stop-color="#F4DB37"/>
<stop offset="0.52" stop-color="#F2D138"/>
<stop offset="0.71" stop-color="#EFC139"/>
<stop offset="0.89" stop-color="#EAAB3B"/>
<stop offset="1" stop-color="#E7993D"/>
</linearGradient>
<linearGradient id="paint13_linear_452_19525" x1="-2.55039e-05" y1="167.418" x2="276.811" y2="167.418" gradientUnits="userSpaceOnUse">
<stop offset="0.01" stop-color="#F5DE37"/>
<stop offset="0.31" stop-color="#F4DB37"/>
<stop offset="0.52" stop-color="#F2D138"/>
<stop offset="0.71" stop-color="#EFC139"/>
<stop offset="0.89" stop-color="#EAAB3B"/>
<stop offset="1" stop-color="#E7993D"/>
</linearGradient>
<linearGradient id="paint14_linear_452_19525" x1="1.00662e-05" y1="130.607" x2="258.925" y2="130.607" gradientUnits="userSpaceOnUse">
<stop offset="0.01" stop-color="#F5DE37"/>
<stop offset="0.31" stop-color="#F4DB37"/>
<stop offset="0.52" stop-color="#F2D138"/>
<stop offset="0.71" stop-color="#EFC139"/>
<stop offset="0.89" stop-color="#EAAB3B"/>
<stop offset="1" stop-color="#E7993D"/>
</linearGradient>
<linearGradient id="paint15_linear_452_19525" x1="240" y1="321.317" x2="287.418" y2="321.317" gradientUnits="userSpaceOnUse">
<stop offset="0.01" stop-color="#F5DE37"/>
<stop offset="0.31" stop-color="#F4DB37"/>
<stop offset="0.52" stop-color="#F2D138"/>
<stop offset="0.71" stop-color="#EFC139"/>
<stop offset="0.89" stop-color="#EAAB3B"/>
<stop offset="1" stop-color="#E7993D"/>
</linearGradient>
<linearGradient id="paint16_linear_452_19525" x1="296.361" y1="70.0867" x2="319.653" y2="70.0867" gradientUnits="userSpaceOnUse">
<stop offset="0.01" stop-color="#F5DE37"/>
<stop offset="0.31" stop-color="#F4DB37"/>
<stop offset="0.52" stop-color="#F2D138"/>
<stop offset="0.71" stop-color="#EFC139"/>
<stop offset="0.89" stop-color="#EAAB3B"/>
<stop offset="1" stop-color="#E7993D"/>
</linearGradient>
<radialGradient id="paint17_radial_452_19525" cx="0" cy="0" r="1" gradientUnits="userSpaceOnUse" gradientTransform="translate(48.4575 57.4003) scale(236.88 236.88)">
<stop stop-color="#FFFFD9"/>
<stop offset="1"/>
</radialGradient>
<clipPath id="clip0_452_19525">
<rect width="360" height="360" fill="white"/>
</clipPath>
</defs>
</svg>
