<svg width="360" height="360" viewBox="0 0 360 360" fill="none" xmlns="http://www.w3.org/2000/svg">
<g clip-path="url(#clip0_452_19634)">
<path fill-rule="evenodd" clip-rule="evenodd" d="M46.8293 120.569C46.8293 120.569 48.6894 105.028 49.7041 96.4896C49.7041 96.4896 60.1886 81.6319 76.9301 69.5067L99.252 70.7021C99.252 70.7021 54.2699 107.078 46.8293 120.569Z" fill="url(#paint0_linear_452_19634)"/>
<path fill-rule="evenodd" clip-rule="evenodd" d="M77.0992 69.5067C77.0992 69.5067 77.0992 81.9734 65.7691 91.8786C54.439 101.784 49.535 98.3681 49.535 98.3681L46.8293 118.349L99.4212 70.8729L77.0992 69.6774V69.5067Z" fill="url(#paint1_linear_452_19634)"/>
<path fill-rule="evenodd" clip-rule="evenodd" d="M316.384 199.81C316.384 213.985 314.354 227.647 310.634 240.626C303.194 266.755 288.82 289.81 269.711 307.742C256.013 320.721 239.779 330.968 222.023 337.799C205.958 343.947 188.371 347.362 170.107 347.362C167.571 347.362 164.865 347.362 162.328 347.192C158.439 347.021 154.719 346.679 150.998 346.167C122.758 342.41 97.0537 330.626 76.2537 312.865C68.4748 306.376 61.3724 298.862 55.1154 290.835C50.3805 284.687 46.1528 278.368 42.2634 271.537C41.4179 270 40.5724 268.292 39.5577 266.584C38.7122 264.877 37.8667 262.998 37.0211 261.29C34.4846 255.655 32.2862 249.848 30.426 243.871C29.0732 239.602 27.8894 235.161 27.0439 230.721C26.3675 227.647 25.8602 224.402 25.3528 221.158C24.5073 213.985 24 206.983 24 199.81C24 195.712 24 191.613 24.5073 187.685C24.6764 185.123 25.0146 182.562 25.3528 180C27.213 165.484 31.2715 151.651 37.0211 138.843C39.8959 132.524 43.1089 126.376 46.8293 120.569C52.9171 110.835 60.1886 101.954 68.3057 93.9279C94.6862 68.1404 130.537 52.0873 170.107 52.0873C171.629 52.0873 173.151 52.0873 174.673 52.0873C176.364 52.0873 177.886 52.0873 179.577 52.2581C188.033 52.7704 196.15 54.1366 204.098 56.0152C208.663 57.2106 213.229 58.4061 217.626 59.9431C220.67 60.9678 223.545 62.1632 226.589 63.3586C228.787 64.2125 230.985 65.2372 233.015 66.2619C233.353 66.4327 233.691 66.6034 234.198 66.7742C248.403 73.7761 261.255 82.9981 272.416 94.0987C273.938 95.6357 275.629 97.3435 277.151 98.8805C278.166 100.076 279.18 101.101 280.195 102.296C281.886 104.175 283.577 106.224 285.099 108.273C290.849 115.787 296.091 123.814 300.319 132.353C305.392 142.258 309.281 152.846 311.987 163.947C314.862 175.389 316.215 187.173 316.215 199.469L316.384 199.81Z" fill="url(#paint2_radial_452_19634)"/>
<path fill-rule="evenodd" clip-rule="evenodd" d="M234.198 67.1158C234.198 67.1158 233.184 67.1158 232.676 67.2865C230.985 67.6281 229.802 67.2865 228.111 66.945C226.927 66.6034 226.081 66.0911 224.898 65.9203C223.207 65.5787 221.515 64.8956 219.655 64.7249C217.795 64.5541 216.104 63.7002 214.413 63.0171C213.06 62.5047 212.215 62.6755 210.862 63.0171C209.509 63.3586 208.663 62.8463 207.311 62.334C205.958 61.8216 204.605 61.6509 203.252 61.3093C199.532 60.6262 195.811 59.26 192.26 58.4061C190.062 57.8937 187.863 57.8937 185.496 57.723C183.636 57.723 181.945 58.2353 180.254 58.2353C179.07 58.2353 178.055 58.0645 176.702 57.8937C175.519 57.723 174.166 57.8937 172.982 57.8937C171.122 57.5522 170.107 57.3814 168.247 57.8937C166.894 58.4061 165.711 58.2353 164.358 58.4061C162.836 58.4061 161.145 58.9184 159.623 59.26C156.917 59.9431 153.873 60.4554 150.998 60.2846C149.307 60.2846 146.771 59.7723 145.08 60.2846C144.065 60.6262 143.558 61.8216 142.712 62.5047C141.359 64.0417 139.499 65.2372 138.315 66.945C137.132 68.6528 135.779 70.3605 135.948 72.4099C135.948 74.2884 136.963 76.3378 137.639 78.0455C138.485 79.7533 138.654 81.4611 136.963 82.6566C134.764 84.1936 132.059 85.5598 129.522 86.2429C127.831 86.7552 126.309 87.0968 124.787 85.7306C124.28 85.2182 123.941 84.3643 123.265 84.0228C122.589 83.6812 121.912 84.0228 121.067 84.1935C119.207 84.7059 117.515 85.389 115.655 85.7306C114.472 85.9013 113.457 86.5844 112.442 86.7552C111.089 86.926 110.075 86.0721 108.722 86.4137C106.693 86.926 104.833 87.6091 102.803 87.7799C101.281 87.7799 99.5903 87.2676 98.2374 86.4137C97.561 86.0721 97.3919 85.5598 96.5464 85.9013C95.8699 85.9013 94.8553 86.926 94.5171 87.4383C94.0098 88.1214 93.8407 88.9753 93.3334 89.6584C92.826 90.5123 92.3187 91.1954 91.8114 92.0493C90.9659 93.7571 89.9512 95.2941 88.9366 96.6603C88.2602 97.685 87.5838 99.0512 86.7382 100.076C86.2309 100.588 85.3854 100.93 84.8781 101.271C83.3561 102.296 81.8342 103.321 80.3122 104.516C77.4374 106.736 74.7317 109.298 71.8569 111.347C69.6585 113.055 66.6146 113.909 64.0781 115.104C62.5561 115.787 60.865 116.129 59.3431 116.812C58.8358 116.983 57.8211 117.324 57.4829 117.666C56.9756 118.178 56.6374 119.032 56.1301 119.715C54.7772 121.423 53.2553 123.131 52.2407 125.009C51.5642 126.205 51.226 127.23 50.8878 128.596C50.3805 130.304 49.3659 131.841 48.8585 133.378C47.6748 136.793 47.5057 140.55 46.1529 143.966C45.4764 146.015 44.2927 147.894 43.4472 149.602C41.9252 152.676 41.587 156.433 41.2488 159.848C41.0797 161.898 41.2488 164.118 41.4179 166.167C41.7561 168.216 41.7561 170.436 41.587 172.657C41.587 174.877 40.0651 177.268 38.7122 178.975C37.3594 180.512 35.3301 181.195 33.9772 182.562C32.7935 183.757 31.2716 185.123 30.7642 187.002C30.5951 187.685 30.7642 188.71 30.7642 189.393C30.426 191.271 29.9187 192.979 29.7496 194.687C29.4114 196.907 29.4114 199.127 29.4114 201.347C29.4114 202.543 29.4114 203.738 29.4114 204.763C29.4114 205.787 29.9187 206.812 29.9187 208.008C29.9187 208.691 29.9187 209.545 29.9187 210.228C29.9187 211.082 30.426 211.935 30.5951 212.789C31.1024 214.839 31.4407 216.888 31.7789 218.937C32.1171 220.816 32.7935 222.694 33.4699 224.573C34.3155 227.135 34.8228 229.696 35.3301 232.258C35.6683 234.137 35.6683 236.186 36.0065 238.235C36.1756 239.772 36.5138 241.48 36.6829 243.017C36.6829 245.408 36.1756 247.799 36.1756 250.19C36.1756 254.288 37.6976 258.387 38.7122 262.315C39.0504 263.34 39.2195 264.535 39.5577 265.56C29.5805 245.579 23.8309 222.865 23.8309 198.956C23.8309 169.753 32.1171 142.6 46.6602 119.715C52.748 109.981 60.0195 101.101 68.1366 93.074C94.5171 67.2865 130.368 51.2334 170.107 51.2334C173.32 51.2334 176.364 51.2334 179.577 51.575C199.024 52.7704 217.457 57.8937 234.198 66.2619V67.1158Z" fill="url(#paint3_linear_452_19634)"/>
<path style="mix-blend-mode:multiply" fill-rule="evenodd" clip-rule="evenodd" d="M179.577 269.146C179.577 269.146 193.275 289.469 211.369 306.034C229.463 322.6 232 333.7 232 333.7C232 333.7 266.159 319.355 290.511 285.199C314.862 251.044 179.577 269.317 179.577 269.317V269.146Z" fill="url(#paint4_linear_452_19634)"/>
<path style="mix-blend-mode:screen" fill-rule="evenodd" clip-rule="evenodd" d="M83.5252 315.085C68.4748 302.277 55.961 286.565 46.8293 268.634C41.2488 257.362 36.852 245.237 34.3154 232.6C32.2862 222.694 31.2715 212.619 31.2715 202.201C31.2715 172.998 39.5577 145.844 54.1008 122.96C60.1886 113.226 67.4602 104.345 75.5772 96.3188C101.958 70.5313 137.808 54.4782 177.548 54.4782C180.761 54.4782 183.805 54.4782 187.018 54.8197C196.995 55.5029 206.634 57.0399 215.766 59.6015C204.267 55.8444 192.26 53.4535 179.746 52.5996C176.533 52.4288 173.489 52.2581 170.276 52.2581C130.706 52.2581 94.6862 68.1404 68.3057 94.0987C60.1886 102.125 52.9171 111.006 46.8293 120.74C32.4553 143.624 24 170.778 24 199.981C24 210.398 25.0146 220.645 27.0439 230.38C29.7496 243.017 33.9772 255.142 39.5577 266.414C48.5203 284.345 61.0341 300.228 76.2537 312.865C92.3187 326.357 111.259 336.603 131.889 342.239C113.964 336.262 97.561 327.04 83.3561 315.085H83.5252Z" fill="url(#paint5_radial_452_19634)"/>
<path style="mix-blend-mode:multiply" opacity="0.4" fill-rule="evenodd" clip-rule="evenodd" d="M204.267 56.186C196.319 54.3074 188.202 52.9412 179.746 52.4288C178.055 52.4288 176.533 52.2581 174.842 52.2581C178.394 54.1366 181.607 57.723 182.452 61.3093C183.805 67.4573 185.665 73.093 186.849 79.0702C188.033 85.0475 187.694 92.3909 184.989 97.8558C183.298 101.271 181.268 104.175 178.563 107.078C176.702 108.956 175.011 110.152 173.659 112.543C172.306 114.934 170.953 117.154 169.431 119.545C167.063 122.96 164.696 126.547 162.159 129.621C161.314 130.816 160.299 131.499 159.454 132.865C158.439 134.402 157.932 135.939 156.748 137.306C154.042 140.209 149.984 141.917 146.433 143.283C141.698 144.991 137.808 147.04 133.411 149.431C127.154 152.676 122.081 156.945 114.81 157.116C112.442 157.116 109.906 156.774 107.538 157.116C104.494 157.287 101.789 158.824 98.7447 159.336C96.2081 159.848 93.5025 160.361 90.9659 160.873C86.7382 161.556 83.187 162.922 79.1285 163.947C73.7171 165.313 68.1366 164.972 62.8943 165.655C57.9903 166.338 53.9317 166.85 49.0277 165.655C41.587 163.776 37.5285 160.19 39.2195 152.334C40.2342 147.04 39.896 143.112 37.1903 139.013C31.4407 151.822 27.3821 165.655 25.522 180.171C29.0732 181.708 33.1317 182.391 36.1756 182.732C46.9984 183.928 58.6667 178.975 68.6439 175.218C73.7171 173.34 78.7903 170.436 84.3708 169.924C90.1203 169.241 95.1935 169.924 100.943 168.558C120.728 163.605 140.176 156.603 157.932 146.015C165.203 141.575 168.416 135.427 173.659 129.108C178.055 123.643 183.128 119.032 188.54 114.421C193.782 109.981 198.348 105.37 201.561 99.0513C204.943 92.3909 207.649 85.0475 209.171 77.704C210.693 70.019 208.833 62.5048 204.774 56.186H204.267ZM203.252 76.3378C202.914 78.0455 202.745 79.7533 202.237 81.2903C201.054 85.2182 198.686 89.3169 194.966 91.3662C193.275 92.3909 191.076 91.7078 190.062 90C189.554 89.1461 189.554 87.9507 189.385 86.926C189.047 84.8767 188.709 82.8273 188.878 80.778C188.878 75.8254 188.878 70.8729 188.371 65.9203C188.878 68.8235 188.371 61.6509 192.598 59.7723C194.628 58.9184 197.841 59.7723 199.363 61.3093C201.392 63.3586 201.73 66.7742 202.576 69.3359C203.252 71.7268 203.928 73.7761 203.421 76.167L203.252 76.3378Z" fill="url(#paint6_linear_452_19634)"/>
<path style="mix-blend-mode:multiply" opacity="0.4" fill-rule="evenodd" clip-rule="evenodd" d="M182.114 312.011C182.114 312.011 181.268 312.011 180.93 312.182L183.805 312.524C183.805 312.524 182.79 312.182 182.114 312.011ZM182.114 312.011C182.114 312.011 181.268 312.011 180.93 312.182L183.805 312.524C183.805 312.524 182.79 312.182 182.114 312.011ZM312.156 164.288C312.156 168.216 310.972 171.973 310.972 175.901C310.972 181.025 309.958 185.123 308.605 190.076C307.759 193.491 305.899 196.053 304.885 199.298C303.532 203.055 301.672 206.3 299.811 209.886C296.091 216.888 292.202 223.89 290.511 231.746C288.989 238.918 288.65 244.896 285.268 251.385C281.886 257.704 276.813 262.998 273.262 268.975C271.571 271.879 270.387 271.708 267.85 273.586C264.976 275.636 262.439 278.88 259.564 281.101C253.646 285.882 248.065 289.298 240.793 292.03C236.228 293.738 231.831 295.104 227.096 295.958C223.883 296.471 220.839 295.958 217.795 296.471C212.891 297.324 208.156 298.691 203.421 300.398C195.642 302.96 187.694 304.497 179.915 306.888C174.504 308.596 169.093 309.62 163.681 310.816C160.299 311.499 157.593 313.378 154.042 312.694C150.491 312.011 147.278 310.816 143.896 309.62C139.499 308.254 135.779 308.084 131.044 308.084C124.787 308.084 117.346 309.108 111.089 307.913C103.987 306.546 97.0537 304.668 89.9512 303.131C85.7236 302.277 82.5106 300.398 78.6211 298.691C74.9008 296.983 71.0114 296.471 67.291 295.275C63.2325 294.08 59.3431 292.03 55.2845 291.006C61.5415 299.032 68.6439 306.546 76.4228 313.036C97.2228 330.626 122.927 342.581 151.167 346.338C154.888 346.85 158.777 347.192 162.498 347.362C170.784 345.484 178.901 342.922 187.187 340.361C201.054 335.92 213.06 327.552 226.927 323.454C232 321.917 236.735 320.209 241.47 317.818C245.021 316.11 248.741 315.598 252.293 314.061C265.145 308.596 274.784 295.958 280.533 283.491C283.07 277.856 285.606 271.537 290.341 267.268C292.202 265.56 294.569 264.023 296.26 261.973C298.12 259.753 299.473 257.192 300.995 254.801C303.87 250.702 306.745 246.433 309.619 242.163C309.958 241.651 310.296 241.139 310.634 240.626C314.354 227.647 316.384 213.985 316.384 199.81C316.384 187.514 314.862 175.56 312.156 164.288ZM178.055 313.036C178.055 313.036 179.408 312.011 179.915 311.841C180.423 311.67 181.268 311.841 182.114 311.841C183.128 311.841 184.312 311.499 185.327 311.841C185.834 312.182 187.018 312.695 187.187 313.378C187.525 314.061 187.187 314.402 186.68 314.915C186.172 315.427 185.665 315.427 184.989 315.598C183.467 315.939 181.776 316.11 180.085 316.11C179.07 316.11 177.548 316.11 177.041 315.085C176.533 314.232 177.379 313.378 178.055 312.865V313.036ZM187.694 332.334C186.849 333.529 185.834 334.725 184.65 335.579C183.467 336.433 182.283 336.945 181.099 337.628C178.055 339.336 175.011 341.044 171.798 342.068C170.446 342.41 169.093 342.41 167.74 342.41C166.049 342.41 164.358 342.581 162.836 342.581C160.806 342.581 158.946 343.093 156.917 343.093C154.888 343.093 153.028 343.093 150.998 343.435C147.785 343.605 144.911 343.093 141.698 341.898C138.992 340.873 136.117 339.507 133.58 337.799C131.889 336.603 130.367 334.896 128.846 333.359C127.493 331.992 126.309 330.626 125.463 328.748C125.125 328.065 124.956 327.381 124.956 326.698C124.956 326.357 125.125 326.015 125.125 326.015C125.633 325.503 126.309 325.161 126.816 324.991C127.831 324.478 129.015 324.307 130.198 324.137C132.904 323.795 135.779 324.137 138.485 324.478C140.006 324.478 141.528 324.649 143.05 324.478C145.08 324.137 147.278 323.454 149.307 322.941C154.211 321.575 159.115 320.55 164.189 320.038C169.262 319.526 174.504 318.842 179.577 319.867C181.437 320.209 183.805 320.721 185.496 321.917C186.68 322.77 187.694 324.137 188.371 325.503C189.554 327.723 189.047 330.455 187.525 332.505L187.694 332.334ZM226.419 319.526C225.574 320.55 224.221 321.233 223.037 321.917C221.515 322.941 219.824 323.795 218.302 324.82C216.95 325.674 215.597 326.357 214.244 326.869C212.891 327.552 211.369 328.235 210.016 328.918C208.494 329.772 206.803 330.285 205.281 330.797C204.098 331.309 202.914 331.822 201.561 331.48C200.546 331.309 199.363 330.797 198.686 330.114C197.502 328.918 197.841 327.723 198.179 327.04C198.179 326.015 197.841 324.307 198.179 323.283C198.348 322.6 199.193 321.746 199.532 321.063C200.885 318.672 202.745 316.964 204.605 315.085C206.296 313.378 207.987 312.182 210.185 311.328C212.722 310.474 215.597 310.304 218.302 309.962C221.177 309.62 226.081 309.45 227.434 312.694C228.28 315.085 227.941 317.135 226.419 319.184V319.526ZM183.805 312.524C183.805 312.524 182.79 312.182 182.114 312.011C181.606 312.011 181.268 312.011 180.93 312.182L183.805 312.524Z" fill="url(#paint7_linear_452_19634)"/>
<path style="mix-blend-mode:multiply" opacity="0.4" fill-rule="evenodd" clip-rule="evenodd" d="M300.488 132.694V133.207C300.319 137.306 298.628 140.038 297.275 143.795C296.091 146.869 294.738 149.431 293.216 152.334C290.68 157.116 289.496 161.556 287.636 166.679C284.761 174.706 283.239 182.732 278.673 189.905C274.615 196.395 273.6 204.25 270.218 211.082C266.498 218.767 260.579 224.231 254.322 229.867C251.616 232.429 249.249 235.332 246.712 238.235C244.007 241.138 241.977 244.896 238.764 247.116C231.831 252.239 224.39 256.509 217.626 261.803C213.567 265.047 210.693 269.146 206.296 271.879C201.899 274.611 196.995 276.49 192.598 279.222C188.54 281.613 184.65 284.345 180.423 286.053C175.519 288.102 171.46 287.419 166.387 287.761C160.807 287.932 154.888 289.469 149.646 291.347C145.249 292.884 141.528 294.421 137.132 292.884C134.088 291.86 131.551 289.81 128.338 289.127C121.067 287.59 112.78 289.127 105.509 288.956C99.7594 288.956 93.3333 287.419 87.7528 286.224C82.1724 285.199 77.6065 281.271 72.3642 279.564C65.7691 277.685 57.9902 279.222 51.5642 276.66C48.8585 275.636 46.4911 273.586 44.1236 272.049C43.6163 271.708 43.1089 271.366 42.6016 271.195C41.7561 269.658 40.9106 267.951 39.8959 266.243C41.4179 266.926 43.1089 267.609 44.6309 268.463C53.0862 272.562 63.4016 271.879 72.5333 273.416C82.6797 275.294 92.826 277.856 103.141 279.051C107.369 279.564 111.428 279.564 115.655 279.051C121.405 278.368 127.493 278.539 133.242 277.514C143.22 275.806 152.859 271.025 163.174 272.391C165.034 272.562 167.233 273.586 169.093 273.586C171.967 273.586 173.997 271.025 176.195 269.488C180.254 266.926 184.481 267.438 188.202 264.023C191.753 260.607 195.642 258.558 199.87 256.338C211.031 250.531 220.163 241.309 228.787 232.429C236.059 225.085 243.33 217.23 248.234 208.008C253.138 198.956 252.124 188.197 255.844 178.805C258.55 172.144 260.748 165.825 265.145 159.848C267.174 156.945 269.88 154.554 272.078 151.822C274.446 148.918 275.967 145.844 277.659 142.6C279.688 139.013 282.224 135.598 283.746 131.841C285.268 128.083 285.099 124.839 285.099 121.082C285.099 116.812 285.099 112.543 285.099 108.444C290.849 115.958 296.091 123.985 300.319 132.524L300.488 132.694Z" fill="url(#paint8_linear_452_19634)"/>
<path style="mix-blend-mode:multiply" opacity="0.4" fill-rule="evenodd" clip-rule="evenodd" d="M277.151 99.222C275.629 97.5142 274.107 95.9772 272.416 94.4402C261.255 83.3397 248.403 74.1177 234.198 67.1158C233.86 66.945 233.522 66.7742 233.015 66.6034C230.816 65.5788 228.787 64.5541 226.589 63.7002C223.714 62.5048 220.67 61.3093 217.626 60.2846C218.641 60.9677 219.655 61.4801 219.993 61.6509C221.854 62.5048 223.376 63.1879 224.559 64.8956C225.743 66.4326 226.419 67.7989 226.419 69.8482C226.419 71.7268 226.758 73.7761 227.096 75.6547C227.434 77.3624 228.28 79.0702 228.618 80.9488C228.787 81.9734 228.956 82.9981 229.294 84.0228C230.14 86.4137 230.816 88.9753 231.324 91.537C232.169 96.148 229.802 99.9051 228.28 104.004C225.743 110.493 224.221 117.324 222.192 123.985C220.67 129.279 217.795 134.573 213.737 138.501C209.847 142.258 204.098 143.283 200.546 147.381C197.502 150.968 193.613 154.554 189.385 156.603C184.312 158.994 179.07 160.873 173.659 162.581C169.769 163.776 165.88 163.776 161.99 164.801C157.255 165.996 152.859 168.387 148.293 170.436C143.558 172.486 138.992 175.218 134.257 177.268C129.353 179.317 124.956 182.049 120.052 184.099C117.685 185.123 115.317 185.465 112.78 186.319C107.876 188.027 103.141 191.271 97.8992 191.784C96.039 191.954 94.1789 192.467 92.4878 192.467C90.9659 192.467 89.7821 192.638 88.4293 193.15C83.8634 195.028 80.9886 200.152 75.7463 200.152C71.0114 200.152 66.1073 199.981 61.3724 200.493C59.0049 200.835 56.8065 200.493 54.439 200.493C53.7626 200.493 52.9171 200.493 52.2407 200.493C51.3951 200.152 50.5496 199.469 49.8732 198.956C48.1821 197.932 46.4911 196.736 44.9691 195.541C41.9252 193.15 37.8667 194.516 34.4846 193.833C33.4699 193.662 31.948 193.833 30.9333 193.15C28.735 191.784 26.0293 189.222 24.3382 187.685C24 191.613 23.8309 195.712 23.8309 199.81C23.8309 206.983 24.3382 213.814 25.3529 220.816C25.8602 224.061 26.3675 227.135 27.0439 230.38C27.8894 234.82 29.0732 239.26 30.426 243.529C32.2862 249.507 34.4846 255.313 37.0211 260.949C41.0797 261.632 45.1382 262.144 49.1968 261.461C54.9463 260.607 60.5268 259.753 66.4455 259.924C71.8569 260.095 76.9301 261.973 82.1724 262.998C88.0911 264.023 94.348 264.877 100.436 265.218C106.016 265.56 111.428 266.072 117.008 266.584C121.067 267.097 125.294 267.951 129.353 268.121C140.007 268.805 150.66 266.072 161.145 264.877C166.387 264.364 171.629 262.998 176.872 261.803C180.085 261.12 183.128 260.266 186.003 258.558C189.724 256.167 192.091 252.581 195.304 249.848C199.024 246.774 202.745 243.7 206.465 240.797C209.678 238.235 212.722 235.674 216.104 233.454C218.641 231.746 221.346 230.038 223.714 228.159C228.449 224.402 232.338 219.962 236.228 215.351C241.808 208.861 244.006 199.81 246.205 191.784C248.234 184.44 249.587 177.097 253.646 170.436C255.675 167.192 257.028 163.435 258.042 159.848C258.55 157.457 258.888 154.896 259.902 152.846C261.593 149.26 264.806 146.698 266.836 143.454C268.358 140.721 270.218 138.33 271.232 135.427C273.431 129.62 274.953 123.985 275.967 117.837C276.644 113.397 278.166 109.127 279.519 104.858C279.688 104.175 280.026 103.491 280.195 102.638C279.18 101.442 278.166 100.417 277.151 99.222ZM86.9073 200.152C86.9073 200.152 92.6569 197.249 93.5024 196.907C93.5024 196.907 93.5024 196.907 93.3333 196.907L89.7821 198.444C93.6715 197.078 100.943 201.176 97.3919 205.787C96.3772 207.154 93.6715 207.837 92.1496 208.008C90.6276 208.349 89.613 207.837 88.5984 206.471C87.7528 205.275 87.2455 203.226 87.0764 201.86C87.0764 201.347 86.7382 200.664 87.0764 200.152H86.9073ZM43.4472 239.943C39.2195 238.748 36.3447 237.211 33.8081 233.624C32.1171 231.233 30.5951 229.013 30.0878 226.11C29.7496 223.719 28.735 221.67 29.4114 219.279C29.9187 217.4 30.5951 215.351 31.4407 213.643C32.4553 211.765 33.8081 209.715 33.9772 209.032C38.2049 208.691 42.2634 208.52 46.4911 208.52C51.226 208.52 55.961 209.032 60.6959 209.203C62.8943 209.203 65.0927 209.203 67.122 208.861C69.1512 208.52 71.1805 207.837 73.2098 207.495C76.9301 206.812 80.3122 206.471 83.6943 208.349C86.2309 209.715 87.4146 212.619 88.7675 215.351C89.4439 216.888 89.7821 217.913 89.7821 219.62C89.7821 221.67 89.7821 223.719 89.4439 225.598C89.4439 226.281 89.2748 227.135 89.1057 227.818C86.0618 234.478 77.9447 236.528 71.6878 238.918C62.7252 242.334 52.5789 242.846 43.2781 240.285L43.4472 239.943ZM109.229 254.118C107.369 258.899 99.252 260.778 94.6862 260.949C92.3187 260.949 89.613 260.607 87.5837 259.412C86.4 258.729 85.2163 257.362 84.7089 256.338C84.2016 255.484 83.0179 253.776 80.6504 254.63C81.1577 251.898 82.0033 249.336 83.0179 246.945C84.0325 245.75 85.2163 244.554 86.4 243.529C88.5984 241.651 90.9659 239.772 93.5024 238.577C97.561 236.528 101.789 238.065 105.678 239.772C108.384 240.968 110.413 242.846 110.92 245.75C111.597 248.994 110.413 251.385 109.229 254.288V254.118ZM163.343 253.264C161.821 256.85 159.792 257.704 156.579 259.412C152.689 261.29 148.124 262.827 143.727 262.827C141.528 262.827 139.499 261.803 137.47 260.949C136.117 260.436 134.764 260.095 133.58 259.07C130.706 256.338 130.198 252.41 132.059 253.264C130.875 250.873 130.198 248.482 130.029 245.75C130.537 245.408 130.875 244.896 131.044 244.213C132.566 241.309 135.441 238.918 138.315 237.211C143.389 234.307 149.815 233.966 155.226 236.186C157.593 237.211 159.115 238.406 160.976 240.285C161.821 241.139 163.005 241.992 163.681 243.017C165.203 245.75 164.865 250.531 163.681 253.264H163.343ZM179.915 252.751C179.915 252.751 177.548 254.801 176.364 254.63C175.519 254.459 173.828 252.581 173.997 251.556L173.489 251.044C174.842 248.994 176.026 246.945 177.379 244.896C179.408 245.75 181.099 245.579 182.283 247.799C183.467 249.848 181.437 251.556 179.915 252.751ZM221.346 154.725C219.655 156.945 217.626 158.994 215.089 160.019C211.876 161.385 207.649 162.41 207.48 157.457C207.48 154.554 207.818 152.505 209.002 149.943C210.862 146.186 212.553 145.332 216.104 143.454C217.457 143.454 218.81 143.966 219.824 144.307C221.854 144.991 223.714 146.698 223.883 148.918C224.221 151.139 222.699 153.017 221.346 154.725ZM259.902 133.719C258.38 138.501 256.351 143.283 254.153 147.894C251.616 153.529 251.278 159.336 249.925 165.313C249.249 168.729 247.558 172.315 244.345 173.681C242.992 174.194 241.47 174.194 239.948 174.194C238.595 174.194 235.889 174.706 236.059 175.901C235.213 173.51 233.86 170.436 233.184 167.704C232.676 164.801 232.338 161.556 231.831 158.653C231.324 155.579 231.154 152.505 230.816 149.431C230.647 146.528 229.971 143.454 229.971 140.55C229.971 130.816 235.382 118.861 244.345 114.421C247.05 113.055 249.756 112.543 252.8 112.884C256.351 113.397 258.38 114.421 259.902 117.837C262.101 122.448 261.255 128.767 259.733 133.548L259.902 133.719Z" fill="url(#paint9_linear_452_19634)"/>
<path style="mix-blend-mode:multiply" opacity="0.4" fill-rule="evenodd" clip-rule="evenodd" d="M217.288 142.77C217.288 142.77 216.442 143.283 215.935 143.454C215.089 143.454 214.413 143.454 213.737 143.454L217.288 142.941V142.77Z" fill="url(#paint10_linear_452_19634)"/>
<path style="mix-blend-mode:multiply" opacity="0.4" fill-rule="evenodd" clip-rule="evenodd" d="M33.8081 208.861C33.8081 208.861 33.3008 208.861 33.1317 208.861C33.639 208.52 33.9772 208.52 33.8081 208.861Z" fill="url(#paint11_linear_452_19634)"/>
<path fill-rule="evenodd" clip-rule="evenodd" d="M198.179 54.9905L223.883 44.7438C223.883 44.7438 264.637 60.797 290.511 95.8065L292.032 118.178C292.032 118.178 243.33 99.3928 198.179 54.8197V54.9905Z" fill="url(#paint12_linear_452_19634)"/>
<path fill-rule="evenodd" clip-rule="evenodd" d="M291.525 282.979C291.525 282.979 270.049 306.547 253.815 311.841L240.455 315.939C240.455 315.939 179.577 293.909 176.195 255.313C173.32 223.036 228.111 173.34 242.992 167.533C257.873 161.556 275.122 164.972 275.122 164.972L291.525 282.979Z" fill="url(#paint13_linear_452_19634)"/>
<path fill-rule="evenodd" clip-rule="evenodd" d="M275.122 164.801C262.27 160.702 206.803 186.49 191.922 244.383C188.878 256.167 217.119 300.74 250.602 311.67C261.763 315.256 312.833 270.171 315.031 239.602C317.229 209.032 294.062 170.949 275.122 164.801Z" fill="url(#paint14_linear_452_19634)"/>
<path fill-rule="evenodd" clip-rule="evenodd" d="M195.473 251.214C203.421 185.636 262.439 164.288 275.291 168.387C284.592 171.29 298.12 185.123 306.068 198.615C297.951 181.879 285.945 168.216 275.291 164.801C262.439 160.702 206.972 186.49 192.091 244.383C191.076 248.482 193.782 256.509 199.193 265.731C196.319 259.412 195.304 254.288 195.642 251.214H195.473Z" fill="url(#paint15_linear_452_19634)"/>
<path style="mix-blend-mode:multiply" fill-rule="evenodd" clip-rule="evenodd" d="M86.9073 321.404C86.9073 321.404 100.098 326.357 109.737 323.624C109.737 323.624 113.457 292.03 101.62 271.879C89.7821 251.727 69.8276 282.125 69.8276 282.125L65.2618 301.423C65.2618 301.423 76.4228 314.915 86.7382 321.404H86.9073Z" fill="url(#paint16_linear_452_19634)"/>
<path fill-rule="evenodd" clip-rule="evenodd" d="M98.4065 316.281L106.862 314.061C106.862 314.061 110.92 296.471 103.818 276.831C95.7008 254.459 66.2764 237.723 61.8797 237.211C57.4829 236.869 53.0862 246.945 53.0862 246.945L98.4065 316.281Z" fill="url(#paint17_linear_452_19634)"/>
<path fill-rule="evenodd" clip-rule="evenodd" d="M232 333.7L217.964 352.144C217.964 352.144 193.444 364.099 168.924 358.292L151.167 346.167L232 333.7Z" fill="url(#paint18_linear_452_19634)"/>
<path fill-rule="evenodd" clip-rule="evenodd" d="M46.8293 260.778C48.3512 253.947 54.2699 242.676 59.5122 241.651C64.7545 240.626 89.9512 264.706 95.7008 280.076C101.45 295.617 98.5756 312.695 98.2374 316.281C97.8992 319.867 69.4894 309.962 55.1155 298.008C40.7415 286.053 46.6602 260.778 46.6602 260.778H46.8293Z" fill="url(#paint19_linear_452_19634)"/>
<path fill-rule="evenodd" clip-rule="evenodd" d="M95.7008 280.076C89.9512 264.535 64.7545 240.455 59.5122 241.651C57.4829 241.992 55.2846 244.042 53.4244 246.603C54.6081 245.579 55.7919 244.725 56.9756 244.554C62.2179 243.529 87.922 262.657 93.6716 278.197C100.605 297.324 96.8846 310.987 96.2081 317.135C97.561 317.135 98.4065 317.135 98.5756 316.452C98.9138 312.865 101.789 295.787 96.039 280.247L95.7008 280.076Z" fill="url(#paint20_linear_452_19634)"/>
<path fill-rule="evenodd" clip-rule="evenodd" d="M175.181 214.326C168.924 211.423 176.026 183.416 182.283 177.268C188.54 171.12 204.605 185.465 206.803 197.078C209.002 208.691 189.724 221.158 175.181 214.326Z" fill="url(#paint21_linear_452_19634)"/>
<path fill-rule="evenodd" clip-rule="evenodd" d="M181.437 212.106C176.364 209.715 182.114 186.49 187.018 181.366C191.922 176.243 204.943 188.197 206.634 197.761C208.325 207.324 192.937 217.742 181.268 212.106H181.437Z" fill="url(#paint22_linear_452_19634)"/>
<path fill-rule="evenodd" clip-rule="evenodd" d="M223.883 44.7438C223.883 44.7438 225.067 60.4554 242.654 79.7533C260.241 99.0512 290.341 95.8065 290.341 95.8065L291.863 118.178C291.863 118.178 227.603 89.4877 198.01 54.8197L223.714 44.5731L223.883 44.7438Z" fill="url(#paint23_linear_452_19634)"/>
<path fill-rule="evenodd" clip-rule="evenodd" d="M274.276 184.099C274.276 184.099 271.909 185.806 273.262 186.831C273.6 187.002 273.938 186.831 274.276 187.002C274.615 187.002 274.615 187.343 274.953 187.173C275.967 186.831 275.629 183.757 274.446 184.44V184.099H274.276Z" fill="#E4FF3E"/>
<path fill-rule="evenodd" clip-rule="evenodd" d="M334.816 157.799C334.816 157.799 332.449 159.507 333.802 160.531C334.14 160.702 334.478 160.531 334.816 160.702C335.154 160.702 335.154 161.044 335.493 160.873C336.507 160.531 336.169 157.457 334.985 158.14V157.799H334.816Z" fill="#E4FF3E"/>
<path fill-rule="evenodd" clip-rule="evenodd" d="M308.267 266.414C308.267 266.414 305.899 268.121 307.252 269.146C307.59 269.317 307.928 269.146 308.267 269.317C308.605 269.317 308.605 269.658 308.943 269.488C309.958 269.146 309.619 266.072 308.436 266.755V266.414H308.267Z" fill="#E4FF3E"/>
<path fill-rule="evenodd" clip-rule="evenodd" d="M279.519 194.858C279.519 194.858 280.533 194.516 280.872 194.516C280.872 195.199 281.548 196.395 280.702 196.907C280.026 197.249 280.195 195.882 279.857 195.712L279.519 195.028V194.858Z" fill="#E4FF3E"/>
<path fill-rule="evenodd" clip-rule="evenodd" d="M183.298 201.347C184.312 201.689 185.158 202.201 186.172 202.543C186.511 202.201 187.018 202.372 187.356 202.03C187.863 201.689 188.202 201.006 188.371 200.493C188.709 199.639 188.371 198.956 187.863 198.444C187.694 198.102 187.356 197.419 187.018 197.078C186.511 196.736 185.665 196.907 185.158 197.078C184.65 197.419 184.143 197.932 183.805 198.444C183.467 198.956 182.959 199.81 182.959 200.323C182.959 201.006 183.467 201.689 183.974 202.03L183.298 201.176V201.347Z" fill="#E4FF3E"/>
<path fill-rule="evenodd" clip-rule="evenodd" d="M47.1675 274.953C48.1821 275.294 49.0277 275.806 50.0423 276.148C50.3805 275.806 50.8878 275.977 51.226 275.636C51.7333 275.294 52.0716 274.611 52.2407 274.099C52.5789 273.245 52.2407 272.562 51.7333 272.049C51.5642 271.708 51.226 271.025 50.8878 270.683C50.3805 270.342 49.535 270.512 49.0277 270.683C48.5203 271.025 48.013 271.537 47.6748 272.049C47.3366 272.562 46.8293 273.416 46.8293 273.928C46.8293 274.611 47.3366 275.294 47.8439 275.636L47.1675 274.782V274.953Z" fill="#E4FF3E"/>
<path fill-rule="evenodd" clip-rule="evenodd" d="M312.663 313.378C313.678 313.719 314.524 314.232 315.538 314.573C315.876 314.232 316.384 314.402 316.722 314.061C317.229 313.719 317.567 313.036 317.737 312.524C318.075 311.67 317.737 310.987 317.229 310.474C317.06 310.133 316.722 309.45 316.384 309.108C315.876 308.767 315.031 308.937 314.524 309.108C314.016 309.45 313.509 309.962 313.171 310.474C312.833 310.987 312.325 311.841 312.325 312.353C312.325 313.036 312.833 313.719 313.34 314.061L312.663 313.207V313.378Z" fill="#E4FF3E"/>
<path fill-rule="evenodd" clip-rule="evenodd" d="M293.724 286.736C294.738 287.078 295.584 287.59 296.598 287.932C296.937 287.59 297.444 287.761 297.782 287.419C298.289 287.078 298.628 286.395 298.797 285.882C299.135 285.028 298.797 284.345 298.289 283.833C298.12 283.492 297.782 282.808 297.444 282.467C296.937 282.125 296.091 282.296 295.584 282.467C295.076 282.808 294.569 283.321 294.231 283.833C293.893 284.345 293.385 285.199 293.385 285.712C293.385 286.395 293.893 287.078 294.4 287.419L293.724 286.566V286.736Z" fill="#E4FF3E"/>
<path fill-rule="evenodd" clip-rule="evenodd" d="M28.5659 100.759C30.9333 101.784 33.4699 102.808 35.8374 103.833C36.6829 103.15 37.8667 103.321 38.7122 102.638C39.8959 101.784 40.9106 100.247 41.4179 98.8804C42.0943 96.8311 41.0797 95.1233 40.0651 93.4156C39.3886 92.3909 38.8813 90.8539 37.8667 90C36.6829 89.1461 34.4846 89.4877 33.3008 90C31.7789 90.6831 30.7642 92.2201 29.7496 93.5863C28.9041 94.7818 27.7203 97.0019 27.7203 98.5389C27.7203 100.247 29.0732 102.125 30.2569 102.979L28.3968 100.759H28.5659Z" fill="#E4FF3E"/>
<path fill-rule="evenodd" clip-rule="evenodd" d="M189.555 11.2714C191.922 12.296 194.459 13.3207 196.826 14.3454C197.672 13.6622 198.855 13.833 199.701 13.1499C200.885 12.296 201.899 10.759 202.407 9.39279C203.083 7.34346 202.068 5.63568 201.054 3.9279C200.377 2.90323 199.87 1.36623 198.855 0.512338C197.672 -0.341552 195.473 4.4615e-06 194.289 0.512338C192.768 1.19545 191.753 2.73245 190.738 4.09868C189.893 5.29412 188.709 7.51424 188.709 9.05124C188.709 10.759 190.062 12.6376 191.246 13.4915L189.385 11.2714H189.555Z" fill="#E4FF3E"/>
<path fill-rule="evenodd" clip-rule="evenodd" d="M211.031 225.939C211.031 225.939 210.354 226.622 210.016 226.964C210.354 227.476 210.524 227.989 211.2 228.159C211.538 228.159 211.707 228.159 212.046 228.159C212.384 227.818 212.046 227.647 212.215 227.305C212.384 226.622 212.553 226.452 212.215 225.939C212.046 225.598 211.876 225.427 211.369 225.427C211.031 225.427 210.524 225.427 210.354 225.768L210.862 226.11L211.031 225.939Z" fill="#E4FF3E"/>
<path fill-rule="evenodd" clip-rule="evenodd" d="M213.229 241.309C213.229 241.309 212.384 243.359 213.229 242.846C213.737 242.505 213.567 241.822 213.229 241.651C213.229 241.651 213.229 241.651 213.229 241.48H213.06L213.229 241.309Z" fill="#E4FF3E"/>
<path fill-rule="evenodd" clip-rule="evenodd" d="M261.424 269.488C261.424 269.488 260.748 270.683 260.41 271.537C260.748 271.879 261.255 271.879 261.594 271.879C262.101 271.879 262.27 271.708 262.27 271.195C262.27 270.683 262.439 270.342 262.27 270C262.27 269.488 261.763 269.146 261.255 269.317H261.424V269.488Z" fill="#E4FF3E"/>
<path fill-rule="evenodd" clip-rule="evenodd" d="M220.67 227.647C220.67 227.647 221.346 228.33 221.346 228.843C220.839 228.843 220.839 228.501 220.67 227.989C220.67 227.306 220.839 227.476 221.177 226.964C221.177 226.964 221.177 226.964 221.346 226.964L220.67 227.476V227.647Z" fill="#E4FF3E"/>
<path fill-rule="evenodd" clip-rule="evenodd" d="M267.005 185.977C267.005 185.977 266.328 186.66 265.99 187.002C266.159 187.343 265.99 187.856 266.667 187.856C267.005 187.856 267.343 187.343 267.512 187.002C267.681 186.66 267.681 186.319 267.85 185.806C267.85 185.636 267.85 184.611 267.512 185.294L267.005 185.806V185.977Z" fill="#E4FF3E"/>
<path fill-rule="evenodd" clip-rule="evenodd" d="M260.748 77.3624C260.748 77.3624 261.763 77.0209 262.27 77.0209C262.27 77.0209 262.608 77.0209 262.777 77.0209C263.285 77.0209 263.285 77.0209 263.454 77.3624C263.792 77.8748 263.792 78.2163 263.792 78.7287C263.454 80.6072 260.917 77.8748 261.763 77.1916H260.579L260.748 77.3624Z" fill="#E4FF3E"/>
<path fill-rule="evenodd" clip-rule="evenodd" d="M64.4163 80.6072C64.4163 80.6072 62.387 80.9488 62.2179 81.9735C62.2179 82.8273 63.4016 83.6812 64.0781 83.852C65.2618 84.1936 67.2911 84.3643 67.7984 82.9981C68.1366 82.1442 67.7984 80.6072 67.4602 79.9241C66.4455 78.5579 64.4163 79.0702 62.8943 79.7533L64.4163 80.6072Z" fill="#E4FF3E"/>
<path fill-rule="evenodd" clip-rule="evenodd" d="M272.754 271.366C272.416 268.463 271.909 265.731 274.446 264.194C275.798 263.34 278.335 263.169 279.519 264.194C280.364 264.877 281.21 266.243 281.886 267.097C282.732 268.463 282.563 268.463 282.055 269.829C281.041 272.903 280.364 274.782 277.32 274.782C273.431 274.782 272.754 271.708 272.754 267.951V271.366Z" fill="#E4FF3E"/>
<path fill-rule="evenodd" clip-rule="evenodd" d="M274.446 191.954C275.46 191.613 276.475 191.101 277.32 190.247C276.475 189.734 274.784 188.71 274.446 190.247V191.954Z" fill="#E4FF3E"/>
<path fill-rule="evenodd" clip-rule="evenodd" d="M53.2553 263.852C54.2699 263.51 55.2846 262.998 56.1301 262.144C55.2846 261.632 53.5935 260.607 53.2553 262.144V263.852Z" fill="#E4FF3E"/>
<path fill-rule="evenodd" clip-rule="evenodd" d="M53.2553 287.59C54.2699 287.249 55.2846 286.736 56.1301 285.882C55.2846 285.37 53.5935 284.345 53.2553 285.882V287.59Z" fill="#E4FF3E"/>
<path fill-rule="evenodd" clip-rule="evenodd" d="M218.641 202.713C219.655 201.347 221.346 198.956 223.206 200.323C224.39 201.176 224.728 203.226 223.545 203.909C222.53 204.592 221.685 204.934 220.501 205.275C219.655 205.446 218.302 204.934 218.641 203.567V202.713Z" fill="#E4FF3E"/>
<path fill-rule="evenodd" clip-rule="evenodd" d="M255.337 263.852C256.351 262.486 258.042 260.095 259.902 261.461C261.086 262.315 261.424 264.364 260.241 265.047C259.226 265.731 258.38 266.072 257.197 266.414C256.351 266.584 254.998 266.072 255.337 264.706V263.852Z" fill="#E4FF3E"/>
<path fill-rule="evenodd" clip-rule="evenodd" d="M249.756 61.3093C251.447 61.6509 254.322 61.8216 254.153 64.2125C254.153 65.5787 252.462 66.945 251.109 66.4326C249.925 65.9203 249.249 65.2372 248.403 64.3833C247.727 63.7002 247.558 62.334 248.911 61.8216L249.587 61.3093H249.756Z" fill="#E4FF3E"/>
<path fill-rule="evenodd" clip-rule="evenodd" d="M243.837 279.564C244.852 278.197 246.543 275.806 248.403 277.173C249.587 278.027 249.925 280.076 248.741 280.759C247.727 281.442 246.881 281.784 245.698 282.125C244.852 282.296 243.499 281.784 243.837 280.417V279.564Z" fill="#E4FF3E"/>
<path fill-rule="evenodd" clip-rule="evenodd" d="M193.782 200.664C192.429 201.518 190.062 202.713 189.893 204.592C189.893 205.787 190.231 206.471 191.246 206.983C192.091 207.495 193.444 207.495 194.289 206.983C195.642 206.3 196.995 205.275 197.672 203.909C198.01 202.884 198.01 202.201 197.672 201.347C197.502 200.835 196.995 200.152 196.319 199.981C194.628 199.298 193.444 201.176 192.091 201.86L193.782 200.664Z" fill="#E4FF3E"/>
<path fill-rule="evenodd" clip-rule="evenodd" d="M198.348 195.541C198.348 195.541 199.701 196.224 200.208 196.736C199.532 197.078 198.686 197.59 197.841 197.249C196.826 196.907 196.657 195.882 196.826 195.028C196.826 194.516 197.841 193.491 198.348 193.833C198.686 193.833 198.686 194.345 198.686 194.516C198.855 195.028 198.855 194.858 198.686 195.37H198.179L198.348 195.541Z" fill="#E4FF3E"/>
<path fill-rule="evenodd" clip-rule="evenodd" d="M236.566 187.173C232.846 190.417 229.463 194.345 227.434 198.956C226.419 201.347 228.28 201.518 230.309 201.006C234.367 200.152 238.595 199.127 242.654 197.932C245.021 197.249 248.572 196.053 250.263 194.004C251.616 192.467 252.124 189.734 251.785 187.685C251.447 184.953 249.418 183.757 246.881 183.074C241.132 181.537 233.015 187.685 230.985 192.979L236.566 187.002V187.173Z" fill="#E4FF3E"/>
<path fill-rule="evenodd" clip-rule="evenodd" d="M216.104 208.178C217.288 208.178 218.472 208.52 219.486 209.032C219.148 209.374 219.317 209.886 219.148 210.228C218.979 210.911 218.302 211.423 217.795 211.765C216.95 212.277 215.428 212.619 214.413 212.106C211.369 210.911 216.104 207.324 217.119 208.52L216.273 208.008L216.104 208.178Z" fill="#E4FF3E"/>
<path fill-rule="evenodd" clip-rule="evenodd" d="M44.8 326.528C44.8 326.528 44.1236 327.211 43.7854 327.552C44.1236 328.065 44.2927 328.577 44.9691 328.748C45.3073 328.748 45.4764 328.748 45.8146 328.748C46.1528 328.406 45.8146 328.235 45.9837 327.894C46.1528 327.211 46.322 327.04 45.9837 326.528C45.8146 326.186 45.6455 326.015 45.1382 326.015C44.8 326.015 44.2927 326.015 44.1236 326.357L44.6309 326.698L44.8 326.528Z" fill="#E4FF3E"/>
<path fill-rule="evenodd" clip-rule="evenodd" d="M46.9984 342.068C46.9984 342.068 46.1529 344.118 46.9984 343.605C47.5057 343.264 47.3366 342.581 46.9984 342.41C46.9984 342.41 46.9984 342.41 46.9984 342.239H46.8293L46.9984 342.068Z" fill="#E4FF3E"/>
<path fill-rule="evenodd" clip-rule="evenodd" d="M54.6082 328.406C54.6082 328.406 55.2846 329.089 55.2846 329.601C54.7773 329.601 54.7773 329.26 54.6082 328.748C54.6082 328.064 54.7773 328.235 55.1155 327.723C55.1155 327.723 55.1155 327.723 55.2846 327.723L54.6082 328.235V328.406Z" fill="#E4FF3E"/>
<path fill-rule="evenodd" clip-rule="evenodd" d="M49.8732 308.937C51.0569 308.937 52.2407 309.279 53.2553 309.791C52.9171 310.133 53.0862 310.645 52.9171 310.987C52.748 311.67 52.0716 312.182 51.5642 312.524C50.7187 313.036 49.1968 313.378 48.1821 312.865C45.1382 311.67 49.8732 308.084 50.8878 309.279L50.0423 308.767L49.8732 308.937Z" fill="#E4FF3E"/>
<path fill-rule="evenodd" clip-rule="evenodd" d="M243.837 64.0417C244.852 64.7249 246.036 65.408 246.712 66.2619C247.558 67.4573 248.572 68.482 249.249 69.6774C249.587 70.3605 250.432 71.7268 249.249 71.8975C247.896 72.0683 245.359 70.1898 244.514 69.5066C242.823 68.3112 241.132 67.1157 239.948 65.408C239.272 64.5541 238.426 63.0171 238.933 61.9924C239.441 61.1385 240.286 60.9677 241.132 60.9677C242.146 60.9677 242.654 61.3093 243.499 61.9924C243.837 62.334 245.698 64.0417 245.021 64.5541L243.668 64.0417H243.837Z" fill="#E4FF3E"/>
<path fill-rule="evenodd" clip-rule="evenodd" d="M257.028 181.879C257.028 181.879 252.631 184.44 254.491 185.294C255.506 185.806 257.366 185.636 258.38 185.294C259.226 184.953 260.241 184.269 259.564 183.245C258.38 181.195 255.506 182.391 254.153 183.245L257.028 181.879Z" fill="#E4FF3E"/>
<path fill-rule="evenodd" clip-rule="evenodd" d="M284.93 53.7951C283.577 54.649 273.938 60.1139 278.504 62.5048C281.041 63.7002 285.945 63.3586 288.481 62.334C290.68 61.3093 293.047 59.9431 291.525 57.2106C288.65 51.9165 281.548 54.9905 277.828 57.2106L284.93 53.6243V53.7951Z" fill="#E4FF3E"/>
<path fill-rule="evenodd" clip-rule="evenodd" d="M54.6082 276.831C54.9464 279.051 55.4537 281.613 57.483 283.15C59.5122 284.687 61.8797 284.004 63.909 282.808C65.4309 281.954 66.7838 280.93 68.3057 280.076C69.1512 279.564 69.8277 279.393 69.9968 278.197C69.9968 276.831 68.813 275.123 68.1366 274.099C67.2911 272.903 65.4309 271.537 64.0781 271.025C61.0342 269.829 55.2846 271.025 55.2846 275.294L54.9464 276.831H54.6082Z" fill="#E4FF3E"/>
<path fill-rule="evenodd" clip-rule="evenodd" d="M258.888 281.271C259.226 282.808 259.564 284.687 260.917 285.712C262.439 286.736 263.961 286.395 265.314 285.541C266.328 284.858 267.343 284.175 268.358 283.662C269.034 283.321 269.541 283.15 269.541 282.296C269.541 281.442 268.696 280.076 268.189 279.393C267.512 278.539 266.328 277.514 265.314 277.173C263.115 276.319 259.057 277.173 259.057 280.076L258.719 281.271H258.888Z" fill="#E4FF3E"/>
<path style="mix-blend-mode:screen" fill-rule="evenodd" clip-rule="evenodd" d="M265.99 191.954C265.99 206.3 254.491 217.913 240.286 217.913C226.081 217.913 214.582 206.3 214.582 191.954C214.582 177.609 226.081 165.996 240.286 165.996C254.491 165.996 265.99 177.609 265.99 191.954Z" fill="url(#paint24_radial_452_19634)"/>
<path style="mix-blend-mode:screen" fill-rule="evenodd" clip-rule="evenodd" d="M256.689 76.8501C253.476 81.2903 245.359 80.9488 238.426 75.9962C231.662 71.0436 228.787 63.3586 232 58.7476C235.213 54.3074 243.33 54.649 250.263 59.6015C257.028 64.5541 259.902 72.2391 256.689 76.8501Z" fill="url(#paint25_radial_452_19634)"/>
<path fill-rule="evenodd" clip-rule="evenodd" d="M224.221 47.3055C224.221 47.3055 230.985 76.167 249.756 86.926C273.6 100.588 290.341 95.8065 290.341 95.8065C290.341 95.8065 269.034 95.1233 249.249 81.4611C232.846 70.1898 224.221 47.3055 224.221 47.3055Z" fill="url(#paint26_linear_452_19634)"/>
<path style="mix-blend-mode:multiply" opacity="0.4" fill-rule="evenodd" clip-rule="evenodd" d="M179.577 269.146L192.26 250.361C192.26 250.361 208.494 296.983 250.602 311.67L241.301 317.647C241.301 317.647 198.348 305.351 179.408 269.146H179.577Z" fill="url(#paint27_linear_452_19634)"/>
<path style="mix-blend-mode:multiply" fill-rule="evenodd" clip-rule="evenodd" d="M203.421 61.4801C203.421 61.4801 264.299 123.302 307.928 150.797C307.928 150.797 303.701 133.89 291.863 118.349C291.863 118.349 255.167 106.224 203.421 61.4801Z" fill="url(#paint28_linear_452_19634)"/>
<path style="mix-blend-mode:screen" fill-rule="evenodd" clip-rule="evenodd" d="M161.652 92.3909C173.659 110.664 160.299 140.892 132.059 159.677C103.818 178.463 71.1805 178.805 59.174 160.531C47.1675 142.258 60.5268 112.03 88.7675 93.2448C117.008 74.4592 149.646 74.1177 161.652 92.3909Z" fill="url(#paint29_radial_452_19634)"/>
</g>
<defs>
<linearGradient id="paint0_linear_452_19634" x1="73.0407" y1="120.569" x2="73.0407" y2="69.5067" gradientUnits="userSpaceOnUse">
<stop stop-color="#2E52AE"/>
<stop offset="1" stop-color="#A2F2FF"/>
</linearGradient>
<linearGradient id="paint1_linear_452_19634" x1="61.8797" y1="123.302" x2="81.1592" y2="64.6658" gradientUnits="userSpaceOnUse">
<stop stop-color="#080D86"/>
<stop offset="1" stop-color="#487FFA"/>
</linearGradient>
<radialGradient id="paint2_radial_452_19634" cx="0" cy="0" r="1" gradientUnits="userSpaceOnUse" gradientTransform="translate(79.6358 130.816) scale(234.888 237.211)">
<stop stop-color="#FCFF6D"/>
<stop offset="0.14" stop-color="#F6FF6A"/>
<stop offset="0.32" stop-color="#E5FF63"/>
<stop offset="0.53" stop-color="#C9FF57"/>
<stop offset="0.68" stop-color="#B0FF4C"/>
<stop offset="0.74" stop-color="#A9F84B"/>
<stop offset="0.82" stop-color="#97E44B"/>
<stop offset="0.92" stop-color="#7BC54A"/>
<stop offset="1" stop-color="#60A849"/>
</radialGradient>
<linearGradient id="paint3_linear_452_19634" x1="24" y1="159.336" x2="234.198" y2="159.336" gradientUnits="userSpaceOnUse">
<stop stop-color="#DDFF87"/>
<stop offset="0.43" stop-color="#DAFF89"/>
<stop offset="0.75" stop-color="#D0FF90"/>
<stop offset="1" stop-color="#C3FF9B"/>
</linearGradient>
<linearGradient id="paint4_linear_452_19634" x1="236.397" y1="333.7" x2="236.397" y2="264.364" gradientUnits="userSpaceOnUse">
<stop stop-color="#B8C0FC"/>
<stop offset="1" stop-color="#627198"/>
</linearGradient>
<radialGradient id="paint5_radial_452_19634" cx="0" cy="0" r="1" gradientUnits="userSpaceOnUse" gradientTransform="translate(63.4016 99.3928) scale(192.442 194.345)">
<stop stop-color="#FFFFD9"/>
<stop offset="1"/>
</radialGradient>
<linearGradient id="paint6_linear_452_19634" x1="25.3529" y1="117.495" x2="209.171" y2="117.495" gradientUnits="userSpaceOnUse">
<stop stop-color="#B8C0FC"/>
<stop offset="1" stop-color="#7971AE"/>
</linearGradient>
<linearGradient id="paint7_linear_452_19634" x1="55.1154" y1="255.825" x2="316.384" y2="255.825" gradientUnits="userSpaceOnUse">
<stop stop-color="#B8C0FC"/>
<stop offset="1" stop-color="#7971AE"/>
</linearGradient>
<linearGradient id="paint8_linear_452_19634" x1="39.7268" y1="201.176" x2="300.488" y2="201.176" gradientUnits="userSpaceOnUse">
<stop stop-color="#B8C0FC"/>
<stop offset="1" stop-color="#7971AE"/>
</linearGradient>
<linearGradient id="paint9_linear_452_19634" x1="24" y1="164.459" x2="280.195" y2="164.459" gradientUnits="userSpaceOnUse">
<stop stop-color="#B8C0FC"/>
<stop offset="1" stop-color="#7971AE"/>
</linearGradient>
<linearGradient id="paint10_linear_452_19634" x1="213.906" y1="143.112" x2="217.288" y2="143.112" gradientUnits="userSpaceOnUse">
<stop stop-color="#E3DBFD"/>
<stop offset="1" stop-color="#9F88D3"/>
</linearGradient>
<linearGradient id="paint11_linear_452_19634" x1="33.1317" y1="208.691" x2="33.9772" y2="208.691" gradientUnits="userSpaceOnUse">
<stop stop-color="#E3DBFD"/>
<stop offset="1" stop-color="#9F88D3"/>
</linearGradient>
<linearGradient id="paint12_linear_452_19634" x1="198.179" y1="81.4611" x2="292.032" y2="81.4611" gradientUnits="userSpaceOnUse">
<stop stop-color="#93D0FC"/>
<stop offset="1" stop-color="#1D33AD"/>
</linearGradient>
<linearGradient id="paint13_linear_452_19634" x1="219.486" y1="308.937" x2="268.028" y2="162.522" gradientUnits="userSpaceOnUse">
<stop stop-color="#0A0069"/>
<stop offset="1" stop-color="#2D28C3"/>
</linearGradient>
<linearGradient id="paint14_linear_452_19634" x1="234.018" y1="305.819" x2="280.268" y2="166.032" gradientUnits="userSpaceOnUse">
<stop stop-color="#0900AD"/>
<stop offset="1" stop-color="#79C7FC"/>
</linearGradient>
<linearGradient id="paint15_linear_452_19634" x1="248.741" y1="265.731" x2="248.741" y2="164.459" gradientUnits="userSpaceOnUse">
<stop stop-color="#61ABFB"/>
<stop offset="1" stop-color="#80CCFC"/>
</linearGradient>
<linearGradient id="paint16_linear_452_19634" x1="87.7528" y1="324.478" x2="87.7528" y2="264.877" gradientUnits="userSpaceOnUse">
<stop stop-color="#8CA6CA"/>
<stop offset="1" stop-color="#627198"/>
</linearGradient>
<linearGradient id="paint17_linear_452_19634" x1="71.1805" y1="307.4" x2="91.3199" y2="246.892" gradientUnits="userSpaceOnUse">
<stop stop-color="#0A0069"/>
<stop offset="1" stop-color="#2D28C3"/>
</linearGradient>
<linearGradient id="paint18_linear_452_19634" x1="191.415" y1="360" x2="191.415" y2="333.7" gradientUnits="userSpaceOnUse">
<stop stop-color="#233EAD"/>
<stop offset="0.92" stop-color="#600EF6"/>
<stop offset="1" stop-color="#600EF3"/>
</linearGradient>
<linearGradient id="paint19_linear_452_19634" x1="72.3642" y1="317.135" x2="72.3642" y2="241.651" gradientUnits="userSpaceOnUse">
<stop stop-color="#0900AD"/>
<stop offset="1" stop-color="#79C7FC"/>
</linearGradient>
<linearGradient id="paint20_linear_452_19634" x1="76.4228" y1="316.964" x2="76.4228" y2="241.651" gradientUnits="userSpaceOnUse">
<stop stop-color="#61ABFB"/>
<stop offset="1" stop-color="#80CCFC"/>
</linearGradient>
<linearGradient id="paint21_linear_452_19634" x1="184.143" y1="217.4" x2="196.881" y2="178.879" gradientUnits="userSpaceOnUse">
<stop stop-color="#080D86"/>
<stop offset="1" stop-color="#487FFA"/>
</linearGradient>
<linearGradient id="paint22_linear_452_19634" x1="188.54" y1="214.668" x2="199.04" y2="182.793" gradientUnits="userSpaceOnUse">
<stop stop-color="#2C4EC4"/>
<stop offset="1" stop-color="#5681FA"/>
</linearGradient>
<linearGradient id="paint23_linear_452_19634" x1="240.455" y1="101.101" x2="255.603" y2="55.2494" gradientUnits="userSpaceOnUse">
<stop stop-color="#080D86"/>
<stop offset="1" stop-color="#487FFA"/>
</linearGradient>
<radialGradient id="paint24_radial_452_19634" cx="0" cy="0" r="1" gradientUnits="userSpaceOnUse" gradientTransform="translate(240.286 191.954) scale(25.7041 25.9583)">
<stop stop-color="#5079FA"/>
<stop offset="0.09" stop-color="#4468D7"/>
<stop offset="0.28" stop-color="#304996"/>
<stop offset="0.46" stop-color="#1F2E61"/>
<stop offset="0.63" stop-color="#111A37"/>
<stop offset="0.78" stop-color="#070C18"/>
<stop offset="0.91" stop-color="#020306"/>
<stop offset="1"/>
</radialGradient>
<radialGradient id="paint25_radial_452_19634" cx="0" cy="0" r="1" gradientUnits="userSpaceOnUse" gradientTransform="translate(325.7 -51.7621) rotate(36.2585) scale(15.2717 10.1096)">
<stop stop-color="#5079FA"/>
<stop offset="0.09" stop-color="#4468D7"/>
<stop offset="0.28" stop-color="#304996"/>
<stop offset="0.46" stop-color="#1F2E61"/>
<stop offset="0.63" stop-color="#111A37"/>
<stop offset="0.78" stop-color="#070C18"/>
<stop offset="0.91" stop-color="#020306"/>
<stop offset="1"/>
</radialGradient>
<linearGradient id="paint26_linear_452_19634" x1="257.366" y1="96.6604" x2="257.366" y2="47.3055" gradientUnits="userSpaceOnUse">
<stop stop-color="#5FA7D5"/>
<stop offset="1" stop-color="#89E1FD"/>
</linearGradient>
<linearGradient id="paint27_linear_452_19634" x1="215.089" y1="317.818" x2="215.089" y2="250.361" gradientUnits="userSpaceOnUse">
<stop stop-color="#B8C0FC"/>
<stop offset="1" stop-color="#7971AE"/>
</linearGradient>
<linearGradient id="paint28_linear_452_19634" x1="255.844" y1="150.626" x2="255.844" y2="61.4801" gradientUnits="userSpaceOnUse">
<stop stop-color="#8CA6CA"/>
<stop offset="1" stop-color="#627198"/>
</linearGradient>
<radialGradient id="paint29_radial_452_19634" cx="0" cy="0" r="1" gradientUnits="userSpaceOnUse" gradientTransform="translate(37.4542 241.737) rotate(-33.5994) scale(61.7492 39.7166)">
<stop stop-color="#8FFDFF"/>
<stop offset="0.17" stop-color="#6EC3C4"/>
<stop offset="0.4" stop-color="#477E7F"/>
<stop offset="0.6" stop-color="#284848"/>
<stop offset="0.78" stop-color="#122021"/>
<stop offset="0.92" stop-color="#050808"/>
<stop offset="1"/>
</radialGradient>
<clipPath id="clip0_452_19634">
<rect width="312" height="360" fill="white" transform="translate(24)"/>
</clipPath>
</defs>
</svg>
