<svg width="248" height="43" viewBox="0 0 248 43" fill="none" xmlns="http://www.w3.org/2000/svg">
<rect x="246.5" y="41.5" width="245" height="40" rx="7.5" transform="rotate(-180 246.5 41.5)" fill="#4A289C" fill-opacity="0.7" stroke="#0DEFB5" stroke-width="3"/>
<path d="M49.625 25.763L50.135 25.253C49.73 24.893 49.07 24.443 48.38 24.068H51.5C51.47 24.743 51.425 25.283 51.395 25.763H49.625ZM47.27 24.068L46.67 24.653C47.27 24.938 47.93 25.358 48.455 25.763H45.17C45.26 25.223 45.335 24.668 45.425 24.068H47.27ZM47.48 20.963L46.865 21.563C47.45 21.818 48.08 22.208 48.605 22.598H45.62C45.695 22.043 45.77 21.503 45.83 20.963H47.48ZM49.775 22.598L50.285 22.088C49.88 21.743 49.235 21.308 48.575 20.963H51.62C51.605 21.563 51.59 22.088 51.56 22.598H49.775ZM55.475 24.128V22.538H53.315C53.345 21.818 53.375 21.053 53.405 20.183C53.405 19.973 53.42 19.403 53.42 19.403H44.54C44.81 19.028 45.065 18.653 45.32 18.248H54.905V16.658H46.25C46.4 16.343 46.55 16.028 46.685 15.728L44.915 15.218C44.15 17.063 42.845 18.953 41.465 20.108C41.915 20.333 42.695 20.858 43.07 21.143C43.445 20.768 43.805 20.333 44.18 19.883C44.09 20.708 43.985 21.638 43.865 22.538H41.57V24.128H43.64C43.46 25.313 43.28 26.438 43.1 27.323H51.17C51.11 27.533 51.05 27.653 50.99 27.743C50.855 27.953 50.72 27.983 50.465 27.983C50.15 27.998 49.565 27.983 48.89 27.923C49.115 28.313 49.31 28.898 49.325 29.288C50.075 29.333 50.84 29.333 51.32 29.258C51.83 29.183 52.235 29.033 52.565 28.553C52.73 28.328 52.85 27.953 52.955 27.323H54.815V25.763H53.135C53.18 25.283 53.21 24.758 53.255 24.128H55.475ZM60.17 26.348V22.988H66.83V26.348H60.17ZM66.83 17.993V21.218H60.17V17.993H66.83ZM58.325 16.193V29.123H60.17V28.148H66.83V29.093H68.75V16.193H58.325ZM76.19 25.253C76.565 23.828 76.94 21.878 77.225 20.243L75.59 19.973C75.44 21.683 75.095 24.053 74.75 25.583C73.565 25.823 72.485 26.048 71.645 26.183L72.035 27.953C73.61 27.593 75.68 27.113 77.615 26.633L77.435 24.983L76.19 25.253ZM72.26 20.333C72.53 21.908 72.8 23.978 72.845 25.328L74.3 25.028C74.21 23.663 73.94 21.668 73.625 20.093L72.26 20.333ZM75.95 17.513C75.77 16.928 75.38 16.028 74.96 15.368L73.445 15.803C73.775 16.448 74.135 17.303 74.3 17.918H71.765V19.553H77.765V17.918H74.735L75.95 17.513ZM83.15 26.918H79.595V23.993H83.15V26.918ZM85.49 19.748V18.053H82.01V15.293H80.18V22.328H77.855V29.303H79.595V28.583H83.15V29.243H84.98V22.328H82.01V19.748H85.49ZM99.68 17.978H93.095L94.7 17.513C94.535 16.868 94.205 15.878 93.89 15.128L92.105 15.578C92.375 16.313 92.675 17.303 92.825 17.978H87.38V19.778H99.68V17.978ZM92.405 26.078C92.15 24.473 91.61 22.103 91.04 20.213L89.24 20.648C89.75 22.508 90.305 24.968 90.485 26.573L92.405 26.078ZM95.99 26.933C96.665 25.193 97.445 22.823 98.015 20.648L95.99 20.258C95.6 22.373 94.805 25.103 94.055 26.933H86.705V28.748H100.31V26.933H95.99ZM111.125 25.343V25.943H105.89V25.343H111.125ZM105.89 27.713V27.113H111.125V27.713H105.89ZM104.135 29.288H105.89V28.883H111.125V29.243H112.955V24.173H104.135V29.288ZM104.06 19.613C104.69 19.373 105.29 19.088 105.875 18.788V19.088H111.14V18.698C111.8 19.043 112.475 19.358 113.18 19.613H104.06ZM112.13 22.598H110.915C111.155 22.178 111.44 21.593 111.74 20.993L110.57 20.708H112.13V22.598ZM104.78 22.598V20.708H106.475L105.32 21.038C105.56 21.518 105.755 22.133 105.83 22.598H104.78ZM107.72 22.598H106.19L107.15 22.298C107.06 21.863 106.82 21.218 106.55 20.708H107.72V22.598ZM110.24 20.708C110.105 21.203 109.865 21.893 109.655 22.343L110.555 22.598H109.16V20.708H110.24ZM107.345 17.933C107.795 17.618 108.23 17.288 108.62 16.958C108.995 17.288 109.43 17.618 109.88 17.933H107.345ZM108.2 15.173C106.835 16.913 104.165 18.158 101.405 18.803C101.705 19.133 102.185 19.853 102.365 20.183C102.665 20.108 102.98 20.003 103.295 19.898V23.678H113.72V19.808C114.035 19.898 114.35 20.003 114.65 20.078C114.89 19.658 115.4 19.028 115.775 18.713C113.39 18.248 110.93 17.213 109.55 16.013C109.625 15.923 109.7 15.818 109.775 15.728L108.2 15.173ZM130.355 20.153H126.74V19.538H129.59V18.428H126.74V17.858H130.055V16.673H128.435C128.66 16.373 128.915 16.028 129.14 15.683L127.58 15.293C127.46 15.698 127.16 16.253 126.905 16.673H125.06C124.895 16.283 124.535 15.713 124.205 15.293L122.945 15.743C123.14 16.013 123.35 16.358 123.515 16.673H121.88V17.858H125.03V18.428H122.36V19.538H125.03V20.153H121.415V21.428H130.37L130.355 20.153ZM121.415 17.798H118.895L119.99 17.348C119.855 16.838 119.48 15.968 119.135 15.353L117.86 15.818C118.175 16.433 118.475 17.243 118.61 17.798H116.525V19.193H121.415V17.798ZM119.735 25.343V27.113H118.25V25.343H119.735ZM121.01 23.978H116.99V29.108H118.25V28.478H121.01V23.978ZM117.05 23.243H121.04V21.908H117.05V23.243ZM117.05 21.218H121.04V19.868H117.05V21.218ZM124.805 23.723V22.868C125.27 22.793 125.69 22.688 126.08 22.583C126.095 22.988 126.11 23.348 126.14 23.723H124.805ZM128.615 25.193C128.435 25.523 128.18 25.823 127.91 26.123C127.835 25.793 127.76 25.433 127.715 25.013H130.34V23.723H129.275L130.25 23.033C129.95 22.598 129.275 22.028 128.72 21.653L127.7 22.343C128.225 22.733 128.825 23.288 129.125 23.723H127.58C127.55 23.123 127.535 22.448 127.535 21.743H126.05C126.05 22.013 126.065 22.298 126.08 22.583L125.165 21.533C124.28 21.818 122.78 22.043 121.52 22.163C121.655 22.448 121.82 22.898 121.865 23.198C122.315 23.168 122.78 23.138 123.26 23.078V23.723H121.385V25.013H123.26V25.733C122.525 25.808 121.865 25.868 121.295 25.913L121.46 27.278C122.015 27.218 122.615 27.143 123.26 27.068V27.833C123.26 27.998 123.2 28.043 123.02 28.058C122.855 28.058 122.285 28.058 121.775 28.043C121.955 28.403 122.15 28.928 122.21 29.303C123.095 29.303 123.74 29.288 124.205 29.093C124.67 28.883 124.805 28.568 124.805 27.878V26.873L126.035 26.723L126.005 25.463L124.805 25.583V25.013H126.26C126.365 25.838 126.515 26.543 126.71 27.173C126.11 27.578 125.465 27.938 124.835 28.193C125.12 28.433 125.495 28.853 125.675 29.123C126.185 28.898 126.71 28.628 127.205 28.298C127.64 28.973 128.225 29.363 128.99 29.363C129.905 29.363 130.385 28.838 130.595 27.398C130.28 27.263 129.86 27.053 129.575 26.783C129.53 27.593 129.38 27.983 129.155 27.983C128.855 27.983 128.6 27.788 128.375 27.413C128.945 26.933 129.44 26.378 129.815 25.778L128.615 25.193ZM137.513 16.868C136.283 18.623 135.623 20.918 135.623 23.363C135.623 25.808 136.283 28.118 137.513 29.858H139.568C138.473 28.118 137.783 25.808 137.783 23.363C137.783 20.918 138.473 18.623 139.568 16.868H137.513ZM140.827 17.498V27.998H145.192C148.507 27.998 150.802 25.838 150.802 22.748C150.802 19.643 148.537 17.498 145.282 17.498H140.827ZM143.197 19.493H145.237C147.037 19.493 148.387 20.828 148.387 22.763C148.387 24.683 147.097 26.003 145.342 26.003H143.197V19.493ZM156.99 27.998H159.255L159.24 22.733C159.225 20.918 157.98 19.838 155.82 19.838C154.41 19.838 153.375 20.168 152.175 20.768L152.895 22.358C153.735 21.893 154.575 21.653 155.295 21.653C156.405 21.653 156.975 22.148 156.975 23.003V23.153H154.755C152.775 23.168 151.68 24.068 151.68 25.583C151.68 27.053 152.73 28.103 154.455 28.103C155.58 28.103 156.45 27.728 156.99 27.053V27.998ZM155.1 26.453C154.32 26.453 153.84 26.048 153.84 25.433C153.84 24.788 154.275 24.518 155.16 24.518H156.975V25.238C156.84 25.928 156.075 26.453 155.1 26.453ZM162.401 16.343C161.666 16.343 161.156 16.883 161.156 17.633C161.156 18.383 161.666 18.923 162.401 18.923C163.136 18.923 163.646 18.383 163.646 17.633C163.646 16.883 163.136 16.343 162.401 16.343ZM163.556 27.998V19.928H161.246V27.998H163.556ZM168.157 27.998V16.868H165.847V27.998H168.157ZM177.929 19.928H175.619L173.714 25.478L171.599 19.928H169.214L172.559 27.833L172.334 28.283C172.109 28.763 171.749 29.003 171.269 29.003C170.894 29.003 170.579 28.868 170.219 28.568L169.244 30.233C169.904 30.773 170.579 31.013 171.434 31.013C172.829 31.013 173.819 30.323 174.389 28.898L177.929 19.928ZM186.444 17.393C184.014 17.393 182.379 18.593 182.379 20.498C182.379 24.218 187.974 23.063 187.974 25.043C187.974 25.688 187.389 26.048 186.414 26.048C185.304 26.048 183.774 25.433 182.694 24.473L181.749 26.408C182.934 27.413 184.659 28.073 186.384 28.073C188.709 28.073 190.494 26.963 190.494 24.908C190.509 21.128 184.914 22.208 184.914 20.273C184.914 19.703 185.454 19.418 186.249 19.418C187.089 19.418 188.409 19.838 189.519 20.498L190.434 18.533C189.384 17.843 187.914 17.393 186.444 17.393ZM195.56 19.853C193.085 19.853 191.42 21.518 191.42 23.993C191.42 26.438 193.085 28.088 195.53 28.088C197.18 28.088 198.44 27.428 199.115 26.303L197.525 25.223C197.12 25.853 196.475 26.168 195.65 26.168C194.525 26.168 193.73 25.283 193.73 23.978C193.73 22.688 194.525 21.818 195.65 21.818C196.445 21.803 197.06 22.133 197.495 22.673L199.055 21.548C198.335 20.468 197.105 19.853 195.56 19.853ZM202.872 19.928H200.562V27.998H202.872V24.113C202.872 22.748 203.892 21.863 205.542 22.013V19.838C204.342 19.853 203.427 20.393 202.872 21.383V19.928ZM214.467 19.928H212.172V23.918C212.172 25.088 211.497 25.958 210.387 25.973C209.457 25.973 208.872 25.358 208.872 24.338V19.928H206.562V24.998C206.562 26.903 207.687 28.088 209.472 28.088C210.687 28.088 211.617 27.593 212.172 26.573V27.998H214.467V19.928ZM227.385 19.838C226.02 19.853 225 20.453 224.475 21.698C224.085 20.528 223.11 19.838 221.745 19.838C220.53 19.853 219.585 20.333 219.015 21.323V19.928H216.705V27.998H219.015V24.008C219.015 22.838 219.69 21.968 220.815 21.953C221.76 21.953 222.36 22.568 222.36 23.603V27.998H224.655V24.008C224.655 22.838 225.33 21.968 226.44 21.953C227.4 21.953 228 22.568 228 23.603V27.998H230.295V22.928C230.295 21.038 229.17 19.838 227.385 19.838ZM232.276 16.868C233.371 18.623 234.076 20.918 234.076 23.363C234.076 25.808 233.371 28.118 232.276 29.858H234.346C235.576 28.118 236.236 25.808 236.236 23.363C236.236 20.918 235.576 18.623 234.346 16.868H232.276Z" fill="#0DEFB5"/>
<circle cx="23" cy="21.998" r="12" fill="#0DEFB5"/>
<path d="M23.8625 26.2348C23.0777 26.3931 22.271 26.3334 21.5292 26.0626C20.7949 25.7934 20.1233 25.3051 19.6378 24.6868C19.2521 24.1979 18.9755 23.6179 18.8345 23.0159C19.2724 23.2676 19.741 23.4317 20.2178 23.4972L20.2816 23.0321C19.6535 22.9457 19.0381 22.6621 18.5028 22.2126L18.3288 22.0664L18.1768 22.2358C17.6177 22.8593 17.2111 23.6608 17 24.5552L17.457 24.663C17.587 24.1126 17.7969 23.6016 18.0747 23.1539C18.2371 23.8806 18.5625 24.5673 19.0329 25.163C19.6134 25.9019 20.3848 26.4633 21.2647 26.7852C21.8209 26.9882 22.4073 27.0909 22.9983 27.0909C23.3376 27.0909 23.6786 27.0572 24.0162 26.9888C24.9343 26.8009 25.7805 26.3601 26.4632 25.714L25.9342 25.1554C25.3641 25.6948 24.6281 26.0788 23.8625 26.2354V26.2348Z" fill="#00092B" stroke="#00092B" stroke-linejoin="round"/>
<path d="M27.925 20.935C27.7626 20.2082 27.4372 19.5215 26.9668 18.9259C26.3862 18.187 25.6148 17.6255 24.735 17.3036C23.8598 16.984 22.9086 16.9133 21.9841 17.1C21.066 17.288 20.2198 17.7288 19.5371 18.3749L20.0661 18.9334C20.6362 18.394 21.3722 18.0101 22.1378 17.8535C22.9225 17.6951 23.7293 17.7549 24.4711 18.0257C25.2054 18.2948 25.877 18.7832 26.3625 19.4015C26.7482 19.8904 27.0248 20.4704 27.1657 21.0724C26.7279 20.8207 26.2592 20.6566 25.7825 20.591L25.7187 21.0562C26.3468 21.1426 26.9622 21.4262 27.4975 21.8757L27.6715 22.0219L27.8235 21.8525C28.382 21.2296 28.7891 20.4275 29.0003 19.5331L28.5432 19.4252C28.4133 19.9756 28.2034 20.4866 27.9255 20.9344L27.925 20.935Z" fill="#00092B" stroke="#00092B" stroke-linejoin="round"/>
</svg>
