<svg width="324" height="360" viewBox="0 0 324 360" fill="none" xmlns="http://www.w3.org/2000/svg">
<g clip-path="url(#clip0_452_19709)">
<path fill-rule="evenodd" clip-rule="evenodd" d="M247.102 36.4809C247.102 36.4809 266.658 41.953 279.75 41.1239C279.75 41.1239 303.118 57.0428 316.045 98.9959C316.045 98.9959 304.775 112.262 307.261 127.683C307.261 127.683 287.374 73.4593 247.102 36.4809Z" fill="url(#paint0_linear_452_19709)"/>
<path fill-rule="evenodd" clip-rule="evenodd" d="M268.647 350.051C268.647 350.051 260.692 347.563 254.725 348.392C254.725 348.392 246.77 342.423 246.605 332.142C246.605 332.142 252.737 324.514 254.891 318.71C254.891 318.71 257.377 335.458 268.481 350.051H268.647Z" fill="url(#paint1_linear_452_19709)"/>
<path fill-rule="evenodd" clip-rule="evenodd" d="M310.41 158.194C310.41 172.455 308.421 186.384 304.61 199.318C297.152 225.518 282.568 248.899 263.012 266.974C249.091 279.908 232.683 290.355 214.619 297.153C198.212 303.455 180.479 306.771 161.917 306.771C159.265 306.771 156.614 306.771 153.962 306.605C150.15 306.439 146.173 306.108 142.361 305.61C113.69 301.796 87.6706 289.857 66.4573 272.114C58.5023 265.481 51.376 258.019 44.9125 249.894C40.1064 243.759 35.7974 237.292 31.8199 230.327C30.9913 228.669 29.9969 227.011 29.1683 225.352C28.3396 223.528 27.3453 221.704 26.5166 219.88C23.865 214.242 21.7105 208.273 19.8875 202.303C18.5616 197.992 17.4015 193.514 16.4072 189.037C15.7442 185.887 15.247 182.736 14.7499 179.42C13.7555 172.455 13.2583 165.491 13.2583 158.36C13.2583 154.215 13.2583 150.069 13.7555 146.089C13.9212 143.436 14.2527 140.949 14.5841 138.462C16.5729 123.869 20.5504 109.94 26.5166 97.006C29.334 90.7047 32.6486 84.5693 36.4604 78.5997C42.5923 68.8162 50.0501 59.8618 58.3366 51.7365C85.0189 25.5366 121.479 9.45186 161.751 9.45186C163.243 9.45186 164.9 9.45186 166.392 9.45186C168.049 9.45186 169.706 9.45186 171.364 9.7835C179.816 10.281 188.268 11.6075 196.223 13.5974C200.863 14.7582 205.504 16.0847 209.979 17.5771C213.127 18.5721 216.11 19.7328 219.094 21.0594C221.248 22.0543 223.403 23.0493 225.723 24.0442C226.054 24.21 226.551 24.3759 226.883 24.5417C241.301 31.672 254.394 40.9581 265.829 52.0682C267.486 53.5606 268.978 55.2188 270.635 56.877C271.63 58.0378 272.624 59.1985 273.784 60.3593C275.441 62.3491 277.099 64.339 278.756 66.3289C284.722 73.7909 289.86 81.9162 294.335 90.5389C299.472 100.488 303.45 111.101 306.267 122.377C309.084 133.819 310.576 145.924 310.576 158.194H310.41Z" fill="url(#paint2_radial_452_19709)"/>
<path style="mix-blend-mode:multiply" opacity="0.5" fill-rule="evenodd" clip-rule="evenodd" d="M18.8931 136.14C18.8931 136.14 45.4097 149.903 69.1089 131.165C92.8082 112.427 73.9151 42.1188 73.9151 42.1188L18.8931 136.14Z" fill="url(#paint3_linear_452_19709)"/>
<path style="mix-blend-mode:multiply" opacity="0.89" fill-rule="evenodd" clip-rule="evenodd" d="M191.251 243.095C191.251 243.095 203.184 257.522 232.518 259.18C261.852 260.838 291.186 227.011 297.981 196.499C304.775 165.988 282.899 135.145 261.52 130.336C240.141 125.527 191.251 243.095 191.251 243.095Z" fill="url(#paint4_linear_452_19709)"/>
<path style="mix-blend-mode:screen" fill-rule="evenodd" clip-rule="evenodd" d="M73.7494 274.27C58.3366 261.336 45.5755 245.417 36.4604 227.342C30.6599 216.066 26.3509 203.796 23.6992 191.027C21.7105 181.078 20.5504 170.797 20.5504 160.35C20.5504 131 29.0026 103.639 43.7524 80.5896C50.0501 70.8061 57.3422 61.8517 65.6287 53.7264C92.311 27.6923 128.771 11.6075 169.043 11.6075C172.358 11.6075 175.507 11.6075 178.656 11.9392C188.765 12.6025 198.543 14.2607 207.99 16.748C196.389 12.9341 184.125 10.6126 171.364 9.7835C168.215 9.61768 164.9 9.45186 161.751 9.45186C121.479 9.45186 84.8532 25.5366 58.1708 51.5707C49.8844 59.696 42.5923 68.6504 36.2946 78.4339C21.5448 101.483 13.0926 128.844 13.0926 158.194C13.0926 168.641 14.2527 178.922 16.2414 188.872C18.8931 201.64 23.2021 213.745 29.0026 225.187C38.1177 243.261 50.8788 259.18 66.2916 272.114C82.533 285.712 101.758 295.993 122.805 301.631C104.575 295.661 87.8363 286.375 73.4179 274.27H73.7494Z" fill="url(#paint5_radial_452_19709)"/>
<path fill-rule="evenodd" clip-rule="evenodd" d="M40.4378 243.924C40.4378 243.924 49.8844 259.346 47.3984 284.219C47.3984 284.219 68.1145 320.369 126.285 323.353C126.285 323.353 155.619 301.796 183.628 305.279C183.628 305.279 135.235 236.131 40.2721 243.924H40.4378Z" fill="url(#paint6_linear_452_19709)"/>
<path fill-rule="evenodd" clip-rule="evenodd" d="M18.8931 136.14C18.8931 136.14 9.11508 109.277 0.331446 99.6592C0.331446 99.6592 -6.29771 56.877 37.289 42.2847C37.289 42.2847 60.8225 46.7619 73.9151 42.2847C73.9151 42.2847 78.887 71.3036 58.9995 102.146C42.0951 128.512 18.8931 136.306 18.8931 136.306V136.14Z" fill="url(#paint7_linear_452_19709)"/>
<path fill-rule="evenodd" clip-rule="evenodd" d="M285.882 157.199C285.882 157.199 275.441 120.719 240.141 118.397C202.686 116.076 169.541 190.696 181.142 226.513C192.743 262.331 234.341 257.024 253.399 244.09C276.602 228.337 287.871 193.515 285.882 157.199Z" fill="url(#paint8_linear_452_19709)"/>
<path style="mix-blend-mode:multiply" opacity="0.5" fill-rule="evenodd" clip-rule="evenodd" d="M127.28 49.9125C127.28 49.9125 139.875 71.3035 164.403 68.982C191.251 66.4947 198.377 43.7771 197.383 34.8227C196.389 25.8683 127.28 49.9125 127.28 49.9125Z" fill="url(#paint9_linear_452_19709)"/>
<path fill-rule="evenodd" clip-rule="evenodd" d="M245.942 131.165C213.625 131 165.729 217.061 207.327 246.08C246.936 273.607 283.562 213.911 287.871 193.515C292.18 173.118 289.363 131.497 245.776 131.165H245.942Z" fill="url(#paint10_linear_452_19709)"/>
<path fill-rule="evenodd" clip-rule="evenodd" d="M231.026 245.251C229.535 245.251 228.043 244.919 226.551 244.754C206.498 241.271 198.875 227.342 197.217 213.247C196.223 204.293 197.383 195.339 199.372 188.872C203.184 176.269 223.568 146.421 246.77 142.275C255.057 140.783 263.675 142.607 272.127 149.406C279.253 155.375 282.734 163.003 283.562 171.626C286.711 203.63 252.737 247.075 230.86 245.085L231.026 245.251Z" fill="url(#paint11_linear_452_19709)"/>
<path fill-rule="evenodd" clip-rule="evenodd" d="M132.915 10.4468C132.915 10.4468 117.999 29.5163 125.457 46.7619C133.246 65.0023 176.833 64.1732 190.92 50.2441C205.007 36.3151 193.737 9.78351 181.639 5.14048C167.883 -0.165827 149.653 0.829107 133.08 10.4468H132.915Z" fill="url(#paint12_radial_452_19709)"/>
<path fill-rule="evenodd" clip-rule="evenodd" d="M130.097 35.486C137.721 50.7416 189.594 52.8973 193.406 26.3657C197.052 1.16075 160.094 -1.98987 149.487 0.829109C138.881 3.64809 119.822 14.7582 130.097 35.486Z" fill="url(#paint13_linear_452_19709)"/>
<path fill-rule="evenodd" clip-rule="evenodd" d="M185.948 19.8987C185.948 20.7278 185.948 21.5569 185.948 22.386C185.948 23.2151 185.948 24.0442 185.616 24.8733C181.307 41.953 147.167 47.4251 139.378 37.9733C137.224 35.3201 135.898 32.667 135.235 30.1796C132.583 19.7328 141.864 11.2759 147.996 8.12528C155.619 4.14555 184.125 -8.58307e-06 185.948 19.8987Z" fill="url(#paint14_linear_452_19709)"/>
<path fill-rule="evenodd" clip-rule="evenodd" d="M0.331441 99.6591C0.994356 109.443 49.8844 63.3441 37.1233 42.1188C37.289 42.2847 -3.64605 45.9328 0.331441 99.6591Z" fill="url(#paint15_linear_452_19709)"/>
<path fill-rule="evenodd" clip-rule="evenodd" d="M47.5642 284.219C44.581 266.808 132.749 278.913 126.451 323.353C125.125 333.137 52.536 313.072 47.5642 284.219Z" fill="url(#paint16_linear_452_19709)"/>
<path fill-rule="evenodd" clip-rule="evenodd" d="M118.496 322.027C117.005 323.187 68.6118 316.057 51.8732 286.707C50.7131 284.717 56.0164 284.053 63.8056 285.048C66.7888 285.38 70.2691 286.043 73.7494 286.872C85.1847 289.526 98.7744 294.832 107.89 302.957C110.707 305.61 112.861 307.932 114.519 309.922C116.839 312.907 118.165 315.394 118.662 317.218C119.491 319.871 118.828 321.529 118.165 322.027H118.496Z" fill="url(#paint17_linear_452_19709)"/>
<path fill-rule="evenodd" clip-rule="evenodd" d="M114.684 309.922C95.4599 306.605 81.7044 295.164 73.9151 286.872C85.3504 289.526 98.9402 294.832 108.055 302.957C110.873 305.61 113.027 307.932 114.684 309.922Z" fill="url(#paint18_linear_452_19709)"/>
<path fill-rule="evenodd" clip-rule="evenodd" d="M31.9856 55.5504C31.157 58.2036 29.8312 61.6859 27.6767 66.3289C24.0307 74.62 16.5729 83.2428 11.2695 87.3883C8.61787 89.544 6.29767 90.5389 5.46902 89.7098C3.646 88.0516 3.97746 76.2782 9.61224 65.1681C15.247 54.058 30.6598 46.2644 32.1514 48.0884C33.1458 49.0834 33.3115 51.0732 31.8199 55.5504H31.9856Z" fill="url(#paint19_linear_452_19709)"/>
<path fill-rule="evenodd" clip-rule="evenodd" d="M31.9856 55.5504C31.157 58.2036 29.8312 61.6859 27.6767 66.3289C24.0307 74.62 16.5729 83.2428 11.2695 87.3883C17.5672 70.4744 28.5053 58.8669 31.8199 55.5504H31.9856Z" fill="url(#paint20_linear_452_19709)"/>
<path fill-rule="evenodd" clip-rule="evenodd" d="M47.5642 223.031C46.0726 222.036 44.5811 220.378 43.2553 218.222C38.2834 210.263 35.466 196.499 40.6036 193.68C47.067 190.198 56.5136 192.022 60.8225 203.464C60.8225 203.796 61.154 204.293 61.154 204.625C61.154 204.625 61.154 204.625 61.154 204.79C61.154 205.122 61.154 205.454 61.4854 205.62C61.4854 205.951 61.8169 206.449 61.8169 206.946C64.4686 217.89 54.6905 227.508 47.5642 223.197V223.031Z" fill="url(#paint21_linear_452_19709)"/>
<path style="mix-blend-mode:multiply" opacity="0.4" fill-rule="evenodd" clip-rule="evenodd" d="M60.6567 203.298C58.1708 198.489 48.89 192.851 43.0895 197.992C36.9575 203.464 42.5923 216.895 43.0895 218.056C38.1176 210.097 35.3002 196.333 40.4378 193.515C46.9013 190.032 56.3478 191.856 60.6567 203.298Z" fill="url(#paint22_radial_452_19709)"/>
<path fill-rule="evenodd" clip-rule="evenodd" d="M92.4767 78.2681C92.4767 78.2681 91.1509 76.9415 90.6537 75.9466C88.6649 72.1327 88.002 65.6656 90.488 64.5048C93.6368 63.1783 97.9458 64.5048 99.4373 69.8111C99.4373 69.977 99.4373 70.1428 99.4373 70.3086V70.6403C99.4373 70.8061 99.4373 70.9719 99.4373 71.3035C100.266 76.444 95.2941 80.4238 92.311 78.2681H92.4767Z" fill="url(#paint23_linear_452_19709)"/>
<path style="mix-blend-mode:multiply" opacity="0.4" fill-rule="evenodd" clip-rule="evenodd" d="M99.2716 69.8111C98.2772 67.4896 94.2997 64.5048 91.3166 66.6605C88.3335 68.982 90.3222 75.2833 90.488 75.9466C88.4992 72.1327 87.8363 65.6656 90.3222 64.5048C93.4711 63.1783 97.78 64.5048 99.2716 69.8111Z" fill="url(#paint24_radial_452_19709)"/>
<path fill-rule="evenodd" clip-rule="evenodd" d="M203.847 285.878C203.847 285.878 203.184 286.209 202.852 286.209C202.686 286.209 202.355 286.209 202.189 286.375C201.858 286.375 201.526 286.541 201.195 286.707C196.223 288.033 191.583 286.209 188.931 283.224C186.776 280.903 186.114 277.918 187.605 275.265C188.268 273.938 189.76 272.778 191.417 271.617C197.88 267.305 209.15 264.818 211.636 268.964C212.299 270.124 212.796 271.451 212.962 272.778C213.625 277.586 211.304 282.893 204.012 285.878H203.847Z" fill="url(#paint25_linear_452_19709)"/>
<path style="mix-blend-mode:screen" opacity="0.5" fill-rule="evenodd" clip-rule="evenodd" d="M81.3729 203.961C81.3729 203.961 90.3222 218.222 114.85 216.73C139.378 215.237 143.853 203.298 145.344 193.515C146.836 183.731 142.693 171.792 142.693 171.792C142.693 171.792 88.4992 182.073 81.3729 203.961Z" fill="url(#paint26_radial_452_19709)"/>
<path style="mix-blend-mode:multiply" opacity="0.4" fill-rule="evenodd" clip-rule="evenodd" d="M212.796 272.778C210.807 271.119 206.664 268.964 199.703 271.119C189.262 274.436 188.599 283.39 188.599 283.39C186.445 281.069 185.782 278.084 187.274 275.431C187.937 274.104 189.428 272.943 191.085 271.783C197.549 267.471 208.818 264.984 211.304 269.129C211.967 270.29 212.464 271.617 212.63 272.943L212.796 272.778Z" fill="url(#paint27_radial_452_19709)"/>
<path fill-rule="evenodd" clip-rule="evenodd" d="M143.853 185.555V186.053C143.853 224.026 87.0077 219.383 78.0583 199.152C76.8982 196.333 75.7381 193.183 75.0752 190.032C70.1033 169.636 73.2522 142.441 82.2015 136.14C91.8138 129.507 110.044 129.341 123.468 136.14C138.549 143.768 144.35 166.32 143.853 185.555Z" fill="url(#paint28_linear_452_19709)"/>
<path style="mix-blend-mode:multiply" opacity="0.4" fill-rule="evenodd" clip-rule="evenodd" d="M143.853 185.555V186.053C143.853 186.053 144.681 162.34 133.246 149.572C121.811 136.969 98.7744 133.321 85.6818 147.582C72.9207 161.511 75.0752 188.706 75.2409 189.866C70.269 169.47 73.4179 142.275 82.3672 135.974C91.9795 129.341 110.21 129.175 123.634 135.974C138.715 143.602 144.516 166.154 144.018 185.389L143.853 185.555Z" fill="url(#paint29_linear_452_19709)"/>
<path fill-rule="evenodd" clip-rule="evenodd" d="M250.416 65.9972C247.268 67.6555 239.478 63.0124 232.518 57.0428C224.065 49.7467 216.608 40.6264 219.425 39.2999C223.403 37.4758 237.987 38.6366 244.782 44.2745C247.599 46.596 250.416 50.4099 252.074 54.058C254.228 58.8669 254.394 63.8415 250.251 65.9972H250.416Z" fill="url(#paint30_linear_452_19709)"/>
<path style="mix-blend-mode:multiply" opacity="0.4" fill-rule="evenodd" clip-rule="evenodd" d="M252.239 54.058C241.633 37.9733 225.226 38.8024 224.065 43.1138C222.905 47.4251 232.683 57.2086 232.683 57.2086C224.231 49.9125 216.773 40.7923 219.591 39.4657C223.568 37.6416 238.152 38.8024 244.947 44.4403C247.765 46.7618 250.582 50.5758 252.239 54.2238V54.058Z" fill="url(#paint31_linear_452_19709)"/>
<path fill-rule="evenodd" clip-rule="evenodd" d="M10.9381 95.6794C10.9381 95.6794 35.1345 83.5744 37.6205 59.5302C37.6205 59.5302 25.3565 84.2377 10.9381 95.6794Z" fill="#D9BBF7"/>
<path fill-rule="evenodd" clip-rule="evenodd" d="M191.251 214.574C191.251 214.574 193.571 166.486 228.374 138.13C228.374 138.13 186.611 158.029 191.251 214.574Z" fill="#D9BBF7"/>
<path fill-rule="evenodd" clip-rule="evenodd" d="M131.589 37.4758C131.589 37.4758 138.052 47.4251 160.426 46.596C182.633 45.7669 190.091 35.6518 191.251 32.9986C191.251 32.9986 185.782 50.0783 160.591 49.415C134.075 48.7517 131.754 37.4758 131.754 37.4758H131.589Z" fill="#E8A2F3"/>
<path fill-rule="evenodd" clip-rule="evenodd" d="M85.5161 279.908C85.5161 279.908 119.325 293.505 126.12 313.238C126.12 313.238 125.291 290.686 85.5161 279.908Z" fill="#E8A2F3"/>
<path style="mix-blend-mode:multiply" opacity="0.71" fill-rule="evenodd" clip-rule="evenodd" d="M283.728 171.626C283.728 171.626 272.293 151.893 240.473 160.516C211.967 168.31 199.538 205.122 197.383 213.082C196.389 204.127 197.549 195.173 199.538 188.706C203.349 176.103 223.734 146.255 246.936 142.11C255.222 140.617 263.84 142.441 272.293 149.24C279.419 155.21 282.899 162.837 283.728 171.46V171.626Z" fill="url(#paint32_linear_452_19709)"/>
<path fill-rule="evenodd" clip-rule="evenodd" d="M322.343 330.815C321.68 334.132 320.686 337.282 319.194 340.267C316.377 346.071 311.902 350.88 306.599 354.362C302.787 356.849 298.478 358.508 294.003 359.337C289.86 360.166 285.551 360.166 281.242 359.337C280.579 359.337 280.082 359.171 279.419 359.005C278.59 358.839 277.596 358.508 276.767 358.342C270.138 356.186 264.503 352.372 260.36 347.232C258.703 345.408 257.377 343.252 256.217 341.096C255.388 339.438 254.56 337.78 254.062 335.956C254.062 335.458 253.731 335.127 253.565 334.629C253.565 334.132 253.234 333.634 253.234 333.303C252.902 331.81 252.571 330.318 252.405 328.825C252.405 327.83 252.239 326.67 252.074 325.509C252.074 324.68 252.074 324.017 252.074 323.187C252.074 321.529 252.239 319.871 252.571 318.213C252.737 317.218 252.902 316.223 253.234 315.394C253.234 314.731 253.565 314.233 253.731 313.57C254.725 310.253 256.383 307.103 258.206 304.284C259.2 302.957 260.194 301.631 261.355 300.47C263.178 298.48 265.332 296.656 267.652 295.164C275.11 290.189 284.225 288.033 293.672 289.691C294.003 289.691 294.335 289.691 294.832 289.857C295.163 289.857 295.66 290.023 295.992 290.189C297.981 290.686 299.804 291.35 301.627 292.179C302.621 292.676 303.781 293.174 304.776 293.671C305.438 294.003 306.101 294.5 306.764 294.832C307.261 295.164 307.759 295.495 308.256 295.827C308.256 295.827 308.256 295.827 308.422 295.993C311.57 298.314 314.222 300.967 316.377 304.118C316.708 304.615 317.039 304.947 317.371 305.444C317.537 305.776 317.702 306.108 317.868 306.439C318.2 306.937 318.531 307.6 318.862 308.098C319.857 310.088 320.851 312.243 321.514 314.399C322.343 316.886 322.84 319.705 323.006 322.358C323.171 325.177 323.006 327.996 322.508 330.981L322.343 330.815Z" fill="url(#paint33_radial_452_19709)"/>
<path fill-rule="evenodd" clip-rule="evenodd" d="M296.986 286.375C296.986 286.375 282.899 286.043 277.596 299.972C271.961 314.896 293.837 337.614 307.759 337.448C321.68 337.282 325.16 319.705 323.006 310.419C320.52 299.143 309.747 290.023 296.82 286.375H296.986Z" fill="url(#paint34_linear_452_19709)"/>
<path fill-rule="evenodd" clip-rule="evenodd" d="M282.899 299.309C278.756 312.409 302.621 342.589 318.034 329.323C332.618 316.72 316.542 294.334 309.913 290.023C303.284 285.712 288.534 281.566 282.899 299.309Z" fill="url(#paint35_linear_452_19709)"/>
<path fill-rule="evenodd" clip-rule="evenodd" d="M320.685 319.705C320.685 319.705 320.188 320.866 319.857 321.363C316.045 328.991 310.244 330.318 305.107 329.323C301.792 328.66 298.809 327.001 296.82 325.343C292.843 322.193 285.054 310.253 286.545 300.304C287.042 296.822 288.865 293.505 292.346 290.852C295.329 288.696 298.478 288.199 301.627 289.028C313.228 291.847 324 310.917 320.52 319.539L320.685 319.705Z" fill="url(#paint36_linear_452_19709)"/>
<path fill-rule="evenodd" clip-rule="evenodd" d="M320.022 321.363C313.89 333.966 302.289 329.489 297.152 325.343C293.174 322.193 285.385 310.253 286.877 300.304C287.871 298.48 289.197 296.656 291.186 295.329C304.112 285.877 321.017 309.258 319.857 321.363H320.022Z" fill="url(#paint37_linear_452_19709)"/>
<path style="mix-blend-mode:multiply" opacity="0.71" fill-rule="evenodd" clip-rule="evenodd" d="M301.792 289.194C301.792 289.194 293.34 291.35 292.346 305.279C291.351 317.881 302.621 327.499 305.107 329.323C301.792 328.66 298.809 327.001 296.82 325.343C292.843 322.193 285.054 310.253 286.545 300.304C287.042 296.822 288.865 293.505 292.346 290.852C295.329 288.696 298.478 288.199 301.627 289.028L301.792 289.194Z" fill="url(#paint38_linear_452_19709)"/>
<path style="mix-blend-mode:multiply" opacity="0.71" fill-rule="evenodd" clip-rule="evenodd" d="M185.948 19.8987C185.948 20.7278 185.948 21.5569 185.948 22.386C179.982 13.5974 169.043 11.6075 155.122 14.5923C141.201 17.5771 135.235 30.1796 135.235 30.1796C132.583 19.7328 141.864 11.2759 147.996 8.12528C155.619 4.14555 184.125 -8.58307e-06 185.948 19.8987Z" fill="url(#paint39_linear_452_19709)"/>
</g>
<defs>
<linearGradient id="paint0_linear_452_19709" x1="272.956" y1="122.211" x2="285.731" y2="41.9553" gradientUnits="userSpaceOnUse">
<stop stop-color="#7734AD"/>
<stop offset="1" stop-color="#8B8AFA"/>
</linearGradient>
<linearGradient id="paint1_linear_452_19709" x1="267.925" y1="328.479" x2="258.707" y2="355.144" gradientUnits="userSpaceOnUse">
<stop stop-color="#8B8AFA"/>
<stop offset="1" stop-color="#7734AD"/>
</linearGradient>
<radialGradient id="paint2_radial_452_19709" cx="0" cy="0" r="1" gradientUnits="userSpaceOnUse" gradientTransform="translate(111.37 106.458) scale(224.065 224.192)">
<stop stop-color="#ECB6DF"/>
<stop offset="0.23" stop-color="#E9B5DF"/>
<stop offset="0.35" stop-color="#E2B2E2"/>
<stop offset="0.43" stop-color="#D4ACE7"/>
<stop offset="0.51" stop-color="#C2A5EE"/>
<stop offset="0.58" stop-color="#A79BF8"/>
<stop offset="0.64" stop-color="#A194F8"/>
<stop offset="0.72" stop-color="#9180F8"/>
<stop offset="0.82" stop-color="#7661F8"/>
<stop offset="0.92" stop-color="#563AF9"/>
<stop offset="0.99" stop-color="#7398FB"/>
</radialGradient>
<linearGradient id="paint3_linear_452_19709" x1="18.8931" y1="91.6997" x2="81.0414" y2="91.6997" gradientUnits="userSpaceOnUse">
<stop stop-color="white"/>
<stop offset="0.17" stop-color="#D8D0E9"/>
<stop offset="0.36" stop-color="#B3A3D4"/>
<stop offset="0.55" stop-color="#9680C3"/>
<stop offset="0.72" stop-color="#8167B7"/>
<stop offset="0.87" stop-color="#7558B0"/>
<stop offset="1" stop-color="#7153AE"/>
</linearGradient>
<linearGradient id="paint4_linear_452_19709" x1="191.251" y1="194.675" x2="299.141" y2="194.675" gradientUnits="userSpaceOnUse">
<stop stop-color="#7153AE"/>
<stop offset="0.13" stop-color="#7558B0"/>
<stop offset="0.28" stop-color="#8167B7"/>
<stop offset="0.45" stop-color="#9680C3"/>
<stop offset="0.64" stop-color="#B3A3D4"/>
<stop offset="0.83" stop-color="#D8D0E9"/>
<stop offset="1" stop-color="white"/>
</linearGradient>
<radialGradient id="paint5_radial_452_19709" cx="0" cy="0" r="1" gradientUnits="userSpaceOnUse" gradientTransform="translate(53.199 56.877) scale(195.56 195.67)">
<stop stop-color="#FFFFD9"/>
<stop offset="1"/>
</radialGradient>
<linearGradient id="paint6_linear_452_19709" x1="104.741" y1="320.7" x2="115.857" y2="250.725" gradientUnits="userSpaceOnUse">
<stop stop-color="#5E1798"/>
<stop offset="1" stop-color="#8B8AFA"/>
</linearGradient>
<linearGradient id="paint7_linear_452_19709" x1="60.6568" y1="101.649" x2="11.5773" y2="59.0601" gradientUnits="userSpaceOnUse">
<stop stop-color="#B88CFA"/>
<stop offset="1" stop-color="#7734AD"/>
</linearGradient>
<linearGradient id="paint8_linear_452_19709" x1="274.448" y1="220.57" x2="190.513" y2="156.355" gradientUnits="userSpaceOnUse">
<stop stop-color="#4900AD"/>
<stop offset="1" stop-color="#E3BEFC"/>
</linearGradient>
<linearGradient id="paint9_linear_452_19709" x1="127.28" y1="50.9074" x2="197.383" y2="50.9074" gradientUnits="userSpaceOnUse">
<stop stop-color="white"/>
<stop offset="0.17" stop-color="#D8D0E9"/>
<stop offset="0.36" stop-color="#B3A3D4"/>
<stop offset="0.55" stop-color="#9680C3"/>
<stop offset="0.72" stop-color="#8167B7"/>
<stop offset="0.87" stop-color="#7558B0"/>
<stop offset="1" stop-color="#7153AE"/>
</linearGradient>
<linearGradient id="paint10_linear_452_19709" x1="232.39" y1="253.557" x2="248.396" y2="130.56" gradientUnits="userSpaceOnUse">
<stop stop-color="#5F50F1"/>
<stop offset="1" stop-color="#916DFA"/>
</linearGradient>
<linearGradient id="paint11_linear_452_19709" x1="204.178" y1="237.292" x2="269.685" y2="157.07" gradientUnits="userSpaceOnUse">
<stop stop-color="#845CDB"/>
<stop offset="0.24" stop-color="#8059D9"/>
<stop offset="0.47" stop-color="#7453D4"/>
<stop offset="0.68" stop-color="#6248CC"/>
<stop offset="0.9" stop-color="#4738C2"/>
<stop offset="0.99" stop-color="#3930BC"/>
</linearGradient>
<radialGradient id="paint12_radial_452_19709" cx="0" cy="0" r="1" gradientUnits="userSpaceOnUse" gradientTransform="translate(132.752 31.0298) rotate(-109.28) scale(55.7128 55.6883)">
<stop stop-color="#CEA2FB"/>
<stop offset="1" stop-color="#7734AD"/>
</radialGradient>
<linearGradient id="paint13_linear_452_19709" x1="193.366" y1="4.53222" x2="131.571" y2="26.1484" gradientUnits="userSpaceOnUse">
<stop stop-color="#B185F3"/>
<stop offset="1" stop-color="#C3B0FB"/>
</linearGradient>
<linearGradient id="paint14_linear_452_19709" x1="160.426" y1="42.4505" x2="160.426" y2="4.80884" gradientUnits="userSpaceOnUse">
<stop stop-color="#916DFA"/>
<stop offset="0.28" stop-color="#8D69F9"/>
<stop offset="0.53" stop-color="#825EF7"/>
<stop offset="0.78" stop-color="#6F4BF4"/>
<stop offset="1" stop-color="#5934F1"/>
</linearGradient>
<linearGradient id="paint15_linear_452_19709" x1="19.7217" y1="100.986" x2="19.7217" y2="42.2847" gradientUnits="userSpaceOnUse">
<stop stop-color="#E59DF3"/>
<stop offset="1" stop-color="#D86DFA"/>
</linearGradient>
<linearGradient id="paint16_linear_452_19709" x1="87.0077" y1="325.841" x2="87.0077" y2="276.591" gradientUnits="userSpaceOnUse">
<stop stop-color="#B080F2"/>
<stop offset="1" stop-color="#C26DFA"/>
</linearGradient>
<linearGradient id="paint17_linear_452_19709" x1="85.5161" y1="322.193" x2="85.5161" y2="284.551" gradientUnits="userSpaceOnUse">
<stop stop-color="#4949F1"/>
<stop offset="1" stop-color="#5F25F9"/>
</linearGradient>
<linearGradient id="paint18_linear_452_19709" x1="94.2998" y1="309.922" x2="94.2998" y2="286.707" gradientUnits="userSpaceOnUse">
<stop stop-color="#5F50F1"/>
<stop offset="1" stop-color="#916DFA"/>
</linearGradient>
<linearGradient id="paint19_linear_452_19709" x1="18.7273" y1="90.0415" x2="18.7273" y2="47.9226" gradientUnits="userSpaceOnUse">
<stop stop-color="#916DFA"/>
<stop offset="1" stop-color="#5F50F1"/>
</linearGradient>
<linearGradient id="paint20_linear_452_19709" x1="19.8874" y1="70.3086" x2="24.032" y2="72.9597" gradientUnits="userSpaceOnUse">
<stop stop-color="#8A82FA"/>
<stop offset="1" stop-color="#B185F3"/>
</linearGradient>
<linearGradient id="paint21_linear_452_19709" x1="36.1289" y1="199.318" x2="61.8251" y2="215.556" gradientUnits="userSpaceOnUse">
<stop stop-color="#8A82FA"/>
<stop offset="0.49" stop-color="#BD89F7"/>
<stop offset="1" stop-color="#F0C7F5"/>
</linearGradient>
<radialGradient id="paint22_radial_452_19709" cx="0" cy="0" r="1" gradientUnits="userSpaceOnUse" gradientTransform="translate(49.2215 204.956) scale(12.2639 12.2708)">
<stop stop-color="#4371AE"/>
<stop offset="1" stop-color="white"/>
</radialGradient>
<linearGradient id="paint23_linear_452_19709" x1="87.7359" y1="67.2355" x2="99.0041" y2="75.6682" gradientUnits="userSpaceOnUse">
<stop stop-color="#8A82FA"/>
<stop offset="0.49" stop-color="#BD89F7"/>
<stop offset="1" stop-color="#F0C7F5"/>
</linearGradient>
<radialGradient id="paint24_radial_452_19709" cx="0" cy="0" r="1" gradientUnits="userSpaceOnUse" gradientTransform="translate(93.6234 70.3948) rotate(4.8227) scale(5.6348 5.63793)">
<stop stop-color="#4371AE"/>
<stop offset="1" stop-color="white"/>
</radialGradient>
<linearGradient id="paint25_linear_452_19709" x1="212.796" y1="277.255" x2="186.611" y2="276.758" gradientUnits="userSpaceOnUse">
<stop stop-color="#8766F7"/>
<stop offset="1" stop-color="#5147AC"/>
</linearGradient>
<radialGradient id="paint26_radial_452_19709" cx="0" cy="0" r="1" gradientUnits="userSpaceOnUse" gradientTransform="translate(122.308 211.589) scale(27.6767 27.6923)">
<stop stop-color="#FFFFE7"/>
<stop offset="0.2" stop-color="#BBBBA9"/>
<stop offset="0.42" stop-color="#79796D"/>
<stop offset="0.61" stop-color="#45453E"/>
<stop offset="0.78" stop-color="#1F1F1C"/>
<stop offset="0.91" stop-color="#080807"/>
<stop offset="1"/>
</radialGradient>
<radialGradient id="paint27_radial_452_19709" cx="0" cy="0" r="1" gradientUnits="userSpaceOnUse" gradientTransform="translate(199.703 275.099) scale(10.9381 10.9443)">
<stop stop-color="#4371AE"/>
<stop offset="1" stop-color="white"/>
</radialGradient>
<linearGradient id="paint28_linear_452_19709" x1="71.7606" y1="151.064" x2="143.047" y2="196.131" gradientUnits="userSpaceOnUse">
<stop stop-color="#8A82FA"/>
<stop offset="0.14" stop-color="#9082F9"/>
<stop offset="0.34" stop-color="#A485F8"/>
<stop offset="0.53" stop-color="#BD89F7"/>
<stop offset="1" stop-color="#F0C7F5"/>
</linearGradient>
<linearGradient id="paint29_linear_452_19709" x1="72.5892" y1="160.682" x2="143.853" y2="160.682" gradientUnits="userSpaceOnUse">
<stop stop-color="#4371AE"/>
<stop offset="1" stop-color="white"/>
</linearGradient>
<linearGradient id="paint30_linear_452_19709" x1="219.425" y1="38.8024" x2="254.571" y2="61.0047" gradientUnits="userSpaceOnUse">
<stop stop-color="#7A5FFA"/>
<stop offset="0.49" stop-color="#9971F7"/>
<stop offset="1" stop-color="#C8ADF4"/>
</linearGradient>
<linearGradient id="paint31_linear_452_19709" x1="218.762" y1="47.7568" x2="252.239" y2="47.7568" gradientUnits="userSpaceOnUse">
<stop stop-color="#4371AE"/>
<stop offset="1" stop-color="white"/>
</linearGradient>
<linearGradient id="paint32_linear_452_19709" x1="196.886" y1="177.43" x2="283.728" y2="177.43" gradientUnits="userSpaceOnUse">
<stop stop-color="#7153AE"/>
<stop offset="1" stop-color="white"/>
</linearGradient>
<radialGradient id="paint33_radial_452_19709" cx="0" cy="0" r="1" gradientUnits="userSpaceOnUse" gradientTransform="translate(278.764 310.557) rotate(10.2456) scale(53.3657 53.3938)">
<stop stop-color="#ECB6DF"/>
<stop offset="0.23" stop-color="#E9B5DF"/>
<stop offset="0.35" stop-color="#E2B2E2"/>
<stop offset="0.43" stop-color="#D4ACE7"/>
<stop offset="0.51" stop-color="#C2A5EE"/>
<stop offset="0.58" stop-color="#A79BF8"/>
<stop offset="0.64" stop-color="#A194F8"/>
<stop offset="0.72" stop-color="#9180F8"/>
<stop offset="0.82" stop-color="#7661F8"/>
<stop offset="0.92" stop-color="#563AF9"/>
<stop offset="0.99" stop-color="#7398FB"/>
</radialGradient>
<linearGradient id="paint34_linear_452_19709" x1="325.194" y1="297.704" x2="291.115" y2="320.752" gradientUnits="userSpaceOnUse">
<stop stop-color="#4900AD"/>
<stop offset="1" stop-color="#E3BEFC"/>
</linearGradient>
<linearGradient id="paint35_linear_452_19709" x1="331.107" y1="316.625" x2="289.369" y2="296.333" gradientUnits="userSpaceOnUse">
<stop stop-color="#5F50F1"/>
<stop offset="1" stop-color="#916DFA"/>
</linearGradient>
<linearGradient id="paint36_linear_452_19709" x1="318.98" y1="320.483" x2="282.365" y2="308.211" gradientUnits="userSpaceOnUse">
<stop stop-color="#3930BC"/>
<stop offset="1" stop-color="#5636BF"/>
</linearGradient>
<linearGradient id="paint37_linear_452_19709" x1="317.928" y1="322.579" x2="281.941" y2="310.517" gradientUnits="userSpaceOnUse">
<stop stop-color="#5949F1"/>
<stop offset="1" stop-color="#7E51FA"/>
</linearGradient>
<linearGradient id="paint38_linear_452_19709" x1="289.194" y1="330.077" x2="301.01" y2="294.865" gradientUnits="userSpaceOnUse">
<stop stop-color="#7153AE"/>
<stop offset="1" stop-color="white"/>
</linearGradient>
<linearGradient id="paint39_linear_452_19709" x1="134.903" y1="17.4113" x2="186.114" y2="17.4113" gradientUnits="userSpaceOnUse">
<stop stop-color="#7153AE"/>
<stop offset="1" stop-color="white"/>
</linearGradient>
<clipPath id="clip0_452_19709">
<rect width="324" height="360" fill="white"/>
</clipPath>
</defs>
</svg>
