<svg width="360" height="348" viewBox="0 0 360 348" fill="none" xmlns="http://www.w3.org/2000/svg">
<g clip-path="url(#clip0_452_19760)">
<path fill-rule="evenodd" clip-rule="evenodd" d="M354.416 172.452C354.416 189.077 352.117 205.051 347.682 220.21C338.814 250.69 321.898 277.748 299.069 298.775C282.81 313.771 263.595 325.832 242.409 333.819C223.193 340.991 202.5 345.066 180.657 345.066C177.536 345.066 174.416 345.066 171.46 344.74C166.861 344.577 162.427 344.088 157.993 343.599C124.489 339.198 93.9416 325.343 69.1423 304.806C59.781 297.145 51.4051 288.506 44.0146 279.052C38.4306 271.88 33.3394 264.382 28.7408 256.395C27.7554 254.439 26.6058 252.646 25.6204 250.69C25.6204 250.69 25.6204 250.69 25.6204 250.527C24.635 248.408 23.4854 246.452 22.6642 244.333C19.708 237.814 17.0803 230.968 14.9452 223.959C13.3029 218.906 11.989 213.69 10.8394 208.474C10.0182 204.725 9.36128 201.139 8.86858 197.39C7.71895 189.403 7.06201 181.253 7.06201 172.941C7.06201 168.214 7.22625 163.324 7.71895 158.76C7.88318 155.826 8.21165 152.892 8.70435 149.795C11.0036 132.843 15.7664 116.706 22.6642 101.548C26.1131 94.2127 29.8905 87.0408 34.3248 80.1949C41.5511 68.785 50.2554 58.3532 59.781 49.0623C90.6569 18.5817 133.358 0 180.493 0C182.299 0 184.106 0 185.912 0C187.883 0 189.854 0 191.825 0.325995C201.843 0.977986 211.533 2.44496 221.058 4.72693C226.642 6.03091 231.898 7.49789 237.317 9.45386C240.931 10.5948 244.38 12.0618 247.993 13.5288C250.62 14.6698 253.084 15.8108 255.712 16.9518C256.204 17.1148 256.533 17.2778 257.025 17.6037C273.942 25.7536 289.215 36.5115 302.518 49.5513C304.489 51.3443 306.296 53.3002 308.102 55.2562C309.252 56.5602 310.566 57.8642 311.715 59.3312C313.686 61.6131 315.657 63.8951 317.628 66.34C324.526 75.1419 330.602 84.4328 335.693 94.3756C341.606 105.948 346.369 118.336 349.489 131.213C352.774 144.579 354.58 158.434 354.58 172.778L354.416 172.452Z" fill="url(#paint0_radial_452_19760)"/>
<g style="mix-blend-mode:multiply" opacity="0.4">
<path fill-rule="evenodd" clip-rule="evenodd" d="M6.73352 172.452C6.73352 172.452 47.7919 244.659 87.3722 255.906C126.952 267.153 172.281 259.981 187.719 265.686C203.157 271.391 211.533 294.863 211.533 294.863L217.281 298.123C217.281 298.123 230.584 277.748 238.631 289.81C238.631 289.81 235.347 272.695 245.201 251.994C254.89 231.294 261.46 208.963 273.449 201.791C285.438 194.619 307.609 191.359 325.018 198.205C342.427 205.051 351.624 203.747 351.624 203.747L352.938 195.597L354.252 188.425C354.252 188.425 337.5 191.033 324.033 182.557C324.033 182.557 325.839 185.817 336.35 166.421C346.861 147.024 345.547 129.746 345.547 129.746L344.069 113.772C344.069 113.772 338.485 169.518 314.836 185.654C314.836 185.654 262.117 174.896 239.781 236.673C239.781 236.673 236.004 278.074 213.832 276.77C191.661 275.629 199.38 248.571 167.354 248.245C135.328 247.919 115.949 260.959 84.2518 243.029C52.5547 224.937 6.73352 172.452 6.73352 172.452Z" fill="#7971AE"/>
</g>
<g style="mix-blend-mode:multiply" opacity="0.4">
<path fill-rule="evenodd" clip-rule="evenodd" d="M171.296 344.74C171.296 344.74 193.139 312.304 217.281 312.467C241.423 312.63 252.591 321.268 271.478 310.348C290.529 299.264 298.412 292.418 307.117 286.55C315.821 280.682 317.299 278.726 317.299 278.726L321.241 273.51C321.241 273.51 307.938 267.153 296.113 276.444C284.288 285.898 263.102 307.251 246.35 307.088C229.434 307.088 230.255 297.308 211.369 304.969C192.482 312.467 152.573 339.198 152.573 339.198C152.573 339.198 159.799 344.414 171.131 344.74H171.296Z" fill="#7971AE"/>
</g>
<g style="mix-blend-mode:multiply" opacity="0.4">
<path fill-rule="evenodd" clip-rule="evenodd" d="M16.2592 229.012L18.3942 234.717C18.3942 234.717 52.2263 253.298 73.7409 279.052C95.0913 304.969 99.0329 322.409 99.0329 322.409C99.0329 322.409 102.81 307.088 84.4161 278.074C66.0219 249.06 26.2774 233.25 16.4234 229.012H16.2592Z" fill="#7971AE"/>
</g>
<path fill-rule="evenodd" clip-rule="evenodd" d="M256.697 17.4407C256.697 17.4407 255.547 17.4407 255.055 17.6037C253.084 17.9297 251.606 17.7667 249.635 17.2778C248.321 16.9518 247.172 16.2998 245.858 16.1368C243.723 15.8108 241.752 14.8328 239.617 14.6698C237.318 14.3438 235.511 13.5288 233.376 12.7138C231.734 12.0618 230.912 12.3878 229.27 12.7138C227.628 13.2028 226.478 12.5508 225.164 11.8988C223.522 11.2468 222.044 11.0838 220.237 10.7578C215.803 9.77986 211.533 8.47588 207.099 7.33489C204.307 6.6829 201.843 6.6829 199.051 6.6829C196.916 6.6829 194.945 7.33489 192.81 7.33489C191.332 7.33489 190.182 7.1719 188.704 6.8459C187.226 6.51991 185.748 6.8459 184.27 6.6829C182.135 6.35691 180.821 6.03091 178.686 6.6829C177.044 7.1719 175.73 7.1719 174.088 7.1719C172.281 7.1719 170.146 7.66089 168.339 8.14988C165.055 8.96487 161.606 9.45386 158.157 9.45386C156.186 9.45386 153.066 8.96487 151.095 9.45386C149.781 9.94286 149.124 11.2468 148.303 12.2248C146.661 14.0178 144.526 15.4848 143.047 17.4407C141.569 19.3967 140.091 21.3527 140.091 23.7977C140.091 25.9166 141.241 28.3616 142.062 30.3176C143.047 32.4365 143.376 34.2295 141.241 35.6965C138.613 37.4895 135.493 39.1194 132.372 39.9344C130.401 40.5864 128.431 40.9124 126.788 39.4454C126.131 38.9564 125.803 37.8155 124.982 37.4895C124.161 37.0005 123.339 37.4895 122.518 37.8155C120.383 38.4674 118.248 39.1194 116.113 39.4454C114.799 39.6084 113.65 40.4234 112.336 40.5864C110.693 40.9124 109.544 39.7714 107.901 40.0974C105.602 40.5864 103.303 41.5644 100.839 41.7274C99.1971 41.7274 96.8978 41.0754 95.5839 40.2604C94.7628 39.7714 94.5985 39.2824 93.6131 39.6084C92.792 39.7714 91.6423 40.7494 91.1496 41.4014C90.6569 42.2164 90.3285 43.1944 89.8358 44.1724C89.1788 45.1503 88.6861 45.9653 88.1934 46.9433C87.208 48.8993 86.0584 50.6923 84.7445 52.3222C83.7591 53.4632 83.2664 55.0932 82.281 56.2342C81.7883 56.8862 80.6387 57.2122 79.9817 57.7012C78.1752 59.0051 76.2044 60.1461 74.562 61.4501C71.1131 64.0581 67.9927 66.992 64.5438 69.6C61.916 71.556 58.3029 72.697 55.1825 73.8379C53.3759 74.6529 51.4051 75.1419 49.4343 75.9569C48.7774 76.1199 47.792 76.4459 47.135 76.9349C46.4781 77.4239 46.1496 78.5649 45.4927 79.3799C43.8504 81.3358 42.208 83.2918 40.8941 85.5738C40.073 86.8777 39.7445 88.1817 39.2518 89.6487C38.5949 91.6047 37.6095 93.3977 36.7883 95.3536C35.4744 99.4286 35.146 103.667 33.6679 107.741C32.8467 110.186 31.5328 112.305 30.3832 114.424C28.5766 118.01 28.2482 122.411 27.7555 126.486C27.427 128.931 27.5912 131.539 27.9197 133.821C28.4124 136.266 28.2482 138.874 28.2482 141.482C28.2482 144.253 26.4416 146.861 24.7993 148.817C23.1569 150.773 20.8577 151.425 19.0511 153.055C17.573 154.522 15.7664 156.152 15.1095 158.108C14.781 159.086 15.1095 160.064 14.9452 161.042C14.6168 163.161 13.9598 165.117 13.6314 167.399C13.3029 170.007 13.3029 172.615 13.3029 175.222C13.3029 176.526 13.3029 177.993 13.3029 179.297C13.3029 180.601 13.7956 181.742 13.9598 183.046C13.9598 184.024 13.9598 184.839 13.9598 185.817C14.1241 186.795 14.4525 187.936 14.781 188.914C15.4379 191.359 15.7664 193.641 16.2591 196.086C16.7518 198.368 17.573 200.487 18.2299 202.606C19.2153 205.54 19.8723 208.637 20.365 211.571C20.8577 213.853 20.8577 216.135 21.1861 218.58C21.5146 220.373 21.8431 222.329 22.0073 224.122C22.0073 226.893 21.3504 229.827 21.3504 232.598C21.3504 237.325 23.3212 242.215 24.3066 246.778C24.635 248.082 24.9635 249.386 25.292 250.69C13.3029 227.219 6.56934 200.813 6.56934 172.778C6.56934 138.711 16.5876 106.926 33.6679 80.1948C40.8941 68.785 49.5985 58.3532 59.1241 49.0623C90.6569 18.5817 133.358 0 180.493 0C184.27 0 188.047 0 191.825 0.325995C214.982 1.79297 236.989 7.82389 256.697 17.4407Z" fill="url(#paint1_linear_452_19760)"/>
<g style="mix-blend-mode:multiply" opacity="0.4">
<path fill-rule="evenodd" clip-rule="evenodd" d="M49.27 75.7939C49.27 75.7939 88.3576 110.512 140.091 111.49C191.661 112.468 210.876 109.045 228.12 90.1377C245.365 71.23 263.759 38.9564 263.759 38.9564C263.759 38.9564 241.752 49.5513 226.478 70.089C211.204 90.6267 139.106 125.834 49.4343 75.7939H49.27Z" fill="#7971AE"/>
</g>
<g opacity="0.7">
<g style="mix-blend-mode:multiply" opacity="0.4">
<path fill-rule="evenodd" clip-rule="evenodd" d="M52.3905 76.7719C47.2993 82.8028 42.865 88.9967 39.416 96.0056C36.2956 102.363 35.3102 109.371 34.1606 116.217C33.5036 120.292 32.8467 124.367 32.354 128.442C31.8613 132.028 30.7117 135.94 31.3686 139.526C32.1898 144.416 32.5182 149.958 34.8175 154.522C37.4452 159.412 40.073 163.65 43.3577 167.888C46.6423 172.126 50.7482 173.918 56.0036 174.407C58.9598 174.57 61.7518 174.244 64.708 174.407C68.8139 174.896 72.7555 175.711 76.8613 176.363C84.9087 177.667 94.1058 177.667 100.018 171.148C104.781 165.769 106.916 159.086 110.036 152.729C113.321 145.883 117.263 140.341 123.339 135.614C127.774 132.191 131.715 128.442 135.821 124.856C137.792 123.226 138.942 121.433 141.077 120.292C143.212 119.151 144.361 117.847 146.332 116.054C147.974 114.587 150.109 113.446 151.588 111.653C154.051 108.882 155.858 105.133 157.172 101.711C158.485 98.1246 159.142 94.3756 159.635 90.6267C160.128 86.8777 158.978 83.2918 157.828 79.7058C155.693 73.0229 149.945 68.785 144.526 64.7101C137.792 59.6571 129.909 57.3752 121.697 55.7452C114.142 54.2782 105.109 53.9522 97.719 55.2562C89.8358 56.7232 81.6241 57.8642 74.2336 61.2871C68.8139 63.7321 65.5292 67.318 61.0949 70.904C58.7956 72.8599 56.1679 74.0009 54.1971 76.1199C51.4051 79.0539 48.7774 82.1508 52.3905 76.9349V76.7719Z" fill="#7971AE"/>
</g>
<g style="mix-blend-mode:multiply" opacity="0.4">
<path fill-rule="evenodd" clip-rule="evenodd" d="M131.058 44.6614C132.208 42.8684 133.358 40.0974 134.836 38.3044C135.657 37.3265 136.642 36.6745 137.628 35.8595C140.584 33.4145 143.704 31.4585 147.482 30.3176C149.453 29.6656 151.752 29.6656 153.723 30.3176C155.858 30.8066 159.471 32.2735 161.113 33.7405C164.069 36.5115 162.099 41.2384 161.113 44.4984C160.292 47.7583 159.142 50.8553 156.186 52.9742C154.215 54.2782 151.916 55.4192 149.617 55.9082C148.303 56.2342 146.989 56.0712 145.675 56.2342C144.69 56.2342 143.704 56.5602 142.555 56.5602C140.091 56.5602 136.478 54.9302 135.493 52.4852C135 51.3443 134.672 50.0403 134.179 48.7363C133.686 47.7583 133.358 46.7803 133.029 45.9653C132.372 44.1724 131.715 42.5424 130.894 44.4984L131.058 44.6614Z" fill="#7971AE"/>
</g>
<g style="mix-blend-mode:multiply" opacity="0.4">
<path fill-rule="evenodd" clip-rule="evenodd" d="M159.799 63.0801C159.142 65.0361 158.65 66.992 158.65 68.948C159.471 69.437 159.799 70.578 160.785 71.067C161.606 71.556 162.591 71.393 163.577 71.393C165.383 71.393 167.026 71.393 167.354 69.274C167.682 67.481 165.876 66.014 164.562 65.0361C163.577 64.3841 161.606 62.5911 160.456 64.0581L159.964 63.0801H159.799Z" fill="#7971AE"/>
</g>
<g style="mix-blend-mode:multiply" opacity="0.4">
<path fill-rule="evenodd" clip-rule="evenodd" d="M183.942 91.1157C181.642 92.7457 179.179 94.2126 177.044 95.8426C174.252 97.9616 172.117 100.733 169.982 103.504C167.354 106.926 164.234 110.512 164.89 115.076C165.547 119.64 167.026 123.389 170.474 126.323C174.58 129.746 180.657 129.746 185.42 132.028C189.361 133.984 191.989 137.896 193.96 141.808C197.08 147.513 203.321 148.654 209.234 149.632C213.011 150.284 216.788 150.936 220.566 151.425C225.657 152.077 230.748 153.055 236.004 153.544C245.529 154.522 255.055 156.641 264.58 155.826C274.763 155.011 283.796 151.425 292.172 145.72C299.234 140.83 305.639 132.354 307.445 123.878C309.416 115.076 306.46 105.133 302.19 97.4726C296.606 87.3667 290.036 78.0759 282.81 69.111C278.869 64.2211 274.27 59.6571 270.164 54.7672C266.715 50.5293 262.938 46.6173 258.668 43.0314C249.307 35.0445 237.482 28.3616 224.836 27.7096C220.073 27.3836 215.146 28.1986 210.547 29.8286C206.606 31.2955 203.65 33.5775 200.693 36.6745C193.139 44.3354 189.197 54.1152 186.077 64.0581C184.599 68.622 183.12 73.8379 183.777 78.7279C183.942 80.1948 184.763 81.3358 184.763 82.8028C184.763 84.1068 184.763 85.4108 184.763 86.7148C184.763 87.5297 184.763 88.0187 184.599 88.6707C184.106 89.8117 183.12 90.7897 183.942 90.9527V91.1157Z" fill="#7971AE"/>
</g>
<g style="mix-blend-mode:multiply" opacity="0.4">
<path fill-rule="evenodd" clip-rule="evenodd" d="M144.033 125.182C139.106 127.953 134.179 130.235 130.566 134.799C129.909 135.614 128.923 136.592 129.252 137.57C129.58 138.711 131.058 139.526 132.044 139.852C135.657 141.319 140.091 142.134 144.033 141.319C147.482 140.667 152.08 138.222 154.051 135.125C156.515 131.213 153.723 124.693 148.631 125.019C147.81 125.019 147.317 125.508 146.496 125.508C145.839 125.508 145.182 125.508 144.69 125.508C144.033 125.508 143.869 125.671 143.212 125.834C142.555 126.16 141.734 126.812 143.869 125.019L144.033 125.182Z" fill="#7971AE"/>
</g>
<g style="mix-blend-mode:multiply" opacity="0.4">
<path fill-rule="evenodd" clip-rule="evenodd" d="M43.5219 191.848C41.5511 193.641 39.5803 194.945 38.4306 197.39C37.281 199.672 36.6241 201.791 36.1314 204.236C35.6387 206.355 35.146 208.474 35.6387 210.756C36.1314 212.712 36.9525 214.505 37.6095 216.461C38.4306 218.906 39.2518 221.188 39.7445 223.633C40.4014 226.73 41.5511 229.501 43.0292 232.272C44.343 235.043 45.9854 237.814 47.6277 240.422C49.4343 243.192 51.4051 245.311 53.7043 247.593C61.5876 255.743 71.2773 264.382 83.1022 266.012C89.0146 266.827 95.2554 265.197 99.6898 260.959C104.453 256.395 107.573 249.712 108.558 243.192C109.38 237.651 108.887 231.946 105.766 227.056C103.303 223.144 100.675 219.069 97.5547 215.809C95.4197 213.527 92.9562 211.571 90.8211 209.615C88.5219 207.496 86.3868 205.377 83.9233 203.584C79.489 200.487 75.3832 197.064 70.9489 193.967C67.0073 191.196 62.7372 188.099 57.8102 186.958C54.5255 186.143 50.7481 185.491 47.4635 186.795C45.9854 187.284 45 187.773 44.1788 189.077C43.8503 189.729 43.0292 190.87 42.8649 191.522C42.8649 191.522 42.5365 191.522 43.3576 192.011L43.5219 191.848Z" fill="#7971AE"/>
</g>
<g style="mix-blend-mode:multiply" opacity="0.4">
<path fill-rule="evenodd" clip-rule="evenodd" d="M74.562 184.024C74.562 185.491 74.8905 186.795 75.0547 188.262C75.0547 188.751 75.2189 189.24 75.3832 189.566C75.7116 189.892 76.697 190.055 77.0255 190.055C78.5036 190.055 79.9817 189.403 81.1313 188.588C82.7737 187.284 83.5948 184.187 81.9525 182.72C80.6386 181.416 78.9963 181.09 77.354 181.416C76.3686 181.579 72.5912 183.698 74.0693 185.002L74.562 184.024Z" fill="#7971AE"/>
</g>
<g style="mix-blend-mode:multiply" opacity="0.4">
<path fill-rule="evenodd" clip-rule="evenodd" d="M307.281 146.209C307.938 143.112 307.938 141.156 309.909 138.874C311.551 136.918 313.358 134.962 315 133.006C317.956 129.257 319.763 124.856 320.912 120.129C321.898 116.054 320.912 112.142 322.719 108.067C323.212 107.089 323.704 105.296 324.69 104.97C325.675 104.481 327.482 104.97 328.303 105.459C329.124 105.948 329.945 107.089 330.766 107.578C332.08 108.719 333.066 109.86 334.215 111.164C339.964 117.358 343.248 126.812 343.084 135.125C343.084 140.015 342.591 144.579 340.785 149.306C340.128 151.262 339.471 152.892 338.321 154.685C337.007 156.804 335.529 158.108 333.394 159.412C327.318 163.161 318.613 161.857 313.686 157.13C311.88 155.337 310.894 153.055 309.745 150.936C308.759 149.306 307.938 147.839 307.609 145.883C307.609 145.883 307.281 145.883 307.281 146.209Z" fill="#7971AE"/>
</g>
<g style="mix-blend-mode:multiply" opacity="0.4">
<path fill-rule="evenodd" clip-rule="evenodd" d="M307.281 81.4988C308.266 84.9218 308.759 88.5077 312.208 90.3007C312.865 90.6267 314.014 91.1157 314.836 91.1157C315.657 91.1157 316.314 90.6267 316.971 90.1377C320.584 87.5297 318.449 81.3358 315.985 78.5649C314.507 76.9349 312.865 76.4459 310.894 75.7939C309.909 75.4679 310.237 75.4679 309.416 75.7939C308.759 76.1199 308.431 76.2829 308.102 76.7719C307.774 77.2609 307.609 78.0759 307.609 78.5649C307.609 79.2169 307.445 79.5428 307.281 80.0318C306.952 81.1728 307.281 82.1508 307.609 83.1288L307.117 81.3358L307.281 81.4988Z" fill="#7971AE"/>
</g>
<g style="mix-blend-mode:multiply" opacity="0.4">
<path fill-rule="evenodd" clip-rule="evenodd" d="M279.854 221.677C279.033 223.959 278.212 226.404 277.226 228.523C276.077 230.968 275.091 233.25 274.106 235.695C271.478 242.052 270 248.571 268.193 255.254C266.387 262.263 265.237 269.272 264.416 276.607C264.088 280.356 263.431 283.779 263.595 287.528C263.595 290.136 263.595 293.396 264.58 296.004C265.237 297.634 266.715 299.916 268.358 300.731C270.493 301.709 273.285 299.916 275.091 298.938C282.153 295.515 288.23 290.136 293.814 284.757C299.398 279.378 304.982 274.325 309.58 268.131C311.715 265.36 314.015 262.426 315.821 259.492C317.299 256.884 318.285 254.113 319.599 251.505C320.912 249.06 321.734 246.452 322.883 244.007C324.361 240.911 325.675 237.814 326.661 234.717C328.631 228.523 330.274 222.329 328.139 215.972C326.332 210.593 321.734 206.518 316.15 205.214C313.193 204.562 309.745 203.747 306.624 203.91C303.504 204.073 300.219 205.051 297.427 206.192C294.964 207.17 292.5 208.311 290.201 209.778C288.887 210.593 288.066 211.734 287.08 212.712C285.438 214.505 283.796 216.461 282.482 218.58C281.825 219.721 281.168 220.21 280.347 221.188C279.197 222.492 278.704 224.285 280.018 221.84L279.854 221.677Z" fill="#7971AE"/>
</g>
<g style="mix-blend-mode:multiply" opacity="0.4">
<path fill-rule="evenodd" clip-rule="evenodd" d="M252.591 301.22C248.978 302.524 245.858 303.991 242.737 306.273C238.96 309.044 235.511 311.815 232.719 315.726C231.734 317.193 229.763 319.475 231.241 321.105C232.555 322.572 234.526 322.409 236.332 322.409C238.796 322.409 241.423 321.92 243.723 320.942C245.858 319.964 247.828 318.823 250.128 318.008C252.263 317.193 255.219 315.889 256.697 313.933C257.518 312.955 258.011 311.489 258.832 310.348C259.489 309.37 259.653 308.718 259.489 307.577C259.489 306.273 258.504 304.48 257.518 303.502C256.533 302.687 254.89 301.872 253.741 302.035C253.084 302.035 252.263 302.361 251.77 302.524C250.292 303.176 249.142 304.969 252.591 301.057V301.22Z" fill="#7971AE"/>
</g>
<g style="mix-blend-mode:multiply" opacity="0.4">
<path fill-rule="evenodd" clip-rule="evenodd" d="M247.828 280.193C247.007 277.422 246.186 275.303 246.515 272.532C246.679 270.087 246.679 267.968 247.993 265.686C248.485 264.708 250.128 261.774 251.277 261.285C251.606 261.285 252.755 261.285 253.084 261.285C254.89 261.448 256.04 263.893 256.533 265.523C257.19 268.131 256.697 271.065 256.697 273.836C256.697 275.955 256.369 277.748 255.712 279.704C255.055 281.334 253.905 281.171 252.263 281.171C250.62 281.171 250.128 280.682 248.978 279.704C248.485 279.378 247.993 279.215 247.5 278.889C247.007 278.4 247.172 277.748 247.993 280.193H247.828Z" fill="#7971AE"/>
</g>
<g style="mix-blend-mode:multiply" opacity="0.4">
<path fill-rule="evenodd" clip-rule="evenodd" d="M244.708 171.148C244.38 173.104 244.215 175.059 244.38 176.852C245.036 176.852 245.858 178.156 246.679 178.319C247.993 178.645 249.307 177.83 250.292 177.015C252.427 175.222 253.084 171.963 252.591 169.355C252.098 166.747 249.142 166.584 247.007 166.747C246.35 166.747 245.201 167.236 244.708 167.725C243.394 168.866 243.23 170.17 243.394 171.963L244.708 170.985V171.148Z" fill="#7971AE"/>
</g>
<g style="mix-blend-mode:multiply" opacity="0.4">
<path fill-rule="evenodd" clip-rule="evenodd" d="M78.8321 289.81C79.9818 287.691 80.9672 285.572 82.6095 283.779C84.2518 281.823 86.2226 279.541 88.1934 277.911C90.657 275.629 93.4489 273.673 96.0767 271.717C98.5402 269.924 101.004 267.968 103.631 266.501C108.23 263.73 112.828 261.774 117.92 260.144C122.026 258.677 126.296 258.351 130.566 259.166C135 259.981 139.27 262.426 142.391 265.523C145.511 268.457 148.796 271.88 150.602 275.792C154.544 283.616 153.066 292.092 150.274 299.916C149.124 303.502 146.661 307.74 143.704 310.022C142.062 311.326 139.927 312.141 137.956 312.63C135.657 313.119 132.865 313.934 130.566 314.259C120.055 315.563 109.38 314.748 99.3613 311.163C95.4197 309.696 91.4781 307.903 87.865 306.11C84.9088 304.643 82.4453 302.85 80.3102 300.242C78.8321 298.286 77.5183 295.841 77.6825 293.396C77.6825 292.255 78.1752 291.277 78.1752 290.136C78.6679 290.136 79.1606 289.81 78.9964 290.136L78.8321 289.81Z" fill="#7971AE"/>
</g>
<g style="mix-blend-mode:multiply" opacity="0.4">
<path fill-rule="evenodd" clip-rule="evenodd" d="M157.5 294.374C156.843 296.33 156.35 298.286 156.186 300.242C156.843 300.568 156.843 301.872 157.336 302.524C157.993 303.176 158.65 303.665 159.471 303.665C160.456 303.665 161.442 303.665 162.427 303.665C163.905 303.502 164.234 302.85 164.891 301.872C165.712 300.731 165.876 300.242 165.876 298.612C165.876 297.471 165.547 296.33 164.891 295.515C164.398 295.026 163.741 294.048 163.084 293.722C161.77 292.744 160.62 293.233 159.307 294.048L157.5 294.537V294.374Z" fill="#7971AE"/>
</g>
<g style="mix-blend-mode:multiply" opacity="0.4">
<path fill-rule="evenodd" clip-rule="evenodd" d="M328.96 204.725C327.318 203.421 326.004 201.954 325.018 200.324C325.018 199.672 325.018 199.02 325.018 198.205C324.69 196.412 324.361 194.945 324.854 193.152C325.675 188.914 329.453 185.817 333.723 185.328C336.515 185.002 340.62 187.284 342.099 189.566C343.741 192.011 344.234 195.271 344.398 198.042C344.398 200.324 343.905 203.095 342.591 205.051C341.606 206.355 339.635 206.518 337.993 206.518C336.186 206.518 334.38 206.355 332.737 205.703C331.423 205.214 329.945 204.399 329.124 204.725H328.96Z" fill="#7971AE"/>
</g>
</g>
<path style="mix-blend-mode:screen" fill-rule="evenodd" clip-rule="evenodd" d="M77.5182 307.251C59.6167 292.255 44.6715 273.836 33.9963 252.809C27.2627 239.607 22.1715 225.589 19.051 210.756C16.5875 199.346 15.2737 187.284 15.2737 175.222C15.2737 141.156 25.2919 109.371 42.3722 82.6398C49.5985 71.23 58.3029 60.7981 67.8284 51.5073C99.197 21.1897 141.898 2.44496 189.033 2.44496C192.81 2.44496 196.588 2.44496 200.365 2.77096C212.19 3.58595 223.686 5.37892 234.69 8.47588C221.058 4.07494 206.77 1.30398 191.989 0.325995C188.212 0.162998 184.434 0 180.657 0C133.358 0 90.6569 18.5817 59.2883 48.8993C49.5985 58.1902 41.0583 68.622 33.8321 80.0318C16.7518 106.763 6.73352 138.548 6.73352 172.615C6.73352 184.839 8.04739 196.738 10.5109 208.148C13.6313 222.981 18.7226 237.162 25.4561 250.201C36.1313 271.228 51.0766 289.647 68.978 304.643C88.0291 320.453 110.529 332.352 135.164 338.872C113.814 332.026 94.27 321.105 77.5182 307.088V307.251Z" fill="url(#paint2_radial_452_19760)"/>
<g style="mix-blend-mode:multiply" opacity="0.4">
<path fill-rule="evenodd" clip-rule="evenodd" d="M26.9343 154.033C26.9343 154.033 124.325 193.478 177.044 190.218C229.927 187.121 252.263 156.967 273.449 129.583C294.471 102.2 302.518 69.111 302.518 69.111C302.518 69.111 262.445 145.72 212.847 165.932L184.27 171.637C184.27 171.637 199.215 160.553 209.562 149.469C219.909 138.222 259.982 121.922 263.759 108.882C267.536 95.8426 267.044 74.3269 273.613 60.6351C280.182 46.9433 286.588 35.5335 286.588 35.5335L269.343 32.5995L261.296 51.3443C261.296 51.3443 258.996 82.6398 252.92 99.5916C246.679 116.543 186.569 162.998 172.938 170.659C159.307 178.482 39.4161 162.02 27.0986 153.707L26.9343 154.033Z" fill="#7971AE"/>
</g>
<g style="mix-blend-mode:soft-light">
<g style="mix-blend-mode:multiply" opacity="0.4">
<path fill-rule="evenodd" clip-rule="evenodd" d="M200.529 319.149C200.529 319.149 207.099 316.215 209.069 316.378C209.891 316.378 210.712 317.03 211.204 317.356C212.847 318.334 213.996 319.638 213.832 321.594C213.504 324.365 210.547 327.951 207.099 329.255C202.993 330.722 198.558 328.929 197.08 326.158C195.602 323.387 199.38 318.334 203.485 318.334L200.529 319.312V319.149Z" fill="#7971AE"/>
</g>
<path fill-rule="evenodd" clip-rule="evenodd" d="M119.069 147.513C116.77 151.425 111.022 158.597 112.828 164.139C113.65 166.584 115.292 169.029 116.277 171.311C119.234 177.504 125.146 183.698 132.537 179.134C140.748 174.081 137.135 164.954 133.686 158.271C132.372 155.826 130.401 152.729 127.938 151.425C126.46 150.61 124.161 149.795 122.682 149.632C119.891 149.143 121.861 147.35 119.069 147.676V147.513Z" fill="#A2DCFD"/>
<path fill-rule="evenodd" clip-rule="evenodd" d="M174.745 20.5377C174.416 22.4937 174.416 24.6126 174.58 26.5686C175.237 26.5686 175.73 27.0576 176.387 27.0576C177.208 27.0576 178.193 26.5686 178.85 26.0796C180.164 25.2646 180.821 23.4717 180.821 21.8417C180.821 20.3747 180.821 19.0707 179.179 18.0927C177.372 17.1147 175.73 17.7667 174.745 19.5597V20.5377Z" fill="#F9ED88"/>
<path fill-rule="evenodd" clip-rule="evenodd" d="M138.12 208.148C138.449 206.844 138.942 203.421 139.927 201.954C140.748 200.65 142.39 199.998 143.869 199.509C146.989 198.531 150.109 198.694 152.409 200.813C156.679 204.562 156.515 210.267 152.409 214.179C150.602 215.972 147.974 217.765 145.347 217.928C144.033 217.928 142.39 218.091 141.241 217.439C139.927 216.624 138.777 215.157 138.285 213.69C137.463 211.245 137.956 209.452 139.27 207.17L137.956 208.148H138.12Z" fill="#A2DCFD"/>
<path fill-rule="evenodd" clip-rule="evenodd" d="M106.095 206.355C106.095 208.311 104.945 212.712 107.737 213.69C109.051 214.179 110.529 212.386 110.693 211.245C110.858 210.104 110.693 208.311 110.365 207.333C109.708 205.703 108.23 204.725 106.916 206.355H105.931H106.095Z" fill="#A2DCFD"/>
<path fill-rule="evenodd" clip-rule="evenodd" d="M31.8613 172.778C32.0256 175.874 32.0256 180.275 33.9964 183.046C34.8175 184.187 35.4745 185.328 36.9526 185.654C38.2664 185.817 38.9234 185.165 39.7445 184.187C41.0584 182.557 41.2226 181.416 41.2226 179.297C41.2226 177.341 40.5657 175.385 39.7445 173.593C39.0876 172.289 38.1022 171.474 37.1168 170.496C36.2956 169.681 35.6387 169.518 34.3248 169.518C32.6825 169.681 32.6825 171.637 32.5183 173.267L32.0256 172.778H31.8613Z" fill="#A2DCFD"/>
<path fill-rule="evenodd" clip-rule="evenodd" d="M289.544 158.597C289.544 158.597 289.872 153.218 290.858 152.077C291.186 151.588 292.172 151.262 292.664 150.936C294.307 150.121 295.949 149.958 297.755 150.773C300.055 151.914 302.026 155.174 301.533 157.782C301.04 161.042 297.263 163.324 294.142 163.324C291.022 163.324 288.066 159.086 290.037 156.315L289.544 158.597Z" fill="#A2DCFD"/>
<path fill-rule="evenodd" clip-rule="evenodd" d="M110.858 199.509C110.858 199.509 111.022 196.738 111.515 196.249C111.679 196.086 112.172 195.923 112.5 195.76C113.321 195.434 114.142 195.271 114.963 195.76C116.113 196.249 117.099 197.879 116.934 199.183C116.606 200.813 114.799 201.954 113.157 201.954C111.515 201.954 110.201 199.835 111.022 198.531V199.672L110.858 199.509Z" fill="#A2DCFD"/>
<path fill-rule="evenodd" clip-rule="evenodd" d="M190.018 230.968C190.018 230.968 190.183 228.197 190.675 227.708C190.839 227.545 191.332 227.382 191.661 227.219C192.482 226.893 193.303 226.73 194.124 227.219C195.274 227.708 196.259 229.338 196.095 230.642C195.766 232.272 193.96 233.413 192.318 233.413C190.675 233.413 189.361 231.294 190.183 229.99V231.131L190.018 230.968Z" fill="#A2DCFD"/>
<path fill-rule="evenodd" clip-rule="evenodd" d="M243.558 91.9307C243.558 91.9307 243.723 89.1597 244.215 88.6707C244.38 88.5077 244.872 88.3447 245.201 88.1817C246.022 87.8557 246.843 87.6927 247.664 88.1817C248.814 88.6707 249.799 90.3007 249.635 91.6047C249.307 93.2347 247.5 94.3756 245.858 94.3756C244.215 94.3756 242.902 92.2567 243.723 90.9527V92.0937L243.558 91.9307Z" fill="#A2DCFD"/>
<path fill-rule="evenodd" clip-rule="evenodd" d="M134.507 293.722C134.507 293.722 134.672 290.951 135.164 290.462C135.328 290.299 135.821 290.136 136.15 289.973C136.971 289.647 137.792 289.484 138.613 289.973C139.763 290.462 140.748 292.092 140.584 293.396C140.255 295.026 138.449 296.167 136.807 296.167C135.164 296.167 133.85 294.048 134.672 292.744V293.885L134.507 293.722Z" fill="#A2DCFD"/>
<path fill-rule="evenodd" clip-rule="evenodd" d="M278.048 201.791C275.42 203.421 273.777 204.236 272.135 206.518C270.985 208.311 269.672 209.941 268.686 211.897C268.029 213.364 267.044 215.809 267.208 217.439C267.537 222.003 273.285 217.928 274.927 216.624C277.062 214.831 279.197 212.223 279.361 209.289C279.361 208.148 279.361 206.844 279.033 205.703C278.869 205.214 278.54 204.725 278.376 204.236C277.883 203.258 277.391 203.258 278.048 201.628V201.791Z" fill="#A2DCFD"/>
<path fill-rule="evenodd" clip-rule="evenodd" d="M333.723 221.514C333.887 219.558 332.901 226.73 333.394 227.056C334.051 227.056 334.708 227.056 335.365 227.056C336.186 227.056 336.515 226.404 337.172 225.915C338.65 224.774 339.635 224.122 339.799 222.166C339.799 220.536 339.471 219.558 337.993 219.069C337.336 218.906 337.007 218.58 336.186 218.743C334.544 219.232 333.558 220.536 332.901 221.84L333.887 221.351L333.723 221.514Z" fill="#A2DCFD"/>
<path fill-rule="evenodd" clip-rule="evenodd" d="M185.912 21.5157C185.912 20.2117 185.42 25.1016 185.584 25.2646C186.077 25.2646 186.569 25.2646 186.898 25.2646C187.555 25.2646 187.719 24.9386 188.212 24.4496C189.197 23.6347 189.854 23.3087 190.018 22.0047C190.018 20.8637 189.854 20.2117 188.704 19.8857C188.212 19.8857 188.047 19.5597 187.555 19.7227C186.569 20.0487 185.748 20.8637 185.255 21.8417L185.912 21.5157Z" fill="#F9ED88"/>
<path fill-rule="evenodd" clip-rule="evenodd" d="M280.183 162.183C280.183 160.879 279.69 165.769 279.854 165.932C280.347 165.932 280.84 165.932 281.168 165.932C281.825 165.932 281.989 165.606 282.482 165.117C283.467 164.302 284.124 163.976 284.288 162.672C284.288 161.531 284.124 160.879 282.975 160.553C282.482 160.553 282.318 160.227 281.825 160.39C280.839 160.716 280.018 161.531 279.526 162.509L280.183 162.183Z" fill="#F9ED88"/>
<path fill-rule="evenodd" clip-rule="evenodd" d="M180.821 296.493C182.135 296.493 177.208 296.33 177.044 296.493C177.044 296.982 177.044 297.471 177.044 297.797C177.044 298.449 177.537 298.449 177.865 298.938C178.686 299.753 179.179 300.405 180.493 300.405C181.642 300.405 182.299 300.079 182.464 298.938C182.464 298.449 182.792 298.286 182.464 297.634C181.971 296.656 181.15 296.004 180.164 295.678L180.493 296.33L180.821 296.493Z" fill="#F9ED88"/>
<path fill-rule="evenodd" clip-rule="evenodd" d="M101.825 148.491C101.825 147.187 101.332 152.077 101.496 152.24C101.989 152.24 102.482 152.24 102.81 152.24C103.467 152.24 103.631 151.914 104.124 151.425C105.109 150.61 105.766 150.284 105.931 148.98C105.931 147.839 105.766 147.187 104.617 146.861C104.124 146.861 103.96 146.535 103.467 146.698C102.482 147.024 101.661 147.839 101.168 148.817L101.825 148.491Z" fill="#F9ED88"/>
<path fill-rule="evenodd" clip-rule="evenodd" d="M178.193 281.823C178.358 279.867 177.372 287.039 177.865 287.365C178.522 287.365 179.179 287.365 179.836 287.365C180.657 287.365 180.985 286.713 181.642 286.224C183.12 285.083 184.106 284.431 184.27 282.475C184.27 280.845 183.942 279.867 182.464 279.378C181.807 279.215 181.478 278.889 180.657 279.052C179.015 279.541 178.029 280.845 177.372 282.149L178.358 281.66L178.193 281.823Z" fill="#A2DCFD"/>
</g>
<path fill-rule="evenodd" clip-rule="evenodd" d="M81.1314 168.377C137.464 177.178 134.015 192.011 199.38 174.244C264.745 156.641 311.551 59.0051 311.551 59.0051C311.551 59.0051 314.836 51.8333 312.044 47.5953C310.894 45.9653 302.354 49.3883 302.354 49.3883C303.832 80.6838 259.653 145.394 209.726 163.976C204.471 165.932 199.051 166.584 193.96 167.725C191.661 166.584 185.912 161.205 213.175 142.949C245.365 121.27 259.818 113.283 256.697 90.7897C253.741 68.296 282.318 32.7625 282.318 32.7625C282.318 32.7625 284.453 23.3087 279.033 17.4407C272.135 9.77985 256.697 17.4407 256.697 17.4407C256.697 17.4407 252.755 61.4501 196.423 85.2478C140.091 109.045 108.887 97.3096 87.208 90.7897C65.6934 84.2698 59.2883 48.8993 59.2883 48.8993C59.2883 48.8993 41.0584 45.1503 34.4891 56.7232C29.562 65.1991 36.6241 75.7939 36.6241 75.7939C36.6241 75.7939 70.6204 88.0187 101.168 99.5916C131.715 111.164 190.183 100.733 211.04 90.7897C231.898 80.8468 231.898 64.8731 248.65 50.5293C255.547 44.4984 262.445 40.4234 268.358 37.8155C268.358 37.8155 250.128 65.688 252.263 85.4108C254.398 105.133 241.916 104.319 211.204 138.874C189.69 163.161 170.967 170.822 161.77 173.267C138.285 175.385 116.77 172.778 87.5365 164.791C40.2372 152.077 11.8248 131.702 11.8248 131.702C11.8248 131.702 7.71898 129.746 6.07664 134.31C5.41971 136.266 9.68978 141.482 9.68978 141.482C9.68978 141.482 24.9635 159.575 81.1314 168.377Z" fill="url(#paint3_linear_452_19760)"/>
<path fill-rule="evenodd" clip-rule="evenodd" d="M120.712 333.656C120.712 333.656 106.916 325.017 96.4051 298.449C86.0584 271.88 87.3722 273.673 67.8285 256.884C48.2847 240.096 14.6168 223.796 14.6168 223.796C14.6168 223.796 12.3175 224.611 12.3175 225.263C12.3175 228.686 16.2591 229.175 16.2591 229.175C16.2591 229.175 47.792 242.54 67.6642 264.219C87.3722 285.898 108.723 324.202 93.6131 321.92C93.6131 321.92 97.062 331.537 104.945 333.819C112.993 336.101 120.712 333.819 120.712 333.819V333.656Z" fill="url(#paint4_radial_452_19760)"/>
<path d="M258.996 205.051C265.401 198.205 273.285 188.914 304.817 188.751C336.515 188.588 352.774 195.434 352.774 195.434C352.774 195.434 359.343 193.641 360 185.165C360.657 176.852 354.252 172.615 354.252 172.615C353.923 175.222 350.803 192.5 323.869 182.231C323.869 181.905 333.394 173.429 335.365 155.989C337.5 138.385 343.741 113.283 343.741 113.283C343.741 113.283 347.518 107.089 345.055 102.037C344.234 100.407 338.157 99.5916 338.157 99.5916C343.412 134.799 330.109 177.178 315.493 182.068C297.755 182.231 276.241 185.328 266.387 191.685C254.398 199.509 242.244 235.369 234.526 260.47C232.555 266.664 228.613 273.51 223.522 280.193C204.142 284.757 210.219 261.774 201.843 254.602C193.467 247.593 177.536 251.342 167.026 247.43C156.515 243.518 153.887 235.369 142.719 234.065C131.551 232.761 114.142 253.298 94.1058 244.822C74.2336 236.999 7.39049 158.271 7.39049 158.271C7.39049 158.271 1.31385 156.804 0.164211 161.042C-0.821191 164.302 6.73355 172.615 6.73355 172.615C6.73355 172.615 53.2116 242.378 97.7189 251.342C142.226 260.47 182.628 251.994 196.423 263.893C210.219 275.792 211.369 294.863 211.369 295.026C196.916 310.185 180 323.387 171.953 327.299C157.993 334.308 135.164 339.035 135.164 339.035C138.285 342.621 144.526 345.392 151.259 347.185C160.949 349.793 167.19 344.903 167.19 344.903C167.19 344.903 161.606 340.013 168.832 333.982C187.555 318.497 200.858 311.652 220.401 307.088C232.226 304.317 235.675 309.696 237.482 307.903C255.712 313.607 270 300.079 285.602 287.691C301.204 275.303 321.241 273.51 321.241 273.51C321.241 273.51 331.588 271.717 334.38 267.153C336.843 263.078 331.095 258.514 331.095 258.514C331.095 258.514 322.226 262.1 305.639 270.576C288.887 278.889 271.15 303.339 250.785 302.524C239.617 302.198 241.916 290.788 240.766 289.158C240.766 288.343 240.766 287.528 240.766 286.713C240.438 278.563 238.631 271.065 238.631 265.197C238.631 263.73 238.631 262.263 238.96 260.959C240.766 252.157 252.427 211.897 258.832 205.051H258.996ZM223.522 280.682C219.909 285.409 215.803 290.136 211.533 294.7L223.522 280.682ZM239.124 292.907C239.453 294.863 239.781 296.656 239.453 298.612C239.453 299.59 239.124 300.405 238.139 300.731C237.646 300.894 236.989 301.057 236.496 301.057C235.675 301.22 234.854 301.546 233.869 301.709C232.555 301.872 231.077 301.709 229.598 301.709C228.12 301.709 226.478 301.709 225.164 301.709C224.507 301.709 223.85 301.383 223.029 301.383C222.372 301.383 221.387 301.383 220.73 300.894C219.252 300.079 218.266 298.449 217.281 298.123C217.281 296.819 217.281 295.678 217.938 294.537C217.938 294.048 218.266 293.722 218.266 293.233C218.595 292.418 218.759 291.766 219.088 291.114C219.909 289.321 220.73 287.528 221.88 285.898C222.372 285.083 223.029 284.268 223.522 283.29C224.179 282.312 225 281.66 225.821 280.845C226.971 279.704 228.12 278.563 229.598 277.748C230.748 277.096 232.555 276.281 233.869 276.77C235.182 277.259 235.675 278.889 236.332 280.03C236.661 280.845 236.825 281.823 236.989 282.638C237.317 283.779 237.81 284.757 237.974 285.898C238.303 287.202 238.303 288.506 238.467 289.81C238.631 290.788 238.796 291.929 238.96 292.907H239.124Z" fill="url(#paint5_linear_452_19760)"/>
<path fill-rule="evenodd" clip-rule="evenodd" d="M41.2227 52.8112C41.2227 52.8112 49.1059 68.785 69.3066 83.2918C69.3066 83.2918 62.573 60.1461 57.8102 50.3663C57.8102 50.3663 51.2409 44.1724 41.3869 52.8112H41.2227Z" fill="#E9A82C"/>
<path fill-rule="evenodd" clip-rule="evenodd" d="M146.989 101.711C146.989 101.711 160.785 96.1686 164.89 98.2876C164.89 98.2876 151.752 101.874 146.989 101.711Z" fill="#E9A82C"/>
<path fill-rule="evenodd" clip-rule="evenodd" d="M192.81 89.1597C195.274 88.3447 197.737 87.6927 200.201 86.7148C202.336 85.8998 204.307 84.9218 206.442 83.7808C208.905 82.3138 211.533 80.8468 213.668 79.0539C214.325 78.5649 214.982 78.2389 215.639 77.9129C216.296 77.4239 217.117 76.9349 217.774 76.2829C218.431 75.7939 218.923 75.1419 219.416 74.6529C220.073 74.1639 220.566 73.6749 221.223 73.1859C222.208 72.371 223.358 71.556 224.343 70.578C224.836 70.089 225.328 69.6 225.657 69.274C225.985 68.948 226.314 68.948 226.642 68.785C226.642 69.111 226.478 69.763 226.314 70.089C225.985 70.741 225.657 71.23 225.164 71.882C224.343 73.3489 223.029 74.1639 222.044 75.4679C221.387 76.2829 220.401 76.9349 219.58 77.5869C218.266 78.4019 216.953 79.2169 215.639 79.8688C214.325 80.5208 212.847 81.0098 211.533 81.8248C210.219 82.4768 209.069 83.1288 207.755 83.7808C206.934 84.1068 206.113 84.7588 205.292 85.2478C204.635 85.7368 203.978 86.0628 203.157 86.5518C202.172 87.2037 201.186 87.6927 200.036 88.3447C199.544 88.6707 198.887 88.8337 198.394 89.1597C197.08 89.8117 195.602 90.3007 194.124 90.3007C193.631 90.3007 193.139 90.3007 192.646 90.1377C192.482 90.1377 191.989 89.9747 191.989 89.6487C192.317 89.6487 192.646 89.1597 192.974 89.3227L192.81 89.1597Z" fill="#E9A82C"/>
<path fill-rule="evenodd" clip-rule="evenodd" d="M229.763 65.5251C229.763 65.5251 228.613 66.34 228.12 66.829C228.12 67.155 227.956 67.644 228.613 67.644C229.27 67.644 229.763 67.155 230.255 66.666C230.42 66.3401 230.912 65.6881 230.748 65.3621C230.42 64.8731 229.434 65.5251 229.27 65.8511H229.927L229.763 65.5251Z" fill="#E9A82C"/>
<path fill-rule="evenodd" clip-rule="evenodd" d="M259.161 18.5817C259.161 18.5817 257.847 20.0487 257.518 20.8637C257.354 21.5157 257.025 22.1677 256.861 22.8197C256.369 24.1237 256.204 25.2646 255.712 26.5686C255.055 28.8506 254.398 31.1326 253.577 33.4145C253.084 34.3925 252.591 35.3705 252.263 36.3485C251.934 36.8375 251.606 37.3265 251.442 37.8155C251.277 38.3044 250.949 38.6304 250.785 39.1194C250.62 39.6084 250.456 39.9344 250.292 40.4234C249.963 40.9124 249.799 41.4014 249.471 41.8904C249.306 42.2164 248.321 43.3574 248.65 43.8464C248.978 43.8464 249.142 43.5204 249.307 43.3574C249.799 42.8684 250.456 42.3794 250.949 41.8904C251.934 40.9124 252.755 39.9344 253.741 38.9564C254.069 38.4674 254.398 37.9785 254.726 37.6525C255.219 37.0005 255.876 36.5115 256.369 35.8595C257.19 34.7185 258.011 33.7405 258.996 32.7625C259.489 32.2735 259.817 31.6215 260.146 31.1325C260.474 30.6436 260.967 30.3176 261.46 29.8286C262.774 28.3616 264.088 27.0576 265.401 25.5906C266.387 24.4496 267.372 23.1457 268.193 21.8417C268.85 20.8637 269.507 19.7227 270.164 18.7447C270.493 18.2557 270.985 17.2777 270.821 16.7888C270.493 16.1368 269.836 15.8108 269.179 15.8108C268.193 15.8108 266.88 15.6478 266.058 15.8108C265.073 16.1368 264.088 16.4628 263.102 16.9518C262.117 17.2777 261.46 17.9297 260.639 18.4187C259.982 18.7447 259.325 19.0707 259.653 18.9077L259.161 18.5817Z" fill="#E9A82C"/>
<path fill-rule="evenodd" clip-rule="evenodd" d="M268.193 39.2824C268.193 39.2824 267.536 40.9124 267.044 41.4014C266.715 41.8904 266.223 42.3794 265.894 43.0314C265.237 44.0094 264.744 44.9874 264.088 46.1283C263.102 47.9213 261.624 49.7143 260.803 51.6703C260.474 52.4852 260.146 53.1372 259.817 53.9522C259.489 54.7672 259.161 55.5822 258.996 56.3972C258.668 57.2122 258.668 58.0272 258.504 58.8422C258.504 59.4941 258.011 60.1461 258.175 60.7981C258.832 59.9831 259.325 59.0052 259.982 58.0272C260.474 57.3752 260.803 56.7232 261.296 56.2342C261.952 55.7452 262.281 55.0932 262.938 54.6042C263.431 54.1152 263.923 53.4632 264.416 52.8112C264.744 52.1593 265.073 51.5073 265.401 51.0183C265.73 50.5293 266.058 49.8773 266.387 49.2253C266.879 48.5733 267.208 47.9213 267.536 47.1063C268.029 45.6393 268.522 44.1724 268.85 42.7054C269.015 42.0534 269.179 41.0754 269.015 40.4234C269.015 39.9344 268.029 38.3045 268.193 39.1194V39.2824Z" fill="#E9A82C"/>
<path fill-rule="evenodd" clip-rule="evenodd" d="M256.204 62.9171C255.876 63.8951 255.547 64.8731 255.383 65.851C255.383 66.014 255.383 66.666 255.383 66.666C255.547 66.666 256.204 66.666 256.369 66.503C256.533 66.34 256.697 66.014 256.861 65.851C257.19 65.362 257.518 64.7101 257.354 64.0581C257.354 63.4061 256.697 62.9171 256.204 63.5691V62.9171Z" fill="#E9A82C"/>
<path fill-rule="evenodd" clip-rule="evenodd" d="M237.974 112.957C236.004 114.75 233.704 116.543 232.226 118.662C232.226 118.825 231.241 119.803 231.405 120.129C231.569 120.618 232.555 120.129 232.883 120.129C234.033 119.803 235.182 119.151 236.168 118.662C236.989 118.336 237.81 117.684 238.467 117.195C240.274 116.054 241.752 114.587 243.066 112.957C243.723 112.305 244.38 111.49 244.544 110.675C244.544 110.512 245.036 109.697 244.872 109.534C244.544 108.556 242.244 109.534 241.916 109.86C241.423 110.186 240.931 110.675 240.438 111.001C239.945 111.327 239.617 111.653 239.124 111.816C238.796 111.979 238.467 112.305 238.139 112.631C237.81 112.957 237.482 113.446 237.81 112.794L237.974 112.957Z" fill="#E9A82C"/>
<path fill-rule="evenodd" clip-rule="evenodd" d="M229.106 121.922C229.106 121.922 227.792 122.574 227.135 122.9C227.135 123.226 226.314 123.715 226.642 124.204C226.806 124.367 227.628 124.204 227.792 124.204C228.285 124.204 228.613 123.715 228.942 123.389C229.27 123.063 229.27 122.9 228.942 122.411V122.085L229.106 121.922Z" fill="#E9A82C"/>
<path fill-rule="evenodd" clip-rule="evenodd" d="M184.106 164.465C182.464 165.606 180.821 166.747 179.015 167.725C176.88 168.866 174.745 169.681 172.61 170.822C169.325 172.615 166.04 173.918 162.591 175.385C162.099 175.548 157.172 177.504 158.978 178.482C159.799 178.971 160.62 178.808 161.606 178.808C162.427 178.808 163.084 178.971 163.905 179.134C164.726 179.134 165.547 179.134 166.204 179.134C170.31 179.134 174.416 178.156 178.193 176.526C179.015 176.2 180 175.874 180.821 175.385C181.314 175.059 181.642 174.57 182.135 174.244C182.956 173.429 183.613 172.615 184.106 171.637C184.763 170.17 185.255 168.866 185.255 167.399C185.255 166.747 185.091 166.095 184.599 165.769C184.27 165.443 183.942 165.28 184.106 164.465Z" fill="#E9A82C"/>
<path fill-rule="evenodd" clip-rule="evenodd" d="M155.529 176.689C154.708 176.2 153.558 175.548 152.573 175.548C152.245 175.548 151.916 175.548 151.588 175.548C150.766 175.548 149.617 175.874 149.124 176.363C148.303 177.178 150.11 177.993 150.766 178.156C151.588 178.319 152.737 178.319 153.723 178.156C154.38 178.156 155.858 177.504 155.858 176.526C155.858 176.526 155.858 176.526 156.022 176.526H155.529V176.689Z" fill="#E9A82C"/>
<path fill-rule="evenodd" clip-rule="evenodd" d="M208.741 165.606C212.518 164.465 215.967 162.998 219.58 161.205C220.894 160.553 222.208 159.738 223.522 158.923C224.343 158.434 225.164 157.782 226.15 157.293C226.478 157.13 228.613 155.826 228.942 156.478C229.27 157.293 226.971 158.76 226.642 159.086C225.821 159.901 224.836 160.553 223.85 161.205C223.029 161.857 222.044 162.02 221.223 162.509C220.073 163.161 218.923 163.65 217.774 164.302C216.953 164.628 215.967 165.117 214.982 165.443C214.325 165.606 213.504 165.932 212.847 166.095C212.354 166.095 211.697 166.095 211.204 166.095C210.547 166.258 209.234 166.584 208.905 165.606H208.741Z" fill="#E9A82C"/>
<path fill-rule="evenodd" clip-rule="evenodd" d="M290.693 185.654C292.5 185.654 294.635 185.817 296.606 185.654C297.92 185.491 299.398 185.165 300.712 185.002C303.339 184.676 306.131 184.024 308.759 184.024C309.909 184.024 310.894 184.024 312.044 184.024C312.701 184.024 313.522 184.024 314.015 184.024C314.343 184.024 315 184.35 315.164 184.676C315.821 185.328 315.164 185.328 314.672 185.491C313.686 185.98 313.029 186.469 311.88 186.795C310.237 187.121 308.431 187.61 306.788 187.936C305.639 188.099 304.325 187.936 303.175 187.936C301.533 188.262 300.055 188.262 298.412 188.262C297.099 188.262 295.785 188.262 294.471 188.262C293.485 188.262 292.664 188.099 291.679 187.936C290.858 187.936 290.365 187.936 289.708 187.61C289.38 187.447 288.887 186.958 290.693 185.817V185.654Z" fill="#E9A82C"/>
<path fill-rule="evenodd" clip-rule="evenodd" d="M334.38 187.447C336.679 187.61 338.157 187.936 340.292 187.447C341.606 187.121 343.084 186.958 344.398 186.795C346.369 186.469 348.504 185.491 350.146 184.513C351.131 183.861 352.938 182.557 354.252 182.883C355.237 183.209 356.223 184.35 356.387 185.328C356.387 186.632 355.073 187.61 354.088 188.425C352.609 189.729 350.146 190.055 348.339 190.218C346.04 190.218 343.741 190.055 341.442 189.566C340.785 189.566 339.963 189.24 339.307 189.077C338.65 189.077 337.336 189.077 334.544 187.447H334.38Z" fill="#E9A82C"/>
<path fill-rule="evenodd" clip-rule="evenodd" d="M339.635 102.2C339.635 103.83 338.485 107.578 340.456 108.882C341.442 109.534 342.098 107.741 342.098 106.926C342.098 105.785 341.442 102.689 339.963 102.526L339.635 102.2Z" fill="#E9A82C"/>
<path fill-rule="evenodd" clip-rule="evenodd" d="M11.989 137.896C13.6313 140.015 14.781 142.134 17.0802 143.438C18.3941 144.253 19.708 145.068 21.1861 145.557C22.4999 146.046 24.3065 146.372 25.7846 146.046C26.6058 145.883 26.77 146.046 26.77 145.068C26.77 144.579 26.4415 144.09 26.1131 143.601C25.6204 142.949 24.9634 142.46 24.3065 141.808C23.6496 140.993 23.3211 140.341 22.4999 139.689C19.8722 137.57 17.4087 135.94 14.124 134.799C12.9744 134.473 12.8102 134.31 11.8248 134.799C11.0036 135.288 11.0036 135.125 10.8394 136.103C10.8394 137.407 11.6605 138.385 12.3175 139.363L11.8248 137.57L11.989 137.896Z" fill="#E9A82C"/>
<path fill-rule="evenodd" clip-rule="evenodd" d="M13.4671 171.963C16.0948 176.2 19.2153 180.112 22.4999 184.024C24.7992 186.795 26.2773 190.218 28.9051 192.663C29.3978 193.152 33.9963 197.064 33.8321 194.782C33.8321 194.293 32.5182 192.174 32.1897 191.685C31.3686 190.381 30.5474 189.077 29.562 187.936C28.7408 186.958 27.9197 186.143 27.2627 185.002C26.6058 183.861 25.9488 183.209 25.1277 182.231C23.978 180.927 23.4853 179.46 22.4999 178.156C21.5145 176.852 20.6934 175.711 19.708 174.57C18.5583 172.941 17.2445 170.985 15.4379 170.333C14.9452 170.17 14.124 169.681 13.6313 170.007C12.6459 170.659 13.4671 173.267 13.6313 171.8L13.4671 171.963Z" fill="#E9A82C"/>
<path fill-rule="evenodd" clip-rule="evenodd" d="M180.657 252.809C184.598 252.157 187.719 251.505 191.496 252.32C193.303 252.809 195.274 253.298 197.08 253.95C198.23 254.276 200.036 254.602 200.858 255.58C201.843 256.558 201.515 258.188 200.693 259.003C199.544 260.144 197.08 259.818 195.602 259.818C192.646 259.492 190.018 259.166 187.226 258.351C185.584 257.862 183.449 257.047 182.135 256.069C181.478 255.58 180 254.276 180.657 252.972V252.809Z" fill="#E9A82C"/>
<path fill-rule="evenodd" clip-rule="evenodd" d="M234.033 273.51C232.062 273.021 231.898 269.598 232.39 268.131C232.719 267.316 233.212 266.012 234.033 265.686C235.018 265.36 235.182 266.012 236.004 266.175C235.182 267.968 234.197 269.598 233.047 271.065L234.033 273.347V273.51Z" fill="#E9A82C"/>
<path fill-rule="evenodd" clip-rule="evenodd" d="M307.281 272.206C309.909 270.576 311.551 269.435 314.507 268.457C315.985 267.968 317.464 267.805 318.777 267.479C320.42 266.99 322.226 266.175 323.869 265.849C324.526 265.849 325.018 265.849 325.675 265.686C326.332 265.686 326.004 265.197 326.825 265.686C328.303 266.501 327.646 267.479 326.825 268.294C325.018 269.761 323.54 270.413 321.241 270.902C319.927 271.228 318.942 271.88 317.628 272.369C316.807 272.532 316.15 272.695 315.328 272.858C312.537 273.673 309.088 273.021 307.445 272.206H307.281Z" fill="#E9A82C"/>
<path fill-rule="evenodd" clip-rule="evenodd" d="M73.5767 266.175C75.219 269.598 76.5329 272.695 78.6679 275.792C79.6533 277.096 80.3102 278.4 81.9526 279.052C83.1022 279.541 84.0876 279.704 84.2518 278.074C84.2518 277.259 83.5949 275.955 83.1022 275.14C81.7883 272.695 79.8175 270.576 78.1752 268.457C77.5183 267.642 76.6971 266.501 75.8759 265.849C75.219 265.36 73.5767 264.871 73.7409 266.175H73.5767Z" fill="#E9A82C"/>
<path fill-rule="evenodd" clip-rule="evenodd" d="M141.734 339.687C145.675 338.872 149.124 337.731 152.737 336.264C154.215 335.775 155.858 335.775 157.336 335.449C157.336 335.449 157.664 335.123 157.828 335.123C158.157 335.123 158.814 335.123 159.307 335.123C159.635 335.123 161.442 334.96 161.77 335.123C163.248 336.101 160.128 339.035 159.471 339.687C156.843 342.295 152.737 343.762 148.96 343.436C146.989 343.273 145.347 342.295 143.54 341.969C142.391 341.969 139.763 341.48 139.927 339.687C139.927 339.687 140.255 339.687 141.734 339.687Z" fill="#E9A82C"/>
<path fill-rule="evenodd" clip-rule="evenodd" d="M208.905 300.731C205.456 303.013 201.679 305.132 199.215 308.555C197.573 311 200.693 310.511 202.007 309.859C203.157 309.37 203.978 309.044 204.963 308.229C205.949 307.577 206.442 306.925 207.099 306.273C207.591 305.784 208.412 305.295 208.905 304.643C209.398 303.991 209.562 302.687 210.219 302.361C210.219 302.035 210.055 301.872 209.891 301.546L208.905 300.568V300.731Z" fill="#E9A82C"/>
<path fill-rule="evenodd" clip-rule="evenodd" d="M114.471 247.756C116.934 246.778 119.562 245.8 121.861 244.496C123.996 243.356 126.131 242.052 128.431 241.074C131.223 239.607 134.343 237.651 137.628 237.651C138.942 237.651 139.763 236.999 140.912 237.651C141.898 238.14 142.555 238.466 143.047 239.281C144.69 241.726 141.405 244.007 139.599 245.148C138.12 246.126 136.971 247.267 135.328 247.919C133.522 248.734 131.551 249.06 129.58 249.712C126.46 250.853 123.175 252.157 119.89 252.483C118.248 252.646 116.606 251.994 115.292 251.179C114.635 250.69 113.978 250.201 113.485 249.386C112.993 248.734 112.828 247.756 114.471 247.756Z" fill="#E9A82C"/>
<path style="mix-blend-mode:screen" fill-rule="evenodd" clip-rule="evenodd" d="M234.033 137.733C242.409 157.782 223.85 184.513 192.318 197.553C160.785 210.593 128.595 205.051 120.055 185.002C111.515 164.954 130.237 138.222 161.77 125.182C193.139 112.142 225.493 117.684 234.033 137.733Z" fill="url(#paint6_radial_452_19760)"/>
</g>
<defs>
<radialGradient id="paint0_radial_452_19760" cx="0" cy="0" r="1" gradientUnits="userSpaceOnUse" gradientTransform="translate(411.811 69.3262) scale(281.665 279.546)">
<stop stop-color="#C36863"/>
<stop offset="0.21" stop-color="#BF6562"/>
<stop offset="0.37" stop-color="#B65B61"/>
<stop offset="0.51" stop-color="#A54C5F"/>
<stop offset="0.65" stop-color="#8E365C"/>
<stop offset="0.78" stop-color="#701A59"/>
<stop offset="0.87" stop-color="#550056"/>
</radialGradient>
<linearGradient id="paint1_linear_452_19760" x1="6.73357" y1="125.182" x2="256.697" y2="125.182" gradientUnits="userSpaceOnUse">
<stop offset="0.01" stop-color="#E27C83"/>
<stop offset="0.31" stop-color="#DF7A81"/>
<stop offset="0.53" stop-color="#D5737C"/>
<stop offset="0.72" stop-color="#C56874"/>
<stop offset="0.89" stop-color="#AF5968"/>
<stop offset="1" stop-color="#9E4E60"/>
</linearGradient>
<radialGradient id="paint2_radial_452_19760" cx="0" cy="0" r="1" gradientUnits="userSpaceOnUse" gradientTransform="translate(392.282 32.2475) scale(230.797 229.061)">
<stop stop-color="#FFFF5C"/>
<stop offset="1"/>
</radialGradient>
<linearGradient id="paint3_linear_452_19760" x1="5.91241" y1="98.2876" x2="313.029" y2="98.2876" gradientUnits="userSpaceOnUse">
<stop stop-color="#DC3B17"/>
<stop offset="0.49" stop-color="#DB3A19"/>
<stop offset="0.73" stop-color="#D93920"/>
<stop offset="0.92" stop-color="#D5372E"/>
<stop offset="1" stop-color="#D33636"/>
</linearGradient>
<radialGradient id="paint4_radial_452_19760" cx="0" cy="0" r="1" gradientUnits="userSpaceOnUse" gradientTransform="translate(371.44 232.12) scale(89.077 88.4067)">
<stop stop-color="#ECB62E"/>
<stop offset="0.39" stop-color="#EBB32E"/>
<stop offset="0.58" stop-color="#E9AC2F"/>
<stop offset="0.73" stop-color="#E59E31"/>
<stop offset="0.86" stop-color="#E08C34"/>
<stop offset="0.97" stop-color="#D97438"/>
<stop offset="1" stop-color="#D86D3A"/>
</radialGradient>
<linearGradient id="paint5_linear_452_19760" x1="-2.28621e-05" y1="223.959" x2="360" y2="223.959" gradientUnits="userSpaceOnUse">
<stop stop-color="#DC3B17"/>
<stop offset="0.49" stop-color="#DB3A19"/>
<stop offset="0.73" stop-color="#D93920"/>
<stop offset="0.92" stop-color="#D5372E"/>
<stop offset="1" stop-color="#D33636"/>
</linearGradient>
<radialGradient id="paint6_radial_452_19760" cx="0" cy="0" r="1" gradientUnits="userSpaceOnUse" gradientTransform="translate(252.763 253.399) rotate(-22.5563) scale(61.9321 39.4896)">
<stop stop-color="#DE5B15"/>
<stop offset="0.08" stop-color="#C45012"/>
<stop offset="0.33" stop-color="#7F340C"/>
<stop offset="0.56" stop-color="#481D06"/>
<stop offset="0.75" stop-color="#210D03"/>
<stop offset="0.91" stop-color="#080300"/>
<stop offset="1"/>
</radialGradient>
<clipPath id="clip0_452_19760">
<rect width="360" height="348" fill="white"/>
</clipPath>
</defs>
</svg>
