<svg width="313" height="360" viewBox="0 0 313 360" fill="none" xmlns="http://www.w3.org/2000/svg">
<path fill-rule="evenodd" clip-rule="evenodd" d="M22.9431 120.612C22.9431 120.612 24.7988 105.11 25.811 96.5932C25.811 96.5932 36.2704 81.7732 53.1403 69.5084L75.4087 70.7008C75.4087 70.7008 30.5346 107.155 22.9431 120.612Z" fill="url(#paint0_linear_452_20073)"/>
<path fill-rule="evenodd" clip-rule="evenodd" d="M53.1403 69.5084C53.1403 69.5084 53.1403 81.9436 41.8375 91.8235C30.5346 101.704 25.6423 98.2966 25.6423 98.2966L22.9431 118.227L75.5774 70.7008L53.309 69.5084H53.1403Z" fill="url(#paint1_linear_452_20073)"/>
<path fill-rule="evenodd" clip-rule="evenodd" d="M292.694 199.992C292.694 214.131 290.669 227.929 286.958 240.875C279.535 266.938 265.196 290.105 245.964 308.161C232.299 321.108 216.104 331.328 198.222 338.142C182.027 344.274 164.651 347.681 146.263 347.681C143.732 347.681 141.033 347.681 138.502 347.511C134.622 347.341 130.911 347 127.199 346.489C99.0267 342.741 73.3843 330.988 52.4656 313.272C44.7054 306.628 37.62 299.303 31.2094 291.127C26.4858 284.994 22.0996 278.521 18.3883 271.708C17.5448 270.004 16.7013 268.471 15.6891 266.768C14.8456 265.064 14.0021 263.19 13.1586 261.487C10.6281 255.866 8.43498 250.074 6.57928 244.112C5.22969 239.853 4.04879 235.424 3.20529 230.825C2.5305 227.759 2.0244 224.522 1.5183 221.286C0.6748 213.961 0.168701 206.977 0.168701 199.992C0.168701 195.904 0.168701 191.816 0.6748 187.898C0.843499 185.343 1.1809 182.788 1.5183 180.232C3.37399 165.753 7.42278 151.785 13.1586 139.009C16.0265 132.706 19.2318 126.574 22.9431 120.782C29.0163 111.073 36.2704 102.215 44.368 94.2084C70.6851 68.316 106.618 52.474 146.263 52.474C147.781 52.474 149.299 52.474 150.817 52.474C152.504 52.474 154.023 52.474 155.71 52.6443C164.145 53.1553 172.242 54.5181 180.171 56.3919C184.726 57.5843 189.281 58.7767 193.836 60.3098C196.872 61.3319 199.74 62.5243 202.777 63.7167C204.97 64.5684 207.163 65.5905 209.187 66.6126C209.525 66.7829 209.862 66.9533 210.368 67.1236C224.539 74.1077 237.36 83.3064 248.663 94.3788C250.35 95.9119 251.868 97.6153 253.387 99.1484C254.399 100.341 255.411 101.363 256.423 102.555C258.11 104.429 259.797 106.473 261.316 108.517C267.22 116.013 272.281 124.019 276.499 132.536C281.56 142.416 285.44 152.977 288.139 164.05C291.007 175.463 292.356 187.387 292.356 199.652L292.694 199.992Z" fill="url(#paint2_radial_452_20073)"/>
<path fill-rule="evenodd" clip-rule="evenodd" d="M210.537 67.1236C210.537 67.1236 209.525 67.1236 209.019 67.2939C207.332 67.6346 206.151 67.2939 204.464 66.9533C203.283 66.6126 202.439 66.1015 201.259 65.9312C199.403 65.5905 197.885 64.9091 196.029 64.5684C194.173 64.2277 192.486 63.5464 190.799 62.865C189.45 62.354 188.606 62.5243 187.257 62.865C185.907 63.2057 184.895 62.6946 183.714 62.1836C182.364 61.6726 181.015 61.5022 179.665 61.1615C175.954 60.3098 172.242 59.1174 168.531 58.2657C166.169 57.7546 164.145 57.7546 161.783 57.5843C159.927 57.5843 158.24 58.0953 156.553 58.0953C155.372 58.0953 154.36 57.925 153.011 57.7546C151.83 57.5843 150.48 57.7546 149.299 57.7546C147.443 57.414 146.431 57.2436 144.576 57.7546C143.226 58.2657 142.045 58.0953 140.695 58.2657C139.177 58.2657 137.321 58.7767 135.803 59.1174C133.104 59.7988 130.067 60.3098 127.199 60.1395C125.512 60.1395 122.982 59.6284 121.295 60.1395C120.283 60.4802 119.777 61.6726 118.933 62.5243C117.584 64.0574 115.728 65.4202 114.547 66.9533C113.366 68.6567 112.017 70.3602 112.185 72.4043C112.185 74.2781 113.197 76.3222 113.872 78.0257C114.716 79.7291 114.884 81.4326 113.197 82.625C111.004 84.1581 108.305 85.5208 105.775 86.2022C104.088 86.7132 102.569 87.0539 101.051 85.6912C100.545 85.1801 100.208 84.3284 99.5327 83.9877C98.8579 83.647 98.1831 83.9877 97.3396 84.1581C95.484 84.6691 93.797 85.3505 91.9413 85.6912C90.7604 85.8615 89.7482 86.5429 88.736 86.7132C87.3864 87.0539 86.3742 86.0319 85.0246 86.3726C83.0002 86.8836 81.1445 87.7353 79.1201 87.7353C77.6018 87.7353 75.9148 87.2243 74.5652 86.3726C73.8904 86.0319 73.7217 85.5208 72.8782 85.8615C72.2034 85.8615 71.1912 86.8836 70.8538 87.3946C70.3477 88.076 70.179 88.9277 69.6729 89.7794C69.1668 90.6312 68.6607 91.3125 68.1546 92.1643C67.3111 93.8677 66.2989 95.4008 65.2867 96.7636C64.4432 97.7856 63.9371 99.1484 63.0936 100.17C62.5875 100.682 61.744 101.022 61.2379 101.363C59.7196 102.385 58.2014 103.407 56.6831 104.599C53.8152 106.814 51.116 109.369 48.2481 111.584C46.055 113.287 43.0184 114.139 40.4879 115.331C38.9696 116.013 37.2826 116.353 35.7643 117.035C35.2582 117.205 34.246 117.546 33.9086 117.886C33.4025 118.397 33.0651 119.249 32.559 119.93C31.2094 121.634 29.6911 123.337 28.6789 125.211C28.0041 126.404 27.6667 127.426 27.3293 128.788C26.8232 130.492 25.811 132.025 25.3049 133.728C24.124 137.135 23.9553 140.883 22.6057 144.29C21.9309 146.334 20.7501 148.208 19.9066 150.081C18.3883 153.148 18.0509 156.895 17.7135 160.302C17.3761 162.346 17.7135 164.731 17.8822 166.605C18.2196 168.649 18.2196 170.864 18.2196 173.078C18.2196 175.463 16.7013 177.677 15.3517 179.381C14.0021 180.914 11.9777 181.595 10.6281 183.128C9.44718 184.321 7.92889 185.684 7.42279 187.557C7.25409 188.409 7.42279 189.261 7.42279 189.942C7.08539 191.816 6.57929 193.519 6.41059 195.393C6.07319 197.608 6.07319 199.822 6.07319 202.207C6.07319 203.399 6.07319 204.592 6.07319 205.614C6.07319 206.636 6.57929 207.658 6.57929 208.85C6.57929 209.702 6.57929 210.383 6.57929 211.235C6.57929 212.087 7.08539 212.939 7.25409 213.79C7.76019 215.835 8.09758 217.879 8.60368 219.923C8.94108 221.797 9.61588 223.67 10.2907 225.544C11.1342 228.099 11.6403 230.654 12.1464 233.21C12.4838 235.083 12.4838 237.128 12.8212 239.172C12.9899 240.705 13.3273 242.408 13.496 243.941C13.496 246.326 12.9899 248.711 12.9899 251.266C12.9899 255.354 14.5082 259.443 15.5204 263.361C15.8578 264.383 16.0265 265.575 16.3639 266.768C6.24189 246.667 0.674805 224.011 0.674805 200.163C0.674805 171.034 9.10978 143.779 23.4492 120.953C29.5224 111.243 36.7765 102.385 44.8741 94.3788C71.1912 68.4864 107.124 52.6443 146.769 52.6443C149.974 52.6443 153.179 52.6443 156.216 52.985C175.785 54.1774 194.173 59.2877 210.874 67.6346L210.537 67.1236Z" fill="url(#paint3_linear_452_20073)"/>
<path style="mix-blend-mode:multiply" fill-rule="evenodd" clip-rule="evenodd" d="M155.71 269.323C155.71 269.323 169.374 289.594 187.425 306.117C205.476 322.641 208.175 333.713 208.175 333.713C208.175 333.713 242.253 319.234 266.714 285.165C291.007 251.096 155.71 269.323 155.71 269.323V269.323Z" fill="url(#paint4_linear_452_20073)"/>
<path style="mix-blend-mode:screen" fill-rule="evenodd" clip-rule="evenodd" d="M59.7196 315.316C44.5367 302.54 32.0529 286.698 23.1118 268.812C17.3761 257.569 13.1586 245.475 10.6281 232.699C8.60368 222.819 7.59148 212.598 7.59148 202.207C7.59148 173.078 16.0265 145.823 30.3659 122.997C36.4391 113.287 43.6932 104.429 51.7908 96.4229C78.1079 70.5305 114.041 54.6885 153.685 54.6885C156.891 54.6885 160.096 54.6885 163.132 55.0291C173.086 55.7105 182.702 57.414 191.98 59.7988C180.509 56.0512 168.531 53.6664 156.047 52.8147C152.842 52.6443 149.805 52.474 146.6 52.474C106.956 52.474 71.0225 68.4864 44.7054 94.2084C36.6078 102.215 29.3537 111.073 23.2805 120.782C8.77238 143.608 0.506104 170.864 0.506104 199.992C0.506104 210.383 1.5183 220.604 3.5427 230.484C6.24189 243.09 10.4594 255.184 16.0265 266.597C24.9675 284.483 37.62 300.325 52.6343 313.101C68.6607 326.729 87.5551 336.779 108.305 342.401C90.423 336.439 73.8904 327.24 59.7196 315.145V315.316Z" fill="url(#paint5_radial_452_20073)"/>
<path style="mix-blend-mode:multiply" opacity="0.4" fill-rule="evenodd" clip-rule="evenodd" d="M180.509 56.2215C172.58 54.3478 164.313 52.985 156.047 52.474C154.36 52.474 152.842 52.3036 151.155 52.3036C154.698 54.3478 157.903 57.7546 158.746 61.3319C160.096 67.4643 161.952 73.0857 163.132 79.0477C164.313 85.0098 163.976 92.505 161.277 97.956C159.59 101.363 157.565 104.259 154.866 107.155C153.011 109.199 151.324 110.221 149.974 112.606C148.624 114.99 147.275 117.205 145.756 119.59C143.395 122.997 141.033 126.574 138.502 129.64C137.659 130.833 136.478 131.514 135.803 132.877C134.791 134.58 134.285 135.943 133.104 137.306C130.405 140.201 126.356 141.905 122.813 143.268C118.09 144.971 114.21 147.015 109.655 149.4C103.413 152.637 98.3519 156.895 91.0978 157.066C88.736 157.066 86.2055 156.725 83.8437 157.066C80.8071 157.236 78.1079 158.769 75.0713 159.28C72.5408 159.791 69.8416 160.302 67.3111 160.813C63.0937 161.495 59.551 162.857 55.5022 163.879C50.1038 165.242 44.5367 164.901 39.1383 165.583C34.246 166.264 30.0285 166.775 25.305 165.583C17.8822 163.709 13.8334 160.132 15.5204 152.126C16.5326 146.845 16.1952 142.927 13.496 138.839C7.7602 151.785 3.71141 165.583 1.85571 180.062C5.3984 181.595 9.44719 182.277 12.4838 182.617C23.2806 183.81 34.9208 178.87 44.8741 175.122C49.9351 173.248 55.1648 170.353 60.5632 169.841C66.2989 169.16 71.3599 169.841 77.0957 168.479C96.8336 163.539 116.403 156.555 134.116 145.993C141.37 141.564 144.744 135.432 149.805 129.129C154.36 123.678 159.252 119.079 164.651 114.479C169.88 109.88 174.604 105.451 177.641 99.1484C181.015 92.505 183.714 85.1801 185.232 77.8553C186.919 70.1898 184.895 62.6946 180.846 56.3919L180.509 56.2215ZM179.496 76.3222C179.159 78.0257 178.99 79.7291 178.484 81.2622C177.135 85.1801 174.941 89.2684 171.23 91.3126C169.543 92.3346 167.35 91.6532 166.338 89.9498C165.832 89.0981 165.832 87.9057 165.663 86.8836C165.326 84.8395 164.988 82.7953 165.157 80.7512C165.157 75.8112 165.157 70.8712 164.651 65.9312C165.157 68.8271 164.651 61.6726 168.868 59.7988C170.893 58.9471 174.098 59.7988 175.616 61.3319C177.641 63.376 177.978 66.7829 178.822 69.5084C179.496 71.8933 180.171 73.9374 179.665 76.3222H179.496Z" fill="url(#paint6_linear_452_20073)"/>
<path style="mix-blend-mode:multiply" opacity="0.4" fill-rule="evenodd" clip-rule="evenodd" d="M158.24 312.079C158.24 312.079 157.397 312.079 157.059 312.25L159.927 312.59C159.927 312.59 158.915 312.25 158.24 312.079ZM158.24 312.079C158.24 312.079 157.397 312.079 157.059 312.25L159.927 312.59C159.927 312.59 158.915 312.25 158.24 312.079ZM288.307 164.22C288.307 168.138 287.127 171.886 287.127 175.804C287.127 180.914 286.114 185.002 284.765 189.942C283.921 193.349 282.066 195.904 280.885 199.141C279.535 202.888 277.679 206.125 275.824 209.702C271.944 216.686 268.232 223.67 266.545 231.506C265.027 238.661 264.69 244.623 261.316 251.266C257.942 257.569 252.881 262.85 249.169 268.982C247.482 271.878 246.301 271.708 243.771 273.581C240.903 275.625 238.204 278.862 235.505 281.077C229.6 285.846 224.033 289.253 216.779 291.979C212.224 293.682 207.838 295.045 202.945 295.897C199.74 296.408 196.704 295.897 193.667 296.408C188.775 297.259 184.051 298.792 179.328 300.325C171.567 302.881 163.47 304.414 155.71 306.799C150.311 308.502 144.913 309.524 139.514 310.717C136.14 311.398 133.441 313.272 129.899 312.59C126.356 311.909 123.151 310.717 119.777 309.524C115.39 308.161 111.679 307.991 106.955 307.991C100.545 307.991 93.2908 309.013 87.0489 307.821C79.9635 306.458 73.0468 304.584 65.9615 303.051C61.744 302.199 58.5387 300.325 54.4899 298.452C50.7785 296.748 46.8984 296.237 43.187 295.045C39.1382 293.682 35.2581 291.808 31.2094 290.786C37.4512 298.963 44.5366 306.288 52.4655 312.931C73.2155 330.647 98.8579 342.401 127.199 346.148C130.911 346.659 134.791 347 138.502 347.17C146.769 345.296 154.866 342.741 163.132 340.186C176.966 335.757 188.943 327.41 202.777 323.322C208.006 321.789 212.561 320.085 217.454 317.701C220.996 315.997 224.708 315.486 228.419 313.953C241.24 308.502 251.025 295.897 256.761 283.461C259.291 277.84 261.822 271.537 266.545 267.279C268.401 265.575 270.763 264.042 272.45 261.998C274.305 259.783 275.655 257.228 277.342 254.843C280.21 250.585 283.078 246.497 286.114 242.238C286.452 241.727 286.789 241.216 287.127 240.705C290.838 227.759 292.862 213.961 292.862 199.822C292.862 187.557 291.344 175.633 288.645 164.22H288.307ZM154.191 313.101C154.191 313.101 155.541 312.079 156.216 311.909C156.722 311.739 157.565 311.909 158.409 311.909C159.421 311.909 160.602 311.568 161.614 311.909C162.12 312.25 163.301 312.761 163.638 313.442C163.976 314.123 163.638 314.464 163.132 314.975C162.626 315.486 162.12 315.486 161.445 315.657C159.758 315.997 158.24 316.168 156.553 316.168C155.541 316.168 154.023 316.168 153.517 315.145C153.01 314.294 153.854 313.442 154.529 312.931L154.191 313.101ZM163.807 332.35C162.964 333.543 161.952 334.735 160.771 335.587C159.59 336.439 158.409 336.95 157.228 337.631C154.191 339.334 151.155 341.038 147.949 342.06C146.6 342.401 145.25 342.401 143.901 342.401C142.214 342.401 140.527 342.571 139.008 342.571C136.984 342.571 135.128 343.082 133.104 343.082C131.079 343.082 129.224 343.082 127.199 343.423C123.994 343.593 120.958 343.082 117.921 341.89C115.222 340.868 112.354 339.505 109.823 337.801C108.136 336.609 106.618 334.905 105.1 333.372C103.75 332.01 102.569 330.647 101.726 328.773C101.388 328.092 101.22 327.41 101.22 326.729C101.22 326.388 101.388 326.048 101.388 326.048C101.894 325.536 102.569 325.196 103.075 325.025C104.088 324.514 105.268 324.344 106.449 324.174C109.149 323.833 112.016 324.174 114.716 324.514C116.403 324.514 117.752 324.685 119.271 324.514C121.295 324.174 123.488 323.492 125.512 322.981C130.405 321.619 135.297 320.597 140.358 320.085C145.419 319.574 150.649 318.893 155.878 319.915C157.734 320.256 160.096 320.767 161.783 321.959C162.964 322.811 163.976 324.174 164.651 325.537C165.832 327.751 165.325 330.476 163.807 332.521V332.35ZM202.608 319.574C201.765 320.597 200.415 321.278 199.234 321.959C197.716 322.981 196.029 324.003 194.511 324.855C193.161 325.707 191.811 326.388 190.462 326.899C189.112 327.581 187.594 328.262 186.244 328.943C184.726 329.795 183.039 330.306 181.521 330.817C180.34 331.328 179.159 331.839 177.809 331.499C176.797 331.328 175.616 330.817 174.941 330.136C173.76 328.943 174.098 327.751 174.435 327.07C174.435 326.048 174.098 324.344 174.435 323.322C174.604 322.641 175.447 321.789 175.785 321.108C177.134 318.723 178.99 317.019 180.846 315.145C182.533 313.442 184.22 312.25 186.413 311.398C188.943 310.546 191.98 310.376 194.511 310.035C197.378 309.694 202.271 309.524 203.62 312.761C204.464 315.145 204.126 317.19 202.608 319.234V319.574ZM159.927 312.59C159.927 312.59 158.915 312.25 158.24 312.079C157.734 312.079 157.397 312.079 157.059 312.25L159.927 312.59Z" fill="url(#paint7_linear_452_20073)"/>
<path style="mix-blend-mode:multiply" opacity="0.4" fill-rule="evenodd" clip-rule="evenodd" d="M276.667 132.706V133.217C276.499 137.306 274.812 140.031 273.462 143.779C272.281 146.845 270.932 149.4 269.413 152.296C266.883 157.066 265.702 161.495 263.846 166.605C260.978 174.611 259.46 182.617 254.905 189.942C250.688 196.415 249.844 204.251 246.47 211.235C242.59 218.901 236.854 224.522 230.612 230.143C227.913 232.699 225.551 235.765 223.021 238.49C220.322 241.386 218.297 245.134 215.092 247.519C208.175 252.629 200.752 256.888 194.005 262.339C189.956 265.575 187.088 269.834 182.702 272.389C178.315 275.114 173.423 276.988 169.037 279.714C164.988 282.099 161.108 284.824 156.891 286.528C151.998 288.572 147.781 287.89 142.72 288.231C137.153 288.401 131.248 289.934 126.019 291.808C121.632 293.341 117.921 294.874 113.535 293.341C110.498 292.319 107.968 290.275 104.762 289.594C97.5084 288.061 89.2421 289.594 81.8193 289.423C76.0835 289.423 69.6729 287.89 64.1059 286.698C58.5388 285.676 53.9839 281.758 48.5855 280.054C42.0062 278.01 34.246 279.714 27.8355 277.159C25.1363 276.137 22.7745 274.092 20.4127 272.559C19.9066 272.219 19.4005 271.878 18.8944 271.708C18.0509 270.004 17.2074 268.471 16.1952 266.768C17.7135 267.449 19.4005 268.13 20.9188 268.982C29.3538 273.07 39.8131 272.389 48.7542 273.922C58.8762 275.796 69.1668 278.351 79.4575 279.543C83.675 280.054 87.8925 280.054 91.9413 279.543C97.6771 278.862 103.75 279.032 109.486 278.01C119.439 276.307 129.055 271.537 139.346 272.9C141.202 273.07 143.395 274.263 145.25 274.092C148.118 274.092 150.143 271.537 152.336 270.004C156.385 267.449 160.771 267.96 164.313 264.553C167.856 261.146 171.736 259.102 175.954 256.888C187.088 251.096 196.198 241.897 204.97 233.039C212.393 225.715 219.478 217.879 224.539 208.68C229.431 199.652 228.419 188.75 232.131 179.381C234.83 172.567 237.023 166.264 241.409 160.472C243.433 157.577 246.133 155.192 248.326 152.466C250.688 149.57 252.206 146.504 253.893 143.097C255.917 139.52 258.448 136.113 259.966 132.366C261.484 128.618 261.316 125.381 261.316 121.634C261.316 117.375 261.316 113.117 261.316 109.028C267.22 116.524 272.281 124.53 276.499 133.047L276.667 132.706Z" fill="url(#paint8_linear_452_20073)"/>
<path style="mix-blend-mode:multiply" opacity="0.4" fill-rule="evenodd" clip-rule="evenodd" d="M253.555 99.3188C252.037 97.6153 250.519 96.0822 248.832 94.5491C237.698 83.4767 224.708 74.2781 210.537 67.294C210.2 67.1236 209.862 66.9533 209.356 66.7829C207.163 65.7609 205.139 64.7388 202.946 63.8871C200.078 62.6946 197.041 61.5022 194.004 60.4802C195.017 61.1615 196.029 61.6726 196.366 61.8429C198.222 62.6946 199.74 63.376 200.921 65.0795C202.102 66.7829 202.777 67.9753 202.777 70.0195C202.777 71.8933 203.114 73.9374 203.452 75.8112C203.789 77.5146 204.633 79.2181 204.97 81.0919C205.139 82.1139 205.307 83.136 205.645 84.1581C206.488 86.5429 207.163 89.0981 207.669 91.6532C208.513 96.2526 206.151 100 204.633 104.088C202.102 110.732 200.415 117.375 198.559 124.189C197.041 129.47 194.173 134.921 190.124 138.668C186.244 142.586 180.34 143.438 176.797 147.526C173.761 151.104 169.88 154.681 165.494 156.725C160.433 159.11 155.204 160.984 149.805 162.687C145.925 163.879 142.045 163.879 138.165 164.901C133.441 166.094 129.055 168.479 124.5 170.523C119.777 172.567 115.222 175.292 110.498 177.337C105.606 179.381 101.22 182.277 96.3274 184.15C93.9657 185.172 91.4352 185.513 89.0734 186.365C84.1811 188.068 79.2888 191.305 74.0591 191.986C72.2034 192.157 70.3477 192.668 68.6607 192.668C67.1424 192.668 65.9615 192.838 64.4432 193.349C59.8883 195.223 57.0204 200.333 51.7908 200.333C46.8985 200.333 42.1749 200.163 37.4513 200.674C35.0895 201.015 32.8964 200.674 30.5346 200.674C29.8598 200.674 29.0163 200.674 28.3415 200.674C27.498 200.333 26.6545 199.652 25.9797 199.141C24.2927 198.119 22.6057 196.926 21.0874 195.734C18.0509 193.349 14.0021 194.712 10.6281 194.03C9.61587 193.86 8.09758 194.03 7.08538 193.349C4.89229 191.986 2.19309 189.431 0.506099 187.898C0.1687 191.816 0 195.904 0 199.992C0 207.147 0.506099 214.131 1.5183 220.945C2.02439 224.181 2.53049 227.418 3.20529 230.484C4.04879 234.913 5.22969 239.342 6.57928 243.771C8.43498 249.733 10.6281 255.525 13.1586 261.146C17.2074 261.828 21.2561 262.339 25.3049 261.657C31.0407 260.806 36.7765 259.954 42.5123 260.124C47.9107 260.294 52.9717 262.168 58.37 263.19C64.2745 264.212 70.5164 265.064 76.5896 265.405C82.1567 265.746 87.5551 266.257 93.1222 266.768C97.3396 267.279 101.388 268.13 105.606 268.301C116.403 268.982 126.862 266.257 137.321 265.064C142.551 264.553 147.781 263.19 153.011 261.998C156.216 261.317 159.252 260.465 162.12 258.761C165.832 256.377 168.193 252.799 171.399 250.074C175.11 247.008 178.822 243.941 182.702 240.875C185.907 238.32 188.944 235.595 192.317 233.38C194.848 231.677 197.547 229.973 199.909 228.099C204.633 224.352 208.513 219.923 212.393 215.323C217.96 208.85 220.153 199.822 222.346 191.816C224.37 184.491 225.72 176.996 229.769 170.352C231.793 167.116 233.143 163.368 234.155 159.621C234.661 157.236 234.998 154.681 236.011 152.466C237.698 148.889 240.903 146.334 242.927 142.927C244.446 140.201 246.301 137.817 247.314 134.921C249.507 129.129 251.194 123.508 252.037 117.375C252.712 112.776 254.23 108.688 255.58 104.429C255.749 103.748 256.086 103.066 256.255 102.215C255.242 101.022 254.23 99.8298 253.218 98.8077L253.555 99.3188ZM63.2623 200.163C63.2623 200.163 68.9981 197.267 69.8416 196.926C69.8416 196.926 69.8416 196.926 69.6729 196.926L66.1302 198.459C70.0103 197.097 77.2644 201.185 73.7217 205.784C72.7095 207.147 70.0103 207.828 68.492 207.999C66.9737 208.339 65.9615 207.828 64.9493 206.295C64.1058 205.103 63.5997 203.059 63.2623 201.696C63.2623 201.185 62.9249 200.503 63.2623 199.992V200.163ZM19.7378 239.853C15.5204 238.661 12.6525 237.128 9.95327 233.38C8.26628 230.995 6.74798 228.781 6.24188 225.885C5.90448 223.5 4.89229 221.456 5.56708 219.071C6.07318 217.197 6.74798 215.153 7.59148 213.45C8.60368 211.406 9.95327 209.532 10.122 208.85C14.3395 208.51 18.3883 208.339 22.6057 208.339C27.3293 208.339 32.0529 208.85 36.9452 209.021C39.1383 209.021 41.3314 209.021 43.3558 208.68C45.3802 208.339 47.4046 207.658 49.5977 207.317C53.3091 206.636 56.683 206.295 60.057 208.169C62.5875 209.532 63.9371 212.428 65.118 215.153C65.7928 216.686 66.1302 217.708 66.1302 219.412C66.1302 221.456 66.1302 223.5 65.7928 225.374C65.7928 226.055 65.6241 226.907 65.4554 227.588C62.4188 234.232 54.1526 236.446 48.0794 238.661C39.1383 242.068 29.0163 242.579 19.7378 240.023V239.853ZM85.5307 253.992C83.675 258.932 75.5774 260.635 70.8538 260.806C68.492 260.806 65.7928 260.465 63.7684 259.272C62.5875 258.591 61.4066 257.228 60.9005 256.206C60.3944 255.354 59.2135 253.651 56.8517 254.503C57.3578 251.777 58.2013 249.222 59.2135 246.837C60.2257 245.645 61.4066 244.452 62.5875 243.43C64.7806 241.386 67.1424 239.683 69.6729 238.49C73.7217 236.446 77.9392 237.979 81.8193 239.853C84.5185 241.046 86.5429 242.919 87.049 245.815C87.7238 249.052 86.5429 251.437 85.362 254.503L85.5307 253.992ZM139.683 253.14C138.165 256.717 136.141 257.569 132.935 259.272C129.055 261.317 124.5 262.679 120.114 262.679C117.921 262.679 115.897 261.657 113.872 260.806C112.523 260.294 111.173 259.954 109.992 258.932C107.124 256.206 106.618 252.288 108.474 253.14C107.293 250.755 106.618 248.2 106.449 245.645C106.956 245.304 107.293 244.793 107.462 244.112C108.98 241.216 111.848 238.831 114.716 237.128C119.777 234.232 126.187 233.891 131.586 236.106C133.947 237.128 135.466 238.32 137.321 240.194C138.165 241.046 139.346 241.897 140.021 242.919C141.708 245.645 141.202 250.414 140.021 253.14H139.683ZM156.384 252.629C156.384 252.629 154.023 254.673 152.842 254.503C151.998 254.332 150.311 252.459 150.48 251.437L149.974 250.926C151.324 248.881 152.504 246.837 153.854 244.793C155.878 245.645 157.565 245.474 158.746 247.689C159.927 249.733 157.903 251.437 156.384 252.629V252.629ZM197.716 154.681C196.029 156.895 193.836 158.939 191.305 159.961C188.1 161.324 183.883 162.346 183.714 157.406C183.714 154.51 184.051 152.466 185.401 149.911C187.256 146.164 188.943 145.312 192.486 143.438C193.836 143.438 195.185 143.949 196.198 144.29C198.222 144.971 200.078 146.675 200.415 148.889C200.752 151.104 199.065 152.977 197.885 154.681H197.716ZM236.348 133.728C234.83 138.668 232.805 143.268 230.612 147.867C228.082 153.488 227.744 159.45 226.395 165.412C225.72 168.819 224.033 172.567 220.828 173.759C219.478 174.27 217.96 174.27 216.442 174.27C215.092 174.27 212.393 174.781 212.561 175.974C211.718 173.589 210.368 170.523 209.694 167.797C209.187 164.901 208.85 161.665 208.344 158.769C207.838 155.703 207.669 152.637 207.332 149.4C207.163 146.504 206.488 143.438 206.488 140.542C206.488 130.833 211.887 118.908 220.828 114.309C223.527 112.946 226.226 112.265 229.263 112.776C232.805 113.287 234.83 114.309 236.348 117.716C238.541 122.315 237.698 128.618 236.179 133.558L236.348 133.728Z" fill="url(#paint9_linear_452_20073)"/>
<path style="mix-blend-mode:multiply" opacity="0.4" fill-rule="evenodd" clip-rule="evenodd" d="M193.667 142.757C193.667 142.757 192.824 143.268 192.317 143.438C191.474 143.438 190.799 143.438 190.124 143.438L193.667 142.927V142.757Z" fill="url(#paint10_linear_452_20073)"/>
<path style="mix-blend-mode:multiply" opacity="0.4" fill-rule="evenodd" clip-rule="evenodd" d="M10.1217 208.85C10.1217 208.85 9.61579 208.85 9.44714 208.85C9.95309 208.51 10.2904 208.51 10.1217 208.85Z" fill="url(#paint11_linear_452_20073)"/>
<path fill-rule="evenodd" clip-rule="evenodd" d="M174.435 55.0291L200.078 44.8084C200.078 44.8084 240.903 60.8208 266.714 95.9118L268.401 118.397C268.401 118.397 219.815 99.4891 174.604 55.0291H174.435Z" fill="url(#paint12_linear_452_20073)"/>
<path fill-rule="evenodd" clip-rule="evenodd" d="M267.726 282.95C267.726 282.95 246.133 306.458 229.937 311.739L216.61 315.827C216.61 315.827 155.71 293.682 152.336 255.184C149.468 222.819 204.295 173.248 219.141 167.286C233.986 161.324 251.362 164.731 251.362 164.731L267.726 282.78V282.95Z" fill="url(#paint13_linear_452_20073)"/>
<path fill-rule="evenodd" clip-rule="evenodd" d="M251.362 164.901C238.541 160.813 183.039 186.535 168.025 244.452C164.988 256.206 193.161 300.836 226.732 311.738C237.866 315.316 289.151 270.174 291.176 239.683C293.369 209.021 270.257 171.034 251.194 164.901H251.362Z" fill="url(#paint14_linear_452_20073)"/>
<path fill-rule="evenodd" clip-rule="evenodd" d="M171.736 251.266C179.665 185.683 238.71 164.39 251.531 168.479C260.809 171.374 274.474 185.172 282.234 198.8C274.137 182.106 262.159 168.479 251.362 164.901C238.541 160.813 183.039 186.535 168.025 244.452C167.013 248.541 169.712 256.547 175.11 265.745C172.074 259.443 171.23 254.332 171.567 251.096L171.736 251.266Z" fill="url(#paint15_linear_452_20073)"/>
<path style="mix-blend-mode:multiply" fill-rule="evenodd" clip-rule="evenodd" d="M63.0937 321.619C63.0937 321.619 76.2522 326.559 86.0368 323.833C86.0368 323.833 89.7482 292.149 77.9392 272.048C66.1303 251.777 46.2237 282.439 46.2237 282.439L41.6688 301.859C41.6688 301.859 52.803 315.316 63.2624 321.789L63.0937 321.619Z" fill="url(#paint16_linear_452_20073)"/>
<path fill-rule="evenodd" clip-rule="evenodd" d="M74.5652 316.508L83.0002 314.294C83.0002 314.294 87.049 296.748 79.9636 276.988C71.866 254.503 42.3436 237.809 37.9574 237.468C33.5712 237.127 29.1851 247.178 29.1851 247.178L74.3965 316.508H74.5652Z" fill="url(#paint17_linear_452_20073)"/>
<path fill-rule="evenodd" clip-rule="evenodd" d="M208.175 333.713L194.004 352.281C194.004 352.281 169.543 364.205 144.913 358.413L127.031 346.319L208.007 333.713H208.175Z" fill="url(#paint18_linear_452_20073)"/>
<path fill-rule="evenodd" clip-rule="evenodd" d="M22.9431 260.976C24.4614 254.162 30.3659 242.919 35.5956 241.727C40.8253 240.534 66.1302 264.723 71.866 280.225C77.6018 295.726 74.7339 312.931 74.3965 316.508C74.0591 320.085 45.5489 310.205 31.2094 298.281C16.87 286.357 22.7744 260.976 22.7744 260.976H22.9431Z" fill="url(#paint19_linear_452_20073)"/>
<path fill-rule="evenodd" clip-rule="evenodd" d="M72.0346 280.225C66.2989 264.723 40.9939 240.534 35.7642 241.727C33.7398 242.068 31.5467 244.112 29.691 246.667C30.8719 245.645 32.0528 244.793 33.2337 244.623C38.6321 243.601 64.1058 262.679 69.8415 278.181C76.9269 297.259 73.0468 311.057 72.372 317.019C73.7216 317.019 74.5651 317.019 74.7338 316.338C75.0712 312.761 77.9391 295.556 72.2033 280.054L72.0346 280.225Z" fill="url(#paint20_linear_452_20073)"/>
<path fill-rule="evenodd" clip-rule="evenodd" d="M151.323 214.301C145.082 211.235 152.167 183.299 158.409 177.337C164.651 171.204 180.846 185.513 182.87 197.097C185.063 208.68 165.832 221.286 151.323 214.301Z" fill="url(#paint21_linear_452_20073)"/>
<path fill-rule="evenodd" clip-rule="evenodd" d="M157.734 212.257C152.673 209.702 158.409 186.535 163.47 181.595C168.531 176.485 181.352 188.409 183.039 197.948C184.726 207.658 169.374 217.879 157.734 212.257Z" fill="url(#paint22_linear_452_20073)"/>
<path fill-rule="evenodd" clip-rule="evenodd" d="M200.078 44.8084C200.078 44.8084 201.427 60.4802 218.972 79.8994C236.517 99.1484 266.714 95.9118 266.714 95.9118L268.401 118.397C268.401 118.397 204.127 89.7794 174.604 55.0291L200.246 44.8084H200.078Z" fill="url(#paint23_linear_452_20073)"/>
<path fill-rule="evenodd" clip-rule="evenodd" d="M250.518 184.15C250.518 184.15 248.157 185.853 249.507 186.875C249.844 187.045 250.181 186.875 250.518 187.045C250.856 187.045 250.856 187.386 251.193 187.216C252.205 186.875 251.868 183.81 250.687 184.491V184.15H250.518Z" fill="#7CD9FD"/>
<path fill-rule="evenodd" clip-rule="evenodd" d="M311.082 157.917C311.082 157.917 308.721 159.62 310.07 160.642C310.407 160.812 310.744 160.642 311.082 160.812C311.419 160.812 311.419 161.153 311.756 160.983C312.768 160.642 312.431 157.577 311.25 158.258V157.917H311.082Z" fill="#7CD9FD"/>
<path fill-rule="evenodd" clip-rule="evenodd" d="M284.427 266.597C284.427 266.597 282.066 268.3 283.415 269.322C283.752 269.492 284.09 269.322 284.427 269.492C284.764 269.492 284.764 269.833 285.102 269.662C286.114 269.322 285.776 266.257 284.596 266.938V266.597H284.427Z" fill="#7CD9FD"/>
<path fill-rule="evenodd" clip-rule="evenodd" d="M255.749 194.882C255.749 194.882 256.76 194.541 257.266 194.541C257.266 195.223 257.941 196.415 257.098 196.925C256.423 197.266 256.592 195.904 256.254 195.733L255.917 195.052L255.749 194.882Z" fill="#7CD9FD"/>
<path fill-rule="evenodd" clip-rule="evenodd" d="M159.59 201.526C160.602 201.866 161.446 202.377 162.458 202.718C162.795 202.377 163.301 202.548 163.639 202.207C164.145 201.866 164.482 201.185 164.651 200.674C164.988 199.822 164.651 199.141 164.145 198.459C163.976 198.119 163.639 197.437 163.301 197.097C162.795 196.756 161.952 196.926 161.446 197.097C160.939 197.437 160.433 197.948 160.096 198.459C159.759 198.97 159.252 199.822 159.252 200.333C159.252 201.015 159.759 201.696 160.265 202.037L159.59 201.185V201.526Z" fill="#7CD9FD"/>
<path fill-rule="evenodd" clip-rule="evenodd" d="M23.2805 275.114C24.2927 275.455 25.1362 275.966 26.1484 276.307C26.4858 275.966 26.9919 276.136 27.3293 275.796C27.8354 275.455 28.1728 274.774 28.3415 274.263C28.6789 273.411 28.3415 272.73 27.8354 272.048C27.6667 271.708 27.3293 271.026 26.9919 270.685C26.4858 270.345 25.6423 270.515 25.1362 270.685C24.6301 271.026 24.124 271.537 23.7866 272.048C23.4492 272.559 22.9431 273.411 22.9431 273.922C22.9431 274.603 23.4492 275.285 23.9553 275.625L23.2805 274.774V275.114Z" fill="#7CD9FD"/>
<path fill-rule="evenodd" clip-rule="evenodd" d="M288.982 313.442C289.995 313.783 290.838 314.294 291.85 314.634C292.188 314.294 292.694 314.464 293.031 314.123C293.537 313.783 293.875 313.101 294.043 312.59C294.381 311.739 294.043 311.057 293.537 310.376C293.369 310.035 293.031 309.354 292.694 309.013C292.188 308.672 291.344 308.843 290.838 309.013C290.332 309.354 289.826 309.865 289.489 310.376C289.151 310.887 288.645 311.739 288.645 312.25C288.645 312.931 289.151 313.612 289.657 313.953L288.982 313.101V313.442Z" fill="#7CD9FD"/>
<path fill-rule="evenodd" clip-rule="evenodd" d="M269.919 286.868C270.931 287.209 271.775 287.72 272.787 288.061C273.124 287.72 273.631 287.89 273.968 287.55C274.474 287.209 274.811 286.528 274.98 286.016C275.318 285.165 274.98 284.483 274.474 283.802C274.305 283.461 273.968 282.78 273.631 282.439C273.124 282.099 272.281 282.269 271.775 282.439C271.269 282.78 270.763 283.291 270.425 283.802C270.088 284.313 269.582 285.165 269.582 285.676C269.582 286.357 270.088 287.039 270.594 287.379L269.919 286.527V286.868Z" fill="#7CD9FD"/>
<path fill-rule="evenodd" clip-rule="evenodd" d="M4.72363 100.852C7.08542 101.874 9.61591 102.896 11.9777 103.918C12.8212 103.237 14.0021 103.407 14.8456 102.726C16.0265 101.874 17.0387 100.341 17.5448 98.978C18.2196 96.9338 17.2074 95.2304 16.1952 93.5269C15.5204 92.5049 15.0143 90.9718 14.0021 90.12C12.8212 89.2683 10.6281 89.609 9.44721 90.12C7.92892 90.8014 6.91672 92.3345 5.90452 93.6973C5.06102 94.8897 3.88013 97.1042 3.88013 98.6373C3.88013 100.341 5.22972 102.215 6.41062 103.066L4.55493 100.852H4.72363Z" fill="#7CD9FD"/>
<path fill-rule="evenodd" clip-rule="evenodd" d="M165.832 11.2505C168.193 12.2726 170.724 13.2946 173.086 14.3167C173.929 13.6353 175.11 13.8057 175.954 13.1243C177.135 12.2726 178.147 10.7395 178.653 9.37671C179.328 7.33257 178.315 5.62913 177.303 3.92568C176.628 2.90361 176.122 1.37051 175.11 0.518786C173.929 -0.332938 171.736 0.00775147 170.555 0.518786C169.037 1.20016 168.025 2.73327 167.013 4.09602C166.169 5.28844 164.988 7.50292 164.988 9.03602C164.988 10.7395 166.338 12.6133 167.519 13.465L165.663 11.2505H165.832Z" fill="#7CD9FD"/>
<path fill-rule="evenodd" clip-rule="evenodd" d="M187.256 225.885C187.256 225.885 186.582 226.566 186.244 226.906C186.582 227.417 186.75 227.928 187.425 228.098C187.762 228.098 187.931 228.098 188.268 228.098C188.605 227.758 188.268 227.588 188.437 227.247C188.605 226.566 188.774 226.396 188.437 225.885C188.268 225.544 188.099 225.374 187.593 225.374C187.256 225.374 186.75 225.374 186.582 225.714L187.088 226.055L187.256 225.885Z" fill="#7CD9FD"/>
<path fill-rule="evenodd" clip-rule="evenodd" d="M189.449 241.386C189.449 241.386 188.606 243.43 189.449 242.919C189.955 242.578 189.787 241.897 189.449 241.727L189.281 241.386H189.449Z" fill="#7CD9FD"/>
<path fill-rule="evenodd" clip-rule="evenodd" d="M237.697 269.493C237.023 270.344 237.023 270.685 236.685 271.537C237.023 271.877 237.529 271.877 237.866 271.877C238.372 271.877 238.541 271.707 238.541 271.196C238.541 270.685 238.709 270.344 238.541 270.004C238.541 269.493 238.035 269.152 237.529 269.323H237.697V269.493Z" fill="#7CD9FD"/>
<path fill-rule="evenodd" clip-rule="evenodd" d="M197.041 227.758C197.041 227.758 197.716 228.61 197.716 228.95C197.21 228.95 197.21 228.61 197.041 228.099C197.041 227.418 197.21 227.588 197.547 227.077C197.547 227.077 197.547 227.077 197.716 227.077L197.041 227.588V227.758Z" fill="#7CD9FD"/>
<path fill-rule="evenodd" clip-rule="evenodd" d="M243.264 186.024C243.264 186.024 242.59 186.705 242.253 187.046C242.421 187.386 242.253 187.897 242.927 187.897C243.264 187.897 243.602 187.386 243.77 187.046C243.939 186.705 243.939 186.364 244.108 185.854C244.108 185.683 244.108 184.662 243.77 185.343L243.264 185.854V186.024Z" fill="#7CD9FD"/>
<path fill-rule="evenodd" clip-rule="evenodd" d="M237.023 77.3442C237.023 77.3442 238.035 77.0036 238.541 77.0036C238.541 77.0036 238.878 77.0036 239.047 77.0036C239.553 77.0036 239.553 77.0036 239.721 77.3442C240.059 77.8551 240.059 78.1956 240.059 78.7065C239.721 80.5797 237.192 77.8551 238.035 77.1739H236.854L237.023 77.3442Z" fill="#7CD9FD"/>
<path fill-rule="evenodd" clip-rule="evenodd" d="M40.6566 80.5809C40.6566 80.5809 38.6322 80.9215 38.4635 81.9436C38.4635 82.7953 39.6444 83.6471 40.3192 83.8174C41.5001 84.1581 43.5245 84.3284 44.0306 82.9657C44.368 82.114 44.0306 80.5809 43.6932 79.8995C42.681 78.5367 40.6566 79.0477 39.1383 79.7291L40.6566 80.5809V80.5809Z" fill="#7CD9FD"/>
<path fill-rule="evenodd" clip-rule="evenodd" d="M249.001 271.537C248.663 268.641 248.157 265.916 250.688 264.383C252.037 263.531 254.568 263.361 255.749 264.383C256.592 265.064 257.436 266.427 258.11 267.279C258.954 268.641 258.785 268.641 258.279 270.004C257.267 273.07 256.592 274.944 253.555 274.944C249.675 274.944 249.001 271.878 249.001 268.13V271.537V271.537Z" fill="#7CD9FD"/>
<path fill-rule="evenodd" clip-rule="evenodd" d="M250.688 191.985C251.699 191.645 252.711 191.134 253.555 190.283C252.711 189.772 251.025 188.75 250.688 190.283V191.985Z" fill="#7CD9FD"/>
<path fill-rule="evenodd" clip-rule="evenodd" d="M29.5225 264.041C30.5344 263.701 31.5462 263.19 32.3895 262.338C31.5462 261.827 29.8598 260.806 29.5225 262.338V264.041Z" fill="#7CD9FD"/>
<path fill-rule="evenodd" clip-rule="evenodd" d="M29.5225 287.719C30.5344 287.379 31.5462 286.868 32.3895 286.016C31.5462 285.505 29.8598 284.484 29.5225 286.016V287.719Z" fill="#7CD9FD"/>
<path fill-rule="evenodd" clip-rule="evenodd" d="M194.848 202.718C195.86 201.355 197.547 198.97 199.403 200.333C200.584 201.185 200.921 203.229 199.74 204.081C198.728 204.762 197.885 205.103 196.704 205.443C195.86 205.614 194.511 205.103 194.848 203.74V202.888V202.718Z" fill="#7CD9FD"/>
<path fill-rule="evenodd" clip-rule="evenodd" d="M231.625 263.872C232.637 262.509 234.324 260.124 236.179 261.487C237.36 262.339 237.698 264.383 236.517 265.234C235.505 265.916 234.661 266.256 233.48 266.597C232.637 266.767 231.287 266.256 231.625 264.894V264.042V263.872Z" fill="#7CD9FD"/>
<path fill-rule="evenodd" clip-rule="evenodd" d="M226.057 61.3319C227.744 61.6726 230.612 61.8429 230.444 64.2277C230.444 65.5905 228.757 66.9532 227.407 66.4422C226.226 65.9312 225.551 65.2498 224.708 64.3981C224.033 63.7167 223.864 62.3539 225.214 61.8429L225.889 61.3319H226.057Z" fill="#7CD9FD"/>
<path fill-rule="evenodd" clip-rule="evenodd" d="M219.984 279.714C220.996 278.351 222.683 275.966 224.539 277.329C225.72 278.181 226.057 280.225 224.876 281.077C223.864 281.758 223.021 282.099 221.84 282.439C220.996 282.61 219.647 282.099 219.984 280.736V279.884V279.714Z" fill="#7CD9FD"/>
<path fill-rule="evenodd" clip-rule="evenodd" d="M170.049 200.844C168.7 201.696 166.338 202.888 166.169 204.762C166.169 205.954 166.506 206.636 167.519 207.147C168.362 207.658 169.712 207.658 170.555 207.147C171.905 206.465 173.254 205.443 173.929 204.081C174.267 203.059 174.267 202.377 173.929 201.525C173.761 201.014 173.254 200.333 172.58 200.163C170.893 199.481 169.712 201.355 168.362 202.037L170.049 200.844V200.844Z" fill="#7CD9FD"/>
<path fill-rule="evenodd" clip-rule="evenodd" d="M174.435 195.734C174.435 195.734 175.785 196.415 176.291 196.926C175.616 197.267 174.773 197.778 173.929 197.437C172.917 197.097 172.748 196.074 172.917 195.223C172.917 194.712 173.929 193.69 174.435 194.03C174.773 194.03 174.773 194.541 174.773 194.712C174.941 195.223 174.941 195.052 174.773 195.563H174.267L174.435 195.734Z" fill="#7CD9FD"/>
<path fill-rule="evenodd" clip-rule="evenodd" d="M212.73 187.217C209.019 190.453 205.645 194.371 203.62 198.97C202.608 201.355 204.464 201.525 206.488 201.014C210.537 200.163 214.754 198.97 218.803 197.948C221.165 197.267 224.708 196.074 226.395 194.03C227.744 192.497 228.25 189.772 227.913 187.728C227.576 185.002 225.551 183.81 223.021 183.128C217.285 181.595 209.187 187.728 206.994 193.179L212.561 187.217H212.73Z" fill="#7CD9FD"/>
<path fill-rule="evenodd" clip-rule="evenodd" d="M192.318 208.339C193.498 208.339 194.679 208.68 195.692 209.191C195.354 209.532 195.523 210.043 195.354 210.383C195.185 211.065 194.511 211.576 194.005 211.916C193.161 212.427 191.643 212.768 190.631 212.257C187.594 211.065 192.318 207.488 193.33 208.68L192.486 208.169L192.318 208.339Z" fill="#7CD9FD"/>
<path fill-rule="evenodd" clip-rule="evenodd" d="M20.9184 326.729C20.9184 326.729 20.2438 327.41 19.9065 327.75C20.2438 328.261 20.4124 328.772 21.087 328.943C21.4243 328.943 21.593 328.943 21.9303 328.943C22.2676 328.602 21.9303 328.432 22.0989 328.091C22.2676 327.41 22.4362 327.24 22.0989 326.729C21.9303 326.388 21.7616 326.218 21.2557 326.218C20.9184 326.218 20.4124 326.218 20.2438 326.558L20.7497 326.899L20.9184 326.729Z" fill="#7CD9FD"/>
<path fill-rule="evenodd" clip-rule="evenodd" d="M23.1117 342.06C23.1117 342.06 22.2685 344.103 23.1117 343.593C23.6177 343.252 23.449 342.571 23.1117 342.401C23.1117 342.401 23.1117 342.4 23.1117 342.23H22.9431L23.1117 342.06Z" fill="#7CD9FD"/>
<path fill-rule="evenodd" clip-rule="evenodd" d="M30.7034 328.603C30.7034 328.603 31.378 329.454 31.378 329.795C30.872 329.795 30.872 329.454 30.7034 328.943C30.7034 328.262 30.872 328.432 31.2093 327.921C31.2093 327.921 31.2093 327.921 31.378 327.921L30.7034 328.432V328.603Z" fill="#7CD9FD"/>
<path fill-rule="evenodd" clip-rule="evenodd" d="M26.1485 309.013C27.3294 309.013 28.5103 309.354 29.5225 309.865C29.1851 310.205 29.3538 310.717 29.1851 311.057C29.0164 311.739 28.3416 312.25 27.8355 312.59C26.992 313.101 25.4737 313.442 24.4615 312.931C21.4249 311.739 26.1485 308.161 27.1607 309.354L26.3172 308.843L26.1485 309.013Z" fill="#7CD9FD"/>
<path fill-rule="evenodd" clip-rule="evenodd" d="M219.984 64.2277C220.996 64.9091 222.177 65.5905 223.021 66.4422C223.864 67.6346 224.876 68.6567 225.551 69.8491C225.889 70.5305 226.732 71.8932 225.551 72.0636C224.202 72.2339 221.671 70.3601 220.659 69.6788C218.972 68.4864 217.285 67.2939 216.104 65.5905C215.429 64.7388 214.586 63.2057 215.092 62.1836C215.598 61.3319 216.441 61.1615 217.285 61.1615C218.297 61.1615 218.803 61.5022 219.647 62.1836C219.984 62.5243 221.84 64.3981 221.165 64.7388L219.815 64.2277H219.984Z" fill="#7CD9FD"/>
<path fill-rule="evenodd" clip-rule="evenodd" d="M233.311 181.936C233.311 181.936 228.925 184.491 230.781 185.343C231.793 185.854 233.649 185.683 234.661 185.343C235.505 185.002 236.517 184.321 235.842 183.299C234.661 181.255 231.793 182.447 230.444 183.299L233.311 181.936Z" fill="#7CD9FD"/>
<path fill-rule="evenodd" clip-rule="evenodd" d="M261.316 53.8367C259.966 54.6884 250.35 60.1394 254.905 62.5243C257.435 63.7167 262.328 63.376 264.858 62.3539C267.051 61.3319 269.413 59.9691 267.895 57.2436C265.027 51.9629 257.942 55.0291 254.23 57.2436L261.316 53.6664V53.8367Z" fill="#7CD9FD"/>
<path fill-rule="evenodd" clip-rule="evenodd" d="M30.8719 276.818C31.2093 279.032 31.7154 281.588 33.7398 283.121C35.7642 284.654 38.126 283.972 40.1504 282.78C41.6687 281.928 43.0183 280.906 44.5366 280.054C45.3801 279.543 46.0549 279.373 46.2236 278.181C46.2236 276.818 45.0427 275.114 44.3679 274.092C43.5244 272.9 41.6687 271.537 40.3191 271.026C37.2825 269.834 31.378 271.026 31.5467 275.285L31.2093 276.818H30.8719Z" fill="#7CD9FD"/>
<path fill-rule="evenodd" clip-rule="evenodd" d="M235.167 281.417C235.505 282.95 235.842 284.824 237.192 285.846C238.71 286.868 240.228 286.527 241.746 285.676C242.759 284.994 243.771 284.313 244.783 283.802C245.458 283.461 245.964 283.291 245.964 282.439C245.964 281.587 245.12 280.225 244.614 279.543C243.939 278.692 242.759 277.67 241.746 277.329C239.553 276.477 235.505 277.329 235.505 280.225L235.167 281.417V281.417Z" fill="#7CD9FD"/>
<path style="mix-blend-mode:screen" d="M216.61 218.049C230.772 218.049 242.253 206.457 242.253 192.157C242.253 177.857 230.772 166.264 216.61 166.264C202.448 166.264 190.968 177.857 190.968 192.157C190.968 206.457 202.448 218.049 216.61 218.049Z" fill="url(#paint24_radial_452_20073)"/>
<path style="mix-blend-mode:screen" fill-rule="evenodd" clip-rule="evenodd" d="M232.974 76.8333C229.769 81.4326 221.503 80.9215 214.755 75.9815C208.007 71.0415 205.139 63.2057 208.344 58.7767C211.549 54.1774 219.816 54.6884 226.564 59.6284C233.312 64.5684 236.179 72.4043 232.974 76.8333Z" fill="url(#paint25_radial_452_20073)"/>
<path fill-rule="evenodd" clip-rule="evenodd" d="M200.584 47.3635C200.584 47.3635 207.332 76.1518 226.226 87.0539C250.181 100.852 266.714 95.9118 266.714 95.9118C266.714 95.9118 245.289 95.2304 225.551 81.6028C209.019 70.1897 200.415 47.3635 200.415 47.3635H200.584Z" fill="url(#paint26_linear_452_20073)"/>
<path style="mix-blend-mode:multiply" opacity="0.4" fill-rule="evenodd" clip-rule="evenodd" d="M155.71 269.323L168.362 250.585C168.362 250.585 184.557 297.259 226.732 311.909L217.454 317.871C217.454 317.871 174.435 305.436 155.541 269.323H155.71Z" fill="url(#paint27_linear_452_20073)"/>
<path style="mix-blend-mode:multiply" fill-rule="evenodd" clip-rule="evenodd" d="M179.665 61.5022C179.665 61.5022 240.566 123.337 284.259 150.763C284.259 150.763 280.041 133.899 268.232 118.397C268.232 118.397 231.456 106.133 179.665 61.5022V61.5022Z" fill="url(#paint28_linear_452_20073)"/>
<path style="mix-blend-mode:screen" d="M108.162 159.787C136.495 140.966 149.791 110.863 137.859 92.55C125.928 74.2372 93.288 74.6493 64.9555 93.4704C36.623 112.291 23.3271 142.394 35.2583 160.707C47.1895 179.02 79.8297 178.608 108.162 159.787Z" fill="url(#paint29_radial_452_20073)"/>
<defs>
<linearGradient id="paint0_linear_452_20073" x1="49.2602" y1="120.612" x2="49.2602" y2="69.5084" gradientUnits="userSpaceOnUse">
<stop stop-color="#8200AD"/>
<stop offset="1" stop-color="#7B71FA"/>
</linearGradient>
<linearGradient id="paint1_linear_452_20073" x1="38.1261" y1="123.337" x2="57.3548" y2="64.678" gradientUnits="userSpaceOnUse">
<stop stop-color="#4E0086"/>
<stop offset="1" stop-color="#7900F9"/>
</linearGradient>
<radialGradient id="paint2_radial_452_20073" cx="0" cy="0" r="1" gradientUnits="userSpaceOnUse" gradientTransform="translate(55.8396 130.833) scale(234.998 237.29)">
<stop stop-color="#8FD9FD"/>
<stop offset="0.1" stop-color="#8CD3FC"/>
<stop offset="0.21" stop-color="#85C2FC"/>
<stop offset="0.35" stop-color="#7AA6FB"/>
<stop offset="0.5" stop-color="#6A80FA"/>
<stop offset="0.65" stop-color="#564FF9"/>
<stop offset="0.68" stop-color="#5245F9"/>
<stop offset="0.74" stop-color="#513FF2"/>
<stop offset="0.83" stop-color="#4E2FDE"/>
<stop offset="0.93" stop-color="#4A15BF"/>
<stop offset="1" stop-color="#4700A5"/>
</radialGradient>
<linearGradient id="paint3_linear_452_20073" x1="0.168706" y1="159.45" x2="210.537" y2="159.45" gradientUnits="userSpaceOnUse">
<stop offset="0.01" stop-color="#A1DEFD"/>
<stop offset="0.32" stop-color="#A0DBFC"/>
<stop offset="0.55" stop-color="#9FD1FC"/>
<stop offset="0.75" stop-color="#9CC1FC"/>
<stop offset="0.94" stop-color="#99ABFB"/>
<stop offset="1" stop-color="#98A2FB"/>
</linearGradient>
<linearGradient id="paint4_linear_452_20073" x1="212.73" y1="333.713" x2="212.73" y2="264.383" gradientUnits="userSpaceOnUse">
<stop stop-color="#B8C0FC"/>
<stop offset="1" stop-color="#627198"/>
</linearGradient>
<radialGradient id="paint5_radial_452_20073" cx="0" cy="0" r="1" gradientUnits="userSpaceOnUse" gradientTransform="translate(39.4757 99.4891) scale(192.486 194.363)">
<stop stop-color="#FFFFD9"/>
<stop offset="1"/>
</radialGradient>
<linearGradient id="paint6_linear_452_20073" x1="1.51831" y1="117.546" x2="185.401" y2="117.546" gradientUnits="userSpaceOnUse">
<stop stop-color="#B8C0FC"/>
<stop offset="1" stop-color="#7971AE"/>
</linearGradient>
<linearGradient id="paint7_linear_452_20073" x1="31.3781" y1="255.866" x2="292.694" y2="255.866" gradientUnits="userSpaceOnUse">
<stop stop-color="#B8C0FC"/>
<stop offset="1" stop-color="#7971AE"/>
</linearGradient>
<linearGradient id="paint8_linear_452_20073" x1="15.8578" y1="201.355" x2="276.667" y2="201.355" gradientUnits="userSpaceOnUse">
<stop stop-color="#B8C0FC"/>
<stop offset="1" stop-color="#7971AE"/>
</linearGradient>
<linearGradient id="paint9_linear_452_20073" x1="0.1687" y1="164.39" x2="256.592" y2="164.39" gradientUnits="userSpaceOnUse">
<stop stop-color="#B8C0FC"/>
<stop offset="1" stop-color="#7971AE"/>
</linearGradient>
<linearGradient id="paint10_linear_452_20073" x1="190.124" y1="143.097" x2="193.667" y2="143.097" gradientUnits="userSpaceOnUse">
<stop stop-color="#E3DBFD"/>
<stop offset="1" stop-color="#9F88D3"/>
</linearGradient>
<linearGradient id="paint11_linear_452_20073" x1="9.2785" y1="208.85" x2="10.1217" y2="208.85" gradientUnits="userSpaceOnUse">
<stop stop-color="#E3DBFD"/>
<stop offset="1" stop-color="#9F88D3"/>
</linearGradient>
<linearGradient id="paint12_linear_452_20073" x1="174.435" y1="81.6029" x2="268.232" y2="81.6029" gradientUnits="userSpaceOnUse">
<stop stop-color="#7B71FA"/>
<stop offset="1" stop-color="#8200AD"/>
</linearGradient>
<linearGradient id="paint13_linear_452_20073" x1="195.691" y1="309.013" x2="244.276" y2="162.626" gradientUnits="userSpaceOnUse">
<stop stop-color="#260074"/>
<stop offset="1" stop-color="#7030F9"/>
</linearGradient>
<linearGradient id="paint14_linear_452_20073" x1="210.263" y1="306.078" x2="256.498" y2="166.319" gradientUnits="userSpaceOnUse">
<stop stop-color="#6800AD"/>
<stop offset="1" stop-color="#9839F9"/>
</linearGradient>
<linearGradient id="paint15_linear_452_20073" x1="225.045" y1="265.916" x2="225.045" y2="164.561" gradientUnits="userSpaceOnUse">
<stop stop-color="#7900AD"/>
<stop offset="1" stop-color="#C35CFA"/>
</linearGradient>
<linearGradient id="paint16_linear_452_20073" x1="64.1059" y1="324.514" x2="64.1059" y2="265.064" gradientUnits="userSpaceOnUse">
<stop stop-color="#8CA6CA"/>
<stop offset="1" stop-color="#627198"/>
</linearGradient>
<linearGradient id="paint17_linear_452_20073" x1="47.4046" y1="307.48" x2="67.4909" y2="246.953" gradientUnits="userSpaceOnUse">
<stop stop-color="#260074"/>
<stop offset="1" stop-color="#7030F9"/>
</linearGradient>
<linearGradient id="paint18_linear_452_20073" x1="167.687" y1="360.116" x2="167.687" y2="333.713" gradientUnits="userSpaceOnUse">
<stop stop-color="#6800AD"/>
<stop offset="0.92" stop-color="#600EF6"/>
<stop offset="1" stop-color="#600EF3"/>
</linearGradient>
<linearGradient id="paint19_linear_452_20073" x1="48.5855" y1="317.19" x2="48.5855" y2="241.727" gradientUnits="userSpaceOnUse">
<stop stop-color="#6800AD"/>
<stop offset="1" stop-color="#9839F9"/>
</linearGradient>
<linearGradient id="paint20_linear_452_20073" x1="52.6342" y1="317.19" x2="52.6342" y2="241.727" gradientUnits="userSpaceOnUse">
<stop stop-color="#7900AD"/>
<stop offset="1" stop-color="#C35CFA"/>
</linearGradient>
<linearGradient id="paint21_linear_452_20073" x1="160.433" y1="217.538" x2="173.138" y2="178.942" gradientUnits="userSpaceOnUse">
<stop stop-color="#4E0086"/>
<stop offset="1" stop-color="#7900F9"/>
</linearGradient>
<linearGradient id="paint22_linear_452_20073" x1="164.819" y1="214.812" x2="175.292" y2="182.847" gradientUnits="userSpaceOnUse">
<stop stop-color="#8B00C4"/>
<stop offset="1" stop-color="#9839F9"/>
</linearGradient>
<linearGradient id="paint23_linear_452_20073" x1="216.61" y1="101.193" x2="231.889" y2="55.2876" gradientUnits="userSpaceOnUse">
<stop stop-color="#4E0086"/>
<stop offset="1" stop-color="#7900F9"/>
</linearGradient>
<radialGradient id="paint24_radial_452_20073" cx="0" cy="0" r="1" gradientUnits="userSpaceOnUse" gradientTransform="translate(216.61 192.157) scale(25.6423 25.8924)">
<stop stop-color="#5079FA"/>
<stop offset="0.09" stop-color="#4468D7"/>
<stop offset="0.28" stop-color="#304996"/>
<stop offset="0.46" stop-color="#1F2E61"/>
<stop offset="0.63" stop-color="#111A37"/>
<stop offset="0.78" stop-color="#070C18"/>
<stop offset="0.91" stop-color="#020306"/>
<stop offset="1"/>
</radialGradient>
<radialGradient id="paint25_radial_452_20073" cx="0" cy="0" r="1" gradientUnits="userSpaceOnUse" gradientTransform="translate(305.535 -56.823) rotate(36.2548) scale(15.2343 10.0844)">
<stop stop-color="#5079FA"/>
<stop offset="0.09" stop-color="#4468D7"/>
<stop offset="0.28" stop-color="#304996"/>
<stop offset="0.46" stop-color="#1F2E61"/>
<stop offset="0.63" stop-color="#111A37"/>
<stop offset="0.78" stop-color="#070C18"/>
<stop offset="0.91" stop-color="#020306"/>
<stop offset="1"/>
</radialGradient>
<linearGradient id="paint26_linear_452_20073" x1="233.649" y1="96.7635" x2="233.649" y2="47.3635" gradientUnits="userSpaceOnUse">
<stop stop-color="#9500D3"/>
<stop offset="1" stop-color="#C35CFA"/>
</linearGradient>
<linearGradient id="paint27_linear_452_20073" x1="191.305" y1="317.871" x2="191.305" y2="250.585" gradientUnits="userSpaceOnUse">
<stop stop-color="#B8C0FC"/>
<stop offset="1" stop-color="#7971AE"/>
</linearGradient>
<linearGradient id="paint28_linear_452_20073" x1="232.131" y1="150.763" x2="232.131" y2="61.5022" gradientUnits="userSpaceOnUse">
<stop stop-color="#8CA6CA"/>
<stop offset="1" stop-color="#627198"/>
</linearGradient>
<radialGradient id="paint29_radial_452_20073" cx="0" cy="0" r="1" gradientUnits="userSpaceOnUse" gradientTransform="translate(9.00604 245.601) rotate(-33.5958) scale(61.5983 39.6175)">
<stop stop-color="#8FFDFF"/>
<stop offset="0.17" stop-color="#6EC3C4"/>
<stop offset="0.4" stop-color="#477E7F"/>
<stop offset="0.6" stop-color="#284848"/>
<stop offset="0.78" stop-color="#122021"/>
<stop offset="0.92" stop-color="#050808"/>
<stop offset="1"/>
</radialGradient>
</defs>
</svg>
