<svg width="360" height="356" viewBox="0 0 360 356" fill="none" xmlns="http://www.w3.org/2000/svg">
<g clip-path="url(#clip0_430_15054)">
<path style="mix-blend-mode:screen" d="M180 360C279.411 360 360 279.411 360 180C360 80.5887 279.411 0 180 0C80.5887 0 0 80.5887 0 180C0 279.411 80.5887 360 180 360Z" fill="url(#paint0_radial_430_15054)"/>
<path style="mix-blend-mode:screen" d="M180 330.6C263.174 330.6 330.6 263.174 330.6 180C330.6 96.8259 263.174 29.4 180 29.4C96.8259 29.4 29.4 96.8259 29.4 180C29.4 263.174 96.8259 330.6 180 330.6Z" fill="url(#paint1_radial_430_15054)"/>
<path style="mix-blend-mode:screen" d="M180 333.3C264.665 333.3 333.3 264.665 333.3 180C333.3 95.3347 264.665 26.7 180 26.7C95.3347 26.7 26.7 95.3347 26.7 180C26.7 264.665 95.3347 333.3 180 333.3Z" fill="url(#paint2_radial_430_15054)"/>
<path fill-rule="evenodd" clip-rule="evenodd" d="M70.35 110.25C70.35 110.25 72 96.6 72.9 89.1C72.9 89.1 82.2 76.05 97.2 65.25L117 66.3C117 66.3 76.95 98.4 70.2 110.25H70.35Z" fill="url(#paint3_linear_430_15054)"/>
<path fill-rule="evenodd" clip-rule="evenodd" d="M97.2 65.25C97.2 65.25 97.2 76.2 87.15 84.9C77.1 93.6 72.75 90.6 72.75 90.6L70.35 108.15L117.15 66.3L97.35 65.25H97.2Z" fill="url(#paint4_linear_430_15054)"/>
<path fill-rule="evenodd" clip-rule="evenodd" d="M310.2 180C310.2 192.45 308.4 204.6 305.1 216C298.5 238.95 285.75 259.35 268.65 275.25C256.5 286.65 242.1 295.65 226.2 301.65C211.8 307.05 196.35 310.05 180 310.05C177.75 310.05 175.35 310.05 173.1 309.9C169.65 309.75 166.35 309.45 163.05 309C138 305.7 115.2 295.35 96.6 279.75C89.7 273.9 83.4 267.45 77.7 260.25C73.5 254.85 69.6 249.15 66.3 243.15C65.55 241.65 64.8 240.3 63.9 238.8C63.15 237.3 62.4 235.65 61.65 234.15C59.4 229.2 57.45 224.1 55.8 218.85C54.6 215.1 53.55 211.2 52.8 207.15C52.2 204.45 51.75 201.6 51.3 198.75C50.4 192.75 49.95 186.6 49.95 180.3C49.95 176.7 49.95 173.1 50.4 169.65C50.55 167.4 50.85 165.15 51.15 162.9C52.8 150.15 56.4 137.85 61.5 126.6C64.05 121.05 66.9 115.65 70.2 110.55C75.6 102 82.05 94.2 89.25 87.15C112.65 64.35 144.6 50.4 179.85 50.4C181.2 50.4 182.55 50.4 183.9 50.4C185.4 50.4 186.75 50.4 188.25 50.55C195.75 51 202.95 52.2 210 53.85C214.05 54.9 218.1 55.95 222.15 57.3C224.85 58.2 227.4 59.25 230.1 60.3C232.05 61.05 234 61.95 235.8 62.85C236.1 63 236.4 63.15 236.85 63.3C249.45 69.45 260.85 77.55 270.9 87.3C272.4 88.65 273.75 90.15 275.1 91.5C276 92.55 276.9 93.45 277.8 94.5C279.3 96.15 280.8 97.95 282.15 99.75C287.4 106.35 291.9 113.4 295.65 120.9C300.15 129.6 303.6 138.9 306 148.65C308.55 158.7 309.75 169.2 309.75 180H310.2Z" fill="url(#paint5_radial_430_15054)"/>
<path fill-rule="evenodd" clip-rule="evenodd" d="M237.15 63.15C237.15 63.15 236.25 63.15 235.8 63.3C234.3 63.6 233.25 63.3 231.75 63C230.7 62.7 229.95 62.25 228.9 62.1C227.25 61.8 225.9 61.2 224.25 60.9C222.6 60.6 221.1 60 219.6 59.4C218.4 58.95 217.65 59.1 216.45 59.4C215.25 59.7 214.35 59.25 213.3 58.8C212.1 58.35 210.9 58.2 209.7 57.9C206.4 57.15 203.1 56.1 199.8 55.35C197.7 54.9 195.9 54.9 193.8 54.75C192.15 54.75 190.65 55.2 189.15 55.2C188.1 55.2 187.2 55.05 186 54.9C184.95 54.75 183.75 54.9 182.7 54.9C181.05 54.6 180.15 54.45 178.5 54.9C177.3 55.35 176.25 55.2 175.05 55.35C173.7 55.35 172.05 55.8 170.7 56.1C168.3 56.7 165.6 57.15 163.05 57C161.55 57 159.3 56.55 157.8 57C156.9 57.3 156.45 58.35 155.7 59.1C154.5 60.45 152.85 61.65 151.8 63C150.75 64.5 149.55 66 149.7 67.8C149.7 69.45 150.6 71.25 151.2 72.75C151.95 74.25 152.1 75.75 150.6 76.8C148.65 78.15 146.25 79.35 144 79.95C142.5 80.4 141.15 80.7 139.8 79.5C139.35 79.05 139.05 78.3 138.45 78C137.85 77.7 137.25 78 136.5 78.15C134.85 78.6 133.35 79.2 131.7 79.5C130.65 79.65 129.75 80.25 128.85 80.4C127.65 80.7 126.75 79.8 125.55 80.1C123.75 80.55 122.1 81.3 120.3 81.3C118.95 81.3 117.45 80.85 116.25 80.1C115.65 79.8 115.5 79.35 114.75 79.65C114.15 79.65 113.25 80.55 112.95 81C112.5 81.6 112.35 82.35 111.9 83.1C111.45 83.85 111 84.45 110.55 85.2C109.8 86.7 108.9 88.05 108 89.25C107.25 90.15 106.8 91.35 106.05 92.25C105.6 92.7 104.85 93 104.4 93.3C103.05 94.2 101.7 95.1 100.35 96.15C97.8001 98.1 95.4001 100.35 92.8501 102.3C90.9001 103.8 88.2001 104.55 85.9501 105.6C84.6001 106.2 83.1 106.5 81.75 107.1C81.3 107.25 80.4001 107.55 80.1001 107.85C79.6501 108.3 79.3501 109.05 78.9001 109.65C77.7001 111.15 76.3501 112.65 75.4501 114.3C74.8501 115.35 74.55 116.25 74.25 117.45C73.8 118.95 72.9001 120.3 72.4501 121.8C71.4001 124.8 71.2501 128.1 70.0501 131.1C69.4501 132.9 68.4001 134.55 67.6501 136.2C66.3001 138.9 66.0001 142.2 65.7001 145.2C65.4001 147 65.7 149.1 65.85 150.75C66.15 152.55 66.15 154.5 66.15 156.45C66.15 158.55 64.8 160.5 63.6 162C62.4 163.35 60.6001 163.95 59.4001 165.3C58.3501 166.35 57.0001 167.55 56.5501 169.2C56.4001 169.95 56.5501 170.7 56.5501 171.3C56.2501 172.95 55.8001 174.45 55.6501 176.1C55.3501 178.05 55.3501 180 55.3501 182.1C55.3501 183.15 55.3501 184.2 55.3501 185.1C55.3501 186 55.8001 186.9 55.8001 187.95C55.8001 188.7 55.8001 189.3 55.8001 190.05C55.8001 190.8 56.2501 191.55 56.4001 192.3C56.8501 194.1 57.15 195.9 57.6 197.7C57.9 199.35 58.5001 201 59.1001 202.65C59.8501 204.9 60.3001 207.15 60.7501 209.4C61.0501 211.05 61.0501 212.85 61.3501 214.65C61.5001 216 61.8001 217.5 61.9501 218.85C61.9501 220.95 61.5 223.05 61.5 225.3C61.5 228.9 62.8501 232.5 63.7501 235.95C64.0501 236.85 64.2001 237.9 64.5001 238.95C55.5001 221.25 50.55 201.3 50.55 180.3C50.55 154.65 58.05 130.65 70.8 110.55C76.2 102 82.65 94.2 89.85 87.15C113.25 64.35 145.2 50.4 180.45 50.4C183.3 50.4 186.15 50.4 188.85 50.7C206.25 51.75 222.6 56.25 237.45 63.6L237.15 63.15Z" fill="url(#paint6_linear_430_15054)"/>
<path style="mix-blend-mode:multiply" fill-rule="evenodd" clip-rule="evenodd" d="M188.4 241.2C188.4 241.2 200.55 259.05 216.6 273.6C232.65 288.15 235.05 297.9 235.05 297.9C235.05 297.9 265.35 285.15 287.1 255.15C308.7 225.15 188.4 241.2 188.4 241.2Z" fill="url(#paint7_linear_430_15054)"/>
<path style="mix-blend-mode:screen" fill-rule="evenodd" clip-rule="evenodd" d="M103.05 281.7C89.55 270.45 78.45 256.5 70.5 240.75C65.4 230.85 61.65 220.2 59.4 208.95C57.6 200.25 56.7 191.25 56.7 182.1C56.7 156.45 64.2 132.45 76.95 112.35C82.35 103.8 88.8 96 96 88.95C119.4 66.15 151.35 52.2 186.6 52.2C189.45 52.2 192.3 52.2 195 52.5C203.85 53.1 212.4 54.6 220.65 56.7C210.45 53.4 199.8 51.3 188.7 50.55C185.85 50.4 183.15 50.25 180.3 50.25C145.05 50.25 113.1 64.35 89.7 87C82.5 94.05 76.05 101.85 70.65 110.4C57.75 130.5 50.4 154.5 50.4 180.15C50.4 189.3 51.3 198.3 53.1 207C55.5 218.1 59.25 228.75 64.2 238.8C72.15 254.55 83.4 268.5 96.75 279.75C111 291.75 127.8 300.6 146.25 305.55C130.35 300.3 115.65 292.2 103.05 281.55V281.7Z" fill="url(#paint8_radial_430_15054)"/>
<path style="mix-blend-mode:multiply" opacity="0.4" fill-rule="evenodd" clip-rule="evenodd" d="M210.3 53.55C203.25 51.9 195.9 50.7 188.55 50.25C187.05 50.25 185.7 50.1 184.2 50.1C187.35 51.9 190.2 54.9 190.95 58.05C192.15 63.45 193.8 68.4 194.85 73.65C195.9 78.9 195.6 85.5 193.2 90.3C191.7 93.3 189.9 95.85 187.5 98.4C185.85 100.2 184.35 101.1 183.15 103.2C181.95 105.3 180.75 107.25 179.4 109.35C177.3 112.35 175.2 115.5 172.95 118.2C172.2 119.25 171.15 119.85 170.55 121.05C169.65 122.55 169.2 123.75 168.15 124.95C165.75 127.5 162.15 129 159 130.2C154.8 131.7 151.35 133.5 147.3 135.6C141.75 138.45 137.25 142.2 130.8 142.35C128.7 142.35 126.45 142.05 124.35 142.35C121.65 142.5 119.25 143.85 116.55 144.3C114.3 144.75 111.9 145.2 109.65 145.65C105.9 146.25 102.75 147.45 99.15 148.35C94.35 149.55 89.3999 149.25 84.5999 149.85C80.2499 150.45 76.5 150.9 72.3 149.85C65.7 148.2 62.0999 145.05 63.5999 138C64.4999 133.35 64.1999 129.9 61.7999 126.3C56.6999 137.7 53.1 149.85 51.45 162.6C54.6 163.95 58.1999 164.55 60.8999 164.85C70.4999 165.9 80.85 161.55 89.7 158.25C94.2 156.6 98.8499 154.05 103.65 153.6C108.75 153 113.25 153.6 118.35 152.4C135.9 148.05 153.3 141.9 169.05 132.6C175.5 128.7 178.5 123.3 183 117.75C187.05 112.95 191.4 108.9 196.2 104.85C200.85 100.8 205.05 96.9 207.75 91.35C210.75 85.5 213.15 79.05 214.5 72.6C216 65.85 214.2 59.25 210.6 53.7L210.3 53.55ZM209.4 71.25C209.1 72.75 208.95 74.25 208.5 75.6C207.3 79.05 205.35 82.65 202.05 84.45C200.55 85.35 198.6 84.75 197.7 83.25C197.25 82.5 197.25 81.45 197.1 80.55C196.8 78.75 196.5 76.95 196.65 75.15C196.65 70.8 196.65 66.45 196.2 62.1C196.65 64.65 196.2 58.35 199.95 56.7C201.75 55.95 204.6 56.7 205.95 58.05C207.75 59.85 208.05 62.85 208.8 65.25C209.4 67.35 210 69.15 209.55 71.25H209.4Z" fill="url(#paint9_linear_430_15054)"/>
<path style="mix-blend-mode:multiply" opacity="0.4" fill-rule="evenodd" clip-rule="evenodd" d="M190.65 278.85C190.65 278.85 189.9 278.85 189.6 279L192.15 279.3C192.15 279.3 191.25 279 190.65 278.85ZM190.65 278.85C190.65 278.85 189.9 278.85 189.6 279L192.15 279.3C192.15 279.3 191.25 279 190.65 278.85ZM306.3 148.65C306.3 152.1 305.25 155.4 305.25 158.85C305.25 163.35 304.35 166.95 303.15 171.3C302.4 174.3 300.75 176.55 299.7 179.4C298.5 182.7 296.85 185.55 295.2 188.7C291.75 194.85 288.45 201 286.95 207.9C285.6 214.2 285.3 219.45 282.3 225.3C279.3 230.85 274.8 235.5 271.5 240.9C270 243.45 268.95 243.3 266.7 244.95C264.15 246.75 261.75 249.6 259.35 251.55C254.1 255.75 249.15 258.75 242.7 261.15C238.65 262.65 234.75 263.85 230.4 264.6C227.55 265.05 224.85 264.6 222.15 265.05C217.8 265.8 213.6 267.15 209.4 268.5C202.5 270.75 195.3 272.1 188.4 274.2C183.6 275.7 178.8 276.6 174 277.65C171 278.25 168.6 279.9 165.45 279.3C162.3 278.7 159.45 277.65 156.45 276.6C152.55 275.4 149.25 275.25 145.05 275.25C139.35 275.25 132.9 276.15 127.35 275.1C121.05 273.9 114.9 272.25 108.6 270.9C104.85 270.15 102 268.5 98.4 266.85C95.1 265.35 91.65 264.9 88.35 263.85C84.75 262.65 81.3 261 77.7 260.1C83.25 267.3 89.55 273.75 96.6 279.6C115.05 295.2 137.85 305.55 163.05 308.85C166.35 309.3 169.8 309.6 173.1 309.75C180.45 308.1 187.65 305.85 195 303.6C207.3 299.7 217.95 292.35 230.25 288.75C234.9 287.4 238.95 285.9 243.3 283.8C246.45 282.3 249.75 281.85 253.05 280.5C264.45 275.7 273.15 264.6 278.25 253.65C280.5 248.7 282.75 243.15 286.95 239.4C288.6 237.9 290.7 236.55 292.2 234.75C293.85 232.8 295.05 230.55 296.55 228.45C299.1 224.7 301.65 221.1 304.35 217.35C304.65 216.9 304.95 216.45 305.25 216C308.55 204.6 310.35 192.45 310.35 180C310.35 169.2 309 158.7 306.6 148.65H306.3ZM187.05 279.75C187.05 279.75 188.25 278.85 188.85 278.7C189.3 278.55 190.05 278.7 190.8 278.7C191.7 278.7 192.75 278.4 193.65 278.7C194.1 279 195.15 279.45 195.45 280.05C195.75 280.65 195.45 280.95 195 281.4C194.55 281.85 194.1 281.85 193.5 282C192 282.3 190.65 282.45 189.15 282.45C188.25 282.45 186.9 282.45 186.45 281.55C186 280.8 186.75 280.05 187.35 279.6L187.05 279.75ZM195.6 296.7C194.85 297.75 193.95 298.8 192.9 299.55C191.85 300.3 190.8 300.75 189.75 301.35C187.05 302.85 184.35 304.35 181.5 305.25C180.3 305.55 179.1 305.55 177.9 305.55C176.4 305.55 174.9 305.7 173.55 305.7C171.75 305.7 170.1 306.15 168.3 306.15C166.5 306.15 164.85 306.15 163.05 306.45C160.2 306.6 157.5 306.15 154.8 305.1C152.4 304.2 149.85 303 147.6 301.5C146.1 300.45 144.75 298.95 143.4 297.6C142.2 296.4 141.15 295.2 140.4 293.55C140.1 292.95 139.95 292.35 139.95 291.75C139.95 291.45 140.1 291.15 140.1 291.15C140.55 290.7 141.15 290.4 141.6 290.25C142.5 289.8 143.55 289.65 144.6 289.5C147 289.2 149.55 289.5 151.95 289.8C153.45 289.8 154.65 289.95 156 289.8C157.8 289.5 159.75 288.9 161.55 288.45C165.9 287.25 170.25 286.35 174.75 285.9C179.25 285.45 183.9 284.85 188.55 285.75C190.2 286.05 192.3 286.5 193.8 287.55C194.85 288.3 195.75 289.5 196.35 290.7C197.4 292.65 196.95 295.05 195.6 296.85V296.7ZM230.1 285.45C229.35 286.35 228.15 286.95 227.1 287.55C225.75 288.45 224.25 289.35 222.9 290.1C221.7 290.85 220.5 291.45 219.3 291.9C218.1 292.5 216.75 293.1 215.55 293.7C214.2 294.45 212.7 294.9 211.35 295.35C210.3 295.8 209.25 296.25 208.05 295.95C207.15 295.8 206.1 295.35 205.5 294.75C204.45 293.7 204.75 292.65 205.05 292.05C205.05 291.15 204.75 289.65 205.05 288.75C205.2 288.15 205.95 287.4 206.25 286.8C207.45 284.7 209.1 283.2 210.75 281.55C212.25 280.05 213.75 279 215.7 278.25C217.95 277.5 220.65 277.35 222.9 277.05C225.45 276.75 229.8 276.6 231 279.45C231.75 281.55 231.45 283.35 230.1 285.15V285.45ZM192.15 279.3C192.15 279.3 191.25 279 190.65 278.85C190.2 278.85 189.9 278.85 189.6 279L192.15 279.3Z" fill="url(#paint10_linear_430_15054)"/>
<path style="mix-blend-mode:multiply" opacity="0.4" fill-rule="evenodd" clip-rule="evenodd" d="M295.95 120.9V121.35C295.8 124.95 294.3 127.35 293.1 130.65C292.05 133.35 290.85 135.6 289.5 138.15C287.25 142.35 286.2 146.25 284.55 150.75C282 157.8 280.65 164.85 276.6 171.3C272.85 177 272.1 183.9 269.1 190.05C265.65 196.8 260.55 201.75 255 206.7C252.6 208.95 250.5 211.65 248.25 214.05C245.85 216.6 244.05 219.9 241.2 222C235.05 226.5 228.45 230.25 222.45 235.05C218.85 237.9 216.3 241.65 212.4 243.9C208.5 246.3 204.15 247.95 200.25 250.35C196.65 252.45 193.2 254.85 189.45 256.35C185.1 258.15 181.35 257.55 176.85 257.85C171.9 258 166.65 259.35 162 261C158.1 262.35 154.8 263.7 150.9 262.35C148.2 261.45 145.95 259.65 143.1 259.05C136.65 257.7 129.3 259.05 122.7 258.9C117.6 258.9 111.9 257.55 106.95 256.5C102 255.6 97.95 252.15 93.15 250.65C87.3 248.85 80.4 250.35 74.7 248.1C72.3 247.2 70.2 245.4 68.1 244.05C67.65 243.75 67.2 243.45 66.75 243.3C66 241.8 65.25 240.45 64.35 238.95C65.7 239.55 67.2 240.15 68.55 240.9C76.05 244.5 85.35 243.9 93.3 245.25C102.3 246.9 111.45 249.15 120.6 250.2C124.35 250.65 128.1 250.65 131.7 250.2C136.8 249.6 142.2 249.75 147.3 248.85C156.15 247.35 164.7 243.15 173.85 244.35C175.5 244.5 177.45 245.55 179.1 245.4C181.65 245.4 183.45 243.15 185.4 241.8C189 239.55 192.9 240 196.05 237C199.2 234 202.65 232.2 206.4 230.25C216.3 225.15 224.4 217.05 232.2 209.25C238.8 202.8 245.1 195.9 249.6 187.8C253.95 179.85 253.05 170.25 256.35 162C258.75 156 260.7 150.45 264.6 145.35C266.4 142.8 268.8 140.7 270.75 138.3C272.85 135.75 274.2 133.05 275.7 130.05C277.5 126.9 279.75 123.9 281.1 120.6C282.45 117.3 282.3 114.45 282.3 111.15C282.3 107.4 282.3 103.65 282.3 100.05C287.55 106.65 292.05 113.7 295.8 121.2L295.95 120.9Z" fill="url(#paint11_linear_430_15054)"/>
<path style="mix-blend-mode:multiply" opacity="0.4" fill-rule="evenodd" clip-rule="evenodd" d="M275.25 91.5C273.9 90 272.55 88.65 271.05 87.3C261.15 77.55 249.6 69.45 237 63.3C236.7 63.15 236.4 63 235.95 62.85C234 61.95 232.2 61.05 230.25 60.3C227.7 59.25 225 58.2 222.3 57.3C223.2 57.9 224.1 58.35 224.4 58.5C226.05 59.25 227.4 59.85 228.45 61.35C229.5 62.85 230.1 63.9 230.1 65.7C230.1 67.35 230.4 69.15 230.7 70.8C231 72.3 231.75 73.8 232.05 75.45C232.2 76.35 232.35 77.25 232.65 78.15C233.4 80.25 234 82.5 234.45 84.75C235.2 88.8 233.1 92.1 231.75 95.7C229.5 101.55 228 107.4 226.35 113.4C225 118.05 222.45 122.85 218.85 126.15C215.4 129.6 210.15 130.35 207 133.95C204.3 137.1 200.85 140.25 196.95 142.05C192.45 144.15 187.8 145.8 183 147.3C179.55 148.35 176.1 148.35 172.65 149.25C168.45 150.3 164.55 152.4 160.5 154.2C156.3 156 152.25 158.4 148.05 160.2C143.7 162 139.8 164.55 135.45 166.2C133.35 167.1 131.1 167.4 129 168.15C124.65 169.65 120.3 172.5 115.65 173.1C114 173.25 112.35 173.7 110.85 173.7C109.5 173.7 108.45 173.85 107.1 174.3C103.05 175.95 100.5 180.45 95.85 180.45C91.5 180.45 87.3 180.3 83.1 180.75C81 181.05 79.0501 180.75 76.9501 180.75C76.3501 180.75 75.6 180.75 75 180.75C74.25 180.45 73.5001 179.85 72.9001 179.4C71.4001 178.5 69.9001 177.45 68.5501 176.4C65.8501 174.3 62.2501 175.5 59.2501 174.9C58.3501 174.75 57 174.9 56.1 174.3C54.1501 173.1 51.75 170.85 50.25 169.5C49.95 172.95 49.8 176.55 49.8 180.15C49.8 186.45 50.2501 192.6 51.1501 198.6C51.6001 201.45 52.05 204.3 52.65 207C53.4 210.9 54.4501 214.8 55.6501 218.7C57.3001 223.95 59.25 229.05 61.5 234C65.1 234.6 68.7001 235.05 72.3001 234.45C77.4001 233.7 82.5001 232.95 87.6001 233.1C92.4001 233.25 96.9001 234.9 101.7 235.8C106.95 236.7 112.5 237.45 117.9 237.75C122.85 238.05 127.65 238.5 132.6 238.95C136.35 239.4 139.95 240.15 143.7 240.3C153.3 240.9 162.6 238.5 171.9 237.45C176.55 237 181.2 235.8 185.85 234.75C188.7 234.15 191.4 233.4 193.95 231.9C197.25 229.8 199.35 226.65 202.2 224.25C205.5 221.55 208.8 218.85 212.25 216.15C215.1 213.9 217.8 211.5 220.8 209.55C223.05 208.05 225.45 206.55 227.55 204.9C231.75 201.6 235.2 197.7 238.65 193.65C243.6 187.95 245.55 180 247.5 172.95C249.3 166.5 250.5 159.9 254.1 154.05C255.9 151.2 257.1 147.9 258 144.6C258.45 142.5 258.75 140.25 259.65 138.3C261.15 135.15 264 132.9 265.8 129.9C267.15 127.5 268.8 125.4 269.7 122.85C271.65 117.75 273.15 112.8 273.9 107.4C274.5 103.35 275.85 99.75 277.05 96C277.2 95.4 277.5 94.8 277.65 94.05C276.75 93 275.85 91.95 274.95 91.05L275.25 91.5ZM106.05 180.3C106.05 180.3 111.15 177.75 111.9 177.45C111.9 177.45 111.9 177.45 111.75 177.45L108.6 178.8C112.05 177.6 118.5 181.2 115.35 185.25C114.45 186.45 112.05 187.05 110.7 187.2C109.35 187.5 108.45 187.05 107.55 185.7C106.8 184.65 106.35 182.85 106.05 181.65C106.05 181.2 105.75 180.6 106.05 180.15V180.3ZM67.35 215.25C63.6 214.2 61.0501 212.85 58.6501 209.55C57.1501 207.45 55.8001 205.5 55.3501 202.95C55.0501 200.85 54.1501 199.05 54.7501 196.95C55.2001 195.3 55.8 193.5 56.55 192C57.45 190.2 58.6501 188.55 58.8001 187.95C62.5501 187.65 66.15 187.5 69.9 187.5C74.1 187.5 78.3001 187.95 82.6501 188.1C84.6001 188.1 86.55 188.1 88.35 187.8C90.15 187.5 91.9501 186.9 93.9001 186.6C97.2001 186 100.2 185.7 103.2 187.35C105.45 188.55 106.65 191.1 107.7 193.5C108.3 194.85 108.6 195.75 108.6 197.25C108.6 199.05 108.6 200.85 108.3 202.5C108.3 203.1 108.15 203.85 108 204.45C105.3 210.3 97.9501 212.25 92.5501 214.2C84.6001 217.2 75.6 217.65 67.35 215.4V215.25ZM125.85 227.7C124.2 232.05 117 233.55 112.8 233.7C110.7 233.7 108.3 233.4 106.5 232.35C105.45 231.75 104.4 230.55 103.95 229.65C103.5 228.9 102.45 227.4 100.35 228.15C100.8 225.75 101.55 223.5 102.45 221.4C103.35 220.35 104.4 219.3 105.45 218.4C107.4 216.6 109.5 215.1 111.75 214.05C115.35 212.25 119.1 213.6 122.55 215.25C124.95 216.3 126.75 217.95 127.2 220.5C127.8 223.35 126.75 225.45 125.7 228.15L125.85 227.7ZM174 226.95C172.65 230.1 170.85 230.85 168 232.35C164.55 234.15 160.5 235.35 156.6 235.35C154.65 235.35 152.85 234.45 151.05 233.7C149.85 233.25 148.65 232.95 147.6 232.05C145.05 229.65 144.6 226.2 146.25 226.95C145.2 224.85 144.6 222.6 144.45 220.35C144.9 220.05 145.2 219.6 145.35 219C146.7 216.45 149.25 214.35 151.8 212.85C156.3 210.3 162 210 166.8 211.95C168.9 212.85 170.25 213.9 171.9 215.55C172.65 216.3 173.7 217.05 174.3 217.95C175.8 220.35 175.35 224.55 174.3 226.95H174ZM188.85 226.5C188.85 226.5 186.75 228.3 185.7 228.15C184.95 228 183.45 226.35 183.6 225.45L183.15 225C184.35 223.2 185.4 221.4 186.6 219.6C188.4 220.35 189.9 220.2 190.95 222.15C192 223.95 190.2 225.45 188.85 226.5V226.5ZM225.6 140.25C224.1 142.2 222.15 144 219.9 144.9C217.05 146.1 213.3 147 213.15 142.65C213.15 140.1 213.45 138.3 214.65 136.05C216.3 132.75 217.8 132 220.95 130.35C222.15 130.35 223.35 130.8 224.25 131.1C226.05 131.7 227.7 133.2 228 135.15C228.3 137.1 226.8 138.75 225.75 140.25H225.6ZM259.95 121.8C258.6 126.15 256.8 130.2 254.85 134.25C252.6 139.2 252.3 144.45 251.1 149.7C250.5 152.7 249 156 246.15 157.05C244.95 157.5 243.6 157.5 242.25 157.5C241.05 157.5 238.65 157.95 238.8 159C238.05 156.9 236.85 154.2 236.25 151.8C235.8 149.25 235.5 146.4 235.05 143.85C234.6 141.15 234.45 138.45 234.15 135.6C234 133.05 233.4 130.35 233.4 127.8C233.4 119.25 238.2 108.75 246.15 104.7C248.55 103.5 250.95 102.9 253.65 103.35C256.8 103.8 258.6 104.7 259.95 107.7C261.9 111.75 261.15 117.3 259.8 121.65L259.95 121.8Z" fill="url(#paint12_linear_430_15054)"/>
<path style="mix-blend-mode:multiply" opacity="0.4" fill-rule="evenodd" clip-rule="evenodd" d="M222 129.75C222 129.75 221.25 130.2 220.8 130.35C220.05 130.35 219.45 130.35 218.85 130.35L222 129.9V129.75Z" fill="url(#paint13_linear_430_15054)"/>
<path style="mix-blend-mode:multiply" opacity="0.4" fill-rule="evenodd" clip-rule="evenodd" d="M58.8 187.95C58.8 187.95 58.35 187.95 58.2 187.95C58.65 187.65 58.95 187.65 58.8 187.95Z" fill="url(#paint14_linear_430_15054)"/>
<path fill-rule="evenodd" clip-rule="evenodd" d="M205.05 52.5L227.85 43.5C227.85 43.5 264.15 57.6 287.1 88.5L288.6 108.3C288.6 108.3 245.4 91.65 205.2 52.5H205.05Z" fill="url(#paint15_linear_430_15054)"/>
<path fill-rule="evenodd" clip-rule="evenodd" d="M288 253.2C288 253.2 268.8 273.9 254.4 278.55L242.55 282.15C242.55 282.15 188.4 262.65 185.4 228.75C182.85 200.25 231.6 156.6 244.8 151.35C258 146.1 273.45 149.1 273.45 149.1L288 253.05V253.2Z" fill="url(#paint16_linear_430_15054)"/>
<path fill-rule="evenodd" clip-rule="evenodd" d="M273.45 149.25C262.05 145.65 212.7 168.3 199.35 219.3C196.65 229.65 221.7 268.95 251.55 278.55C261.45 281.7 307.05 241.95 308.85 215.1C310.8 188.1 290.25 154.65 273.3 149.25H273.45Z" fill="url(#paint17_linear_430_15054)"/>
<path fill-rule="evenodd" clip-rule="evenodd" d="M202.5 225.3C209.55 167.55 262.05 148.8 273.45 152.4C281.7 154.95 293.85 167.1 300.75 179.1C293.55 164.4 282.9 152.4 273.3 149.25C261.9 145.65 212.55 168.3 199.2 219.3C198.3 222.9 200.7 229.95 205.5 238.05C202.8 232.5 202.05 228 202.35 225.15L202.5 225.3Z" fill="url(#paint18_linear_430_15054)"/>
<path style="mix-blend-mode:multiply" fill-rule="evenodd" clip-rule="evenodd" d="M106.05 287.25C106.05 287.25 117.75 291.6 126.45 289.2C126.45 289.2 129.75 261.3 119.25 243.6C108.75 225.75 91.05 252.75 91.05 252.75L87 269.85C87 269.85 96.9 281.7 106.2 287.4L106.05 287.25Z" fill="url(#paint19_linear_430_15054)"/>
<path fill-rule="evenodd" clip-rule="evenodd" d="M116.25 282.75L123.75 280.8C123.75 280.8 127.35 265.35 121.05 247.95C113.85 228.15 87.6 213.45 83.7 213.15C79.8 212.85 75.9 221.7 75.9 221.7L116.1 282.75H116.25Z" fill="url(#paint20_linear_430_15054)"/>
<path fill-rule="evenodd" clip-rule="evenodd" d="M235.05 297.9L222.45 314.25C222.45 314.25 200.7 324.75 178.8 319.65L162.9 309L234.9 297.9H235.05Z" fill="url(#paint21_linear_430_15054)"/>
<path fill-rule="evenodd" clip-rule="evenodd" d="M70.35 233.85C71.7 227.85 76.95 217.95 81.6 216.9C86.25 215.85 108.75 237.15 113.85 250.8C118.95 264.45 116.4 279.6 116.1 282.75C115.8 285.9 90.45 277.2 77.7 266.7C64.95 256.2 70.2 233.85 70.2 233.85H70.35Z" fill="url(#paint22_linear_430_15054)"/>
<path fill-rule="evenodd" clip-rule="evenodd" d="M113.85 250.8C108.75 237.15 86.25 215.85 81.6 216.9C79.8 217.2 77.85 219 76.2 221.25C77.25 220.35 78.3 219.6 79.35 219.45C84.15 218.55 106.8 235.35 111.9 249C118.2 265.8 114.75 277.95 114.15 283.2C115.35 283.2 116.1 283.2 116.25 282.6C116.55 279.45 119.1 264.3 114 250.65L113.85 250.8Z" fill="url(#paint23_linear_430_15054)"/>
<path fill-rule="evenodd" clip-rule="evenodd" d="M184.5 192.75C178.95 190.05 185.25 165.45 190.8 160.2C196.35 154.8 210.75 167.4 212.55 177.6C214.5 187.8 197.4 198.9 184.5 192.75Z" fill="url(#paint24_linear_430_15054)"/>
<path fill-rule="evenodd" clip-rule="evenodd" d="M190.2 190.95C185.7 188.7 190.8 168.3 195.3 163.95C199.8 159.45 211.2 169.95 212.7 178.35C214.2 186.9 200.55 195.9 190.2 190.95Z" fill="url(#paint25_linear_430_15054)"/>
<path fill-rule="evenodd" clip-rule="evenodd" d="M227.85 43.5C227.85 43.5 229.05 57.3 244.65 74.4C260.25 91.35 287.1 88.5 287.1 88.5L288.6 108.3C288.6 108.3 231.45 83.1 205.2 52.5L228 43.5H227.85Z" fill="url(#paint26_linear_430_15054)"/>
<path fill-rule="evenodd" clip-rule="evenodd" d="M272.7 166.2C272.7 166.2 270.6 167.7 271.8 168.6C272.1 168.75 272.4 168.6 272.7 168.75C273 168.75 273 169.05 273.3 168.9C274.2 168.6 273.9 165.9 272.85 166.5V166.2H272.7Z" fill="#7CD9FD"/>
<path fill-rule="evenodd" clip-rule="evenodd" d="M326.55 143.1C326.55 143.1 324.45 144.6 325.65 145.5C325.95 145.65 326.25 145.5 326.55 145.65C326.85 145.65 326.85 145.95 327.15 145.8C328.05 145.5 327.75 142.8 326.7 143.4V143.1H326.55Z" fill="#7CD9FD"/>
<path fill-rule="evenodd" clip-rule="evenodd" d="M302.85 238.8C302.85 238.8 300.75 240.3 301.95 241.2C302.25 241.35 302.55 241.2 302.85 241.35C303.15 241.35 303.15 241.65 303.45 241.5C304.35 241.2 304.05 238.5 303 239.1V238.8H302.85Z" fill="#7CD9FD"/>
<path fill-rule="evenodd" clip-rule="evenodd" d="M277.35 175.65C277.35 175.65 278.25 175.35 278.7 175.35C278.7 175.95 279.3 177 278.55 177.45C277.95 177.75 278.1 176.55 277.8 176.4L277.5 175.8L277.35 175.65Z" fill="#7CD9FD"/>
<path fill-rule="evenodd" clip-rule="evenodd" d="M191.85 181.35C192.75 181.65 193.5 182.1 194.4 182.4C194.7 182.1 195.15 182.25 195.45 181.95C195.9 181.65 196.2 181.05 196.35 180.6C196.65 179.85 196.35 179.25 195.9 178.65C195.75 178.35 195.45 177.75 195.15 177.45C194.7 177.15 193.95 177.3 193.5 177.45C193.05 177.75 192.6 178.2 192.3 178.65C192 179.1 191.55 179.85 191.55 180.3C191.55 180.9 192 181.5 192.45 181.8L191.85 181.05V181.35Z" fill="#7CD9FD"/>
<path fill-rule="evenodd" clip-rule="evenodd" d="M70.65 246.3C71.55 246.6 72.3 247.05 73.2 247.35C73.5 247.05 73.95 247.2 74.25 246.9C74.7 246.6 75 246 75.15 245.55C75.45 244.8 75.15 244.2 74.7 243.6C74.55 243.3 74.25 242.7 73.95 242.4C73.5 242.1 72.75 242.25 72.3 242.4C71.85 242.7 71.4 243.15 71.1 243.6C70.8 244.05 70.35 244.8 70.35 245.25C70.35 245.85 70.8 246.45 71.25 246.75L70.65 246V246.3Z" fill="#7CD9FD"/>
<path fill-rule="evenodd" clip-rule="evenodd" d="M306.9 280.05C307.8 280.35 308.55 280.8 309.45 281.1C309.75 280.8 310.2 280.95 310.5 280.65C310.95 280.35 311.25 279.75 311.4 279.3C311.7 278.55 311.4 277.95 310.95 277.35C310.8 277.05 310.5 276.45 310.2 276.15C309.75 275.85 309 276 308.55 276.15C308.1 276.45 307.65 276.9 307.35 277.35C307.05 277.8 306.6 278.55 306.6 279C306.6 279.6 307.05 280.2 307.5 280.5L306.9 279.75V280.05Z" fill="#7CD9FD"/>
<path fill-rule="evenodd" clip-rule="evenodd" d="M289.95 256.65C290.85 256.95 291.6 257.4 292.5 257.7C292.8 257.4 293.25 257.55 293.55 257.25C294 256.95 294.3 256.35 294.45 255.9C294.75 255.15 294.45 254.55 294 253.95C293.85 253.65 293.55 253.05 293.25 252.75C292.8 252.45 292.05 252.6 291.6 252.75C291.15 253.05 290.7 253.5 290.4 253.95C290.1 254.4 289.65 255.15 289.65 255.6C289.65 256.2 290.1 256.8 290.55 257.1L289.95 256.35V256.65Z" fill="#7CD9FD"/>
<path fill-rule="evenodd" clip-rule="evenodd" d="M54 92.7C56.1 93.6 58.35 94.5 60.45 95.4C61.2 94.8 62.25 94.95 63 94.35C64.05 93.6 64.95 92.25 65.4 91.05C66 89.25 65.1 87.75 64.2 86.25C63.6 85.35 63.15 84 62.25 83.25C61.2 82.5 59.25 82.8 58.2 83.25C56.85 83.85 55.95 85.2 55.05 86.4C54.3 87.45 53.25 89.4 53.25 90.75C53.25 92.25 54.45 93.9 55.5 94.65L53.85 92.7H54Z" fill="#7CD9FD"/>
<path fill-rule="evenodd" clip-rule="evenodd" d="M197.4 13.95C199.5 14.85 201.75 15.75 203.85 16.65C204.6 16.05 205.65 16.2 206.4 15.6C207.45 14.85 208.35 13.5 208.8 12.3C209.4 10.5 208.5 8.99999 207.6 7.49999C207 6.59999 206.55 5.24999 205.65 4.49999C204.6 3.74999 202.65 4.04999 201.6 4.49999C200.25 5.09999 199.35 6.44999 198.45 7.64999C197.7 8.69999 196.65 10.65 196.65 12C196.65 13.5 197.85 15.15 198.9 15.9L197.25 13.95H197.4Z" fill="#7CD9FD"/>
<path fill-rule="evenodd" clip-rule="evenodd" d="M216.45 202.95C216.45 202.95 215.85 203.55 215.55 203.85C215.85 204.3 216 204.75 216.6 204.9C216.9 204.9 217.05 204.9 217.35 204.9C217.65 204.6 217.35 204.45 217.5 204.15C217.65 203.55 217.8 203.4 217.5 202.95C217.35 202.65 217.2 202.5 216.75 202.5C216.45 202.5 216 202.5 215.85 202.8L216.3 203.1L216.45 202.95Z" fill="#7CD9FD"/>
<path fill-rule="evenodd" clip-rule="evenodd" d="M218.4 216.6C218.4 216.6 217.65 218.4 218.4 217.95C218.85 217.65 218.7 217.05 218.4 216.9L218.25 216.6H218.4Z" fill="#7CD9FD"/>
<path fill-rule="evenodd" clip-rule="evenodd" d="M261.3 241.35C260.7 242.1 260.7 242.4 260.4 243.15C260.7 243.45 261.15 243.45 261.45 243.45C261.9 243.45 262.05 243.3 262.05 242.85C262.05 242.4 262.2 242.1 262.05 241.8C262.05 241.35 261.6 241.05 261.15 241.2H261.3V241.35Z" fill="#7CD9FD"/>
<path fill-rule="evenodd" clip-rule="evenodd" d="M225.15 204.6C225.15 204.6 225.75 205.35 225.75 205.65C225.3 205.65 225.3 205.35 225.15 204.9C225.15 204.3 225.3 204.45 225.6 204C225.6 204 225.6 204 225.75 204L225.15 204.45V204.6Z" fill="#7CD9FD"/>
<path fill-rule="evenodd" clip-rule="evenodd" d="M266.25 167.85C266.25 167.85 265.65 168.45 265.35 168.75C265.5 169.05 265.35 169.5 265.95 169.5C266.25 169.5 266.55 169.05 266.7 168.75C266.85 168.45 266.85 168.15 267 167.7C267 167.55 267 166.65 266.7 167.25L266.25 167.7V167.85Z" fill="#7CD9FD"/>
<path fill-rule="evenodd" clip-rule="evenodd" d="M260.7 72.15C260.7 72.15 261.6 71.85 262.05 71.85C262.05 71.85 262.35 71.85 262.5 71.85C262.95 71.85 262.95 71.85 263.1 72.15C263.4 72.6 263.4 72.9 263.4 73.35C263.1 75 260.85 72.6 261.6 72H260.55L260.7 72.15Z" fill="#7CD9FD"/>
<path fill-rule="evenodd" clip-rule="evenodd" d="M86.1 75C86.1 75 84.3 75.3 84.15 76.2C84.15 76.95 85.2 77.7 85.8 77.85C86.85 78.15 88.65 78.3 89.1 77.1C89.4 76.35 89.1 75 88.8 74.4C87.9 73.2 86.1 73.65 84.75 74.25L86.1 75V75Z" fill="#7CD9FD"/>
<path fill-rule="evenodd" clip-rule="evenodd" d="M271.35 243.15C271.05 240.6 270.6 238.2 272.85 236.85C274.05 236.1 276.3 235.95 277.35 236.85C278.1 237.45 278.85 238.65 279.45 239.4C280.2 240.6 280.05 240.6 279.6 241.8C278.7 244.5 278.1 246.15 275.4 246.15C271.95 246.15 271.35 243.45 271.35 240.15V243.15V243.15Z" fill="#7CD9FD"/>
<path fill-rule="evenodd" clip-rule="evenodd" d="M272.85 173.1C273.75 172.8 274.65 172.35 275.4 171.6C274.65 171.15 273.15 170.25 272.85 171.6V173.1Z" fill="#7CD9FD"/>
<path fill-rule="evenodd" clip-rule="evenodd" d="M76.05 236.55C76.95 236.25 77.85 235.8 78.6 235.05C77.85 234.6 76.35 233.7 76.05 235.05V236.55Z" fill="#7CD9FD"/>
<path fill-rule="evenodd" clip-rule="evenodd" d="M76.05 257.4C76.95 257.1 77.85 256.65 78.6 255.9C77.85 255.45 76.35 254.55 76.05 255.9V257.4Z" fill="#7CD9FD"/>
<path fill-rule="evenodd" clip-rule="evenodd" d="M223.2 182.55C224.1 181.35 225.6 179.25 227.25 180.45C228.3 181.2 228.6 183 227.55 183.75C226.65 184.35 225.9 184.65 224.85 184.95C224.1 185.1 222.9 184.65 223.2 183.45V182.7V182.55Z" fill="#7CD9FD"/>
<path fill-rule="evenodd" clip-rule="evenodd" d="M255.9 236.4C256.8 235.2 258.3 233.1 259.95 234.3C261 235.05 261.3 236.85 260.25 237.6C259.35 238.2 258.6 238.5 257.55 238.8C256.8 238.95 255.6 238.5 255.9 237.3V236.55V236.4Z" fill="#7CD9FD"/>
<path fill-rule="evenodd" clip-rule="evenodd" d="M250.95 58.05C252.45 58.35 255 58.5 254.85 60.6C254.85 61.8 253.35 63 252.15 62.55C251.1 62.1 250.5 61.5 249.75 60.75C249.15 60.15 249 58.95 250.2 58.5L250.8 58.05H250.95Z" fill="#7CD9FD"/>
<path fill-rule="evenodd" clip-rule="evenodd" d="M245.55 250.35C246.45 249.15 247.95 247.05 249.6 248.25C250.65 249 250.95 250.8 249.9 251.55C249 252.15 248.25 252.45 247.2 252.75C246.45 252.9 245.25 252.45 245.55 251.25V250.5V250.35Z" fill="#7CD9FD"/>
<path fill-rule="evenodd" clip-rule="evenodd" d="M201.15 180.75C199.95 181.5 197.85 182.55 197.7 184.2C197.7 185.25 198 185.85 198.9 186.3C199.65 186.75 200.85 186.75 201.6 186.3C202.8 185.7 204 184.8 204.6 183.6C204.9 182.7 204.9 182.1 204.6 181.35C204.45 180.9 204 180.3 203.4 180.15C201.9 179.55 200.85 181.2 199.65 181.8L201.15 180.75V180.75Z" fill="#7CD9FD"/>
<path fill-rule="evenodd" clip-rule="evenodd" d="M205.05 176.25C205.05 176.25 206.25 176.85 206.7 177.3C206.1 177.6 205.35 178.05 204.6 177.75C203.7 177.45 203.55 176.55 203.7 175.8C203.7 175.35 204.6 174.45 205.05 174.75C205.35 174.75 205.35 175.2 205.35 175.35C205.5 175.8 205.5 175.65 205.35 176.1H204.9L205.05 176.25Z" fill="#7CD9FD"/>
<path fill-rule="evenodd" clip-rule="evenodd" d="M239.1 168.9C235.8 171.75 232.8 175.2 231 179.25C230.1 181.35 231.75 181.5 233.55 181.05C237.15 180.3 240.9 179.25 244.5 178.35C246.6 177.75 249.75 176.7 251.25 174.9C252.45 173.55 252.9 171.15 252.6 169.35C252.3 166.95 250.5 165.9 248.25 165.3C243.15 163.95 235.95 169.35 234 174.15L238.95 168.9H239.1Z" fill="#7CD9FD"/>
<path fill-rule="evenodd" clip-rule="evenodd" d="M220.95 187.5C222 187.5 223.05 187.8 223.95 188.25C223.65 188.55 223.8 189 223.65 189.3C223.5 189.9 222.9 190.35 222.45 190.65C221.7 191.1 220.35 191.4 219.45 190.95C216.75 189.9 220.95 186.75 221.85 187.8L221.1 187.35L220.95 187.5Z" fill="#7CD9FD"/>
<path fill-rule="evenodd" clip-rule="evenodd" d="M68.55 291.75C68.55 291.75 67.95 292.35 67.65 292.65C67.95 293.1 68.1 293.55 68.7 293.7C69 293.7 69.15 293.7 69.45 293.7C69.75 293.4 69.45 293.25 69.6 292.95C69.75 292.35 69.9 292.2 69.6 291.75C69.45 291.45 69.3 291.3 68.85 291.3C68.55 291.3 68.1 291.3 67.95 291.6L68.4 291.9L68.55 291.75Z" fill="#7CD9FD"/>
<path fill-rule="evenodd" clip-rule="evenodd" d="M70.5 305.25C70.5 305.25 69.75 307.05 70.5 306.6C70.95 306.3 70.8 305.7 70.5 305.55C70.5 305.55 70.5 305.55 70.5 305.4H70.35L70.5 305.25Z" fill="#7CD9FD"/>
<path fill-rule="evenodd" clip-rule="evenodd" d="M77.25 293.4C77.25 293.4 77.85 294.15 77.85 294.45C77.4 294.45 77.4 294.15 77.25 293.7C77.25 293.1 77.4 293.25 77.7 292.8C77.7 292.8 77.7 292.8 77.85 292.8L77.25 293.25V293.4Z" fill="#7CD9FD"/>
<path fill-rule="evenodd" clip-rule="evenodd" d="M73.05 276.15C74.1 276.15 75.15 276.45 76.05 276.9C75.75 277.2 75.9 277.65 75.75 277.95C75.6 278.55 75 279 74.55 279.3C73.8 279.75 72.45 280.05 71.55 279.6C68.85 278.55 73.05 275.4 73.95 276.45L73.2 276L73.05 276.15Z" fill="#7CD9FD"/>
<path fill-rule="evenodd" clip-rule="evenodd" d="M245.55 60.45C246.45 61.05 247.5 61.65 248.25 62.4C249 63.45 249.9 64.35 250.5 65.4C250.8 66 251.55 67.2 250.5 67.35C249.3 67.5 247.05 65.85 246.15 65.25C244.65 64.2 243.15 63.15 242.1 61.65C241.5 60.9 240.75 59.55 241.2 58.65C241.65 57.9 242.4 57.75 243.15 57.75C244.05 57.75 244.5 58.05 245.25 58.65C245.55 58.95 247.2 60.6 246.6 60.9L245.4 60.45H245.55Z" fill="#7CD9FD"/>
<path fill-rule="evenodd" clip-rule="evenodd" d="M257.4 164.25C257.4 164.25 253.5 166.5 255.15 167.25C256.05 167.7 257.7 167.55 258.6 167.25C259.35 166.95 260.25 166.35 259.65 165.45C258.6 163.65 256.05 164.7 254.85 165.45L257.4 164.25V164.25Z" fill="#7CD9FD"/>
<path fill-rule="evenodd" clip-rule="evenodd" d="M282.15 51.45C280.95 52.2 272.4 57 276.45 59.1C278.7 60.15 283.05 59.85 285.3 58.95C287.25 58.05 289.35 56.85 288 54.45C285.45 49.8 279.15 52.5 275.85 54.45L282.15 51.3V51.45Z" fill="#7CD9FD"/>
<path fill-rule="evenodd" clip-rule="evenodd" d="M77.4 247.8C77.7 249.75 78.15 252 79.95 253.35C81.75 254.7 83.85 254.1 85.65 253.05C87 252.3 88.2 251.4 89.55 250.65C90.3 250.2 90.9 250.05 91.05 249C91.05 247.8 90 246.3 89.4 245.4C88.65 244.35 87 243.15 85.8 242.7C83.1 241.65 77.85 242.7 78 246.45L77.7 247.8H77.4Z" fill="#7CD9FD"/>
<path fill-rule="evenodd" clip-rule="evenodd" d="M259.05 251.85C259.35 253.2 259.65 254.85 260.85 255.75C262.2 256.65 263.55 256.35 264.9 255.6C265.8 255 266.7 254.4 267.6 253.95C268.2 253.65 268.65 253.5 268.65 252.75C268.65 252 267.9 250.8 267.45 250.2C266.85 249.45 265.8 248.55 264.9 248.25C262.95 247.5 259.35 248.25 259.35 250.8L259.05 251.85V251.85Z" fill="#7CD9FD"/>
<path style="mix-blend-mode:screen" d="M275.4 264.75C288.986 264.75 300 253.736 300 240.15C300 226.564 288.986 215.55 275.4 215.55C261.814 215.55 250.8 226.564 250.8 240.15C250.8 253.736 261.814 264.75 275.4 264.75Z" fill="url(#paint27_radial_430_15054)"/>
<path style="mix-blend-mode:screen" d="M242.55 196.05C255.142 196.05 265.35 185.842 265.35 173.25C265.35 160.658 255.142 150.45 242.55 150.45C229.958 150.45 219.75 160.658 219.75 173.25C219.75 185.842 229.958 196.05 242.55 196.05Z" fill="url(#paint28_radial_430_15054)"/>
<path style="mix-blend-mode:screen" fill-rule="evenodd" clip-rule="evenodd" d="M257.1 71.7C254.25 75.75 246.9 75.3 240.9 70.95C234.9 66.6 232.35 59.7 235.2 55.8C238.05 51.75 245.4 52.2 251.4 56.55C257.4 60.9 259.95 67.8 257.1 71.7Z" fill="url(#paint29_radial_430_15054)"/>
<path style="mix-blend-mode:screen" d="M84.15 271.95C97.7363 271.95 108.75 260.936 108.75 247.35C108.75 233.764 97.7363 222.75 84.15 222.75C70.5638 222.75 59.55 233.764 59.55 247.35C59.55 260.936 70.5638 271.95 84.15 271.95Z" fill="url(#paint30_radial_430_15054)"/>
<path fill-rule="evenodd" clip-rule="evenodd" d="M228.3 45.75C228.3 45.75 234.3 71.1 251.1 80.7C272.4 92.85 287.1 88.5 287.1 88.5C287.1 88.5 268.05 87.9 250.5 75.9C235.8 65.85 228.15 45.75 228.15 45.75H228.3Z" fill="url(#paint31_linear_430_15054)"/>
<path style="mix-blend-mode:multiply" opacity="0.4" fill-rule="evenodd" clip-rule="evenodd" d="M188.4 241.2L199.65 224.7C199.65 224.7 214.05 265.8 251.55 278.7L243.3 283.95C243.3 283.95 205.05 273 188.25 241.2H188.4Z" fill="url(#paint32_linear_430_15054)"/>
<path style="mix-blend-mode:multiply" fill-rule="evenodd" clip-rule="evenodd" d="M209.7 58.2C209.7 58.2 263.85 112.65 302.7 136.8C302.7 136.8 298.95 121.95 288.45 108.3C288.45 108.3 255.75 97.5 209.7 58.2V58.2Z" fill="url(#paint33_linear_430_15054)"/>
<path style="mix-blend-mode:screen" d="M146.104 144.594C171.296 128.021 183.118 101.514 172.509 85.3879C161.9 69.2623 132.878 69.6251 107.686 86.1984C82.494 102.772 70.6719 129.279 81.2806 145.405C91.8893 161.531 120.912 161.168 146.104 144.594Z" fill="url(#paint34_radial_430_15054)"/>
</g>
<defs>
<radialGradient id="paint0_radial_430_15054" cx="0" cy="0" r="1" gradientUnits="userSpaceOnUse" gradientTransform="translate(180 180) scale(180)">
<stop stop-color="#5799FB"/>
<stop offset="1" stop-color="#4A289C"/>
</radialGradient>
<radialGradient id="paint1_radial_430_15054" cx="0" cy="0" r="1" gradientUnits="userSpaceOnUse" gradientTransform="translate(180 180) scale(150.6)">
<stop stop-color="#5799FB"/>
<stop offset="1"/>
</radialGradient>
<radialGradient id="paint2_radial_430_15054" cx="0" cy="0" r="1" gradientUnits="userSpaceOnUse" gradientTransform="translate(180 180) scale(153.3)">
<stop stop-color="#5290FB"/>
<stop offset="0.13" stop-color="#508DF7"/>
<stop offset="0.26" stop-color="#4C86EB"/>
<stop offset="0.38" stop-color="#467BD6"/>
<stop offset="0.51" stop-color="#3D6BBA"/>
<stop offset="0.64" stop-color="#315696"/>
<stop offset="0.76" stop-color="#223C6A"/>
<stop offset="0.89" stop-color="#111F36"/>
<stop offset="1"/>
</radialGradient>
<linearGradient id="paint3_linear_430_15054" x1="93.75" y1="110.25" x2="93.75" y2="65.25" gradientUnits="userSpaceOnUse">
<stop stop-color="#8200AD"/>
<stop offset="1" stop-color="#7B71FA"/>
</linearGradient>
<linearGradient id="paint4_linear_430_15054" x1="83.7" y1="112.65" x2="100.65" y2="60.9" gradientUnits="userSpaceOnUse">
<stop stop-color="#4E0086"/>
<stop offset="1" stop-color="#7900F9"/>
</linearGradient>
<radialGradient id="paint5_radial_430_15054" cx="0" cy="0" r="1" gradientUnits="userSpaceOnUse" gradientTransform="translate(99.6 119.25) scale(208.95 208.95)">
<stop stop-color="#8FD9FD"/>
<stop offset="0.1" stop-color="#8CD3FC"/>
<stop offset="0.21" stop-color="#85C2FC"/>
<stop offset="0.35" stop-color="#7AA6FB"/>
<stop offset="0.5" stop-color="#6A80FA"/>
<stop offset="0.65" stop-color="#564FF9"/>
<stop offset="0.68" stop-color="#5245F9"/>
<stop offset="0.74" stop-color="#513FF2"/>
<stop offset="0.83" stop-color="#4E2FDE"/>
<stop offset="0.93" stop-color="#4A15BF"/>
<stop offset="1" stop-color="#4700A5"/>
</radialGradient>
<linearGradient id="paint6_linear_430_15054" x1="50.1" y1="144.45" x2="237.15" y2="144.45" gradientUnits="userSpaceOnUse">
<stop offset="0.01" stop-color="#A1DEFD"/>
<stop offset="0.32" stop-color="#A0DBFC"/>
<stop offset="0.55" stop-color="#9FD1FC"/>
<stop offset="0.75" stop-color="#9CC1FC"/>
<stop offset="0.94" stop-color="#99ABFB"/>
<stop offset="1" stop-color="#98A2FB"/>
</linearGradient>
<linearGradient id="paint7_linear_430_15054" x1="238.95" y1="297.9" x2="238.95" y2="236.85" gradientUnits="userSpaceOnUse">
<stop stop-color="#B8C0FC"/>
<stop offset="1" stop-color="#627198"/>
</linearGradient>
<radialGradient id="paint8_radial_430_15054" cx="0" cy="0" r="1" gradientUnits="userSpaceOnUse" gradientTransform="translate(85.05 91.5) scale(171.15 171.15)">
<stop stop-color="#FFFFD9"/>
<stop offset="1"/>
</radialGradient>
<linearGradient id="paint9_linear_430_15054" x1="51.3" y1="107.55" x2="214.8" y2="107.55" gradientUnits="userSpaceOnUse">
<stop stop-color="#B8C0FC"/>
<stop offset="1" stop-color="#7971AE"/>
</linearGradient>
<linearGradient id="paint10_linear_430_15054" x1="77.85" y1="229.35" x2="310.2" y2="229.35" gradientUnits="userSpaceOnUse">
<stop stop-color="#B8C0FC"/>
<stop offset="1" stop-color="#7971AE"/>
</linearGradient>
<linearGradient id="paint11_linear_430_15054" x1="64.05" y1="181.2" x2="295.95" y2="181.2" gradientUnits="userSpaceOnUse">
<stop stop-color="#B8C0FC"/>
<stop offset="1" stop-color="#7971AE"/>
</linearGradient>
<linearGradient id="paint12_linear_430_15054" x1="50.1" y1="148.8" x2="277.95" y2="148.8" gradientUnits="userSpaceOnUse">
<stop stop-color="#B8C0FC"/>
<stop offset="1" stop-color="#7971AE"/>
</linearGradient>
<linearGradient id="paint13_linear_430_15054" x1="218.85" y1="130.05" x2="222" y2="130.05" gradientUnits="userSpaceOnUse">
<stop stop-color="#E3DBFD"/>
<stop offset="1" stop-color="#9F88D3"/>
</linearGradient>
<linearGradient id="paint14_linear_430_15054" x1="58.2" y1="187.95" x2="58.8" y2="187.95" gradientUnits="userSpaceOnUse">
<stop stop-color="#E3DBFD"/>
<stop offset="1" stop-color="#9F88D3"/>
</linearGradient>
<linearGradient id="paint15_linear_430_15054" x1="205.05" y1="75.75" x2="288.45" y2="75.75" gradientUnits="userSpaceOnUse">
<stop stop-color="#7B71FA"/>
<stop offset="1" stop-color="#8200AD"/>
</linearGradient>
<linearGradient id="paint16_linear_430_15054" x1="223.95" y1="276.15" x2="266.25" y2="146.85" gradientUnits="userSpaceOnUse">
<stop stop-color="#260074"/>
<stop offset="1" stop-color="#7030F9"/>
</linearGradient>
<linearGradient id="paint17_linear_430_15054" x1="236.906" y1="273.512" x2="277.302" y2="150.211" gradientUnits="userSpaceOnUse">
<stop stop-color="#6800AD"/>
<stop offset="1" stop-color="#9839F9"/>
</linearGradient>
<linearGradient id="paint18_linear_430_15054" x1="250.05" y1="238.2" x2="250.05" y2="148.8" gradientUnits="userSpaceOnUse">
<stop stop-color="#7900AD"/>
<stop offset="1" stop-color="#C35CFA"/>
</linearGradient>
<linearGradient id="paint19_linear_430_15054" x1="106.8" y1="289.8" x2="106.8" y2="237.45" gradientUnits="userSpaceOnUse">
<stop stop-color="#8CA6CA"/>
<stop offset="1" stop-color="#627198"/>
</linearGradient>
<linearGradient id="paint20_linear_430_15054" x1="92.1" y1="274.8" x2="109.65" y2="221.4" gradientUnits="userSpaceOnUse">
<stop stop-color="#260074"/>
<stop offset="1" stop-color="#7030F9"/>
</linearGradient>
<linearGradient id="paint21_linear_430_15054" x1="199.05" y1="321" x2="199.05" y2="297.9" gradientUnits="userSpaceOnUse">
<stop stop-color="#6800AD"/>
<stop offset="0.92" stop-color="#600EF6"/>
<stop offset="1" stop-color="#600EF3"/>
</linearGradient>
<linearGradient id="paint22_linear_430_15054" x1="93.15" y1="283.35" x2="93.15" y2="216.9" gradientUnits="userSpaceOnUse">
<stop stop-color="#6800AD"/>
<stop offset="1" stop-color="#9839F9"/>
</linearGradient>
<linearGradient id="paint23_linear_430_15054" x1="96.6" y1="283.35" x2="96.6" y2="216.9" gradientUnits="userSpaceOnUse">
<stop stop-color="#7900AD"/>
<stop offset="1" stop-color="#C35CFA"/>
</linearGradient>
<linearGradient id="paint24_linear_430_15054" x1="192.6" y1="195.6" x2="203.7" y2="161.55" gradientUnits="userSpaceOnUse">
<stop stop-color="#4E0086"/>
<stop offset="1" stop-color="#7900F9"/>
</linearGradient>
<linearGradient id="paint25_linear_430_15054" x1="196.35" y1="193.05" x2="205.65" y2="165" gradientUnits="userSpaceOnUse">
<stop stop-color="#8B00C4"/>
<stop offset="1" stop-color="#9839F9"/>
</linearGradient>
<linearGradient id="paint26_linear_430_15054" x1="242.55" y1="93.15" x2="255.9" y2="52.65" gradientUnits="userSpaceOnUse">
<stop stop-color="#4E0086"/>
<stop offset="1" stop-color="#7900F9"/>
</linearGradient>
<radialGradient id="paint27_radial_430_15054" cx="0" cy="0" r="1" gradientUnits="userSpaceOnUse" gradientTransform="translate(275.4 240.15) scale(24.6 24.6)">
<stop stop-color="#5079FA"/>
<stop offset="0.09" stop-color="#4468D7"/>
<stop offset="0.28" stop-color="#304996"/>
<stop offset="0.46" stop-color="#1F2E61"/>
<stop offset="0.63" stop-color="#111A37"/>
<stop offset="0.78" stop-color="#070C18"/>
<stop offset="0.91" stop-color="#020306"/>
<stop offset="1"/>
</radialGradient>
<radialGradient id="paint28_radial_430_15054" cx="0" cy="0" r="1" gradientUnits="userSpaceOnUse" gradientTransform="translate(242.55 173.25) scale(22.8 22.8)">
<stop stop-color="#5079FA"/>
<stop offset="0.09" stop-color="#4468D7"/>
<stop offset="0.28" stop-color="#304996"/>
<stop offset="0.46" stop-color="#1F2E61"/>
<stop offset="0.63" stop-color="#111A37"/>
<stop offset="0.78" stop-color="#070C18"/>
<stop offset="0.91" stop-color="#020306"/>
<stop offset="1"/>
</radialGradient>
<radialGradient id="paint29_radial_430_15054" cx="0" cy="0" r="1" gradientUnits="userSpaceOnUse" gradientTransform="translate(321.52 -46.2079) rotate(35.99) scale(13.5 8.91)">
<stop stop-color="#5079FA"/>
<stop offset="0.09" stop-color="#4468D7"/>
<stop offset="0.28" stop-color="#304996"/>
<stop offset="0.46" stop-color="#1F2E61"/>
<stop offset="0.63" stop-color="#111A37"/>
<stop offset="0.78" stop-color="#070C18"/>
<stop offset="0.91" stop-color="#020306"/>
<stop offset="1"/>
</radialGradient>
<radialGradient id="paint30_radial_430_15054" cx="0" cy="0" r="1" gradientUnits="userSpaceOnUse" gradientTransform="translate(84.15 247.35) scale(24.6 24.6)">
<stop stop-color="#5079FA"/>
<stop offset="0.09" stop-color="#4468D7"/>
<stop offset="0.28" stop-color="#304996"/>
<stop offset="0.46" stop-color="#1F2E61"/>
<stop offset="0.63" stop-color="#111A37"/>
<stop offset="0.78" stop-color="#070C18"/>
<stop offset="0.91" stop-color="#020306"/>
<stop offset="1"/>
</radialGradient>
<linearGradient id="paint31_linear_430_15054" x1="257.7" y1="89.25" x2="257.7" y2="45.75" gradientUnits="userSpaceOnUse">
<stop stop-color="#9500D3"/>
<stop offset="1" stop-color="#C35CFA"/>
</linearGradient>
<linearGradient id="paint32_linear_430_15054" x1="220.05" y1="283.95" x2="220.05" y2="224.55" gradientUnits="userSpaceOnUse">
<stop stop-color="#B8C0FC"/>
<stop offset="1" stop-color="#7971AE"/>
</linearGradient>
<linearGradient id="paint33_linear_430_15054" x1="256.2" y1="136.8" x2="256.2" y2="58.2" gradientUnits="userSpaceOnUse">
<stop stop-color="#8CA6CA"/>
<stop offset="1" stop-color="#627198"/>
</linearGradient>
<radialGradient id="paint34_radial_430_15054" cx="0" cy="0" r="1" gradientUnits="userSpaceOnUse" gradientTransform="translate(58.2348 220.125) rotate(-33.34) scale(54.609 34.989)">
<stop stop-color="#8FFDFF"/>
<stop offset="0.17" stop-color="#6EC3C4"/>
<stop offset="0.4" stop-color="#477E7F"/>
<stop offset="0.6" stop-color="#284848"/>
<stop offset="0.78" stop-color="#122021"/>
<stop offset="0.92" stop-color="#050808"/>
<stop offset="1"/>
</radialGradient>
<clipPath id="clip0_430_15054">
<rect width="360" height="360" fill="white"/>
</clipPath>
</defs>
</svg>
