<svg width="262" height="43" viewBox="0 0 262 43" fill="none" xmlns="http://www.w3.org/2000/svg">
<rect x="260.5" y="41.5" width="259" height="40" rx="7.5" transform="rotate(-180 260.5 41.5)" fill="#4A289C" fill-opacity="0.7" stroke="#13D1FF" stroke-width="3"/>
<path d="M55.265 15.895H47.72V17.545H55.265V15.895ZM53.105 22.24H49.79V20.245H53.105V22.24ZM54.845 18.685H48.14V23.8H54.845V18.685ZM50.84 26.86C50.705 26.08 50.36 24.91 49.94 24.025L48.44 24.43C48.815 25.315 49.16 26.53 49.25 27.31L50.84 26.86ZM47.525 26.17C47.225 25.765 46.04 24.175 45.44 23.5C45.47 23.245 45.515 22.99 45.53 22.75H47.405V21.16H45.65C45.65 20.995 45.65 20.83 45.65 20.665V18.79H47.3V17.2H43.985C44.09 16.675 44.195 16.135 44.27 15.595L42.65 15.295C42.455 17.005 42.065 18.745 41.435 19.855C41.81 20.08 42.5 20.53 42.785 20.8C43.085 20.26 43.34 19.555 43.58 18.79H44.015V20.635C44.015 20.8 44.015 20.98 44.015 21.16H41.54V22.75H43.91C43.7 24.55 43.1 26.515 41.465 27.985C41.78 28.21 42.44 28.84 42.665 29.185C43.82 28.15 44.555 26.785 44.99 25.39C45.5 26.155 46.055 27.04 46.385 27.64L47.525 26.17ZM53.33 27.34C53.72 26.455 54.125 25.315 54.5 24.28L52.745 23.905C52.505 24.97 52.085 26.335 51.665 27.34H47.135V28.99H55.49V27.34H53.33ZM70.25 16.09H66.86V17.68H70.25V16.09ZM58.79 15.295C58.295 16.225 57.245 17.41 56.315 18.145C56.6 18.46 57.005 19.135 57.2 19.51C58.34 18.595 59.585 17.185 60.395 15.88L58.79 15.295ZM61.82 23.335V22.66H62.765V23.335H61.82ZM61.82 21.04H62.765V21.685H61.82V21.04ZM65.09 21.04V21.685H64.175V21.04H65.09ZM65.09 23.335H64.175V22.66H65.09V23.335ZM70.55 19.885H66.635V21.505H67.82V27.415C67.82 27.58 67.775 27.625 67.595 27.625C67.445 27.625 66.98 27.625 66.5 27.61L66.515 26.89L64.175 27.01V26.29H66.305V25H64.175V24.37H66.38V19.99H64.175V19.33H66.635V17.935H64.175V17.08C65 16.99 65.795 16.87 66.47 16.72L65.63 15.415C64.28 15.73 62.195 15.955 60.38 16.075C60.53 16.42 60.725 16.96 60.77 17.305C61.4 17.29 62.075 17.26 62.765 17.2V17.935H60.41V18.925L59.03 18.43C58.355 19.9 57.26 21.43 56.21 22.435C56.495 22.795 56.99 23.68 57.155 24.055C57.44 23.755 57.74 23.425 58.025 23.065V29.305H59.645V20.725C59.93 20.26 60.185 19.795 60.41 19.33H62.765V19.99H60.59V24.37H62.765V25H60.665V26.29H62.765V27.085C61.82 27.13 60.965 27.175 60.26 27.19L60.44 28.585C62.105 28.48 64.355 28.345 66.5 28.18V27.805C66.68 28.285 66.83 28.885 66.875 29.305C67.76 29.305 68.405 29.275 68.885 28.99C69.38 28.705 69.485 28.24 69.485 27.445V21.505H70.55V19.885ZM78.965 18.655C79.49 18.235 79.97 17.8 80.405 17.32C80.93 17.785 81.53 18.235 82.175 18.655H78.965ZM76.34 22.705C76.13 22.345 75.17 20.86 74.81 20.38V19.735H75.95V19.03C76.28 19.345 76.655 19.765 76.85 20.035C77.345 19.765 77.855 19.45 78.335 19.12V19.99H82.745V19.015C83.435 19.435 84.17 19.825 84.86 20.125C84.98 19.645 85.295 18.88 85.565 18.43C84.095 17.95 82.445 17.08 81.335 16.165C81.44 16.015 81.545 15.865 81.62 15.715L79.925 15.1C79.1 16.42 77.6 17.77 75.95 18.655V18.085H74.81V15.295H73.415V18.085H71.9V19.735H73.19C72.845 21.415 72.23 23.35 71.525 24.415C71.75 24.88 72.08 25.675 72.215 26.185C72.665 25.39 73.07 24.22 73.415 22.945V29.29H74.81V22.225C75.125 22.825 75.44 23.5 75.59 23.92L76.34 22.705ZM82.16 21.94H83.225V23.32H82.16V21.94ZM80.87 24.505H84.59V20.74H80.87V24.505ZM77.855 21.94H78.86V23.32H77.855V21.94ZM76.58 24.505H80.21V20.74H76.58V24.505ZM77.75 24.67C77.3 26.185 76.34 27.445 75.035 28.225C75.38 28.465 75.935 29.05 76.175 29.35C77.015 28.78 77.735 28.03 78.32 27.115C78.785 27.445 79.265 27.85 79.52 28.15L80.405 26.965C80.09 26.65 79.52 26.23 78.98 25.885C79.1 25.6 79.22 25.3 79.31 25L77.75 24.67ZM81.89 24.655C81.62 26.185 80.9 27.445 79.73 28.21C80.06 28.435 80.63 29.035 80.855 29.335C81.515 28.855 82.085 28.225 82.52 27.475C83.27 28.03 84.005 28.645 84.425 29.095L85.49 27.895C84.98 27.385 84.005 26.68 83.165 26.095C83.3 25.705 83.405 25.3 83.495 24.88L81.89 24.655ZM92.6 23.44C92.315 23.14 91.22 22.075 90.62 21.55C91.31 20.575 91.91 19.51 92.345 18.415L91.4 17.725L91.085 17.8H90.02L90.86 17.23C90.605 16.675 90.035 15.91 89.525 15.34L88.16 16.18C88.55 16.645 88.97 17.275 89.255 17.8H86.705V19.405H90.125C89.225 20.995 87.77 22.465 86.27 23.29C86.48 23.62 86.825 24.61 86.945 25.105C87.53 24.76 88.085 24.295 88.655 23.785V29.29H90.41V23.47C90.83 23.98 91.25 24.535 91.505 24.91L92.6 23.44ZM94.67 21.895H97.985V22.87H94.67V21.895ZM94.67 19.6H97.985V20.56H94.67V19.6ZM94.67 17.305H97.985V18.28H94.67V17.305ZM98.36 27.685C98.15 27.685 98.12 27.64 98.12 27.235V24.295H99.695V15.895H93.05V24.295H94.04C93.875 26.14 93.47 27.325 91.07 28.015C91.37 28.315 91.805 28.915 91.955 29.32C94.835 28.39 95.42 26.74 95.63 24.295H96.47V27.235C96.47 28.72 96.755 29.23 98.075 29.23H99.065C100.085 29.23 100.505 28.69 100.655 26.65C100.205 26.53 99.5 26.26 99.2 25.99C99.155 27.49 99.11 27.685 98.855 27.685H98.36ZM111.125 25.345V25.945H105.89V25.345H111.125ZM105.89 27.715V27.115H111.125V27.715H105.89ZM104.135 29.29H105.89V28.885H111.125V29.245H112.955V24.175H104.135V29.29ZM104.06 19.615C104.69 19.375 105.29 19.09 105.875 18.79V19.09H111.14V18.7C111.8 19.045 112.475 19.36 113.18 19.615H104.06ZM112.13 22.6H110.915C111.155 22.18 111.44 21.595 111.74 20.995L110.57 20.71H112.13V22.6ZM104.78 22.6V20.71H106.475L105.32 21.04C105.56 21.52 105.755 22.135 105.83 22.6H104.78ZM107.72 22.6H106.19L107.15 22.3C107.06 21.865 106.82 21.22 106.55 20.71H107.72V22.6ZM110.24 20.71C110.105 21.205 109.865 21.895 109.655 22.345L110.555 22.6H109.16V20.71H110.24ZM107.345 17.935C107.795 17.62 108.23 17.29 108.62 16.96C108.995 17.29 109.43 17.62 109.88 17.935H107.345ZM108.2 15.175C106.835 16.915 104.165 18.16 101.405 18.805C101.705 19.135 102.185 19.855 102.365 20.185C102.665 20.11 102.98 20.005 103.295 19.9V23.68H113.72V19.81C114.035 19.9 114.35 20.005 114.65 20.08C114.89 19.66 115.4 19.03 115.775 18.715C113.39 18.25 110.93 17.215 109.55 16.015C109.625 15.925 109.7 15.82 109.775 15.73L108.2 15.175ZM130.355 20.155H126.74V19.54H129.59V18.43H126.74V17.86H130.055V16.675H128.435C128.66 16.375 128.915 16.03 129.14 15.685L127.58 15.295C127.46 15.7 127.16 16.255 126.905 16.675H125.06C124.895 16.285 124.535 15.715 124.205 15.295L122.945 15.745C123.14 16.015 123.35 16.36 123.515 16.675H121.88V17.86H125.03V18.43H122.36V19.54H125.03V20.155H121.415V21.43H130.37L130.355 20.155ZM121.415 17.8H118.895L119.99 17.35C119.855 16.84 119.48 15.97 119.135 15.355L117.86 15.82C118.175 16.435 118.475 17.245 118.61 17.8H116.525V19.195H121.415V17.8ZM119.735 25.345V27.115H118.25V25.345H119.735ZM121.01 23.98H116.99V29.11H118.25V28.48H121.01V23.98ZM117.05 23.245H121.04V21.91H117.05V23.245ZM117.05 21.22H121.04V19.87H117.05V21.22ZM124.805 23.725V22.87C125.27 22.795 125.69 22.69 126.08 22.585C126.095 22.99 126.11 23.35 126.14 23.725H124.805ZM128.615 25.195C128.435 25.525 128.18 25.825 127.91 26.125C127.835 25.795 127.76 25.435 127.715 25.015H130.34V23.725H129.275L130.25 23.035C129.95 22.6 129.275 22.03 128.72 21.655L127.7 22.345C128.225 22.735 128.825 23.29 129.125 23.725H127.58C127.55 23.125 127.535 22.45 127.535 21.745H126.05C126.05 22.015 126.065 22.3 126.08 22.585L125.165 21.535C124.28 21.82 122.78 22.045 121.52 22.165C121.655 22.45 121.82 22.9 121.865 23.2C122.315 23.17 122.78 23.14 123.26 23.08V23.725H121.385V25.015H123.26V25.735C122.525 25.81 121.865 25.87 121.295 25.915L121.46 27.28C122.015 27.22 122.615 27.145 123.26 27.07V27.835C123.26 28 123.2 28.045 123.02 28.06C122.855 28.06 122.285 28.06 121.775 28.045C121.955 28.405 122.15 28.93 122.21 29.305C123.095 29.305 123.74 29.29 124.205 29.095C124.67 28.885 124.805 28.57 124.805 27.88V26.875L126.035 26.725L126.005 25.465L124.805 25.585V25.015H126.26C126.365 25.84 126.515 26.545 126.71 27.175C126.11 27.58 125.465 27.94 124.835 28.195C125.12 28.435 125.495 28.855 125.675 29.125C126.185 28.9 126.71 28.63 127.205 28.3C127.64 28.975 128.225 29.365 128.99 29.365C129.905 29.365 130.385 28.84 130.595 27.4C130.28 27.265 129.86 27.055 129.575 26.785C129.53 27.595 129.38 27.985 129.155 27.985C128.855 27.985 128.6 27.79 128.375 27.415C128.945 26.935 129.44 26.38 129.815 25.78L128.615 25.195ZM137.513 16.87C136.283 18.625 135.623 20.92 135.623 23.365C135.623 25.81 136.283 28.12 137.513 29.86H139.568C138.473 28.12 137.783 25.81 137.783 23.365C137.783 20.92 138.473 18.625 139.568 16.87H137.513ZM144.667 17.395C142.237 17.395 140.602 18.595 140.602 20.5C140.602 24.22 146.197 23.065 146.197 25.045C146.197 25.69 145.612 26.05 144.637 26.05C143.527 26.05 141.997 25.435 140.917 24.475L139.972 26.41C141.157 27.415 142.882 28.075 144.607 28.075C146.932 28.075 148.717 26.965 148.717 24.91C148.732 21.13 143.137 22.21 143.137 20.275C143.137 19.705 143.677 19.42 144.472 19.42C145.312 19.42 146.632 19.84 147.742 20.5L148.657 18.535C147.607 17.845 146.137 17.395 144.667 17.395ZM155.268 19.855C154.173 19.855 153.288 20.305 152.718 21.115V19.93H150.408V30.91H152.718V26.83C153.303 27.64 154.188 28.09 155.313 28.09C157.578 28.09 159.063 26.455 159.063 24.01C159.063 21.52 157.533 19.855 155.268 19.855ZM154.728 26.17C153.543 26.17 152.718 25.27 152.718 23.935C152.718 22.63 153.543 21.715 154.728 21.715C155.913 21.715 156.723 22.645 156.723 23.935C156.723 25.255 155.913 26.17 154.728 26.17ZM162.897 19.93H160.587V28H162.897V24.115C162.897 22.75 163.917 21.865 165.567 22.015V19.84C164.367 19.855 163.452 20.395 162.897 21.385V19.93ZM167.982 16.345C167.247 16.345 166.737 16.885 166.737 17.635C166.737 18.385 167.247 18.925 167.982 18.925C168.717 18.925 169.227 18.385 169.227 17.635C169.227 16.885 168.717 16.345 167.982 16.345ZM169.137 28V19.93H166.827V28H169.137ZM176.453 19.84C175.193 19.855 174.233 20.335 173.663 21.34V19.93H171.353V28H173.663V24.025C173.663 22.84 174.353 21.97 175.508 21.955C176.498 21.955 177.098 22.585 177.098 23.605V28H179.408V22.93C179.408 21.04 178.253 19.84 176.453 19.84ZM185.917 25.855C185.497 26.05 185.137 26.155 184.837 26.155C184.342 26.17 184.057 25.9 184.057 25.225V21.895H186.247V20.29H184.057V18.07H181.762V20.29H180.637V21.88H181.762V25.615C181.762 27.28 182.857 28.105 184.297 28.105C185.047 28.105 185.797 27.895 186.397 27.55L185.917 25.855ZM197.902 28H200.587L198.352 24.535C199.627 23.935 200.317 22.765 200.317 21.145C200.317 18.82 198.757 17.5 196.012 17.5H191.452V28H193.822V25H196.012H196.237L197.902 28ZM193.822 23.02V19.465H196.012C197.317 19.465 198.067 20.05 198.067 21.22C198.067 22.42 197.317 23.02 196.012 23.02H193.822ZM205.726 19.855C203.266 19.855 201.571 21.505 201.571 23.995C201.571 26.44 203.206 28.09 205.786 28.09C207.241 28.09 208.426 27.565 209.236 26.665L208.021 25.435C207.466 25.99 206.746 26.29 205.981 26.29C204.946 26.29 204.166 25.69 203.896 24.67H209.686C209.881 21.73 208.561 19.855 205.726 19.855ZM203.851 23.305C204.031 22.24 204.721 21.55 205.741 21.55C206.806 21.55 207.496 22.24 207.526 23.305H203.851ZM215.223 28L218.268 19.93H215.973L214.083 25.81L212.178 19.93L209.793 19.945L212.853 28H215.223ZM220.438 16.345C219.703 16.345 219.193 16.885 219.193 17.635C219.193 18.385 219.703 18.925 220.438 18.925C221.173 18.925 221.683 18.385 221.683 17.635C221.683 16.885 221.173 16.345 220.438 16.345ZM221.593 28V19.93H219.283V28H221.593ZM227.274 19.855C224.814 19.855 223.119 21.505 223.119 23.995C223.119 26.44 224.754 28.09 227.334 28.09C228.789 28.09 229.974 27.565 230.784 26.665L229.569 25.435C229.014 25.99 228.294 26.29 227.529 26.29C226.494 26.29 225.714 25.69 225.444 24.67H231.234C231.429 21.73 230.109 19.855 227.274 19.855ZM225.399 23.305C225.579 22.24 226.269 21.55 227.289 21.55C228.354 21.55 229.044 22.24 229.074 23.305H225.399ZM242.381 28L245.321 19.93H243.041L241.271 25.705L239.501 19.93H237.236L235.496 25.705L233.696 19.93L231.341 19.945L234.296 28H236.606L238.331 22.675L240.071 28H242.381ZM246.324 16.87C247.419 18.625 248.124 20.92 248.124 23.365C248.124 25.81 247.419 28.12 246.324 29.86H248.394C249.624 28.12 250.284 25.81 250.284 23.365C250.284 20.92 249.624 18.625 248.394 16.87H246.324Z" fill="#13D1FF"/>
<circle cx="23" cy="21" r="12" fill="#13D1FF"/>
<g clip-path="url(#clip0_197_41887)">
<path d="M28.5113 25.7641L26.2372 23.4899C26.9332 22.6292 27.353 21.5346 27.353 20.3445C27.353 17.5815 25.1054 15.334 22.3425 15.334C19.5796 15.334 17.332 17.5815 17.332 20.3445C17.332 23.1074 19.5796 25.3549 22.3425 25.3549C23.5327 25.3549 24.6272 24.9352 25.488 24.2391L27.7621 26.5132C27.863 26.6142 28.0012 26.6673 28.134 26.6673C28.2669 26.6673 28.405 26.6142 28.506 26.5132C28.7132 26.306 28.7132 25.9713 28.506 25.7694L28.5113 25.7641ZM18.3841 20.3445C18.3841 18.1607 20.1587 16.386 22.3425 16.386C24.5263 16.386 26.3009 18.1607 26.3009 20.3445C26.3009 22.5282 24.5263 24.3029 22.3425 24.3029C20.1587 24.3029 18.3841 22.5282 18.3841 20.3445Z" fill="#00092B"/>
</g>
<defs>
<clipPath id="clip0_197_41887">
<rect width="11.3333" height="11.3333" fill="white" transform="translate(17.332 15.334)"/>
</clipPath>
</defs>
</svg>
