<svg width="314" height="43" viewBox="0 0 314 43" fill="none" xmlns="http://www.w3.org/2000/svg">
<rect x="312.5" y="41.5" width="311" height="40" rx="7.5" transform="rotate(-180 312.5 41.5)" fill="#4A289C" fill-opacity="0.7" stroke="#FFAD21" stroke-width="3"/>
<path d="M57.265 16.895H49.72V18.545H57.265V16.895ZM55.105 23.24H51.79V21.245H55.105V23.24ZM56.845 19.685H50.14V24.8H56.845V19.685ZM52.84 27.86C52.705 27.08 52.36 25.91 51.94 25.025L50.44 25.43C50.815 26.315 51.16 27.53 51.25 28.31L52.84 27.86ZM49.525 27.17C49.225 26.765 48.04 25.175 47.44 24.5C47.47 24.245 47.515 23.99 47.53 23.75H49.405V22.16H47.65C47.65 21.995 47.65 21.83 47.65 21.665V19.79H49.3V18.2H45.985C46.09 17.675 46.195 17.135 46.27 16.595L44.65 16.295C44.455 18.005 44.065 19.745 43.435 20.855C43.81 21.08 44.5 21.53 44.785 21.8C45.085 21.26 45.34 20.555 45.58 19.79H46.015V21.635C46.015 21.8 46.015 21.98 46.015 22.16H43.54V23.75H45.91C45.7 25.55 45.1 27.515 43.465 28.985C43.78 29.21 44.44 29.84 44.665 30.185C45.82 29.15 46.555 27.785 46.99 26.39C47.5 27.155 48.055 28.04 48.385 28.64L49.525 27.17ZM55.33 28.34C55.72 27.455 56.125 26.315 56.5 25.28L54.745 24.905C54.505 25.97 54.085 27.335 53.665 28.34H49.135V29.99H57.49V28.34H55.33ZM72.25 17.09H68.86V18.68H72.25V17.09ZM60.79 16.295C60.295 17.225 59.245 18.41 58.315 19.145C58.6 19.46 59.005 20.135 59.2 20.51C60.34 19.595 61.585 18.185 62.395 16.88L60.79 16.295ZM63.82 24.335V23.66H64.765V24.335H63.82ZM63.82 22.04H64.765V22.685H63.82V22.04ZM67.09 22.04V22.685H66.175V22.04H67.09ZM67.09 24.335H66.175V23.66H67.09V24.335ZM72.55 20.885H68.635V22.505H69.82V28.415C69.82 28.58 69.775 28.625 69.595 28.625C69.445 28.625 68.98 28.625 68.5 28.61L68.515 27.89L66.175 28.01V27.29H68.305V26H66.175V25.37H68.38V20.99H66.175V20.33H68.635V18.935H66.175V18.08C67 17.99 67.795 17.87 68.47 17.72L67.63 16.415C66.28 16.73 64.195 16.955 62.38 17.075C62.53 17.42 62.725 17.96 62.77 18.305C63.4 18.29 64.075 18.26 64.765 18.2V18.935H62.41V19.925L61.03 19.43C60.355 20.9 59.26 22.43 58.21 23.435C58.495 23.795 58.99 24.68 59.155 25.055C59.44 24.755 59.74 24.425 60.025 24.065V30.305H61.645V21.725C61.93 21.26 62.185 20.795 62.41 20.33H64.765V20.99H62.59V25.37H64.765V26H62.665V27.29H64.765V28.085C63.82 28.13 62.965 28.175 62.26 28.19L62.44 29.585C64.105 29.48 66.355 29.345 68.5 29.18V28.805C68.68 29.285 68.83 29.885 68.875 30.305C69.76 30.305 70.405 30.275 70.885 29.99C71.38 29.705 71.485 29.24 71.485 28.445V22.505H72.55V20.885ZM76.99 27.89V26.33H84.115V27.89H76.99ZM84.115 23.135V24.68H76.99V23.135H84.115ZM84.115 19.94V21.485H76.99V19.94H84.115ZM80.875 18.23C81.115 17.69 81.355 17.105 81.58 16.505L79.42 16.265C79.345 16.865 79.18 17.585 79.015 18.23H75.175V30.29H76.99V29.54H84.115V30.275H86.02V18.23H80.875ZM91.63 17.09C91.09 18.35 90.13 19.64 89.095 20.435C89.53 20.66 90.28 21.17 90.625 21.47C91.645 20.54 92.725 19.04 93.4 17.555L91.63 17.09ZM98.785 24.545H92.86V23.885H98.785V24.545ZM92.86 28.43V27.695H98.785V28.43H92.86ZM92.86 25.76H98.785V26.495H92.86V25.76ZM102.37 20.3C101.71 19.28 100.3 17.9 99.13 16.94L97.72 17.795C98.335 18.35 99.01 19.01 99.595 19.67L98.065 18.98C97.6 19.52 96.985 19.985 96.295 20.39V16.31H94.525V21.245C92.725 21.935 90.55 22.385 88.345 22.655C88.69 23.03 89.215 23.795 89.44 24.2C90.01 24.11 90.565 24.005 91.135 23.885V30.32H92.86V29.75H98.785V30.245H100.6V22.55H95.545C97.195 21.86 98.65 20.96 99.7 19.805C100.18 20.33 100.57 20.84 100.81 21.275L102.37 20.3ZM113.125 26.345V26.945H107.89V26.345H113.125ZM107.89 28.715V28.115H113.125V28.715H107.89ZM106.135 30.29H107.89V29.885H113.125V30.245H114.955V25.175H106.135V30.29ZM106.06 20.615C106.69 20.375 107.29 20.09 107.875 19.79V20.09H113.14V19.7C113.8 20.045 114.475 20.36 115.18 20.615H106.06ZM114.13 23.6H112.915C113.155 23.18 113.44 22.595 113.74 21.995L112.57 21.71H114.13V23.6ZM106.78 23.6V21.71H108.475L107.32 22.04C107.56 22.52 107.755 23.135 107.83 23.6H106.78ZM109.72 23.6H108.19L109.15 23.3C109.06 22.865 108.82 22.22 108.55 21.71H109.72V23.6ZM112.24 21.71C112.105 22.205 111.865 22.895 111.655 23.345L112.555 23.6H111.16V21.71H112.24ZM109.345 18.935C109.795 18.62 110.23 18.29 110.62 17.96C110.995 18.29 111.43 18.62 111.88 18.935H109.345ZM110.2 16.175C108.835 17.915 106.165 19.16 103.405 19.805C103.705 20.135 104.185 20.855 104.365 21.185C104.665 21.11 104.98 21.005 105.295 20.9V24.68H115.72V20.81C116.035 20.9 116.35 21.005 116.65 21.08C116.89 20.66 117.4 20.03 117.775 19.715C115.39 19.25 112.93 18.215 111.55 17.015C111.625 16.925 111.7 16.82 111.775 16.73L110.2 16.175ZM132.355 21.155H128.74V20.54H131.59V19.43H128.74V18.86H132.055V17.675H130.435C130.66 17.375 130.915 17.03 131.14 16.685L129.58 16.295C129.46 16.7 129.16 17.255 128.905 17.675H127.06C126.895 17.285 126.535 16.715 126.205 16.295L124.945 16.745C125.14 17.015 125.35 17.36 125.515 17.675H123.88V18.86H127.03V19.43H124.36V20.54H127.03V21.155H123.415V22.43H132.37L132.355 21.155ZM123.415 18.8H120.895L121.99 18.35C121.855 17.84 121.48 16.97 121.135 16.355L119.86 16.82C120.175 17.435 120.475 18.245 120.61 18.8H118.525V20.195H123.415V18.8ZM121.735 26.345V28.115H120.25V26.345H121.735ZM123.01 24.98H118.99V30.11H120.25V29.48H123.01V24.98ZM119.05 24.245H123.04V22.91H119.05V24.245ZM119.05 22.22H123.04V20.87H119.05V22.22ZM126.805 24.725V23.87C127.27 23.795 127.69 23.69 128.08 23.585C128.095 23.99 128.11 24.35 128.14 24.725H126.805ZM130.615 26.195C130.435 26.525 130.18 26.825 129.91 27.125C129.835 26.795 129.76 26.435 129.715 26.015H132.34V24.725H131.275L132.25 24.035C131.95 23.6 131.275 23.03 130.72 22.655L129.7 23.345C130.225 23.735 130.825 24.29 131.125 24.725H129.58C129.55 24.125 129.535 23.45 129.535 22.745H128.05C128.05 23.015 128.065 23.3 128.08 23.585L127.165 22.535C126.28 22.82 124.78 23.045 123.52 23.165C123.655 23.45 123.82 23.9 123.865 24.2C124.315 24.17 124.78 24.14 125.26 24.08V24.725H123.385V26.015H125.26V26.735C124.525 26.81 123.865 26.87 123.295 26.915L123.46 28.28C124.015 28.22 124.615 28.145 125.26 28.07V28.835C125.26 29 125.2 29.045 125.02 29.06C124.855 29.06 124.285 29.06 123.775 29.045C123.955 29.405 124.15 29.93 124.21 30.305C125.095 30.305 125.74 30.29 126.205 30.095C126.67 29.885 126.805 29.57 126.805 28.88V27.875L128.035 27.725L128.005 26.465L126.805 26.585V26.015H128.26C128.365 26.84 128.515 27.545 128.71 28.175C128.11 28.58 127.465 28.94 126.835 29.195C127.12 29.435 127.495 29.855 127.675 30.125C128.185 29.9 128.71 29.63 129.205 29.3C129.64 29.975 130.225 30.365 130.99 30.365C131.905 30.365 132.385 29.84 132.595 28.4C132.28 28.265 131.86 28.055 131.575 27.785C131.53 28.595 131.38 28.985 131.155 28.985C130.855 28.985 130.6 28.79 130.375 28.415C130.945 27.935 131.44 27.38 131.815 26.78L130.615 26.195ZM139.067 17.87C137.837 19.625 137.177 21.92 137.177 24.365C137.177 26.81 137.837 29.12 139.067 30.86H141.122C140.027 29.12 139.337 26.81 139.337 24.365C139.337 21.92 140.027 19.625 141.122 17.87H139.067ZM146.221 18.395C143.791 18.395 142.156 19.595 142.156 21.5C142.156 25.22 147.751 24.065 147.751 26.045C147.751 26.69 147.166 27.05 146.191 27.05C145.081 27.05 143.551 26.435 142.471 25.475L141.526 27.41C142.711 28.415 144.436 29.075 146.161 29.075C148.486 29.075 150.271 27.965 150.271 25.91C150.286 22.13 144.691 23.21 144.691 21.275C144.691 20.705 145.231 20.42 146.026 20.42C146.866 20.42 148.186 20.84 149.296 21.5L150.211 19.535C149.161 18.845 147.691 18.395 146.221 18.395ZM156.821 20.855C155.726 20.855 154.841 21.305 154.271 22.115V20.93H151.961V31.91H154.271V27.83C154.856 28.64 155.741 29.09 156.866 29.09C159.131 29.09 160.616 27.455 160.616 25.01C160.616 22.52 159.086 20.855 156.821 20.855ZM156.281 27.17C155.096 27.17 154.271 26.27 154.271 24.935C154.271 23.63 155.096 22.715 156.281 22.715C157.466 22.715 158.276 23.645 158.276 24.935C158.276 26.255 157.466 27.17 156.281 27.17ZM164.45 20.93H162.14V29H164.45V25.115C164.45 23.75 165.47 22.865 167.12 23.015V20.84C165.92 20.855 165.005 21.395 164.45 22.385V20.93ZM169.536 17.345C168.801 17.345 168.291 17.885 168.291 18.635C168.291 19.385 168.801 19.925 169.536 19.925C170.271 19.925 170.781 19.385 170.781 18.635C170.781 17.885 170.271 17.345 169.536 17.345ZM170.691 29V20.93H168.381V29H170.691ZM178.007 20.84C176.747 20.855 175.787 21.335 175.217 22.34V20.93H172.907V29H175.217V25.025C175.217 23.84 175.907 22.97 177.062 22.955C178.052 22.955 178.652 23.585 178.652 24.605V29H180.962V23.93C180.962 22.04 179.807 20.84 178.007 20.84ZM187.471 26.855C187.051 27.05 186.691 27.155 186.391 27.155C185.896 27.17 185.611 26.9 185.611 26.225V22.895H187.801V21.29H185.611V19.07H183.316V21.29H182.191V22.88H183.316V26.615C183.316 28.28 184.411 29.105 185.851 29.105C186.601 29.105 187.351 28.895 187.951 28.55L187.471 26.855ZM199.456 29H202.141L199.906 25.535C201.181 24.935 201.871 23.765 201.871 22.145C201.871 19.82 200.311 18.5 197.566 18.5H193.006V29H195.376V26H197.566H197.791L199.456 29ZM195.376 24.02V20.465H197.566C198.871 20.465 199.621 21.05 199.621 22.22C199.621 23.42 198.871 24.02 197.566 24.02H195.376ZM207.28 20.855C204.82 20.855 203.125 22.505 203.125 24.995C203.125 27.44 204.76 29.09 207.34 29.09C208.795 29.09 209.98 28.565 210.79 27.665L209.575 26.435C209.02 26.99 208.3 27.29 207.535 27.29C206.5 27.29 205.72 26.69 205.45 25.67H211.24C211.435 22.73 210.115 20.855 207.28 20.855ZM205.405 24.305C205.585 23.24 206.275 22.55 207.295 22.55C208.36 22.55 209.05 23.24 209.08 24.305H205.405ZM217.28 26.855C216.86 27.05 216.5 27.155 216.2 27.155C215.705 27.17 215.42 26.9 215.42 26.225V22.895H217.61V21.29H215.42V19.07H213.125V21.29H212V22.88H213.125V26.615C213.125 28.28 214.22 29.105 215.66 29.105C216.41 29.105 217.16 28.895 217.76 28.55L217.28 26.855ZM221.462 20.93H219.152V29H221.462V25.115C221.462 23.75 222.482 22.865 224.132 23.015V20.84C222.932 20.855 222.017 21.395 221.462 22.385V20.93ZM229.037 20.855C226.442 20.855 224.702 22.49 224.702 24.965C224.702 27.425 226.442 29.09 229.037 29.09C231.617 29.09 233.357 27.425 233.357 24.965C233.357 22.49 231.617 20.855 229.037 20.855ZM229.037 22.775C230.222 22.775 231.047 23.675 231.047 24.995C231.047 26.315 230.222 27.215 229.037 27.215C227.837 27.215 227.027 26.315 227.027 24.995C227.027 23.675 227.837 22.775 229.037 22.775ZM237.614 20.825C235.859 20.825 234.434 21.68 234.434 23.345C234.434 26.18 238.619 25.49 238.619 26.78C238.619 27.215 238.184 27.41 237.599 27.41C236.714 27.41 235.634 27.05 234.794 26.405L234.044 27.965C234.959 28.7 236.234 29.09 237.539 29.09C239.369 29.09 240.824 28.22 240.824 26.57C240.839 23.72 236.579 24.335 236.579 23.12C236.579 22.7 236.969 22.52 237.509 22.52C238.184 22.52 239.084 22.805 239.969 23.3L240.764 21.725C239.864 21.155 238.724 20.825 237.614 20.825ZM247.305 20.855C246.21 20.855 245.325 21.305 244.755 22.115V20.93H242.445V31.91H244.755V27.83C245.34 28.64 246.225 29.09 247.35 29.09C249.615 29.09 251.1 27.455 251.1 25.01C251.1 22.52 249.57 20.855 247.305 20.855ZM246.765 27.17C245.58 27.17 244.755 26.27 244.755 24.935C244.755 23.63 245.58 22.715 246.765 22.715C247.95 22.715 248.76 23.645 248.76 24.935C248.76 26.255 247.95 27.17 246.765 27.17ZM256.089 20.855C253.629 20.855 251.934 22.505 251.934 24.995C251.934 27.44 253.569 29.09 256.149 29.09C257.604 29.09 258.789 28.565 259.599 27.665L258.384 26.435C257.829 26.99 257.109 27.29 256.344 27.29C255.309 27.29 254.529 26.69 254.259 25.67H260.049C260.244 22.73 258.924 20.855 256.089 20.855ZM254.214 24.305C254.394 23.24 255.084 22.55 256.104 22.55C257.169 22.55 257.859 23.24 257.889 24.305H254.214ZM265.024 20.855C262.549 20.855 260.884 22.52 260.884 24.995C260.884 27.44 262.549 29.09 264.994 29.09C266.644 29.09 267.904 28.43 268.579 27.305L266.989 26.225C266.584 26.855 265.939 27.17 265.114 27.17C263.989 27.17 263.194 26.285 263.194 24.98C263.194 23.69 263.989 22.82 265.114 22.82C265.909 22.805 266.524 23.135 266.959 23.675L268.519 22.55C267.799 21.47 266.569 20.855 265.024 20.855ZM274.541 26.855C274.121 27.05 273.761 27.155 273.461 27.155C272.966 27.17 272.681 26.9 272.681 26.225V22.895H274.871V21.29H272.681V19.07H270.386V21.29H269.261V22.88H270.386V26.615C270.386 28.28 271.481 29.105 272.921 29.105C273.671 29.105 274.421 28.895 275.021 28.55L274.541 26.855ZM277.568 17.345C276.833 17.345 276.323 17.885 276.323 18.635C276.323 19.385 276.833 19.925 277.568 19.925C278.303 19.925 278.813 19.385 278.813 18.635C278.813 17.885 278.303 17.345 277.568 17.345ZM278.723 29V20.93H276.413V29H278.723ZM285.214 29L288.259 20.93H285.964L284.074 26.81L282.169 20.93L279.784 20.945L282.844 29H285.214ZM292.475 20.855C290.015 20.855 288.32 22.505 288.32 24.995C288.32 27.44 289.955 29.09 292.535 29.09C293.99 29.09 295.175 28.565 295.985 27.665L294.77 26.435C294.215 26.99 293.495 27.29 292.73 27.29C291.695 27.29 290.915 26.69 290.645 25.67H296.435C296.63 22.73 295.31 20.855 292.475 20.855ZM290.6 24.305C290.78 23.24 291.47 22.55 292.49 22.55C293.555 22.55 294.245 23.24 294.275 24.305H290.6ZM297.946 17.87C299.041 19.625 299.746 21.92 299.746 24.365C299.746 26.81 299.041 29.12 297.946 30.86H300.016C301.246 29.12 301.906 26.81 301.906 24.365C301.906 21.92 301.246 19.625 300.016 17.87H297.946Z" fill="#FFAD21"/>
<circle cx="24" cy="22" r="13" fill="#FFAD21"/>
<g clip-path="url(#clip0_197_41879)">
<path d="M27.1906 17.1218C26.1419 16.179 24.7329 15.734 23.324 15.8929C20.9988 16.1525 19.1608 18.0381 18.9595 20.374C18.8059 22.1695 19.6375 23.9122 21.1259 24.9185C21.2159 24.9821 21.2689 25.0827 21.2689 25.194V25.4429C21.2689 25.9726 21.6979 26.4016 22.2276 26.4016H25.5539C26.0836 26.4016 26.5126 25.9726 26.5126 25.4429V25.194C26.5126 25.0827 26.5656 24.9821 26.6504 24.9238C28.0222 24.0022 28.8432 22.4662 28.8432 20.8136C28.8432 19.4047 28.2394 18.0593 27.1906 17.1218ZM26.0624 24.0499C25.6863 24.3041 25.4586 24.7331 25.4586 25.194V25.3476H24.4151V23.0541L26.359 21.1102C26.5656 20.9036 26.5656 20.5699 26.359 20.3687C26.1525 20.1674 25.8188 20.1621 25.6175 20.3687L23.5094 22.4767C23.3876 22.5986 23.3505 22.7575 23.3664 22.9164V25.3476H22.3229V25.194C22.3229 24.7331 22.0952 24.3041 21.7138 24.0499C20.5379 23.2554 19.8812 21.8835 20.003 20.4693C20.1566 18.6578 21.6344 17.143 23.4352 16.9417C24.5634 16.8146 25.6493 17.1588 26.4862 17.9057C27.3124 18.6472 27.7891 19.7066 27.7891 20.8136C27.7891 22.1113 27.1429 23.3242 26.0624 24.0499ZM26.5762 27.6093C26.5762 27.9006 26.3431 28.1336 26.0518 28.1336H21.735C21.4437 28.1336 21.2106 27.9006 21.2106 27.6093C21.2106 27.3179 21.4437 27.0849 21.735 27.0849H26.0518C26.3431 27.0849 26.5762 27.3179 26.5762 27.6093Z" fill="#00092B"/>
</g>
<defs>
<clipPath id="clip0_197_41879">
<rect width="9.89955" height="12.2778" fill="white" transform="translate(18.9434 15.8613)"/>
</clipPath>
</defs>
</svg>
