<svg width="76" height="87" viewBox="0 0 76 87" fill="none" xmlns="http://www.w3.org/2000/svg">
<g clip-path="url(#clip0_432_15955)">
<path fill-rule="evenodd" clip-rule="evenodd" d="M14.1578 18.6457C14.1578 18.6457 24.2128 1.33764 36.518 0.676343C49.2841 -0.00900352 60.553 19.319 60.553 19.319L14.1548 18.6457H14.1578Z" fill="url(#paint0_linear_432_15955)"/>
<path fill-rule="evenodd" clip-rule="evenodd" d="M75.9789 25.9079C75.7861 26.5512 61.7971 32.542 37.997 32.542C16.0163 32.542 -0.201818 26.9029 0.0180786 25.9079C0.171705 25.2105 17.0224 22.8599 38 22.8599C58.9776 22.8599 76.1265 25.427 75.9819 25.9079H75.9789Z" fill="url(#paint1_radial_432_15955)"/>
<path fill-rule="evenodd" clip-rule="evenodd" d="M0.0180664 25.9079C0.0180664 25.9079 11.0521 15.273 36.5179 15.273C61.9838 15.273 75.9789 25.9079 75.9789 25.9079C75.9789 25.9079 65.5323 23.4942 36.5179 23.4942C13.3474 23.4942 0.0180664 25.9079 0.0180664 25.9079Z" fill="url(#paint2_radial_432_15955)"/>
<path d="M68.4482 28.8357L68.2885 28.7876C68.4301 28.3307 67.5987 27.9549 66.8788 27.7205C61.9838 26.1364 46.4374 25.5953 34.0629 25.7636C18.5828 25.974 7.81685 27.1794 7.27464 28.7665L7.11499 28.7124C7.81083 26.6774 21.4896 25.7666 34.0599 25.5983C46.4464 25.43 62.0169 25.974 66.93 27.5642C68.0987 27.9429 68.5958 28.3607 68.4482 28.8387V28.8357Z" fill="#371778"/>
<path fill-rule="evenodd" clip-rule="evenodd" d="M22.4565 31.6101C22.4565 31.6101 35.3853 29.9148 52.6517 31.7484C52.6517 31.7484 37.1927 33.4377 22.4565 31.6101Z" fill="#2F1C5D"/>
<path fill-rule="evenodd" clip-rule="evenodd" d="M23.9868 31.7484C23.9868 31.7484 36.1444 30.2034 51.0643 31.9137C51.0643 31.9137 37.0511 33.5099 23.9868 31.7484Z" fill="#3055AF"/>
<path fill-rule="evenodd" clip-rule="evenodd" d="M26.8124 31.4418C26.8124 31.4418 40.8436 32.578 47.7839 31.5019C47.7839 31.5019 35.0148 30.7294 26.8124 31.4418Z" fill="#76C4FB"/>
<path fill-rule="evenodd" clip-rule="evenodd" d="M40.5605 28.4629C40.5605 28.7665 39.4128 29.013 37.994 29.013C36.5752 29.013 35.4305 28.7665 35.4305 28.4629C35.4305 28.4209 35.4516 28.3788 35.4968 28.3397C35.7559 28.0932 36.777 27.9099 37.997 27.9099C39.0573 27.9099 39.967 28.0481 40.3586 28.2465C40.4882 28.3126 40.5635 28.3878 40.5635 28.4629H40.5605Z" fill="url(#paint3_linear_432_15955)"/>
<path fill-rule="evenodd" clip-rule="evenodd" d="M40.3587 28.2525C40.3587 28.514 39.2622 28.7245 37.9067 28.7245C36.7078 28.7245 35.7107 28.5591 35.4968 28.3397C35.7559 28.0932 36.777 27.9099 37.997 27.9099C39.0574 27.9099 39.9671 28.0481 40.3587 28.2465C40.3587 28.2465 40.3587 28.2495 40.3587 28.2525Z" fill="white"/>
<path fill-rule="evenodd" clip-rule="evenodd" d="M52.6247 28.7665C52.6247 29.0461 51.8897 29.2745 50.986 29.2745C50.2389 29.2745 49.6094 29.1182 49.4105 28.9078C49.3684 28.8627 49.3473 28.8176 49.3473 28.7665C49.3473 28.7275 49.3624 28.6884 49.3895 28.6523C49.5551 28.4269 50.2058 28.2585 50.986 28.2585C51.4649 28.2585 51.8957 28.3217 52.1939 28.4239C52.3204 28.466 52.4198 28.514 52.4921 28.5682C52.5765 28.6313 52.6216 28.6974 52.6216 28.7665H52.6247Z" fill="url(#paint4_linear_432_15955)"/>
<path fill-rule="evenodd" clip-rule="evenodd" d="M52.2633 28.5651C52.2633 28.8447 51.5283 29.0731 50.6247 29.0731C50.1457 29.0731 49.7119 29.01 49.4137 28.9078C49.3715 28.8627 49.3505 28.8176 49.3505 28.7665C49.3505 28.7275 49.3655 28.6884 49.3926 28.6523C49.5583 28.4269 50.209 28.2585 50.9891 28.2585C51.4681 28.2585 51.8989 28.3217 52.1971 28.4239C52.2392 28.469 52.2633 28.5171 52.2633 28.5682V28.5651Z" fill="white"/>
<path fill-rule="evenodd" clip-rule="evenodd" d="M60.6886 30.2304C60.6886 30.4108 60.0952 30.5551 59.3602 30.5551C58.7547 30.5551 58.2426 30.4559 58.083 30.3206C58.0498 30.2936 58.0317 30.2635 58.0317 30.2304C58.0317 30.2064 58.0438 30.1823 58.0649 30.1583C58.1974 30.014 58.7276 29.9058 59.3602 29.9058C59.7487 29.9058 60.0982 29.9479 60.3392 30.011C60.4416 30.0381 60.5229 30.0681 60.5801 30.1042C60.6494 30.1433 60.6856 30.1883 60.6856 30.2304H60.6886Z" fill="url(#paint5_linear_432_15955)"/>
<path fill-rule="evenodd" clip-rule="evenodd" d="M60.3965 30.1012C60.3965 30.2815 59.8031 30.4258 59.0681 30.4258C58.6795 30.4258 58.3301 30.3837 58.0861 30.3206C58.053 30.2936 58.0349 30.2635 58.0349 30.2304C58.0349 30.2064 58.047 30.1823 58.068 30.1583C58.2006 30.014 58.7308 29.9058 59.3633 29.9058C59.7519 29.9058 60.1013 29.9479 60.3423 30.011C60.3785 30.0411 60.3965 30.0711 60.3965 30.1012Z" fill="white"/>
<path fill-rule="evenodd" clip-rule="evenodd" d="M24.6044 28.7245C24.6044 29.004 25.3394 29.2325 26.2431 29.2325C26.9901 29.2325 27.6197 29.0761 27.8185 28.8657C27.8607 28.8206 27.8817 28.7756 27.8817 28.7245C27.8817 28.6854 27.8667 28.6463 27.8396 28.6102C27.6739 28.3848 27.0232 28.2165 26.2431 28.2165C25.7641 28.2165 25.3333 28.2796 25.0351 28.3818C24.9086 28.4239 24.8092 28.472 24.7369 28.5261C24.6526 28.5892 24.6074 28.6553 24.6074 28.7245H24.6044Z" fill="url(#paint6_linear_432_15955)"/>
<path fill-rule="evenodd" clip-rule="evenodd" d="M24.9658 28.5231C24.9658 28.8026 25.7008 29.0311 26.6045 29.0311C27.0835 29.0311 27.5172 28.9679 27.8154 28.8657C27.8576 28.8206 27.8787 28.7756 27.8787 28.7245C27.8787 28.6854 27.8636 28.6463 27.8365 28.6102C27.6709 28.3848 27.0202 28.2165 26.24 28.2165C25.7611 28.2165 25.3303 28.2796 25.0321 28.3818C24.9899 28.4269 24.9658 28.475 24.9658 28.5261V28.5231Z" fill="white"/>
<path fill-rule="evenodd" clip-rule="evenodd" d="M15.0343 30.1673C15.0343 30.3476 15.6277 30.4919 16.3627 30.4919C16.9682 30.4919 17.4803 30.3927 17.6399 30.2575C17.6731 30.2304 17.6911 30.2004 17.6911 30.1673C17.6911 30.1432 17.6791 30.1192 17.658 30.0951C17.5255 29.9509 16.9953 29.8427 16.3627 29.8427C15.9741 29.8427 15.6247 29.8847 15.3837 29.9479C15.2813 29.9749 15.2 30.005 15.1427 30.041C15.0735 30.0801 15.0373 30.1252 15.0373 30.1673H15.0343Z" fill="url(#paint7_linear_432_15955)"/>
<path fill-rule="evenodd" clip-rule="evenodd" d="M15.3295 30.038C15.3295 30.2184 15.9229 30.3627 16.6579 30.3627C17.0465 30.3627 17.3959 30.3206 17.6399 30.2575C17.673 30.2304 17.6911 30.2004 17.6911 30.1673C17.6911 30.1432 17.6791 30.1192 17.658 30.0951C17.5254 29.9509 16.9953 29.8427 16.3627 29.8427C15.9741 29.8427 15.6247 29.8847 15.3837 29.9479C15.3475 29.9779 15.3295 30.008 15.3295 30.038Z" fill="white"/>
<path d="M70.0386 22.6074C53.5825 15.6037 36.8854 15.9012 25.7791 17.3832C13.742 18.9883 5.48834 22.2948 5.40701 22.3279L5.34375 22.1716C5.42508 22.1385 13.6938 18.826 25.752 17.2178C36.8824 15.7329 53.6126 15.4353 70.1049 22.4541L70.0386 22.6074Z" fill="#6B4599"/>
<path d="M0.0361474 25.9891L0 25.8268C0.111455 25.8027 11.4467 23.4341 38.5814 23.4341C65.7161 23.4341 75.9006 25.8027 76 25.8268L75.9608 25.9891C75.8614 25.965 65.692 23.5994 38.5814 23.5994C11.4708 23.5994 0.147602 25.965 0.0361474 25.9891Z" fill="#371778"/>
<path d="M8.43747 24.8348L8.323 24.7116C8.36818 24.6695 12.9499 20.4281 16.3869 18.9102L16.4562 19.0635C13.0463 20.5724 8.48566 24.7927 8.44048 24.8348H8.43747Z" fill="#6B4599"/>
<path d="M68.9573 24.9581C63.7039 20.6536 55.884 18.2188 55.8057 18.1948L55.8539 18.0355C55.9322 18.0595 63.7822 20.5063 69.0627 24.8318L68.9573 24.9611V24.9581Z" fill="#6B4599"/>
<path d="M42.7805 3.04199C42.7805 3.04199 43.7776 4.1662 45.7145 6.27334L47.552 6.29739C47.552 6.29739 46.5429 4.572 43.7776 3.045H42.7805V3.04199Z" fill="white"/>
<path d="M14.5614 17.9813C14.5614 17.9813 25.6075 0.489969 37.7138 0.880737C49.8202 1.27151 59.7186 17.9844 59.7186 17.9844C59.7186 17.9813 48.8593 0.0120297 38 6.02319e-06C25.493 -0.0120176 14.5614 17.9813 14.5614 17.9813Z" fill="white"/>
<path fill-rule="evenodd" clip-rule="evenodd" d="M22.538 15.9824C22.538 15.9824 28.9662 11.8884 38.0693 11.4435C47.1724 10.9986 53.7603 15.8532 53.7603 15.8532C53.7603 15.8532 37.759 12.4535 22.538 15.9824Z" fill="#E49062"/>
<path d="M16.7694 16.3191C16.7694 16.3191 19.2064 12.6098 22.1885 9.89244L23.2398 9.64896C23.2398 9.64896 20.2004 13.4995 19.1521 15.6578L16.7694 16.3191Z" fill="white"/>
<path fill-rule="evenodd" clip-rule="evenodd" d="M14.1577 18.6457L14.6819 17.816C14.6819 17.816 42.4853 9.54377 59.7216 17.9844L60.2306 18.7869C60.2306 18.7869 52.48 15.6337 36.795 15.6337C21.1101 15.6337 14.1577 18.6487 14.1577 18.6487V18.6457Z" fill="url(#paint8_radial_432_15955)"/>
<g style="mix-blend-mode:soft-light">
<path d="M17.3116 24.3389C17.3116 24.3389 36.0451 22.5293 64.5654 24.6695C64.5654 24.6695 44.6271 23.2146 17.3116 24.3389Z" fill="white"/>
</g>
<path fill-rule="evenodd" clip-rule="evenodd" d="M38.2681 23.6234C38.2681 23.8639 38.0302 24.0593 37.735 24.0593C37.4398 24.0593 37.2018 23.8639 37.2018 23.6234C37.2018 23.3829 37.4398 23.1876 37.735 23.1876C38.0302 23.1876 38.2681 23.3829 38.2681 23.6234Z" fill="url(#paint9_linear_432_15955)"/>
<path fill-rule="evenodd" clip-rule="evenodd" d="M38.1537 23.6234C38.1537 23.8128 37.9669 23.9661 37.735 23.9661C37.503 23.9661 37.3163 23.8128 37.3163 23.6234C37.3163 23.434 37.503 23.2807 37.735 23.2807C37.9669 23.2807 38.1537 23.434 38.1537 23.6234Z" fill="white"/>
<path style="mix-blend-mode:screen" d="M40.7924 22.7096C41.4099 24.0112 40.6177 25.4781 39.0242 25.9831C37.4307 26.488 35.6384 25.8418 35.0179 24.5372C34.4004 23.2357 35.1926 21.7688 36.7861 21.2638C38.3796 20.7588 40.1719 21.4051 40.7924 22.7096Z" fill="url(#paint10_radial_432_15955)"/>
<path fill-rule="evenodd" clip-rule="evenodd" d="M69.5386 24.7747C69.5386 25.0152 69.3007 25.2106 69.0055 25.2106C68.7103 25.2106 68.4723 25.0152 68.4723 24.7747C68.4723 24.5342 68.7103 24.3388 69.0055 24.3388C69.3007 24.3388 69.5386 24.5342 69.5386 24.7747Z" fill="url(#paint11_linear_432_15955)"/>
<path fill-rule="evenodd" clip-rule="evenodd" d="M69.4242 24.7747C69.4242 24.9641 69.2374 25.1174 69.0055 25.1174C68.7736 25.1174 68.5868 24.9641 68.5868 24.7747C68.5868 24.5853 68.7736 24.432 69.0055 24.432C69.2374 24.432 69.4242 24.5853 69.4242 24.7747Z" fill="white"/>
<path style="mix-blend-mode:screen" d="M11.0611 23.8609C11.6786 25.1625 10.8864 26.6293 9.29289 27.1343C7.69939 27.6393 5.90708 26.9931 5.28655 25.6885C4.66903 24.3869 5.46126 22.92 7.05476 22.4151C8.64826 21.9101 10.4406 22.5563 11.0611 23.8609Z" fill="url(#paint12_radial_432_15955)"/>
<g style="mix-blend-mode:soft-light">
<path fill-rule="evenodd" clip-rule="evenodd" d="M36.3071 20.0674C36.3614 20.0975 36.4367 20.1576 36.5541 20.1456C36.6084 20.1396 36.6566 20.1275 36.7108 20.1215C36.759 20.1155 36.8072 20.1125 36.8554 20.1095C36.9216 20.1095 37.0271 20.0945 37.0783 20.0734C37.1174 20.0584 37.0783 20.0434 37.0391 20.0344C37 20.0253 36.9578 20.0133 36.9066 20.0133C36.8433 20.0133 36.7801 20.0133 36.7198 20.0043C36.6957 20.0043 36.6746 19.9953 36.6505 19.9923C36.6174 19.9923 36.5812 19.9923 36.5481 19.9923C36.4758 19.9923 36.3373 20.0133 36.3101 20.0644L36.3071 20.0674Z" fill="white"/>
<path fill-rule="evenodd" clip-rule="evenodd" d="M37.3012 20.1907C37.268 20.1937 37.2409 20.1907 37.2198 20.1847C37.2198 20.1396 37.4548 20.1215 37.5 20.1666C37.5512 20.2147 37.3765 20.2207 37.3012 20.2057V20.1907Z" fill="white"/>
<path fill-rule="evenodd" clip-rule="evenodd" d="M38.7832 21.0323C38.7531 21.0083 38.7139 20.9873 38.729 20.9632C38.741 20.9422 38.7772 20.9241 38.8193 20.9091C38.8736 20.8911 38.9428 20.882 39.0121 20.876C39.0453 20.873 39.0784 20.867 39.1115 20.87C39.2501 20.8851 39.3465 20.9452 39.3857 20.9933C39.4098 21.0203 39.4338 21.0474 39.4399 21.0774C39.4429 21.0985 39.4519 21.1195 39.461 21.1375C39.467 21.1556 39.4851 21.1706 39.476 21.1856C39.467 21.1977 39.4399 21.2157 39.4188 21.2247C39.3555 21.2578 39.2622 21.2788 39.1597 21.2758C38.979 21.2758 38.8374 21.1886 38.7621 21.1315C38.7019 21.0834 38.6266 21.0113 38.7802 21.0323H38.7832Z" fill="white"/>
<path fill-rule="evenodd" clip-rule="evenodd" d="M38.5392 20.8129C38.5904 20.8189 38.6055 20.8249 38.6356 20.8099C38.6567 20.7979 38.6537 20.7829 38.6446 20.7678C38.6235 20.7438 38.5302 20.7137 38.4639 20.7318C38.4308 20.7408 38.3735 20.7618 38.3705 20.7768C38.3615 20.8069 38.4729 20.846 38.5422 20.84V20.8099L38.5392 20.8129Z" fill="white"/>
<path fill-rule="evenodd" clip-rule="evenodd" d="M40.2954 19.8991C40.3256 19.9021 40.3466 19.9021 40.3768 19.9021C40.446 19.9021 40.5153 19.9021 40.5876 19.9021C40.7202 19.9021 40.8497 19.9081 40.9822 19.9081C41.0786 19.9081 41.172 19.9021 41.2654 19.8961C41.3136 19.8961 41.3648 19.8901 41.413 19.8841C41.41 19.8811 41.3859 19.8781 41.3738 19.8781C41.3377 19.8721 41.2955 19.8691 41.2624 19.86C41.1841 19.842 41.1027 19.827 41.0214 19.812C41.0063 19.812 40.9883 19.8089 40.9762 19.8029C40.9581 19.7969 40.9431 19.7909 40.928 19.7849C40.9009 19.7759 40.8678 19.7669 40.8316 19.7608C40.7503 19.7488 40.6509 19.7458 40.5605 19.7488C40.5304 19.7488 40.5003 19.7518 40.4701 19.7518C40.437 19.7518 40.4069 19.7518 40.3737 19.7518C40.3045 19.7548 40.2412 19.7699 40.181 19.7819C40.1117 19.7969 39.9882 19.815 39.9701 19.851C39.9611 19.8691 40.0093 19.8751 40.0454 19.8781C40.0906 19.8811 40.1358 19.8811 40.181 19.8841C40.2412 19.8871 40.3135 19.8961 40.2984 19.8931L40.2954 19.8991Z" fill="white"/>
<path fill-rule="evenodd" clip-rule="evenodd" d="M39.6779 19.86C39.6448 19.851 39.5845 19.842 39.5936 19.821C39.6056 19.8029 39.6749 19.7999 39.7141 19.8029C39.8044 19.8089 39.711 19.854 39.6508 19.851L39.6779 19.857V19.86Z" fill="white"/>
<path fill-rule="evenodd" clip-rule="evenodd" d="M40.2502 19.5144C40.2864 19.5204 40.3195 19.5264 40.3586 19.5234C40.4159 19.5204 40.437 19.5023 40.44 19.4813C40.443 19.4482 40.4219 19.4272 40.3376 19.4212C40.2833 19.4182 40.205 19.4302 40.1689 19.4452C40.1508 19.4512 40.1418 19.4633 40.1418 19.4723C40.1388 19.4933 40.1779 19.5023 40.2171 19.5114H40.2532L40.2502 19.5144Z" fill="white"/>
<path fill-rule="evenodd" clip-rule="evenodd" d="M42.8678 18.7809C42.8106 18.7328 42.7534 18.6817 42.7263 18.6276C42.7022 18.5795 42.7142 18.5344 42.7022 18.4863C42.6871 18.4202 42.6299 18.3571 42.5877 18.294C42.5515 18.2368 42.5305 18.1827 42.5666 18.1256C42.5937 18.0805 42.666 18.0354 42.7714 18.0144C42.8377 18.0024 42.91 17.9934 42.9823 17.9904C43.0154 17.9904 43.0486 17.9904 43.0817 17.9873C43.1028 17.9873 43.1179 17.9843 43.142 17.9843C43.1751 17.9843 43.1751 17.9904 43.1751 18.0024C43.1751 18.0264 43.1691 18.0415 43.1389 18.0625C43.0907 18.0926 43.0697 18.1316 43.0546 18.1647C43.0395 18.1978 43.0185 18.2308 43.0064 18.2669C42.9974 18.3 42.9853 18.336 42.9733 18.3691C42.9642 18.3992 42.9492 18.4262 42.9401 18.4563C42.9311 18.4863 42.9311 18.5134 42.9251 18.5434C42.919 18.5675 42.9251 18.5915 42.9221 18.6156C42.919 18.6306 42.913 18.6456 42.916 18.6607C42.916 18.6727 42.916 18.6847 42.91 18.6967C42.904 18.7088 42.91 18.7208 42.91 18.7298C42.91 18.7358 42.895 18.7629 42.8709 18.7839L42.8678 18.7809Z" fill="white"/>
<path fill-rule="evenodd" clip-rule="evenodd" d="M42.3227 18.4713C42.3377 18.4773 42.3528 18.4893 42.3769 18.4893C42.3859 18.4893 42.407 18.4893 42.416 18.4893C42.4703 18.4833 42.4733 18.4473 42.4763 18.4292C42.4763 18.3811 42.4371 18.324 42.3468 18.2879C42.2895 18.2639 42.1871 18.2459 42.1028 18.2519C41.9853 18.2609 41.919 18.309 41.8949 18.3511C41.8708 18.3901 41.8678 18.4442 41.9461 18.4773C41.9732 18.4893 42.0094 18.4984 42.0516 18.4984C42.0817 18.4984 42.1118 18.4953 42.1419 18.4953C42.1841 18.4953 42.2202 18.5044 42.2594 18.4953C42.2895 18.4893 42.3076 18.4803 42.3227 18.4683V18.4713Z" fill="white"/>
<path fill-rule="evenodd" clip-rule="evenodd" d="M42.3347 18.1767C42.2985 18.1767 42.2955 18.1767 42.2684 18.1707C42.2443 18.1647 42.2322 18.1557 42.2413 18.1436C42.2533 18.1256 42.3106 18.1136 42.3527 18.1226C42.3798 18.1286 42.3979 18.1436 42.4009 18.1557C42.4039 18.1707 42.3768 18.1827 42.3437 18.1857L42.3347 18.1797V18.1767Z" fill="white"/>
<path fill-rule="evenodd" clip-rule="evenodd" d="M39.6116 17.801C39.6357 17.822 39.6447 17.828 39.6899 17.8401C39.714 17.8461 39.7291 17.8491 39.7562 17.8431C39.8194 17.831 39.8827 17.801 39.9068 17.7769C39.9219 17.7589 39.9188 17.7349 39.8947 17.7168C39.8737 17.7018 39.8285 17.6898 39.7953 17.6777C39.7652 17.6687 39.7321 17.6567 39.702 17.6477C39.6447 17.6327 39.5815 17.6206 39.5152 17.6357C39.458 17.6507 39.4128 17.6807 39.4158 17.7078C39.4188 17.7288 39.4369 17.7439 39.464 17.7619C39.4881 17.7799 39.5031 17.795 39.6146 17.798L39.6116 17.801Z" fill="white"/>
<path fill-rule="evenodd" clip-rule="evenodd" d="M39.8917 17.9002C39.8917 17.9002 39.9038 17.8701 39.9218 17.8581C39.9399 17.8581 39.949 17.8491 39.967 17.8521C39.9941 17.8551 39.9881 17.8731 39.9851 17.8821C39.9851 17.8942 39.9731 17.9032 39.952 17.9122C39.9459 17.9122 39.9128 17.9272 39.9098 17.9182L39.8917 17.9002Z" fill="white"/>
<path fill-rule="evenodd" clip-rule="evenodd" d="M42.0907 19.2198C42.1329 19.2288 42.1811 19.2378 42.2293 19.2228C42.2714 19.2077 42.2624 19.1777 42.2413 19.1596C42.2292 19.1506 42.2172 19.1386 42.1901 19.1386C42.16 19.1386 42.1298 19.1386 42.0997 19.1386C42.0304 19.1386 41.9792 19.1116 41.9099 19.1356C41.8828 19.1446 41.8587 19.1687 41.8678 19.1837C41.8828 19.2107 41.9551 19.2258 42.0184 19.2348L42.0937 19.2198H42.0907Z" fill="white"/>
<path fill-rule="evenodd" clip-rule="evenodd" d="M44.6903 21.4381C44.7084 21.4712 44.7475 21.4983 44.8048 21.5193C44.8138 21.5193 44.8258 21.5193 44.8349 21.5193C44.8891 21.5253 44.9463 21.5283 45.0006 21.5193C45.1602 21.4862 45.1421 21.4201 45.1421 21.363C45.1421 21.2999 45.1602 21.2187 44.9343 21.2488C44.8319 21.2608 44.6632 21.2818 44.5999 21.3179C44.5668 21.3389 44.5819 21.348 44.5999 21.366C44.624 21.39 44.6451 21.4231 44.6933 21.4411L44.6903 21.4381Z" fill="white"/>
<path fill-rule="evenodd" clip-rule="evenodd" d="M60.6644 25.4661C60.6825 25.4991 60.7217 25.5262 60.7789 25.5472C60.7879 25.5472 60.8 25.5472 60.809 25.5472C60.8632 25.5532 60.9205 25.5562 60.9747 25.5472C61.1343 25.5142 61.1163 25.448 61.1163 25.3909C61.1163 25.3278 61.1343 25.2466 60.9084 25.2767C60.806 25.2887 60.6373 25.3098 60.574 25.3458C60.5409 25.3669 60.556 25.3759 60.574 25.3939C60.5981 25.418 60.6192 25.451 60.6674 25.4691L60.6644 25.4661Z" fill="white"/>
<path fill-rule="evenodd" clip-rule="evenodd" d="M44.9433 20.7137C44.8982 20.7047 44.8138 20.6897 44.8078 20.6656C44.8018 20.6446 44.8319 20.6386 44.859 20.6235C44.9192 20.5905 44.9945 20.5604 45.1 20.5935C45.1452 20.6085 45.1783 20.6416 45.1662 20.6656C45.1572 20.6867 45.0909 20.7227 45.0277 20.7137H44.9433Z" fill="white"/>
<path fill-rule="evenodd" clip-rule="evenodd" d="M30.7464 17.6838C30.8699 17.7078 30.8759 17.7078 31.0024 17.6958C31.0958 17.6868 31.2012 17.6777 31.2766 17.6507C31.3729 17.6146 31.3489 17.5635 31.376 17.5184C31.397 17.4824 31.4031 17.4613 31.3398 17.4313C31.2796 17.4012 31.1862 17.3711 31.0988 17.3531C30.8187 17.293 30.412 17.296 30.1259 17.3441C29.9391 17.3772 29.7222 17.4252 29.665 17.5094C29.6138 17.5785 29.6559 17.6597 29.7915 17.7078C29.9301 17.7589 30.1319 17.7709 30.3126 17.7559C30.3548 17.7499 30.397 17.7469 30.4391 17.7409C30.4934 17.7409 30.5506 17.7379 30.6048 17.7409C30.6651 17.7409 30.7163 17.7258 30.7494 17.6868L30.7464 17.6838Z" fill="white"/>
<path fill-rule="evenodd" clip-rule="evenodd" d="M15.1458 25.7967C15.2693 25.8207 15.2753 25.8207 15.4019 25.8087C15.4952 25.7997 15.6007 25.7907 15.676 25.7636C15.7724 25.7276 15.7483 25.6765 15.7754 25.6314C15.7965 25.5953 15.8025 25.5743 15.7392 25.5442C15.679 25.5141 15.5856 25.4841 15.4982 25.466C15.2181 25.4059 14.8114 25.4089 14.5253 25.457C14.3385 25.4901 14.1216 25.5382 14.0644 25.6224C14.0132 25.6915 14.0554 25.7727 14.1909 25.8207C14.3295 25.8718 14.5313 25.8839 14.712 25.8688C14.7542 25.8628 14.7964 25.8598 14.8386 25.8538C14.8928 25.8538 14.95 25.8508 15.0042 25.8538C15.0645 25.8538 15.1157 25.8388 15.1488 25.7997L15.1458 25.7967Z" fill="white"/>
<path fill-rule="evenodd" clip-rule="evenodd" d="M31.2254 17.816C31.3188 17.7709 31.3037 17.7769 31.4212 17.7709C31.4724 17.7679 31.4845 17.7589 31.5357 17.7649C31.5959 17.7709 31.6562 17.804 31.6502 17.828C31.6441 17.8491 31.5508 17.8761 31.5116 17.8851C31.4544 17.8972 31.4212 17.8942 31.364 17.8821L31.2224 17.816H31.2254Z" fill="white"/>
<path fill-rule="evenodd" clip-rule="evenodd" d="M31.1983 22.4361C31.3008 22.4451 31.4212 22.4601 31.4905 22.4151C31.5387 22.385 31.4905 22.3399 31.4363 22.3129C31.361 22.2738 31.1742 22.2347 31.0537 22.2287C30.9242 22.2227 30.7857 22.2828 30.7706 22.3309C30.7405 22.4271 31.126 22.4752 31.3098 22.4812L31.1983 22.4361Z" fill="white"/>
<path fill-rule="evenodd" clip-rule="evenodd" d="M30.5145 28.1473C30.6169 28.1563 30.7374 28.1714 30.8067 28.1263C30.8549 28.0962 30.8067 28.0511 30.7525 28.0241C30.6772 27.985 30.4904 27.9459 30.3699 27.9399C30.2404 27.9339 30.1018 27.994 30.0868 28.0421C30.0566 28.1383 30.4422 28.1864 30.626 28.1924L30.5145 28.1473Z" fill="white"/>
<path fill-rule="evenodd" clip-rule="evenodd" d="M32.3248 22.5022C32.2947 22.5082 32.2134 22.5293 32.1772 22.5263C32.1592 22.5263 32.1561 22.5172 32.1441 22.5142C32.0959 22.5022 32.0507 22.4902 32.0417 22.4661C32.0206 22.4181 32.0658 22.382 32.1712 22.3579C32.2405 22.3429 32.3128 22.3429 32.37 22.3639C32.4333 22.388 32.4604 22.4421 32.3851 22.4661L32.3278 22.4992L32.3248 22.5022Z" fill="white"/>
<path fill-rule="evenodd" clip-rule="evenodd" d="M45.3952 18.3C45.5669 18.333 45.7597 18.327 45.9464 18.315C46.0669 18.306 46.2236 18.3 46.2778 18.2489C46.4013 18.1316 45.7567 18.0415 45.5488 18.0204C45.3801 18.0024 45.1753 17.9964 44.9976 18.0084C44.8891 18.0144 44.6752 18.0475 44.618 18.0896C44.5457 18.1437 44.6331 18.2038 44.7415 18.2338C44.9885 18.309 45.3078 18.2879 45.591 18.324L45.3952 18.303V18.3Z" fill="white"/>
<path fill-rule="evenodd" clip-rule="evenodd" d="M45.353 18.3601C45.353 18.3601 45.368 18.4262 45.4012 18.4443C45.4222 18.4563 45.4584 18.4773 45.4976 18.4803C45.5518 18.4863 45.609 18.4713 45.6421 18.4563C45.6662 18.4473 45.6903 18.4292 45.6753 18.4142C45.6632 18.4022 45.6271 18.3962 45.603 18.3871C45.5608 18.3751 45.5156 18.3661 45.4644 18.3571C45.4433 18.3541 45.4192 18.3481 45.3951 18.3451C45.356 18.3451 45.3409 18.3511 45.3108 18.3571H45.353V18.3601Z" fill="white"/>
<path fill-rule="evenodd" clip-rule="evenodd" d="M46.9284 18.4262C46.9434 18.4142 46.9585 18.3992 46.9766 18.3871C47.0157 18.3871 47.0639 18.3841 47.088 18.3992C47.1061 18.4082 47.1061 18.4382 47.0941 18.4503C47.076 18.4683 47.0429 18.4773 46.9977 18.4773C46.9435 18.4773 46.9224 18.4593 46.9133 18.4382L46.9284 18.4262Z" fill="white"/>
<path fill-rule="evenodd" clip-rule="evenodd" d="M49.0552 20.2478C49.1034 20.2538 49.1425 20.2568 49.1817 20.2418C49.2389 20.2207 49.251 20.1877 49.2028 20.1606C49.1335 20.1276 48.9799 20.0885 48.8594 20.0975C48.7841 20.1035 48.6967 20.1426 48.7419 20.1696C48.763 20.1847 48.7961 20.2057 48.8262 20.2177C48.8804 20.2388 48.9648 20.2448 49.0371 20.2478H49.0522H49.0552Z" fill="white"/>
<path fill-rule="evenodd" clip-rule="evenodd" d="M24.1857 18.7929C24.2188 18.808 24.2278 18.814 24.276 18.817C24.3272 18.82 24.3784 18.823 24.4236 18.811C24.514 18.7869 24.5773 18.7328 24.6013 18.6907C24.6224 18.6547 24.6104 18.6246 24.5532 18.5945C24.4899 18.5615 24.4086 18.5374 24.3031 18.5314C24.1887 18.5254 24.1073 18.5314 24.0381 18.5705C23.9838 18.6006 23.9206 18.6426 23.9055 18.6787C23.8905 18.7148 23.9145 18.7358 23.9718 18.7629C24.023 18.7869 24.1134 18.817 24.1857 18.7899V18.7929Z" fill="white"/>
<path fill-rule="evenodd" clip-rule="evenodd" d="M24.5381 18.4863C24.5079 18.4863 24.4748 18.4863 24.4658 18.4743C24.4567 18.4593 24.4929 18.4292 24.523 18.4172C24.5471 18.4082 24.6013 18.3992 24.6345 18.4022C24.6616 18.4022 24.6827 18.4142 24.6977 18.4232C24.7248 18.4382 24.7278 18.4533 24.7067 18.4683C24.6917 18.4773 24.6586 18.5014 24.6224 18.4984L24.5381 18.4863Z" fill="white"/>
<path fill-rule="evenodd" clip-rule="evenodd" d="M20.8059 19.4242C20.8601 19.4242 20.8872 19.4242 20.9324 19.4122C20.9986 19.3971 21.0589 19.3731 21.1011 19.346C21.1553 19.313 21.1975 19.2709 21.1884 19.2318C21.1824 19.2017 21.0981 19.1747 21.0288 19.1717C20.9474 19.1657 20.8239 19.1777 20.7577 19.1987C20.6281 19.2378 20.5227 19.3039 20.5348 19.3701C20.5498 19.4452 20.839 19.4482 20.8028 19.4242H20.8059Z" fill="white"/>
<path fill-rule="evenodd" clip-rule="evenodd" d="M21.4807 19.0995C21.4626 19.1086 21.4385 19.1146 21.4114 19.1176C21.3993 19.1056 21.3662 19.1026 21.3572 19.0905C21.3451 19.0785 21.3572 19.0635 21.3692 19.0545C21.3903 19.0394 21.4234 19.0304 21.4686 19.0274C21.5168 19.0274 21.5289 19.0334 21.5499 19.0484C21.565 19.0605 21.571 19.0635 21.556 19.0755C21.5469 19.0815 21.5259 19.0935 21.5138 19.0995H21.4867H21.4807Z" fill="white"/>
</g>
<path style="mix-blend-mode:screen" d="M38.2681 31.7604C41.7301 31.7604 44.5367 30.2195 44.5367 28.3187C44.5367 26.4178 41.7301 24.8769 38.2681 24.8769C34.806 24.8769 31.9995 26.4178 31.9995 28.3187C31.9995 30.2195 34.806 31.7604 38.2681 31.7604Z" fill="url(#paint13_radial_432_15955)"/>
<path style="mix-blend-mode:screen" d="M28.4932 28.9319C28.4932 29.6142 27.4841 30.1673 26.24 30.1673C24.9959 30.1673 23.9868 29.6142 23.9868 28.9319C23.9868 28.2495 24.9959 27.6964 26.24 27.6964C27.4841 27.6964 28.4932 28.2495 28.4932 28.9319Z" fill="url(#paint14_radial_432_15955)"/>
<path style="mix-blend-mode:screen" d="M26.8124 31.8957L28.3185 86.0652L47.552 84.0302L47.7839 32.037C47.7839 32.037 32.4815 30.6993 26.8124 31.8957Z" fill="url(#paint15_radial_432_15955)"/>
<path style="mix-blend-mode:screen" d="M29.5173 86.6754L28.4932 31.3997L35.1112 31.1082V85.975L29.5173 86.6754Z" fill="url(#paint16_radial_432_15955)"/>
<path style="mix-blend-mode:screen" d="M38.7531 31.1082L38.9398 86.8768H39.5664L39.7501 31.3065L38.7531 31.1082Z" fill="url(#paint17_radial_432_15955)"/>
<path style="mix-blend-mode:screen" d="M43.4161 31.5741V87L45.3982 86.2395L44.9675 31.8236L43.4161 31.5741Z" fill="url(#paint18_radial_432_15955)"/>
</g>
<defs>
<linearGradient id="paint0_linear_432_15955" x1="37.3554" y1="19.319" x2="37.3554" y2="0.658309" gradientUnits="userSpaceOnUse">
<stop stop-color="#FFFF48"/>
<stop offset="1" stop-color="#E17D5B"/>
</linearGradient>
<radialGradient id="paint1_radial_432_15955" cx="0" cy="0" r="1" gradientUnits="userSpaceOnUse" gradientTransform="translate(37.012 27.3303) scale(20.836 29.1086)">
<stop offset="0.02" stop-color="#7445AA"/>
<stop offset="0.43" stop-color="#6938A3"/>
<stop offset="0.99" stop-color="#552196"/>
</radialGradient>
<radialGradient id="paint2_radial_432_15955" cx="0" cy="0" r="1" gradientUnits="userSpaceOnUse" gradientTransform="translate(35.5058 15.9844) scale(32.0748 21.1246)">
<stop stop-color="#CFCCFB"/>
<stop offset="1" stop-color="#826FC1"/>
</radialGradient>
<linearGradient id="paint3_linear_432_15955" x1="37.997" y1="29.013" x2="37.997" y2="27.9099" gradientUnits="userSpaceOnUse">
<stop stop-color="#FFFF48"/>
<stop offset="1" stop-color="#E17D5B"/>
</linearGradient>
<linearGradient id="paint4_linear_432_15955" x1="50.986" y1="29.2715" x2="50.986" y2="28.2555" gradientUnits="userSpaceOnUse">
<stop stop-color="#FFFF48"/>
<stop offset="1" stop-color="#E17D5B"/>
</linearGradient>
<linearGradient id="paint5_linear_432_15955" x1="59.3602" y1="30.5551" x2="59.3602" y2="29.9058" gradientUnits="userSpaceOnUse">
<stop stop-color="#FFFF48"/>
<stop offset="1" stop-color="#E17D5B"/>
</linearGradient>
<linearGradient id="paint6_linear_432_15955" x1="26.2431" y1="29.2325" x2="26.2431" y2="28.2165" gradientUnits="userSpaceOnUse">
<stop stop-color="#FFFF48"/>
<stop offset="1" stop-color="#E17D5B"/>
</linearGradient>
<linearGradient id="paint7_linear_432_15955" x1="16.3627" y1="30.4919" x2="16.3627" y2="29.8396" gradientUnits="userSpaceOnUse">
<stop stop-color="#FFFF48"/>
<stop offset="1" stop-color="#E17D5B"/>
</linearGradient>
<radialGradient id="paint8_radial_432_15955" cx="0" cy="0" r="1" gradientUnits="userSpaceOnUse" gradientTransform="translate(36.5932 12.2898) scale(12.3564 18.6187)">
<stop offset="0.02" stop-color="#6C5EAA"/>
<stop offset="0.41" stop-color="#6551A3"/>
<stop offset="0.99" stop-color="#583796"/>
</radialGradient>
<linearGradient id="paint9_linear_432_15955" x1="37.735" y1="24.0593" x2="37.735" y2="23.1876" gradientUnits="userSpaceOnUse">
<stop stop-color="#9DC4FB"/>
<stop offset="0.32" stop-color="#594E81"/>
</linearGradient>
<radialGradient id="paint10_radial_432_15955" cx="0" cy="0" r="1" gradientUnits="userSpaceOnUse" gradientTransform="translate(-6.13316 37.2161) rotate(-17.575) scale(3.03146 2.58489)">
<stop stop-color="#233EE7"/>
<stop offset="0.04" stop-color="#2039D5"/>
<stop offset="0.19" stop-color="#172A9D"/>
<stop offset="0.33" stop-color="#101D6D"/>
<stop offset="0.47" stop-color="#0A1246"/>
<stop offset="0.61" stop-color="#050A27"/>
<stop offset="0.75" stop-color="#020411"/>
<stop offset="0.88" stop-color="#000104"/>
<stop offset="1"/>
</radialGradient>
<linearGradient id="paint11_linear_432_15955" x1="69.0055" y1="25.2075" x2="69.0055" y2="24.3388" gradientUnits="userSpaceOnUse">
<stop stop-color="#9DC4FB"/>
<stop offset="0.32" stop-color="#594E81"/>
</linearGradient>
<radialGradient id="paint12_radial_432_15955" cx="0" cy="0" r="1" gradientUnits="userSpaceOnUse" gradientTransform="translate(-34.8631 38.0614) rotate(-17.575) scale(3.03146 2.58489)">
<stop stop-color="#233EE7"/>
<stop offset="0.04" stop-color="#2039D5"/>
<stop offset="0.19" stop-color="#172A9D"/>
<stop offset="0.33" stop-color="#101D6D"/>
<stop offset="0.47" stop-color="#0A1246"/>
<stop offset="0.61" stop-color="#050A27"/>
<stop offset="0.75" stop-color="#020411"/>
<stop offset="0.88" stop-color="#000104"/>
<stop offset="1"/>
</radialGradient>
<radialGradient id="paint13_radial_432_15955" cx="0" cy="0" r="1" gradientUnits="userSpaceOnUse" gradientTransform="translate(41.8392 28.3927) scale(6.2573 3.43774)">
<stop stop-color="#E59724"/>
<stop offset="0.04" stop-color="#D58C21"/>
<stop offset="0.18" stop-color="#9D6718"/>
<stop offset="0.33" stop-color="#6D4811"/>
<stop offset="0.47" stop-color="#462E0B"/>
<stop offset="0.61" stop-color="#271A06"/>
<stop offset="0.75" stop-color="#110B02"/>
<stop offset="0.88" stop-color="#040200"/>
<stop offset="1"/>
</radialGradient>
<radialGradient id="paint14_radial_432_15955" cx="0" cy="0" r="1" gradientUnits="userSpaceOnUse" gradientTransform="translate(29.8313 29.0025) scale(2.25199 1.23723)">
<stop stop-color="#E59724"/>
<stop offset="0.04" stop-color="#D58C21"/>
<stop offset="0.18" stop-color="#9D6718"/>
<stop offset="0.33" stop-color="#6D4811"/>
<stop offset="0.47" stop-color="#462E0B"/>
<stop offset="0.61" stop-color="#271A06"/>
<stop offset="0.75" stop-color="#110B02"/>
<stop offset="0.88" stop-color="#040200"/>
<stop offset="1"/>
</radialGradient>
<radialGradient id="paint15_radial_432_15955" cx="0" cy="0" r="1" gradientUnits="userSpaceOnUse" gradientTransform="translate(41.5184 32.4999) scale(54.2001 54.0853)">
<stop stop-color="#5799FB"/>
<stop offset="1" stop-color="#4A289C"/>
</radialGradient>
<radialGradient id="paint16_radial_432_15955" cx="0" cy="0" r="1" gradientUnits="userSpaceOnUse" gradientTransform="translate(32.4513 27.6213) scale(55.7484 55.6303)">
<stop stop-color="#5799FB"/>
<stop offset="1" stop-color="#4A289C"/>
</radialGradient>
<radialGradient id="paint17_radial_432_15955" cx="0" cy="0" r="1" gradientUnits="userSpaceOnUse" gradientTransform="translate(43.0757 27.2155) scale(57.1463 57.0251)">
<stop stop-color="#5799FB"/>
<stop offset="1" stop-color="#4A289C"/>
</radialGradient>
<radialGradient id="paint18_radial_432_15955" cx="0" cy="0" r="1" gradientUnits="userSpaceOnUse" gradientTransform="translate(43.0758 27.2155) scale(57.1461 57.0251)">
<stop stop-color="#5799FB"/>
<stop offset="1" stop-color="#4A289C"/>
</radialGradient>
<clipPath id="clip0_432_15955">
<rect width="76" height="87" fill="white"/>
</clipPath>
</defs>
</svg>
