<svg width="306" height="309" viewBox="0 0 306 309" fill="none" xmlns="http://www.w3.org/2000/svg">
<path d="M1.5 299C1.5 303.694 5.30558 307.5 10 307.5H296C300.694 307.5 304.5 303.694 304.5 299V46C304.5 41.3056 300.694 37.5 296 37.5H10C5.30558 37.5 1.5 41.3056 1.5 46V299Z" fill="white" fill-opacity="0.1" stroke="#13D1FF" stroke-width="3"/>
<path d="M56.216 88.088H48.168V89.848H56.216V88.088ZM53.912 94.856H50.376V92.728H53.912V94.856ZM55.768 91.064H48.616V96.52H55.768V91.064ZM51.496 99.784C51.352 98.952 50.984 97.704 50.536 96.76L48.936 97.192C49.336 98.136 49.704 99.432 49.8 100.264L51.496 99.784ZM47.96 99.048C47.64 98.616 46.376 96.92 45.736 96.2C45.768 95.928 45.816 95.656 45.832 95.4H47.832V93.704H45.96C45.96 93.528 45.96 93.352 45.96 93.176V91.176H47.72V89.48H44.184C44.296 88.92 44.408 88.344 44.488 87.768L42.76 87.448C42.552 89.272 42.136 91.128 41.464 92.312C41.864 92.552 42.6 93.032 42.904 93.32C43.224 92.744 43.496 91.992 43.752 91.176H44.216V93.144C44.216 93.32 44.216 93.512 44.216 93.704H41.576V95.4H44.104C43.88 97.32 43.24 99.416 41.496 100.984C41.832 101.224 42.536 101.896 42.776 102.264C44.008 101.16 44.792 99.704 45.256 98.216C45.8 99.032 46.392 99.976 46.744 100.616L47.96 99.048ZM54.152 100.296C54.568 99.352 55 98.136 55.4 97.032L53.528 96.632C53.272 97.768 52.824 99.224 52.376 100.296H47.544V102.056H56.456V100.296H54.152ZM72.2 88.296H68.584V89.992H72.2V88.296ZM59.976 87.448C59.448 88.44 58.328 89.704 57.336 90.488C57.64 90.824 58.072 91.544 58.28 91.944C59.496 90.968 60.824 89.464 61.688 88.072L59.976 87.448ZM63.208 96.024V95.304H64.216V96.024H63.208ZM63.208 93.576H64.216V94.264H63.208V93.576ZM66.696 93.576V94.264H65.72V93.576H66.696ZM66.696 96.024H65.72V95.304H66.696V96.024ZM72.52 92.344H68.344V94.072H69.608V100.376C69.608 100.552 69.56 100.6 69.368 100.6C69.208 100.6 68.712 100.6 68.2 100.584L68.216 99.816L65.72 99.944V99.176H67.992V97.8H65.72V97.128H68.072V92.456H65.72V91.752H68.344V90.264H65.72V89.352C66.6 89.256 67.448 89.128 68.168 88.968L67.272 87.576C65.832 87.912 63.608 88.152 61.672 88.28C61.832 88.648 62.04 89.224 62.088 89.592C62.76 89.576 63.48 89.544 64.216 89.48V90.264H61.704V91.32L60.232 90.792C59.512 92.36 58.344 93.992 57.224 95.064C57.528 95.448 58.056 96.392 58.232 96.792C58.536 96.472 58.856 96.12 59.16 95.736V102.392H60.888V93.24C61.192 92.744 61.464 92.248 61.704 91.752H64.216V92.456H61.896V97.128H64.216V97.8H61.976V99.176H64.216V100.024C63.208 100.072 62.296 100.12 61.544 100.136L61.736 101.624C63.512 101.512 65.912 101.368 68.2 101.192V100.792C68.392 101.304 68.552 101.944 68.6 102.392C69.544 102.392 70.232 102.36 70.744 102.056C71.272 101.752 71.384 101.256 71.384 100.408V94.072H72.52V92.344ZM81.496 91.032C82.056 90.584 82.568 90.12 83.032 89.608C83.592 90.104 84.232 90.584 84.92 91.032H81.496ZM78.696 95.352C78.472 94.968 77.448 93.384 77.064 92.872V92.184H78.28V91.432C78.632 91.768 79.032 92.216 79.24 92.504C79.768 92.216 80.312 91.88 80.824 91.528V92.456H85.528V91.416C86.264 91.864 87.048 92.28 87.784 92.6C87.912 92.088 88.248 91.272 88.536 90.792C86.968 90.28 85.208 89.352 84.024 88.376C84.136 88.216 84.248 88.056 84.328 87.896L82.52 87.24C81.64 88.648 80.04 90.088 78.28 91.032V90.424H77.064V87.448H75.576V90.424H73.96V92.184H75.336C74.968 93.976 74.312 96.04 73.56 97.176C73.8 97.672 74.152 98.52 74.296 99.064C74.776 98.216 75.208 96.968 75.576 95.608V102.376H77.064V94.84C77.4 95.48 77.736 96.2 77.896 96.648L78.696 95.352ZM84.904 94.536H86.04V96.008H84.904V94.536ZM83.528 97.272H87.496V93.256H83.528V97.272ZM80.312 94.536H81.384V96.008H80.312V94.536ZM78.952 97.272H82.824V93.256H78.952V97.272ZM80.2 97.448C79.72 99.064 78.696 100.408 77.304 101.24C77.672 101.496 78.264 102.12 78.52 102.44C79.416 101.832 80.184 101.032 80.808 100.056C81.304 100.408 81.816 100.84 82.088 101.16L83.032 99.896C82.696 99.56 82.088 99.112 81.512 98.744C81.64 98.44 81.768 98.12 81.864 97.8L80.2 97.448ZM84.616 97.432C84.328 99.064 83.56 100.408 82.312 101.224C82.664 101.464 83.272 102.104 83.512 102.424C84.216 101.912 84.824 101.24 85.288 100.44C86.088 101.032 86.872 101.688 87.32 102.168L88.456 100.888C87.912 100.344 86.872 99.592 85.976 98.968C86.12 98.552 86.232 98.12 86.328 97.672L84.616 97.432ZM96.04 96.136C95.736 95.816 94.568 94.68 93.928 94.12C94.664 93.08 95.304 91.944 95.768 90.776L94.76 90.04L94.424 90.12H93.288L94.184 89.512C93.912 88.92 93.304 88.104 92.76 87.496L91.304 88.392C91.72 88.888 92.168 89.56 92.472 90.12H89.752V91.832H93.4C92.44 93.528 90.888 95.096 89.288 95.976C89.512 96.328 89.88 97.384 90.008 97.912C90.632 97.544 91.224 97.048 91.832 96.504V102.376H93.704V96.168C94.152 96.712 94.6 97.304 94.872 97.704L96.04 96.136ZM98.248 94.488H101.784V95.528H98.248V94.488ZM98.248 92.04H101.784V93.064H98.248V92.04ZM98.248 89.592H101.784V90.632H98.248V89.592ZM102.184 100.664C101.96 100.664 101.928 100.616 101.928 100.184V97.048H103.608V88.088H96.52V97.048H97.576C97.4 99.016 96.968 100.28 94.408 101.016C94.728 101.336 95.192 101.976 95.352 102.408C98.424 101.416 99.048 99.656 99.272 97.048H100.168V100.184C100.168 101.768 100.472 102.312 101.88 102.312H102.936C104.024 102.312 104.472 101.736 104.632 99.56C104.152 99.432 103.4 99.144 103.08 98.856C103.032 100.456 102.984 100.664 102.712 100.664H102.184ZM115.8 98.168V98.808H110.216V98.168H115.8ZM110.216 100.696V100.056H115.8V100.696H110.216ZM108.344 102.376H110.216V101.944H115.8V102.328H117.752V96.92H108.344V102.376ZM108.264 92.056C108.936 91.8 109.576 91.496 110.2 91.176V91.496H115.816V91.08C116.52 91.448 117.24 91.784 117.992 92.056H108.264ZM116.872 95.24H115.576C115.832 94.792 116.136 94.168 116.456 93.528L115.208 93.224H116.872V95.24ZM109.032 95.24V93.224H110.84L109.608 93.576C109.864 94.088 110.072 94.744 110.152 95.24H109.032ZM112.168 95.24H110.536L111.56 94.92C111.464 94.456 111.208 93.768 110.92 93.224H112.168V95.24ZM114.856 93.224C114.712 93.752 114.456 94.488 114.232 94.968L115.192 95.24H113.704V93.224H114.856ZM111.768 90.264C112.248 89.928 112.712 89.576 113.128 89.224C113.528 89.576 113.992 89.928 114.472 90.264H111.768ZM112.68 87.32C111.224 89.176 108.376 90.504 105.432 91.192C105.752 91.544 106.264 92.312 106.456 92.664C106.776 92.584 107.112 92.472 107.448 92.36V96.392H118.568V92.264C118.904 92.36 119.24 92.472 119.56 92.552C119.816 92.104 120.36 91.432 120.76 91.096C118.216 90.6 115.592 89.496 114.12 88.216C114.2 88.12 114.28 88.008 114.36 87.912L112.68 87.32ZM136.312 92.632H132.456V91.976H135.496V90.792H132.456V90.184H135.992V88.92H134.264C134.504 88.6 134.776 88.232 135.016 87.864L133.352 87.448C133.224 87.88 132.904 88.472 132.632 88.92H130.664C130.488 88.504 130.104 87.896 129.752 87.448L128.408 87.928C128.616 88.216 128.84 88.584 129.016 88.92H127.272V90.184H130.632V90.792H127.784V91.976H130.632V92.632H126.776V93.992H136.328L136.312 92.632ZM126.776 90.12H124.088L125.256 89.64C125.112 89.096 124.712 88.168 124.344 87.512L122.984 88.008C123.32 88.664 123.64 89.528 123.784 90.12H121.56V91.608H126.776V90.12ZM124.984 98.168V100.056H123.4V98.168H124.984ZM126.344 96.712H122.056V102.184H123.4V101.512H126.344V96.712ZM122.12 95.928H126.376V94.504H122.12V95.928ZM122.12 93.768H126.376V92.328H122.12V93.768ZM130.392 96.44V95.528C130.888 95.448 131.336 95.336 131.752 95.224C131.768 95.656 131.784 96.04 131.816 96.44H130.392ZM134.456 98.008C134.264 98.36 133.992 98.68 133.704 99C133.624 98.648 133.544 98.264 133.496 97.816H136.296V96.44H135.16L136.2 95.704C135.88 95.24 135.16 94.632 134.568 94.232L133.48 94.968C134.04 95.384 134.68 95.976 135 96.44H133.352C133.32 95.8 133.304 95.08 133.304 94.328H131.72C131.72 94.616 131.736 94.92 131.752 95.224L130.776 94.104C129.832 94.408 128.232 94.648 126.888 94.776C127.032 95.08 127.208 95.56 127.256 95.88C127.736 95.848 128.232 95.816 128.744 95.752V96.44H126.744V97.816H128.744V98.584C127.96 98.664 127.256 98.728 126.648 98.776L126.824 100.232C127.416 100.168 128.056 100.088 128.744 100.008V100.824C128.744 101 128.68 101.048 128.488 101.064C128.312 101.064 127.704 101.064 127.16 101.048C127.352 101.432 127.56 101.992 127.624 102.392C128.568 102.392 129.256 102.376 129.752 102.168C130.248 101.944 130.392 101.608 130.392 100.872V99.8L131.704 99.64L131.672 98.296L130.392 98.424V97.816H131.944C132.056 98.696 132.216 99.448 132.424 100.12C131.784 100.552 131.096 100.936 130.424 101.208C130.728 101.464 131.128 101.912 131.32 102.2C131.864 101.96 132.424 101.672 132.952 101.32C133.416 102.04 134.04 102.456 134.856 102.456C135.832 102.456 136.344 101.896 136.568 100.36C136.232 100.216 135.784 99.992 135.48 99.704C135.432 100.568 135.272 100.984 135.032 100.984C134.712 100.984 134.44 100.776 134.2 100.376C134.808 99.864 135.336 99.272 135.736 98.632L134.456 98.008ZM143.713 89.128C142.401 91 141.697 93.448 141.697 96.056C141.697 98.664 142.401 101.128 143.713 102.984H145.905C144.737 101.128 144.001 98.664 144.001 96.056C144.001 93.448 144.737 91 145.905 89.128H143.713ZM151.344 89.688C148.752 89.688 147.008 90.968 147.008 93C147.008 96.968 152.976 95.736 152.976 97.848C152.976 98.536 152.352 98.92 151.312 98.92C150.128 98.92 148.496 98.264 147.344 97.24L146.336 99.304C147.6 100.376 149.44 101.08 151.28 101.08C153.76 101.08 155.664 99.896 155.664 97.704C155.68 93.672 149.712 94.824 149.712 92.76C149.712 92.152 150.288 91.848 151.136 91.848C152.032 91.848 153.44 92.296 154.624 93L155.6 90.904C154.48 90.168 152.912 89.688 151.344 89.688ZM162.651 92.312C161.483 92.312 160.539 92.792 159.931 93.656V92.392H157.467V104.104H159.931V99.752C160.555 100.616 161.499 101.096 162.699 101.096C165.115 101.096 166.699 99.352 166.699 96.744C166.699 94.088 165.067 92.312 162.651 92.312ZM162.075 99.048C160.811 99.048 159.931 98.088 159.931 96.664C159.931 95.272 160.811 94.296 162.075 94.296C163.339 94.296 164.203 95.288 164.203 96.664C164.203 98.072 163.339 99.048 162.075 99.048ZM170.789 92.392H168.325V101H170.789V96.856C170.789 95.4 171.877 94.456 173.637 94.616V92.296C172.357 92.312 171.381 92.888 170.789 93.944V92.392ZM176.213 88.568C175.429 88.568 174.885 89.144 174.885 89.944C174.885 90.744 175.429 91.32 176.213 91.32C176.997 91.32 177.541 90.744 177.541 89.944C177.541 89.144 176.997 88.568 176.213 88.568ZM177.445 101V92.392H174.981V101H177.445ZM185.249 92.296C183.905 92.312 182.881 92.824 182.273 93.896V92.392H179.809V101H182.273V96.76C182.273 95.496 183.009 94.568 184.241 94.552C185.297 94.552 185.937 95.224 185.937 96.312V101H188.401V95.592C188.401 93.576 187.169 92.296 185.249 92.296ZM195.344 98.712C194.896 98.92 194.512 99.032 194.192 99.032C193.664 99.048 193.36 98.76 193.36 98.04V94.488H195.696V92.776H193.36V90.408H190.912V92.776H189.712V94.472H190.912V98.456C190.912 100.232 192.08 101.112 193.616 101.112C194.416 101.112 195.216 100.888 195.856 100.52L195.344 98.712ZM208.128 101H210.992L208.608 97.304C209.968 96.664 210.704 95.416 210.704 93.688C210.704 91.208 209.04 89.8 206.112 89.8H201.248V101H203.776V97.8H206.112H206.352L208.128 101ZM203.776 95.688V91.896H206.112C207.504 91.896 208.304 92.52 208.304 93.768C208.304 95.048 207.504 95.688 206.112 95.688H203.776ZM216.474 92.312C213.85 92.312 212.042 94.072 212.042 96.728C212.042 99.336 213.786 101.096 216.538 101.096C218.09 101.096 219.354 100.536 220.218 99.576L218.922 98.264C218.33 98.856 217.562 99.176 216.746 99.176C215.642 99.176 214.81 98.536 214.522 97.448H220.698C220.906 94.312 219.498 92.312 216.474 92.312ZM214.474 95.992C214.666 94.856 215.402 94.12 216.49 94.12C217.626 94.12 218.362 94.856 218.394 95.992H214.474ZM226.603 101L229.851 92.392H227.403L225.387 98.664L223.355 92.392L220.811 92.408L224.075 101H226.603ZM232.166 88.568C231.382 88.568 230.838 89.144 230.838 89.944C230.838 90.744 231.382 91.32 232.166 91.32C232.95 91.32 233.494 90.744 233.494 89.944C233.494 89.144 232.95 88.568 232.166 88.568ZM233.398 101V92.392H230.934V101H233.398ZM239.458 92.312C236.834 92.312 235.026 94.072 235.026 96.728C235.026 99.336 236.77 101.096 239.522 101.096C241.074 101.096 242.338 100.536 243.202 99.576L241.906 98.264C241.314 98.856 240.546 99.176 239.73 99.176C238.626 99.176 237.794 98.536 237.506 97.448H243.682C243.89 94.312 242.482 92.312 239.458 92.312ZM237.458 95.992C237.65 94.856 238.386 94.12 239.474 94.12C240.61 94.12 241.346 94.856 241.378 95.992H237.458ZM255.572 101L258.708 92.392H256.276L254.388 98.552L252.5 92.392H250.084L248.228 98.552L246.308 92.392L243.796 92.408L246.948 101H249.412L251.252 95.32L253.108 101H255.572ZM259.777 89.128C260.945 91 261.697 93.448 261.697 96.056C261.697 98.664 260.945 101.128 259.777 102.984H261.985C263.297 101.128 264.001 98.664 264.001 96.056C264.001 93.448 263.297 91 261.985 89.128H259.777Z" fill="#13D1FF"/>
<path d="M17.588 127.814V125.49H21.354V127.814H17.588ZM13.15 127.814C13.192 127.296 13.206 126.778 13.206 126.316V125.49H16.552V127.814H13.15ZM16.552 122.27V124.51H13.206V122.27H16.552ZM21.354 124.51H17.588V122.27H21.354V124.51ZM22.376 121.276H12.184V126.316C12.184 128.262 12.044 130.726 10.504 132.462C10.728 132.588 11.148 132.938 11.302 133.148C12.366 131.958 12.842 130.362 13.052 128.808H16.552V132.938H17.588V128.808H21.354V131.65C21.354 131.916 21.256 132 20.976 132.014C20.724 132.014 19.772 132.028 18.792 131.986C18.932 132.266 19.1 132.714 19.142 132.994C20.458 133.008 21.27 132.994 21.746 132.826C22.194 132.644 22.376 132.336 22.376 131.664V121.276ZM34.3958 123.572C34.0878 125.126 33.4158 126.484 32.4078 127.352C32.6598 127.464 33.0798 127.758 33.2758 127.912C33.7518 127.464 34.1578 126.904 34.5078 126.26C35.3338 126.946 36.2158 127.73 36.6918 128.262L37.4338 127.548C36.8738 126.974 35.7958 126.078 34.9138 125.392C35.1098 124.874 35.2778 124.328 35.3898 123.74L34.3958 123.572ZM27.8018 123.572C27.3958 125.378 26.5278 126.876 25.2538 127.828C25.4918 127.982 25.8978 128.318 26.0798 128.5C26.7658 127.926 27.3678 127.184 27.8438 126.302C28.3478 126.792 28.8658 127.31 29.1458 127.66L29.8598 126.946C29.5098 126.54 28.8658 125.924 28.2778 125.406C28.4878 124.888 28.6838 124.342 28.8238 123.754L27.8018 123.572ZM31.8058 123.25H37.3638V122.228H31.8058V120.296H30.7418V122.228H25.3798V123.25H30.7418V126.666C29.4538 128.696 27.1438 130.628 24.8898 131.552C25.1278 131.762 25.4638 132.168 25.6178 132.42C27.4798 131.552 29.3558 130.04 30.7418 128.262V133.064H31.8058V128.22C33.1638 130.04 35.0678 131.608 36.9998 132.462C37.1678 132.182 37.5038 131.762 37.7698 131.538C35.3898 130.642 33.0518 128.668 31.8058 126.568V123.25ZM43.4336 127.17C43.2236 126.806 42.3416 125.364 41.9916 124.86V123.95H43.2656V123.782C43.4756 123.964 43.7696 124.258 43.8956 124.44C44.4136 124.146 44.9176 123.824 45.3936 123.46V124.272H49.5656V123.432H45.4356C46.1496 122.9 46.7936 122.298 47.3396 121.654C48.5156 122.69 50.1956 123.726 51.6376 124.342C51.7216 124.076 51.9316 123.656 52.0996 123.404C50.6716 122.9 48.9216 121.948 47.8716 120.996C47.9836 120.842 48.0816 120.674 48.1796 120.52L47.1716 120.198C46.4156 121.472 44.9176 122.83 43.2656 123.712V122.97H41.9916V120.282H41.1376V122.97H39.4716V123.95H40.9976C40.6476 125.798 39.9336 127.926 39.2196 129.046C39.3736 129.312 39.5836 129.774 39.6816 130.068C40.2136 129.144 40.7456 127.66 41.1376 126.12V133.064H41.9916V126.036C42.3416 126.708 42.7616 127.52 42.9296 127.954L43.4336 127.17ZM48.7536 126.05H50.2936V127.884H48.7536V126.05ZM47.9416 128.64H51.1476V125.28H47.9416V128.64ZM44.7496 126.05H46.2476V127.884H44.7496V126.05ZM43.9516 128.64H47.0736V125.28H43.9516V128.64ZM45.1416 128.962C44.6936 130.474 43.7416 131.678 42.4676 132.434C42.6916 132.602 43.0276 132.938 43.1816 133.12C43.9936 132.56 44.7216 131.804 45.2676 130.894C45.8276 131.3 46.4016 131.762 46.6956 132.098L47.2556 131.398C46.9056 131.048 46.2476 130.544 45.6736 130.18C45.8276 129.844 45.9536 129.508 46.0656 129.144L45.1416 128.962ZM49.0336 128.948C48.7396 130.46 47.9836 131.65 46.8496 132.392C47.0596 132.56 47.4236 132.896 47.5496 133.078C48.2636 132.574 48.8376 131.902 49.2576 131.104C50.0696 131.664 50.9376 132.378 51.4136 132.868L52.0436 132.154C51.5116 131.622 50.5036 130.866 49.6216 130.306C49.7756 129.914 49.8876 129.508 49.9856 129.074L49.0336 128.948ZM57.3154 122.088C57.0774 121.584 56.5174 120.856 55.9994 120.338L55.2294 120.828C55.7194 121.36 56.2654 122.13 56.5034 122.648L57.3154 122.088ZM58.8974 127.968C58.6034 127.66 57.5254 126.54 56.9794 126.022C57.6794 125.098 58.2954 124.09 58.7154 123.054L58.1694 122.648L57.9734 122.69H53.7454V123.642H57.4274C56.5314 125.378 54.9074 127.058 53.3674 127.982C53.5214 128.164 53.7594 128.696 53.8434 128.976C54.4874 128.556 55.1454 128.01 55.7754 127.366V133.064H56.7974V127.072C57.3294 127.66 57.9594 128.402 58.2394 128.808L58.8974 127.968ZM60.5074 126.176H64.5954V127.59H60.5074V126.176ZM60.5074 123.964H64.5954V125.364H60.5074V123.964ZM60.5074 121.766H64.5954V123.138H60.5074V121.766ZM64.2734 132.084C63.9794 132.084 63.9374 132.042 63.9374 131.72V128.444H65.5894V120.898H59.5414V128.444H60.8154C60.6334 130.376 60.1154 131.664 57.8894 132.35C58.0854 132.532 58.3654 132.882 58.4634 133.12C60.8994 132.266 61.5294 130.74 61.7674 128.444H62.9574V131.734C62.9574 132.728 63.1814 133.008 64.1334 133.008H65.2954C66.1074 133.008 66.3734 132.56 66.4574 130.754C66.1774 130.684 65.7854 130.516 65.5754 130.362C65.5334 131.902 65.4914 132.084 65.1974 132.084H64.2734ZM78.3372 124.328C78.1132 124.79 77.8192 125.252 77.4832 125.686L75.2992 125.812C75.7892 125.042 76.4192 123.936 76.8812 123.152H80.6192V122.186H77.4692L77.7772 122.074C77.6792 121.584 77.3572 120.828 77.0212 120.282L76.1252 120.548C76.4052 121.052 76.6572 121.71 76.7972 122.186H73.4092V123.152H75.8172C75.3692 123.95 74.6132 125.252 74.3472 125.546C74.1372 125.798 73.7732 125.882 73.5352 125.938C73.6052 126.162 73.7312 126.652 73.7732 126.904C73.9972 126.806 74.3892 126.736 76.7412 126.568C75.7472 127.618 74.4872 128.556 73.1572 129.2C73.3392 129.396 73.6052 129.732 73.7172 129.942C76.0832 128.752 78.1132 126.75 79.2612 124.636L78.3372 124.328ZM71.2952 122.018C71.0712 121.528 70.6372 120.8 70.2312 120.226L69.4612 120.632C69.8392 121.206 70.2732 121.99 70.4692 122.508L71.2952 122.018ZM73.1152 122.662H67.9352V123.516H73.1152V122.662ZM68.5092 127.142H72.6112V126.316H68.5092V127.142ZM68.5092 124.496V125.322H72.5972V124.496H68.5092ZM71.7292 131.356H69.4052V129.046H71.7292V131.356ZM79.2892 126.82C78.1552 129.13 75.6632 131.118 72.6112 132.21V128.178H68.5092V132.882H69.4052V132.224H72.5832L72.3872 132.294C72.5692 132.504 72.8492 132.868 72.9612 133.106C74.6412 132.49 76.1532 131.636 77.4132 130.586C78.3372 131.412 79.3452 132.42 79.8492 133.078L80.6612 132.42C80.1012 131.762 79.0512 130.754 78.1132 129.97C79.0092 129.13 79.7372 128.192 80.2972 127.17L79.2892 126.82ZM93.2689 123.698C92.9889 124.664 92.5689 125.714 92.2329 126.372C92.4849 126.484 92.8769 126.694 93.1009 126.82C93.5909 125.854 94.2069 124.384 94.5709 123.026L93.8009 122.62L93.6049 122.676H88.5369C88.7469 121.976 88.9429 121.248 89.0829 120.506L87.9629 120.296C87.5429 122.508 86.7729 124.692 85.7089 126.05C85.9889 126.176 86.5069 126.456 86.7309 126.638C87.2909 125.84 87.7669 124.832 88.2009 123.698H93.2689ZM86.2969 122.48H82.6289V123.488H86.2969V122.48ZM86.7169 128.22H82.3209V129.242H86.7169V128.22ZM90.4409 124.286H89.3489V125.35C89.3489 127.352 89.0409 130.264 85.0229 132.294C85.2609 132.476 85.6389 132.868 85.8069 133.106C88.4809 131.706 89.6289 129.914 90.1189 128.206C90.9169 130.46 92.2189 132.126 94.3189 132.98C94.4729 132.686 94.7949 132.28 95.0049 132.07C92.4569 131.188 91.0709 128.948 90.4269 125.994C90.4409 125.798 90.4409 125.588 90.4409 125.378V124.286ZM109.125 120.898H102.125V121.864H109.125V120.898ZM107.571 126.82H103.539V124.286H107.571V126.82ZM108.579 123.362H102.573V127.744H108.579V123.362ZM104.841 131.188C104.687 130.404 104.267 129.214 103.833 128.318L102.965 128.542C103.371 129.452 103.791 130.67 103.917 131.44L104.841 131.188ZM101.761 130.558C101.467 130.138 100.221 128.458 99.7167 127.842C99.7867 127.478 99.8287 127.114 99.8567 126.764H101.831V125.826H99.9127C99.9267 125.63 99.9267 125.462 99.9267 125.28V123.11H101.649V122.172H98.4427C98.5687 121.626 98.6667 121.052 98.7507 120.464L97.7987 120.296C97.5747 121.962 97.1687 123.628 96.5107 124.734C96.7347 124.846 97.1547 125.126 97.3087 125.28C97.6587 124.692 97.9387 123.936 98.1907 123.11H98.9607V125.266C98.9607 125.448 98.9607 125.63 98.9467 125.826H96.5527V126.764H98.9047C98.7367 128.57 98.1907 130.6 96.4827 132.14C96.6647 132.266 97.0427 132.644 97.1827 132.84C98.4007 131.748 99.1007 130.362 99.4787 128.962C100.039 129.746 100.767 130.838 101.075 131.398L101.761 130.558ZM106.899 131.678C107.347 130.74 107.823 129.494 108.215 128.458L107.165 128.22C106.899 129.256 106.367 130.698 105.905 131.678H101.565V132.658H109.279V131.678H106.899ZM123.441 121.108H120.235V122.046H123.441V121.108ZM113.025 120.282C112.521 121.206 111.541 122.34 110.659 123.054C110.813 123.25 111.093 123.628 111.219 123.838C112.199 123.012 113.291 121.752 113.977 120.632L113.025 120.282ZM115.237 127.786V126.792H116.679V127.786H115.237ZM115.237 125.182H116.679V126.148H115.237V125.182ZM118.933 125.182V126.148H117.533V125.182H118.933ZM118.933 127.786H117.533V126.792H118.933V127.786ZM120.025 131.062L117.533 131.244V130.18H119.787V129.382H117.533V128.472H119.731V124.51H117.533V123.544H120.193V122.704H117.533V121.556C118.387 121.444 119.199 121.318 119.843 121.164L119.311 120.394C118.107 120.688 115.993 120.926 114.243 121.052C114.341 121.262 114.453 121.584 114.481 121.808C115.181 121.78 115.937 121.724 116.679 121.654V122.704H114.215V123.376L113.319 123.068C112.633 124.538 111.541 126.022 110.491 127.016C110.687 127.226 110.995 127.716 111.107 127.926C111.499 127.52 111.919 127.03 112.311 126.498V133.036H113.263V125.112C113.613 124.552 113.935 123.978 114.215 123.404V123.544H116.679V124.51H114.467V128.472H116.679V129.382H114.439V130.18H116.679V131.314C115.671 131.384 114.761 131.44 114.033 131.482L114.145 132.336C115.727 132.224 117.925 132.056 120.025 131.874V131.062ZM123.721 124.636H120.039V125.574H121.509V131.888C121.509 132.056 121.467 132.098 121.299 132.098C121.117 132.112 120.585 132.112 119.955 132.098C120.095 132.364 120.235 132.798 120.263 133.064C121.103 133.064 121.663 133.05 122.027 132.896C122.377 132.728 122.475 132.42 122.475 131.888V125.574H123.721V124.636ZM127.788 129.228V124.65H129.174V123.684H127.788V120.45H126.822V123.684H125.324V124.65H126.822V129.578C126.192 129.802 125.632 130.012 125.156 130.152L125.492 131.188C126.612 130.754 128.026 130.18 129.37 129.634L129.188 128.71L127.788 129.228ZM135.53 128.584V129.746H131.442V128.584H135.53ZM131.442 131.566V130.516H135.53V131.566H131.442ZM130.476 133.036H131.442V132.378H135.53V133.036H136.524V127.786H130.476V133.036ZM130.728 120.688C131.092 121.192 131.512 121.878 131.708 122.312L132.604 121.878C132.422 121.43 131.988 120.786 131.596 120.324L130.728 120.688ZM131.05 123.684C131.47 124.3 131.862 125.14 132.002 125.686L132.632 125.406C132.478 124.874 132.072 124.062 131.652 123.46L131.05 123.684ZM134.704 125.714C135.096 125.21 135.572 124.412 135.978 123.726L135.264 123.46C135.026 124.048 134.536 124.944 134.172 125.476L134.704 125.714ZM136.286 126.176H133.878V123.054H136.286V126.176ZM130.616 123.054H133.066V126.176H130.616V123.054ZM135.264 122.312C135.642 121.822 136.062 121.206 136.44 120.632L135.376 120.254C135.096 120.87 134.606 121.752 134.186 122.312H129.748V126.918H137.182V122.312H135.264ZM149.286 122.116H142.356V121.36H149.286V122.116ZM149.286 123.488H142.356V122.718H149.286V123.488ZM150.308 120.73H141.362V124.118H150.308V120.73ZM152.086 124.692H139.626V125.49H152.086V124.692ZM142.076 128.962V128.164H145.324V128.962H142.076ZM142.076 126.764H145.324V127.548H142.076V126.764ZM149.706 127.548H146.318V126.764H149.706V127.548ZM149.706 128.962H146.318V128.164H149.706V128.962ZM146.318 131.916V131.104H151.022V130.376H146.318V129.606H150.728V126.12H141.11V129.606H145.324V130.376H140.704V131.104H145.324V131.916H139.542V132.728H152.156V131.916H146.318ZM158.31 126.386H155.37V123.46H158.31V126.386ZM155.37 130.67V127.31H158.31V130.67H155.37ZM156.546 120.254C156.448 120.912 156.196 121.85 155.986 122.522H154.418V132.714H155.37V131.608H159.262V122.522H156.938C157.176 121.92 157.428 121.15 157.666 120.464L156.546 120.254ZM166.108 122.48H161.922C162.16 121.822 162.356 121.15 162.524 120.464L161.53 120.226C161.082 122.144 160.326 124.076 159.388 125.308C159.612 125.448 160.06 125.728 160.242 125.896C160.732 125.238 161.166 124.384 161.558 123.446H165.114C164.932 129.018 164.722 131.146 164.26 131.636C164.12 131.818 163.966 131.846 163.686 131.846C163.364 131.846 162.524 131.846 161.614 131.762C161.81 132.056 161.936 132.476 161.964 132.784C162.748 132.826 163.546 132.854 164.036 132.798C164.512 132.756 164.834 132.63 165.142 132.238C165.702 131.552 165.884 129.396 166.108 123.012V122.48ZM163.896 128.78C163.448 127.954 162.482 126.61 161.698 125.616L160.886 126.092C161.656 127.1 162.594 128.486 163.014 129.326L163.896 128.78ZM176.854 120.982C177.736 121.458 178.8 122.172 179.332 122.662L179.976 121.948C179.43 121.458 178.338 120.786 177.47 120.352L176.854 120.982ZM178.842 124.762C178.408 126.176 177.806 127.436 177.05 128.542C176.672 127.212 176.42 125.546 176.28 123.684H180.732V122.662H176.21C176.168 121.906 176.154 121.122 176.154 120.31H175.076C175.09 121.108 175.104 121.892 175.16 122.662H169.322V126.568C169.322 128.374 169.196 130.768 168.048 132.476C168.286 132.602 168.734 132.966 168.916 133.176C170.176 131.356 170.386 128.542 170.386 126.582V126.47H172.934C172.878 128.878 172.808 129.76 172.612 129.97C172.528 130.096 172.388 130.124 172.192 130.124C171.954 130.124 171.352 130.11 170.708 130.054C170.876 130.32 170.988 130.712 171.002 131.034C171.688 131.062 172.318 131.062 172.668 131.034C173.06 130.992 173.298 130.894 173.508 130.628C173.802 130.264 173.886 129.088 173.956 125.952V125.504H170.386V123.684H175.216C175.398 125.938 175.734 127.996 176.238 129.578C175.342 130.628 174.264 131.496 173.018 132.168C173.256 132.364 173.62 132.784 173.774 132.994C174.852 132.364 175.818 131.58 176.658 130.67C177.302 132.112 178.142 132.966 179.22 132.966C180.284 132.966 180.662 132.28 180.858 129.9C180.578 129.816 180.2 129.578 179.962 129.34C179.864 131.202 179.696 131.93 179.304 131.93C178.59 131.93 177.946 131.132 177.428 129.76C178.464 128.43 179.29 126.834 179.892 125.028L178.842 124.762ZM185.107 125.588V124.146H188.257V125.588H185.107ZM185.107 121.864H188.257V123.292H185.107V121.864ZM192.513 123.292H189.335V121.864H192.513V123.292ZM192.513 125.588H189.335V124.146H192.513V125.588ZM194.893 128.626V127.66H189.335V126.484H193.619V120.954H184.057V126.484H188.257V127.66H182.699V128.626H187.389C186.157 129.956 184.169 131.16 182.349 131.748C182.573 131.958 182.909 132.364 183.049 132.602C184.869 131.916 186.913 130.586 188.257 129.06V133.078H189.335V128.99C190.707 130.474 192.765 131.832 194.543 132.546C194.697 132.294 195.019 131.888 195.257 131.678C193.493 131.09 191.491 129.914 190.203 128.626H194.893ZM201.957 129.368C203.427 128.85 204.379 127.702 204.379 126.19C204.379 125.21 203.959 124.58 203.189 124.58C202.615 124.58 202.125 124.93 202.125 125.588C202.125 126.246 202.601 126.582 203.175 126.582C203.259 126.582 203.329 126.582 203.413 126.568C203.343 127.52 202.727 128.178 201.649 128.626L201.957 129.368ZM218.681 125.364C218.289 124.412 217.393 123.04 216.469 122.018L215.545 122.48C216.427 123.502 217.323 124.93 217.701 125.896L218.681 125.364ZM216.693 128.08C215.769 128.472 214.831 128.878 213.935 129.256L213.725 120.996L212.661 121.038L212.899 129.69C212.171 129.998 211.513 130.264 210.967 130.474L211.345 131.552C212.885 130.88 214.999 129.956 216.931 129.074L216.693 128.08ZM223.959 132.224C223.245 131.188 221.761 129.634 220.515 128.374C221.495 126.498 222.027 124.118 222.363 121.122L221.229 121.01C220.613 127.058 219.129 130.446 214.327 132.21C214.579 132.42 215.013 132.896 215.153 133.106C217.337 132.196 218.863 130.978 219.955 129.326C221.145 130.586 222.447 132.056 223.091 133.022L223.959 132.224ZM233.571 123.082H234.593V122.102H237.827V121.192H234.593V120.296H233.571V121.192H232.003V122.102H233.571V123.082ZM234.383 128.71C234.173 129.452 233.697 130.236 233.571 130.446C233.431 130.656 233.305 130.796 233.151 130.824C233.249 130.978 233.361 131.314 233.403 131.454C233.613 131.37 233.949 131.3 235.979 131.104C236.049 131.258 236.119 131.398 236.175 131.524L236.791 131.258C236.581 130.81 236.175 130.054 235.825 129.48L235.223 129.676C235.377 129.956 235.559 130.25 235.713 130.558L234.187 130.698C234.551 130.194 234.915 129.536 235.167 128.906L234.383 128.71ZM228.797 123.082H229.805V122.088H231.499V121.192H229.805V120.296H228.797V121.192H225.661V122.088H228.797V123.082ZM227.901 126.484H231.149V127.688H227.901V126.484ZM227.901 124.552H231.149V125.728H227.901V124.552ZM235.601 125.728H232.185V124.552H235.601V125.728ZM235.601 127.688H232.185V126.484H235.601V127.688ZM233.655 131.986C232.843 131.986 232.703 131.888 232.703 131.482V128.472H236.651V123.768H231.807C231.975 123.418 232.185 123.026 232.367 122.634L231.303 122.438C231.191 122.802 231.009 123.348 230.813 123.768H226.879V128.472H229.665C229.371 130.586 228.587 131.748 225.241 132.322C225.437 132.532 225.717 132.938 225.801 133.204C229.413 132.476 230.365 131.02 230.687 128.472H231.709V131.496C231.709 132.574 232.115 132.854 233.585 132.854H236.441C237.743 132.854 238.065 132.364 238.191 130.32C237.911 130.25 237.519 130.124 237.281 129.942C237.211 131.706 237.099 131.986 236.371 131.986H233.655ZM245.913 123.558H242.525V122.62H245.913V123.558ZM245.913 125.224H242.525V124.3H245.913V125.224ZM245.913 126.932H242.525V125.966H245.913V126.932ZM241.503 128.192H242.525V127.772H251.877V126.932H246.921V125.966H250.897V125.224H246.921V124.3H250.855V123.558H246.921V122.62H251.415V121.78H247.299C247.131 121.332 246.795 120.716 246.487 120.226L245.535 120.52C245.759 120.898 245.997 121.374 246.165 121.78H243.057C243.365 121.346 243.617 120.884 243.855 120.464L242.791 120.268C242.189 121.486 241.069 123.054 239.543 124.216C239.781 124.356 240.117 124.664 240.285 124.888C240.719 124.524 241.139 124.146 241.503 123.754V128.192ZM243.743 130.39C242.847 131.02 241.111 131.566 239.683 131.832C239.893 132.028 240.187 132.378 240.327 132.63C241.755 132.294 243.561 131.552 244.541 130.782L243.743 130.39ZM247.355 130.964C248.741 131.426 250.617 132.112 251.555 132.532L252.129 131.762C251.149 131.342 249.287 130.712 247.929 130.306L247.355 130.964ZM246.529 128.85V127.898H245.507V128.85H239.851V129.704H245.507V133.064H246.529V129.704H252.269V128.85H246.529ZM257.4 124.258H259.388V123.278H257.4V120.282H256.406V123.278H254.138V124.258H256.28C255.79 126.19 254.796 128.36 253.83 129.522C253.998 129.774 254.264 130.18 254.376 130.474C255.132 129.522 255.86 127.968 256.406 126.358V133.05H257.4V126.694C257.932 127.38 258.562 128.248 258.814 128.71L259.458 127.856C259.178 127.478 257.904 126.022 257.4 125.504V124.258ZM260.998 131.16V128.738H265.24V131.16H260.998ZM265.24 122.088V124.426H260.998V122.088H265.24ZM260.998 125.378H265.24V127.786H260.998V125.378ZM260.004 121.108V132.966H260.998V132.126H265.24V132.924H266.262V121.108H260.004ZM269.938 123.39H273.06V124.384H269.938V123.39ZM273.06 121.64V122.69H269.938V121.64H273.06ZM273.242 127.576C273.34 127.744 273.438 127.94 273.536 128.136L272.122 128.248C272.836 127.716 273.564 127.03 274.236 126.316L273.62 125.91C273.438 126.162 273.228 126.4 273.004 126.638L271.968 126.68C272.346 126.33 272.738 125.882 273.06 125.406L272.584 125.154H274.04V120.884H268.944V133.078H269.938V125.154H272.346C272.024 125.728 271.492 126.288 271.352 126.428C271.184 126.582 271.044 126.652 270.89 126.68C270.988 126.876 271.072 127.226 271.128 127.394C271.254 127.338 271.492 127.296 272.43 127.226C272.066 127.59 271.744 127.842 271.59 127.954C271.296 128.178 271.044 128.332 270.834 128.346C270.918 128.528 271.03 128.892 271.044 129.032C271.254 128.962 271.59 128.892 273.802 128.682C273.858 128.85 273.928 129.004 273.97 129.116H273.438V130.348C273.438 130.446 273.438 130.53 273.424 130.628H272.108V129.326H271.394V131.286H273.256C273.046 131.706 272.598 132.084 271.702 132.364C271.87 132.504 272.108 132.798 272.206 132.98C273.942 132.364 274.194 131.412 274.194 130.362V129.116H274.054L274.558 128.92C274.418 128.528 274.082 127.884 273.802 127.394L273.242 127.576ZM277.96 131.72V129.34H277.218V130.628H275.874V129.116H275.09V132.868H275.874V131.286H277.218V131.72H277.96ZM276.28 124.384V123.39H279.5V124.384H276.28ZM279.5 121.64V122.69H276.28V121.64H279.5ZM280.508 120.884H275.286V125.154H276.154C275.818 125.742 275.3 126.288 275.146 126.442C274.992 126.596 274.852 126.666 274.684 126.694C274.782 126.89 274.894 127.24 274.936 127.408C275.062 127.338 275.286 127.296 276.252 127.226C275.86 127.576 275.552 127.856 275.398 127.968C275.104 128.192 274.866 128.318 274.656 128.346C274.726 128.542 274.838 128.892 274.866 129.046C275.048 128.948 275.398 128.906 277.596 128.682C277.694 128.864 277.764 129.018 277.82 129.158L278.38 128.906C278.212 128.528 277.876 127.87 277.568 127.394L277.036 127.576C277.134 127.744 277.232 127.94 277.33 128.136L275.93 128.248C276.658 127.716 277.386 127.03 278.044 126.302L277.442 125.91C277.246 126.162 277.05 126.4 276.826 126.638L275.79 126.694C276.154 126.33 276.546 125.896 276.882 125.42L276.364 125.154H279.5V131.762C279.5 131.944 279.444 132.014 279.262 132.014C279.08 132.028 278.492 132.028 277.876 132C278.016 132.266 278.142 132.756 278.198 133.036C279.066 133.036 279.654 133.008 280.018 132.826C280.396 132.658 280.508 132.336 280.508 131.762V120.884ZM287.152 126.386H284.212V123.46H287.152V126.386ZM284.212 130.67V127.31H287.152V130.67H284.212ZM285.388 120.254C285.29 120.912 285.038 121.85 284.828 122.522H283.26V132.714H284.212V131.608H288.104V122.522H285.78C286.018 121.92 286.27 121.15 286.508 120.464L285.388 120.254ZM294.95 122.48H290.764C291.002 121.822 291.198 121.15 291.366 120.464L290.372 120.226C289.924 122.144 289.168 124.076 288.23 125.308C288.454 125.448 288.902 125.728 289.084 125.896C289.574 125.238 290.008 124.384 290.4 123.446H293.956C293.774 129.018 293.564 131.146 293.102 131.636C292.962 131.818 292.808 131.846 292.528 131.846C292.206 131.846 291.366 131.846 290.456 131.762C290.652 132.056 290.778 132.476 290.806 132.784C291.59 132.826 292.388 132.854 292.878 132.798C293.354 132.756 293.676 132.63 293.984 132.238C294.544 131.552 294.726 129.396 294.95 123.012V122.48ZM292.738 128.78C292.29 127.954 291.324 126.61 290.54 125.616L289.728 126.092C290.498 127.1 291.436 128.486 291.856 129.326L292.738 128.78ZM18.652 149.206H15.264V146.014H18.652V149.206ZM14.27 145.076V150.13H19.674V145.076H14.27ZM12.254 152.328V142.906H21.704V152.328H12.254ZM11.204 141.87V154.064H12.254V153.308H21.704V154.064H22.81V141.87H11.204ZM31.434 143.816V142.864H33.156V143.816H31.434ZM35.858 142.864V143.816H34.108V142.864H35.858ZM33.156 145.188H29.894V145.986H37.384V145.188H34.108V144.502H36.782V142.192H34.108V141.268H33.156V142.192H30.552V144.502H33.156V145.188ZM31.532 150.2H35.718V151.054H31.532V150.2ZM31.532 148.73H35.718V149.556H31.532V148.73ZM31.532 147.288H35.718V148.086H31.532V147.288ZM36.698 151.712V146.616H30.594V151.712H36.698ZM29.95 143.27C29.502 142.92 28.662 142.374 27.962 141.954C28.06 141.786 28.158 141.632 28.242 141.478L27.388 141.184C26.758 142.36 25.596 143.466 24.504 144.166C24.658 144.362 24.896 144.866 24.966 145.076C25.862 144.46 26.758 143.592 27.472 142.654C28.2 143.116 29.04 143.69 29.474 144.068L29.95 143.27ZM26.394 144.656H28.76V143.9H26.394V144.656ZM28.494 146.294V147.4H26.338V146.294H28.494ZM26.338 149.388V148.184H28.494V149.388H26.338ZM29.922 153.252C29.628 152.566 28.984 151.348 28.466 150.466L27.738 150.76C27.92 151.096 28.116 151.446 28.298 151.824L26.338 152.58V150.186H29.418V145.51H25.414V152.398C25.414 152.902 25.12 153.098 24.91 153.182C25.064 153.392 25.218 153.84 25.274 154.064C25.526 153.868 25.904 153.672 28.648 152.538C28.858 152.972 29.026 153.35 29.138 153.658L29.922 153.252ZM32.12 151.894C31.602 152.496 30.692 153.014 29.852 153.378C30.062 153.546 30.426 153.896 30.566 154.092C31.448 153.658 32.456 152.93 33.058 152.202L32.12 151.894ZM34.276 152.314C35.158 152.86 36.138 153.574 36.726 154.092L37.482 153.532C36.852 153.014 35.83 152.328 34.892 151.782L34.276 152.314ZM43.922 150.536C43.768 150.984 43.446 151.488 42.746 151.936C42.172 151.698 41.57 151.474 40.996 151.292C41.136 151.096 41.29 150.886 41.43 150.662L43.922 150.536ZM40.17 147.288H41.92V148.156H40.17V147.288ZM44.538 147.288V148.156H42.746V147.288H44.538ZM40.562 145.272V144.432H41.92V145.272H40.562ZM41.92 142.99V143.732H40.562V142.99H41.92ZM44.202 142.99V143.732H42.746V142.99H44.202ZM42.746 145.272V144.432H44.202V145.272H42.746ZM45.588 150.438L45.602 149.71L44.902 149.752V149.682V149.136H44.048V149.654V149.794C43.32 149.836 42.606 149.878 41.92 149.906C42.144 149.556 42.34 149.206 42.508 148.856H45.462V146.574H42.746V146H45.126V144.488H46.078V143.69H45.126V142.262H42.746V141.282H41.92V142.262H39.666V143.69H38.728V144.488H39.666V146H41.92V146.574H39.274V148.856H41.556C41.36 149.22 41.136 149.584 40.926 149.962C40.072 149.99 39.288 150.032 38.658 150.046L38.756 150.816L40.408 150.732C40.17 151.068 39.918 151.376 39.694 151.656C40.394 151.852 41.136 152.118 41.85 152.426C41.066 152.776 39.96 153.098 38.476 153.35C38.63 153.532 38.826 153.84 38.91 154.05C40.674 153.728 41.934 153.308 42.83 152.846C43.502 153.154 44.104 153.476 44.552 153.756L45.238 153.154C44.818 152.888 44.258 152.608 43.628 152.328C44.398 151.726 44.706 151.096 44.832 150.48L45.588 150.438ZM49.424 144.894C49.256 146.448 49.018 147.834 48.612 149.038C48.192 147.792 47.884 146.378 47.674 144.894H49.424ZM51.314 144.894V143.956H47.898C48.08 143.172 48.234 142.346 48.346 141.534L47.464 141.394C47.142 143.69 46.596 145.958 45.672 147.428C45.882 147.568 46.232 147.918 46.386 148.058C46.666 147.61 46.904 147.092 47.128 146.518C47.38 147.876 47.702 149.122 48.15 150.214C47.548 151.53 46.708 152.58 45.518 153.364C45.714 153.546 46.008 153.952 46.092 154.148C47.184 153.378 47.996 152.412 48.626 151.264C49.186 152.37 49.914 153.28 50.824 153.91C50.964 153.658 51.244 153.35 51.454 153.168C50.46 152.538 49.704 151.516 49.088 150.256C49.732 148.758 50.096 146.98 50.362 144.894H51.314ZM56.802 148.142L56.676 147.176L55.29 147.61V145.062H56.564V144.096H55.29V141.296H54.338V144.096H52.63V145.062H54.338V147.918C53.624 148.142 52.966 148.324 52.434 148.478L52.7 149.486C53.204 149.332 53.75 149.136 54.338 148.94V152.888C54.338 153.084 54.268 153.14 54.1 153.14C53.946 153.14 53.386 153.14 52.784 153.126C52.924 153.406 53.05 153.826 53.092 154.078C53.974 154.092 54.492 154.05 54.814 153.896C55.164 153.714 55.29 153.448 55.29 152.888V148.632L56.802 148.142ZM57.992 144.488H60.134V145.356L58.314 145.524L58.412 146.322L60.134 146.154C60.148 146.91 60.358 147.246 61.24 147.246H63.382C63.76 147.246 64.194 147.232 64.39 147.176C64.362 146.98 64.334 146.728 64.32 146.504C64.096 146.56 63.592 146.56 63.326 146.56H61.38C61.058 146.56 61.002 146.462 61.002 146.126V145.944L63.34 145.72L63.27 145.076L61.002 145.286V144.488H64.152C64.04 144.88 63.9 145.3 63.774 145.58L64.572 145.762C64.81 145.286 65.062 144.502 65.244 143.83L64.614 143.676L64.446 143.704H61.24V142.934H64.516V142.164H61.24V141.31H60.232V143.704H57.082V147.652C57.082 149.472 56.942 151.838 55.696 153.532C55.92 153.63 56.298 153.91 56.466 154.064C57.796 152.286 57.992 149.612 57.992 147.652V144.488ZM64.572 148.94C63.942 149.332 62.892 149.864 62.024 150.242C61.828 149.864 61.562 149.528 61.226 149.22C61.576 148.996 61.912 148.772 62.164 148.534H65.216V147.806H58.384V148.534H61.184C60.4 149.066 59.224 149.542 58.216 149.822C58.3 149.962 58.468 150.242 58.552 150.382C59.21 150.2 59.938 149.906 60.596 149.57C60.736 149.696 60.848 149.836 60.96 149.976C60.218 150.536 58.972 151.096 57.978 151.348C58.132 151.488 58.3 151.754 58.384 151.936C59.35 151.6 60.498 151.012 61.282 150.452C61.366 150.62 61.45 150.788 61.492 150.942C60.666 151.768 59.056 152.664 57.782 153.056C57.95 153.21 58.132 153.504 58.23 153.686C59.364 153.224 60.736 152.412 61.674 151.628C61.786 152.328 61.646 152.944 61.436 153.154C61.296 153.336 61.114 153.35 60.89 153.35C60.694 153.35 60.4 153.336 60.078 153.308C60.218 153.518 60.288 153.854 60.302 154.064C60.582 154.078 60.834 154.092 61.044 154.092C61.478 154.092 61.744 153.994 62.038 153.728C62.528 153.28 62.724 152.006 62.262 150.788C62.472 150.704 62.696 150.62 62.92 150.536C63.284 151.866 63.97 153.084 64.936 153.7C65.062 153.476 65.342 153.168 65.538 153.014C64.586 152.524 63.914 151.446 63.564 150.256C64.138 150.004 64.698 149.71 65.174 149.444L64.572 148.94ZM78.67 142.78C78.152 142.318 77.116 141.716 76.262 141.338L75.66 141.982C76.514 142.388 77.536 143.032 78.026 143.508L78.67 142.78ZM73.07 150.816C70.802 151.292 68.422 151.768 66.91 152.062L67.106 153.112C68.73 152.748 71.012 152.258 73.154 151.796L73.07 150.816ZM71.6 149.108H68.758V146.686H71.6V149.108ZM67.792 145.776V150.004H72.622V145.776H67.792ZM77.466 145.538C77.018 146.994 76.416 148.282 75.66 149.43C75.31 148.072 75.072 146.392 74.932 144.544H79.062V143.522H74.862C74.834 142.808 74.82 142.08 74.82 141.324H73.728C73.742 142.066 73.756 142.794 73.798 143.522H66.98V144.544H73.854C74.036 146.812 74.344 148.884 74.834 150.522C73.91 151.642 72.79 152.566 71.474 153.266C71.712 153.448 72.118 153.854 72.286 154.064C73.392 153.406 74.372 152.608 75.24 151.656C75.87 153.168 76.71 154.078 77.76 154.078C78.838 154.078 79.23 153.392 79.412 150.998C79.118 150.9 78.74 150.662 78.502 150.41C78.418 152.272 78.25 153 77.858 153C77.172 153 76.542 152.132 76.024 150.69C77.074 149.304 77.9 147.666 78.502 145.79L77.466 145.538ZM81.75 153.7C82.464 153.042 83.038 152.006 83.43 151.166L82.562 150.774C82.226 151.586 81.61 152.594 80.91 153.21L81.75 153.7ZM90.374 147.792H83.682V146.826H90.374V147.792ZM90.374 149.444H83.682V148.478H90.374V149.444ZM91.396 146.112H82.688V150.158H86.202L85.726 150.606C86.496 151.054 87.448 151.712 87.896 152.174L88.54 151.53C88.106 151.124 87.266 150.55 86.538 150.158H91.396V146.112ZM86.062 153.084C85.334 153.084 85.208 153.014 85.208 152.692V150.886H84.186V152.692C84.186 153.686 84.564 153.952 85.978 153.952H88.61C89.73 153.952 90.052 153.574 90.164 152.034C89.898 151.964 89.492 151.824 89.268 151.67C89.198 152.916 89.114 153.084 88.512 153.084H86.062ZM90.36 151.012C91.06 151.768 91.83 152.79 92.138 153.49L93.02 153.042C92.67 152.356 91.886 151.348 91.186 150.648L90.36 151.012ZM89.254 143.172C89.1 143.578 88.848 144.124 88.61 144.558H85.376C85.264 144.152 85.012 143.592 84.76 143.172H89.254ZM89.674 144.558C89.884 144.194 90.108 143.788 90.332 143.354L89.52 143.172H92.306V142.318H87.84C87.672 141.954 87.448 141.506 87.21 141.184L86.202 141.394C86.37 141.674 86.552 141.996 86.692 142.318H81.694V143.172H84.676L83.794 143.368C84.004 143.732 84.186 144.194 84.298 144.558H81.064V145.412H93.02V144.558H89.674ZM97.626 147.33H104.374V148.786H97.626V147.33ZM97.626 145.006H104.374V146.448H97.626V145.006ZM97.626 142.71H104.374V144.138H97.626V142.71ZM103.66 152.972C103.058 152.972 102.946 152.902 102.946 152.496V149.71H105.424V141.772H96.618V149.71H98.508C98.214 151.502 97.472 152.594 94.602 153.168C94.812 153.378 95.106 153.812 95.19 154.078C98.368 153.35 99.264 151.95 99.6 149.71H101.896V152.51C101.896 153.644 102.246 153.952 103.562 153.952H105.816C106.992 153.952 107.3 153.448 107.426 151.418C107.132 151.348 106.684 151.18 106.46 150.998C106.404 152.72 106.292 152.972 105.732 152.972H103.66Z" fill="white"/>
<circle cx="153" cy="36" r="36" fill="#13D1FF"/>
<path d="M164.647 44.9278L159.429 39.7107C161.026 37.7361 161.989 35.225 161.989 32.4946C161.989 26.1561 156.833 21 150.495 21C144.156 21 139 26.1561 139 32.4946C139 38.8331 144.156 43.9892 150.495 43.9892C153.225 43.9892 155.736 43.0263 157.711 41.4294L162.928 46.6465C163.159 46.8781 163.476 47 163.781 47C164.086 47 164.403 46.8781 164.634 46.6465C165.11 46.1711 165.11 45.4032 164.634 44.94L164.647 44.9278ZM141.414 32.4946C141.414 27.4848 145.485 23.4135 150.495 23.4135C155.504 23.4135 159.576 27.4848 159.576 32.4946C159.576 37.5045 155.504 41.5757 150.495 41.5757C145.485 41.5757 141.414 37.5045 141.414 32.4946Z" fill="#00092B"/>
</svg>
